<?xml version="1.0" encoding="utf-8"?>
<!-- Generator: Adobe Illustrator 24.3.0, SVG Export Plug-In . SVG Version: 6.00 Build 0)  -->
<svg version="1.1" id="Layer_1" xmlns="http://www.w3.org/2000/svg" xmlns:xlink="http://www.w3.org/1999/xlink" x="0px" y="0px"
	 viewBox="0 0 4000 4000" style="enable-background:new 0 0 4000 4000;" xml:space="preserve">
<style type="text/css">
	.st0{fill:#6CEFE6;}
	.st1{opacity:0.3;}
	.st2{fill:#102770;}
	.st3{fill:#418BF9;}
	.st4{opacity:0.55;}
	.st5{fill:#FFFFFF;}
	.st6{fill:#F43F08;}
	.st7{fill:#FAC100;}
	.st8{opacity:0.25;}
	.st9{fill:#3CCE54;}
	.st10{opacity:0.4;}
	.st11{fill:#00EDF9;}
	.st12{fill:#6C7A89;}
	.st13{fill:#B7BDCE;}
	.st14{fill:#263069;}
	.st15{fill:#959AAF;}
	.st16{fill:#27B5FC;}
	.st17{opacity:0.15;}
	.st18{fill:#FFD553;}
	.st19{fill:#FFB602;}
	.st20{opacity:0.6;}
	.st21{fill:#0BCBFF;}
	.st22{fill:url(#SVGID_1_);}
	.st23{fill:#F7710D;}
	.st24{fill:#01D3EC;}
	.st25{opacity:0.3;fill:#FFFFFF;}
	.st26{fill:#02DAFF;}
	.st27{fill:#FFD199;}
	.st28{fill:none;}
	.st29{fill:#4F4F70;}
	.st30{opacity:0.7;}
	.st31{fill:#000072;}
	.st32{fill:#5377FF;}
	.st33{fill:#7D8BB7;}
	.st34{fill:#F2355D;}
	.st35{fill:#9BAAE0;}
	.st36{fill:#262F6A;}
	.st37{fill:#FEB702;}
	.st38{opacity:0.65;}
	.st39{fill:#BFBFBF;}
	.st40{opacity:0.26;}
	.st41{opacity:0.75;}
	.st42{fill:#525F93;}
	.st43{opacity:0.2;}
	.st44{opacity:0.4;fill:url(#SVGID_2_);}
	.st45{opacity:0.4;fill:url(#SVGID_3_);}
	.st46{opacity:0.4;fill:url(#SVGID_4_);}
	.st47{opacity:0.4;fill:url(#SVGID_5_);}
	.st48{opacity:0.4;fill:url(#SVGID_6_);}
	.st49{opacity:0.4;fill:url(#SVGID_7_);}
	.st50{opacity:0.4;fill:url(#SVGID_8_);}
	.st51{opacity:0.3;fill:#102770;}
	.st52{fill:#1CDB7C;}
	.st53{opacity:0.55;fill:url(#SVGID_9_);}
	.st54{opacity:0.55;fill:url(#SVGID_10_);}
	.st55{opacity:0.55;fill:url(#SVGID_11_);}
	.st56{opacity:0.55;fill:url(#SVGID_12_);}
	.st57{fill:#DC9AFE;}
	.st58{opacity:0.4;fill:url(#SVGID_13_);}
	.st59{opacity:0.4;fill:url(#SVGID_14_);}
	.st60{opacity:0.55;fill:url(#SVGID_15_);}
	.st61{opacity:0.55;fill:url(#SVGID_16_);}
	.st62{opacity:0.55;fill:url(#SVGID_17_);}
	.st63{opacity:0.55;fill:url(#SVGID_18_);}
	.st64{opacity:0.55;fill:url(#SVGID_19_);}
	.st65{opacity:0.55;fill:url(#SVGID_20_);}
	.st66{fill:#FDD301;}
	.st67{fill:#FFCCBC;}
	.st68{fill:#C5CDE2;}
	.st69{opacity:0.4;fill:url(#SVGID_21_);}
	.st70{opacity:0.4;fill:url(#SVGID_22_);}
	.st71{opacity:0.55;fill:url(#SVGID_23_);}
	.st72{opacity:0.55;fill:url(#SVGID_24_);}
	.st73{opacity:0.55;fill:url(#SVGID_25_);}
	.st74{opacity:0.55;fill:url(#SVGID_26_);}
	.st75{opacity:0.55;fill:url(#SVGID_27_);}
	.st76{opacity:0.55;fill:url(#SVGID_28_);}
	.st77{fill:#66FEFF;}
</style>
<g>
	<g>
		<g>
			<rect class="st5" width="4000" height="4000"/>
		</g>
	</g>
	<g class="st1">
		<g>
			<ellipse class="st2" cx="2000" cy="3645.83" rx="788.64" ry="77.5"/>
		</g>
	</g>
	<g>
		<g>
			<circle class="st26" cx="1990" cy="2032.9" r="1155.63"/>
		</g>
	</g>
	<g>
		<g>
			<g>
				<path class="st32" d="M2420.41,994.32v200.54c0-21.29-23.05-41.27-63.4-58.47c-2.55-1.08-5.17-2.16-7.89-3.24
					c-5.68-2.27-11.69-4.48-17.94-6.58c-2.67-0.97-5.39-1.82-8.17-2.72c-3.07-1.02-6.24-1.99-9.42-2.95
					c-2.9-0.91-5.85-1.76-8.8-2.61c-7.04-1.99-14.3-3.92-21.85-5.79c-3.01-0.74-6.02-1.48-9.14-2.21c-0.57-0.17-1.14-0.28-1.76-0.4
					c-3.69-0.85-7.44-1.7-11.24-2.55c-0.06-0.06-0.11-0.06-0.17-0.06c-6.75-1.48-13.62-2.9-20.72-4.26
					c-8.8-1.7-17.88-3.35-27.25-4.94c-4.2-0.68-8.51-1.36-12.83-2.04c-8.57-1.36-17.43-2.67-26.4-3.86
					c-0.4-0.11-0.79-0.17-1.19-0.17c-7.95-1.08-16.06-2.1-24.29-3.06c-13.06-1.53-26.45-2.9-40.13-4.09
					c-3.52-0.34-7.1-0.62-10.67-0.91c-3.01-0.28-6.02-0.51-9.03-0.74c-7.32-0.57-14.7-1.08-22.14-1.53
					c-4.03-0.28-8.12-0.57-12.2-0.79c-0.85-0.06-1.76-0.06-2.61-0.17c-4.6-0.23-9.2-0.45-13.85-0.68
					c-3.46-0.17-6.93-0.34-10.44-0.45c-5.22-0.23-10.5-0.45-15.78-0.62c-6.36-0.23-12.77-0.4-19.24-0.51
					c-5.68-0.17-11.35-0.28-17.09-0.34c-3.07-0.06-6.13-0.11-9.2-0.11c-6.36-0.06-12.71-0.11-19.13-0.11
					c-100.36,0-193.45,7.72-270.02,20.83c-123.29,21.12-203.95,56.31-203.95,96.16V994.32c0-24.92,31.62-48.08,85.49-67.09
					c32.13-11.3,72.2-21.17,118.18-29.06c76.69-13.17,169.83-20.89,270.31-20.89c15.33,0,30.48,0.17,45.41,0.51
					c55.4,1.31,107.96,5,156.1,10.56c75.27,8.74,139.69,22.19,186.98,38.88c9.31,3.29,17.88,6.64,25.83,10.22
					C2398.79,954.3,2420.41,973.71,2420.41,994.32z"/>
			</g>
			<g>
				<path class="st2" d="M2422.91,1194.86h-5c0-19.49-21.4-38.91-61.89-56.17c-2.53-1.07-5.12-2.14-7.83-3.21
					c-5.77-2.3-11.76-4.5-17.81-6.54c-2.08-0.75-4.14-1.42-6.24-2.09l-1.92-0.62c-3.06-1.02-6.22-1.98-9.38-2.94
					c-2.9-0.91-5.83-1.75-8.76-2.6c-7.06-1.99-14.38-3.94-21.77-5.77c-2.99-0.73-6-1.47-9.11-2.21c-0.62-0.18-1.1-0.28-1.63-0.37
					c-3.8-0.87-7.54-1.73-11.34-2.57l-0.76-0.19c-6.54-1.42-13.19-2.79-20.06-4.11c-8.78-1.7-17.85-3.34-27.19-4.93
					c-4.17-0.67-8.49-1.36-12.8-2.04c-9.04-1.44-17.9-2.73-26.34-3.85c-0.53-0.13-0.7-0.15-0.86-0.15
					c-8.27-1.1-16.37-2.12-24.58-3.08c-12.86-1.51-26.34-2.89-40.06-4.09c-3.53-0.34-7.09-0.62-10.65-0.9
					c-2.82-0.27-5.61-0.48-8.4-0.69l-0.62-0.04c-7.31-0.57-14.68-1.08-22.1-1.53c-4.04-0.29-8.12-0.57-12.19-0.8l-0.88-0.04
					c-0.64-0.03-1.3-0.06-1.92-0.14l-14.49-0.71c-3.17-0.15-6.34-0.3-9.57-0.41l-0.56-0.02c-5.03-0.22-10.12-0.43-15.21-0.6
					c-6.35-0.23-12.75-0.4-19.21-0.51c-5.69-0.17-11.35-0.28-17.07-0.34c-3.07-0.06-6.12-0.11-9.17-0.11
					c-6.37-0.06-12.72-0.11-19.13-0.11c-96.92,0-190.14,7.19-269.6,20.8c-126.41,21.65-201.87,56.67-201.87,93.69h-5V994.32
					c0-25.31,30.14-49.33,87.15-69.45c32.52-11.44,72.42-21.25,118.59-29.17c79.71-13.69,173.33-20.92,270.73-20.92
					c15.22,0,30.52,0.17,45.47,0.51c54.09,1.28,106.68,4.84,156.33,10.58c75.08,8.72,139.92,22.21,187.52,39.01
					c9.87,3.49,18.38,6.86,26.02,10.29c40.56,17.98,61.13,37.89,61.13,59.16V1194.86z M1946.44,879.78
					c-97.12,0-190.44,7.21-269.88,20.85c-45.89,7.87-85.52,17.61-117.77,28.96c-54.05,19.08-83.82,42.07-83.82,64.74v182.76
					c18.78-32.94,89.73-61.77,201.03-80.84c79.73-13.65,173.25-20.86,270.44-20.86c6.42,0,12.79,0.05,19.15,0.11
					c3.06,0,6.14,0.05,9.22,0.11c5.73,0.06,11.42,0.17,17.11,0.34c6.46,0.11,12.89,0.28,19.26,0.51c5.1,0.16,10.2,0.38,15.26,0.6
					l0.54,0.02c3.22,0.11,6.42,0.26,9.61,0.42l14.7,0.73c0.69,0.08,1.19,0.1,1.69,0.12l0.96,0.05c4.07,0.22,8.17,0.51,12.21,0.8
					c7.42,0.45,14.81,0.96,22.15,1.53l0.62,0.04c2.82,0.21,5.63,0.43,8.45,0.7c3.55,0.28,7.14,0.57,10.67,0.9
					c13.75,1.21,27.28,2.58,40.18,4.1c8.24,0.97,16.38,1.99,24.34,3.07c0.28-0.05,0.92,0.07,1.54,0.24
					c8.13,1.05,17.03,2.36,26.11,3.8c4.31,0.68,8.63,1.36,12.83,2.05c9.41,1.6,18.51,3.25,27.32,4.95
					c7.02,1.35,13.82,2.75,20.51,4.21h0.8l0.29,0.26c3.59,0.8,7.13,1.61,10.62,2.41c0.61,0.11,1.26,0.24,1.92,0.44
					c2.98,0.7,6,1.44,9.01,2.18c7.44,1.85,14.82,3.8,21.94,5.81c2.98,0.86,5.95,1.71,8.87,2.63c3.18,0.97,6.38,1.94,9.47,2.97
					l1.89,0.62c2.15,0.69,4.27,1.38,6.35,2.13c6.09,2.05,12.17,4.28,18.01,6.61c2.73,1.08,5.36,2.17,7.93,3.26
					c31.17,13.29,51.22,27.66,59.93,42.91V994.32c0-18.84-20.11-37.72-58.17-54.59c-7.53-3.38-15.91-6.7-25.65-10.14
					c-47.25-16.68-111.72-30.08-186.43-38.75c-49.49-5.73-101.94-9.27-155.87-10.55C1976.88,879.95,1961.63,879.78,1946.44,879.78z"
					/>
			</g>
		</g>
		<g>
			<g>
				<path class="st32" d="M2420.41,1194.86l-46.09,71.8c0-17.31-16.92-33.66-46.83-48.08c-39.79-19.13-102.63-34.91-179.54-45.07
					c-47.4-6.24-100.13-10.39-156.1-11.81c-14.93-0.4-30.08-0.62-45.41-0.62c-90.65,0-174.66,6.93-243.85,18.85
					c-111.2,19.02-184.03,50.8-184.03,86.73l-46.09-71.8c0-39.85,80.66-75.04,203.95-96.16c76.57-13.11,169.66-20.83,270.02-20.83
					c15.33,0,30.48,0.17,45.41,0.57c55.4,1.25,107.96,4.94,156.1,10.5c87.76,10.22,160.75,26.85,209.06,47.45
					C2397.37,1153.6,2420.41,1173.58,2420.41,1194.86z"/>
			</g>
			<g>
				<path class="st2" d="M2371.82,1275.2v-8.53c0-15.66-15.71-31.51-45.42-45.83c-39.83-19.15-101.65-34.65-178.78-44.84
					c-48.89-6.45-101.32-10.41-155.84-11.79c-15.63-0.42-30.89-0.62-45.35-0.62c-87.83,0-172,6.5-243.43,18.81
					c-113.93,19.48-181.95,50.99-181.95,84.27v8.52l-51.09-79.59v-0.73c0-40.25,75.1-76.19,206.03-98.62
					c79.73-13.65,173.25-20.86,270.44-20.86c16.37,0,31.24,0.19,45.48,0.57c53.88,1.22,106.48,4.76,156.32,10.52
					c88.24,10.27,160.77,26.74,209.75,47.64c43.08,18.36,64.92,38.81,64.92,60.77v0.73L2371.82,1275.2z M1474.98,1194.15
					l41.96,65.37c8.28-33.54,74.75-63.15,185.22-82.05c71.7-12.35,156.17-18.88,244.28-18.88c14.5,0,29.8,0.21,45.48,0.62
					c54.69,1.39,107.3,5.36,156.36,11.83c77.65,10.26,139.99,25.92,180.3,45.3c27.72,13.36,43.62,27.86,47.38,43.17l41.95-65.36
					c-0.52-19.25-21.89-38.4-61.88-55.45c-48.54-20.71-120.59-37.05-208.36-47.27c-49.69-5.75-102.13-9.28-155.87-10.49
					c-14.2-0.38-29.03-0.57-45.35-0.57c-96.92,0-190.14,7.19-269.6,20.8C1551.25,1122.68,1475.95,1157.39,1474.98,1194.15z"/>
			</g>
		</g>
		<g>
			<g>
				<path class="st32" d="M2420.41,2711.29v200.6c0,24.92-31.62,48.02-85.49,67.04c-85.71,30.2-227.73,49.95-388.49,49.95
					s-302.77-19.75-388.49-49.95c-53.87-19.02-85.49-42.12-85.49-67.04v-200.6c0,64.6,212.18,116.99,473.97,116.99
					S2420.41,2775.88,2420.41,2711.29z"/>
			</g>
			<g>
				<path class="st2" d="M1946.44,3031.38c-154.74,0-300.28-18.73-389.32-50.09c-57.02-20.13-87.16-44.13-87.16-69.39v-200.6h5
					c0,63.13,211.5,114.49,471.47,114.49s471.47-51.36,471.47-114.49h5v200.6c0,25.27-30.14,49.26-87.15,69.39
					C2246.72,3012.65,2101.18,3031.38,1946.44,3031.38z M1474.97,2729.04v182.85c0,22.95,28.98,45.32,83.82,64.68
					c88.53,31.19,233.45,49.81,387.65,49.81s299.12-18.62,387.66-49.81c54.83-19.36,83.82-41.72,83.82-64.68v-182.85
					c-33.23,58.29-228.39,101.73-471.47,101.73S1508.2,2787.33,1474.97,2729.04z"/>
			</g>
		</g>
		<g>
			<g>
				<path class="st32" d="M2420.41,2711.29c0,64.6-212.18,116.99-473.97,116.99s-473.97-52.39-473.97-116.99l46.09-71.8
					c0,58.3,191.58,105.58,427.88,105.58s427.88-47.28,427.88-105.58L2420.41,2711.29z"/>
			</g>
			<g>
				<path class="st2" d="M1946.44,2830.78c-267.18,0-476.47-52.49-476.47-119.49v-0.73l51.09-79.59v8.52
					c0,56.84,190.82,103.08,425.38,103.08s425.38-46.24,425.38-103.08v-8.53l51.09,79.6v0.73
					C2422.91,2778.29,2213.62,2830.78,1946.44,2830.78z M1474.98,2712.01c1.59,62.8,212.48,113.77,471.46,113.77
					s469.87-50.97,471.46-113.77l-41.97-65.38c-14.2,57.15-197.74,100.93-429.5,100.93s-415.3-43.78-429.49-100.93L1474.98,2712.01z
					"/>
			</g>
		</g>
		<g>
			<g>
				<path class="st33" d="M2334.93,927.23c-72.32-25.49-184.71-43.54-314.64-48.53c-24.07-0.97-48.76-1.42-73.85-1.42
					c-160.75,0-302.77,19.75-388.49,49.95c10.9-169.89,130.84-310.04,290.57-351.42c31.28-8.12,64.09-12.43,97.92-12.43
					C2152.89,563.37,2321.87,724.07,2334.93,927.23z"/>
			</g>
			<g>
				<path class="st2" d="M2337.67,930.84l-3.57-1.25c-73.52-25.91-187.93-43.55-313.9-48.39c-23.48-0.94-48.29-1.42-73.75-1.42
					c-154.22,0-299.14,18.62-387.66,49.81l-3.57,1.25l0.24-3.77c10.84-169.04,128.37-311.17,292.44-353.68
					c31.99-8.3,65.15-12.51,98.54-12.51c206.05,0,377.79,160.85,390.98,366.19L2337.67,930.84z M1946.44,565.87
					c-32.97,0-65.7,4.16-97.29,12.35c-160.76,41.65-276.25,180.17-288.44,345.4c89.32-30.62,233.04-48.85,385.73-48.85
					c25.53,0,50.41,0.48,73.95,1.42c124.42,4.79,237.71,22.04,311.78,47.43C2317.3,722.71,2148.59,565.87,1946.44,565.87z"/>
			</g>
		</g>
		<g class="st4">
			<g>
				<path class="st5" d="M1869.81,877.27c12.89,0,25.71,0.11,38.31,0.4c-144.86,2.84-271.33,21.8-350.17,49.55
					c0.45-7.21,1.14-14.36,1.99-21.46C1643.04,888,1751.35,877.27,1869.81,877.27z"/>
			</g>
			<g>
				<path class="st2" d="M1555.22,930.84l0.24-3.77c0.44-6.99,1.09-14.05,2-21.6l0.21-1.77l1.75-0.38
					c86.12-18.41,196.35-28.54,310.39-28.54c13.96,0,26.51,0.13,38.37,0.4l-0.01,5c-140.67,2.75-268.02,20.77-349.39,49.41
					L1555.22,930.84z M1562.22,907.84c-0.63,5.45-1.13,10.66-1.51,15.79c57.19-19.6,135.93-34.11,225.56-42.02
					C1703.87,885.25,1626.4,894.25,1562.22,907.84z"/>
			</g>
		</g>
		<g class="st4">
			<g>
				<path class="st5" d="M2334.93,927.23c-22.54-7.95-48.99-15.16-78.62-21.46c-21.63-180.39-166.6-322.75-348.13-340.52
					c12.6-1.25,25.37-1.87,38.26-1.87C2152.89,563.37,2321.87,724.07,2334.93,927.23z"/>
			</g>
		</g>
		<g class="st4">
			<g>
				<path class="st5" d="M2258.3,927.23c-78.84-27.76-205.31-46.72-350.17-49.55c12.6-0.28,25.43-0.4,38.32-0.4
					c118.46,0,226.77,10.73,309.87,28.5C2257.16,912.86,2257.84,920.02,2258.3,927.23z"/>
			</g>
			<g>
				<path class="st2" d="M2261.03,930.84l-3.56-1.25c-81.37-28.65-208.72-46.66-349.39-49.41l-0.01-5
					c11.86-0.26,24.41-0.4,38.37-0.4c114.04,0,224.28,10.14,310.39,28.54l1.75,0.38l0.21,1.77c0.91,7.57,1.56,14.63,2,21.6
					L2261.03,930.84z M2029.98,881.61c89.63,7.91,168.37,22.42,225.56,42.02c-0.38-5.11-0.88-10.32-1.51-15.79
					C2189.86,894.26,2112.38,885.25,2029.98,881.61z"/>
			</g>
		</g>
		<g class="st4">
			<g>
				<path class="st5" d="M2420.41,994.32v200.54l-46.09,71.8c0-17.31-16.92-33.66-46.83-48.08l29.52-79.47V941.08l3.75-3.63
					C2398.79,954.3,2420.41,973.71,2420.41,994.32z"/>
			</g>
		</g>
		<g class="st4">
			<g>
				<path class="st5" d="M2147.95,888.34v285.18c-47.4-6.24-100.13-10.39-156.1-11.81V877.78
					C2047.25,879.09,2099.82,882.78,2147.95,888.34z"/>
			</g>
		</g>
		<g class="st4">
			<g>
				<path class="st5" d="M2420.41,2911.83v-200.54l-46.09-71.8c0,17.31-16.92,33.66-46.83,48.08l29.52,79.47v198.05l3.75,3.63
					C2398.79,2951.85,2420.41,2932.44,2420.41,2911.83z"/>
			</g>
		</g>
		<g>
			<g>
				<path class="st2" d="M2420.41,1211.89c-9.4,0-17.03-7.63-17.03-17.03c0-17.48-38.92-44.72-125.87-66.19
					c-88.23-21.78-205.81-33.77-331.08-33.77s-242.85,11.99-331.08,33.77c-86.95,21.46-125.87,48.71-125.87,66.19
					c0,9.4-7.62,17.03-17.03,17.03s-17.03-7.63-17.03-17.03V994.32c0-32.5,32.58-60.47,96.85-83.15
					c90.5-31.88,237.84-50.92,394.16-50.92s303.65,19.04,394.15,50.92c64.27,22.69,96.86,50.66,96.86,83.15v200.54
					C2437.44,1204.27,2429.82,1211.89,2420.41,1211.89z M1946.44,1060.84c189.59,0,381.01,27.8,456.94,81.47v-148
					c0-12.03-19.47-31.75-74.13-51.04c-87.04-30.67-230.15-48.98-382.82-48.98s-295.78,18.31-382.83,48.98
					c-54.64,19.29-74.12,39.01-74.12,51.04v148C1565.43,1088.65,1756.85,1060.84,1946.44,1060.84z"/>
			</g>
		</g>
		<g>
			<g>
				<path class="st2" d="M1518.56,1283.7c-5.69,0-11.14-2.86-14.33-7.83l-46.09-71.81c-1.76-2.74-2.7-5.94-2.7-9.2
					c0-87.98,247-134.02,491-134.02s491,46.04,491,134.02c0,3.26-0.94,6.46-2.7,9.2l-46.09,71.81c-4.09,6.36-11.88,9.26-19.12,7.14
					c-7.25-2.13-12.24-8.78-12.24-16.34c0-11.28-23.67-36.23-112.38-58.12c-79.53-19.62-185.53-30.43-298.47-30.43
					c-112.95,0-218.95,10.81-298.47,30.43c-88.71,21.89-112.38,46.84-112.38,58.12c0,7.56-4.98,14.21-12.24,16.34
					C1521.77,1283.48,1520.16,1283.7,1518.56,1283.7z M1490.13,1190.85l26.53,41.33c53.82-58,242.77-88.13,429.78-88.13
					s375.96,30.13,429.78,88.13l26.53-41.33c-5.34-17.44-44.67-42.29-125.23-62.17c-88.23-21.78-205.81-33.77-331.08-33.77
					s-242.85,11.99-331.08,33.77C1534.81,1148.56,1495.48,1173.41,1490.13,1190.85z M2420.41,1194.86h0.05H2420.41z"/>
			</g>
		</g>
		<g>
			<g>
				<path class="st2" d="M2334.93,944.26c-1.9,0-3.81-0.32-5.66-0.97c-87.05-30.67-230.16-48.98-382.83-48.98
					s-295.78,18.31-382.83,48.98c-5.4,1.9-11.38,0.97-15.94-2.49c-4.56-3.45-7.08-8.96-6.71-14.67
					c13.69-212.96,191.8-379.79,405.48-379.79c213.69,0,391.79,166.83,405.48,379.79c0.37,5.71-2.16,11.22-6.71,14.67
					C2342.21,943.08,2338.59,944.26,2334.93,944.26z M1946.44,860.24c142.57,0,277.69,15.84,369,42.82
					c-24.33-182.87-181.76-322.66-369-322.66c-187.24,0-344.67,139.79-369,322.66C1668.75,876.08,1803.87,860.24,1946.44,860.24z"/>
			</g>
		</g>
		<g>
			<g>
				<path class="st2" d="M1946.44,3045.91c-156.3,0-303.64-19.04-394.15-50.92c-64.27-22.69-96.86-50.65-96.86-83.1v-200.6
					c0-9.4,7.62-17.03,17.03-17.03s17.03,7.63,17.03,17.03c0,17.48,38.92,44.72,125.87,66.19c88.23,21.78,205.81,33.77,331.08,33.77
					s242.85-11.99,331.08-33.77c86.95-21.46,125.87-48.71,125.87-66.19c0-9.4,7.62-17.03,17.03-17.03s17.03,7.63,17.03,17.03v200.6
					c0,32.45-32.58,60.41-96.85,83.1C2250.08,3026.87,2102.74,3045.91,1946.44,3045.91z M1489.5,2763.83v148.06
					c0,11.99,19.47,31.68,74.13,50.98c87.06,30.67,230.17,48.98,382.82,48.98s295.76-18.31,382.83-48.98
					c54.64-19.29,74.12-38.98,74.12-50.98v-148.06c-75.93,53.67-267.35,81.47-456.94,81.47S1565.43,2817.5,1489.5,2763.83z"/>
			</g>
		</g>
		<g class="st4">
			<g>
				<path class="st5" d="M2147.95,3017.81v-285.18c-47.4,6.24-100.13,10.39-156.1,11.81v283.93
					C2047.25,3027.06,2099.82,3023.37,2147.95,3017.81z"/>
			</g>
		</g>
		<g>
			<g>
				<path class="st33" d="M2334.93,2978.92c-13.06,203.21-181.98,363.85-388.49,363.85s-375.43-160.64-388.49-363.85
					c85.71,30.2,227.73,49.95,388.49,49.95S2249.22,3009.12,2334.93,2978.92z"/>
			</g>
		</g>
		<g>
			<g>
				<path class="st2" d="M1946.44,2845.31c-244,0-491-46.04-491-134.02c0-3.26,0.94-6.46,2.7-9.2l46.09-71.81
					c4.08-6.37,11.87-9.27,19.12-7.14c7.25,2.13,12.24,8.78,12.24,16.34c0,11.28,23.67,36.23,112.38,58.12
					c79.53,19.62,185.53,30.43,298.47,30.43c112.95,0,218.95-10.81,298.47-30.43c88.71-21.89,112.38-46.84,112.38-58.12
					c0-7.56,4.98-14.21,12.24-16.34c7.25-2.11,15.04,0.78,19.12,7.14l46.09,71.81c1.76,2.74,2.7,5.94,2.7,9.2
					C2437.44,2799.27,2190.44,2845.31,1946.44,2845.31z M1490.13,2715.3c5.34,17.44,44.67,42.29,125.23,62.17
					c88.23,21.78,205.81,33.77,331.08,33.77s242.85-11.99,331.08-33.77c80.56-19.88,119.89-44.73,125.23-62.17l-26.53-41.33
					c-53.82,58-242.77,88.13-429.78,88.13s-375.96-30.13-429.78-88.13L1490.13,2715.3z"/>
			</g>
		</g>
		<g class="st4">
			<g>
				<path class="st5" d="M2334.93,2978.92c-22.54,7.95-48.99,15.16-78.62,21.46c-21.63,180.39-166.6,322.75-348.13,340.52
					c12.6,1.25,25.37,1.87,38.26,1.87C2152.89,3342.78,2321.87,3182.08,2334.93,2978.92z"/>
			</g>
		</g>
		<g>
			<g>
				<path class="st2" d="M1946.44,3359.8c-213.69,0-391.8-166.82-405.48-379.79c-0.37-5.71,2.16-11.22,6.71-14.67
					c4.56-3.46,10.54-4.39,15.94-2.49c87.07,30.67,230.18,48.98,382.83,48.98s295.76-18.31,382.83-48.98
					c5.39-1.9,11.38-0.97,15.94,2.49c4.56,3.45,7.08,8.96,6.71,14.67C2338.24,3192.98,2160.13,3359.8,1946.44,3359.8z
					 M1577.44,3003.09c24.33,182.86,181.76,322.65,369.01,322.65c187.25,0,344.68-139.79,369.01-322.65
					c-91.33,26.98-226.44,42.82-369.01,42.82S1668.76,3030.07,1577.44,3003.09z"/>
			</g>
		</g>
		<g>
			<g>
				<path class="st34" d="M2290.87,1266.67v1372.81c0,58.3-154.21,105.58-344.43,105.58c-105.64,0-200.13-14.59-263.32-37.58
					c-50.58-18.33-81.1-42.06-81.1-68V1266.67c0-58.3,154.21-105.58,344.43-105.58c119.58,0,224.94,18.68,286.67,47.06
					c30.98,14.25,50.99,30.94,56.29,48.87C2290.37,1260.2,2290.87,1263.43,2290.87,1266.67z"/>
			</g>
		</g>
		<g>
			<g>
				<g>
					<path class="st5" d="M2290.87,1266.67v176.82c0,0-47.43,130.55-281.65,187.32c-206.12,49.95-327.8,119.2-407.21,247.83v-312.2
						c79.41-128.63,201.09-197.88,407.21-247.83c112.72-27.3,182.18-71.75,223.89-110.46l56.29,48.87
						C2290.37,1260.2,2290.87,1263.43,2290.87,1266.67z"/>
				</g>
			</g>
		</g>
		<g>
			<g>
				<g>
					<path class="st32" d="M2290.87,1575.74v176.82c0,0-47.43,130.55-281.65,187.32c-206.12,49.95-327.8,119.2-407.21,247.83v-312.2
						c79.41-128.63,201.09-197.88,407.21-247.83c112.72-27.3,182.18-71.75,223.89-110.46l46.88-35.29
						C2281.46,1397.77,2290.87,1572.51,2290.87,1575.74z"/>
				</g>
			</g>
		</g>
		<g>
			<g>
				<g>
					<path class="st34" d="M2290.87,1891.08v176.82c0,0-47.43,130.56-281.65,187.32c-206.12,49.95-327.8,119.2-407.21,247.83v-312.2
						c79.41-128.63,201.09-197.88,407.21-247.83c112.72-27.3,182.18-71.75,223.89-110.46l46.88-35.29
						C2281.46,1713.11,2290.87,1887.84,2290.87,1891.08z"/>
				</g>
			</g>
		</g>
		<g>
			<g>
				<g>
					<path class="st5" d="M2290.87,2194.01v176.82c0,0-47.43,130.55-281.65,187.32c-146.03,35.36-249.66,80.43-325.92,149.46
						c-50.72-18.39-81.29-42.12-81.29-68.12v-145.71c79.41-128.62,201.09-197.88,407.21-247.83
						c112.72-27.3,182.18-71.75,223.89-110.46l46.88-35.25C2281.46,2016.05,2290.87,2190.77,2290.87,2194.01z"/>
				</g>
			</g>
		</g>
		<g>
			<g>
				<g>
					<path class="st32" d="M2290.87,2505.92v133.56c0,58.3-154.21,105.58-344.43,105.58c-105.64,0-200.13-14.59-263.32-37.58
						c76.31-69.08,179.98-114.21,326.11-149.63c112.72-27.3,182.18-71.75,223.89-110.46l46.88-35.25
						C2281.46,2327.97,2290.87,2502.68,2290.87,2505.92z"/>
				</g>
			</g>
		</g>
		<g>
			<g>
				<path class="st2" d="M1946.44,2762.09c-103.56,0-201.59-14.03-268.96-38.49c-76.45-27.72-92.5-61.05-92.5-84.12V1266.67
					c0-79.64,186.23-122.61,361.46-122.61s361.46,42.97,361.46,122.61v1372.81C2307.9,2719.12,2121.67,2762.09,1946.44,2762.09z
					 M1946.44,1178.12c-202.85,0-327.4,51.58-327.4,88.55v1372.81c0,12.91,18.41,33.37,70.06,52.1
					c63.79,23.16,157.58,36.45,257.34,36.45c202.85,0,327.4-51.58,327.4-88.55V1266.67
					C2273.84,1229.69,2149.29,1178.12,1946.44,1178.12z"/>
			</g>
		</g>
		<g>
			<g>
				<path class="st2" d="M1690.85,2727.24c-4.78,0-9.52-2-12.89-5.9c-6.15-7.11-5.37-17.87,1.75-24.02
					c75.17-64.97,175.56-110.14,325.51-146.48c221.11-53.59,269.23-175.45,269.69-176.67c3.3-8.77,13.08-13.29,21.86-10.02
					c8.79,3.25,13.32,12.94,10.12,21.74c-2.07,5.68-53.31,139.81-293.64,198.05c-144.41,35-240.41,77.92-311.26,139.16
					C1698.76,2725.87,1694.79,2727.24,1690.85,2727.24z"/>
			</g>
		</g>
		<g>
			<g>
				<path class="st2" d="M1602,2520.07c-3.05,0-6.14-0.82-8.93-2.54c-8-4.94-10.49-15.43-5.54-23.44
					c79.51-128.82,200.53-202.84,417.7-255.47c221.1-53.59,269.22-175.44,269.68-176.67c3.3-8.77,13.08-13.28,21.86-10.02
					c8.79,3.25,13.32,12.94,10.12,21.74c-2.07,5.68-53.31,139.8-293.63,198.05c-207.51,50.29-322.45,119.9-396.74,240.26
					C1613.29,2517.2,1607.71,2520.07,1602,2520.07z"/>
			</g>
		</g>
		<g>
			<g>
				<path class="st2" d="M1602,2207.88c-3.05,0-6.14-0.82-8.93-2.54c-8-4.94-10.49-15.43-5.54-23.44
					c79.51-128.82,200.53-202.84,417.7-255.47c221.1-53.59,269.22-175.44,269.68-176.67c3.3-8.77,13.08-13.29,21.86-10.02
					c8.79,3.25,13.32,12.94,10.12,21.74c-2.07,5.68-53.31,139.8-293.63,198.05c-207.51,50.29-322.45,119.9-396.74,240.26
					C1613.29,2205,1607.71,2207.88,1602,2207.88z"/>
			</g>
		</g>
		<g>
			<g>
				<path class="st2" d="M1602,1895.68c-3.05,0-6.14-0.82-8.93-2.54c-8-4.94-10.49-15.43-5.54-23.44
					c79.51-128.82,200.53-202.84,417.7-255.46c221.1-53.59,269.22-175.45,269.68-176.67c3.3-8.77,13.08-13.28,21.86-10.02
					c8.79,3.25,13.32,12.94,10.12,21.74c-2.07,5.68-53.31,139.8-293.63,198.05c-207.5,50.29-322.45,119.9-396.74,240.26
					C1613.29,1892.81,1607.71,1895.68,1602,1895.68z"/>
			</g>
		</g>
		<g>
			<g>
				<path class="st2" d="M1602,1583.47c-3.05,0-6.14-0.82-8.93-2.54c-8-4.94-10.49-15.43-5.54-23.44
					c79.52-128.8,200.53-202.81,417.69-255.43c91.29-22.11,164.07-57.91,216.32-106.4c6.89-6.4,17.67-6,24.06,0.9
					c6.4,6.89,5.99,17.67-0.9,24.06c-56.58,52.5-134.45,91.04-231.47,114.54c-207.49,50.28-322.43,119.88-396.73,240.22
					C1613.28,1580.6,1607.71,1583.47,1602,1583.47z"/>
			</g>
		</g>
		<g class="st4">
			<g>
				<path class="st5" d="M2052.38,1167.22v1571.71c-44.9,3.97-93.32,6.13-143.78,6.13c-12.94,0-25.71-0.11-38.31-0.45V1161.49
					c12.6-0.28,25.37-0.4,38.31-0.4C1959.06,1161.09,2007.48,1163.25,2052.38,1167.22z"/>
			</g>
		</g>
		<g class="st4">
			<g>
				<path class="st5" d="M2220.46,1190.15V2716c-28.1,6.58-59.77,12.26-94.28,16.8V1173.35
					C2160.69,1177.89,2192.36,1183.57,2220.46,1190.15z"/>
			</g>
		</g>
		<g>
			<g>
				<path class="st2" d="M1946.44,2762.09c-75.72,0-150.35-4.91-215.82-14.19c-43.92-6.24-82.9-14.3-115.87-23.96
					c-75.12-21.93-113.22-50.35-113.22-84.46V1266.67c0-65.91,143.52-96.22,229.07-108.42c65.4-9.28,140.03-14.19,215.83-14.19
					c70.71,0,140.82,4.29,202.76,12.41c34.72,4.57,66.99,10.32,95.95,17.1c97.01,22.78,146.2,54.1,146.2,93.1v1372.81
					c0,39-49.19,70.32-146.19,93.09c-28.92,6.78-61.2,12.53-95.95,17.11C2087.28,2757.8,2017.17,2762.09,1946.44,2762.09z
					 M1946.44,1178.12c-74.23,0-147.2,4.79-211.04,13.85c-145.56,20.76-199.81,56.84-199.81,74.7v1372.81
					c0,11.93,23.24,32.65,88.73,51.77c31.42,9.21,68.79,16.92,111.09,22.93c63.91,9.06,136.88,13.86,211.03,13.86
					c69.27,0,137.85-4.19,198.33-12.12c33.63-4.42,64.79-9.98,92.61-16.49c94.66-22.22,119.91-48.13,119.91-59.94V1266.67
					c0-11.81-25.26-37.71-119.92-59.94c-27.86-6.52-59.02-12.08-92.61-16.49C2084.28,1182.31,2015.7,1178.12,1946.44,1178.12z"/>
			</g>
		</g>
		<g class="st1">
			<g>
				<path class="st2" d="M2020.29,878.69c-24.07-0.97-48.76-1.42-73.85-1.42c-160.75,0-302.77,19.75-388.49,49.95
					c10.9-169.89,130.84-310.04,290.57-351.42C1680.45,767.72,1767.41,856.67,2020.29,878.69z"/>
			</g>
		</g>
		<g class="st1">
			<g>
				<path class="st2" d="M1702.59,1179.93c-111.2,19.02-184.03,50.8-184.03,86.73l-46.09-71.8V994.32
					c0-24.92,31.62-48.08,85.49-67.09c32.13-11.3,72.2-21.17,118.18-29.06v199.69l0.28,0.85l25.94,73.57
					C1702.36,1172.27,1702.48,1175,1702.59,1179.93z"/>
			</g>
		</g>
		<g class="st1">
			<g>
				<path class="st2" d="M2020.29,3027.46c-24.07,0.97-48.76,1.42-73.85,1.42c-160.75,0-302.77-19.75-388.49-49.95
					c10.9,169.89,130.84,310.04,290.57,351.42C1680.45,3138.43,1767.41,3049.48,2020.29,3027.46z"/>
			</g>
		</g>
		<g class="st1">
			<g>
				<path class="st2" d="M1702.59,2726.22c-111.2-19.02-184.03-50.8-184.03-86.73l-46.09,71.8v200.54
					c0,24.92,31.62,48.08,85.49,67.09c32.13,11.3,72.2,21.17,118.18,29.06V2808.3l0.28-0.85l25.94-73.57
					C1702.36,2733.88,1702.48,2731.15,1702.59,2726.22z"/>
			</g>
		</g>
		<g class="st1">
			<g>
				<path class="st2" d="M1733.01,1175.11v1555.93c-43.14-6.13-81.51-14.08-113.47-23.44c-63.01-18.39-100.98-42.12-100.98-68.12
					V1266.67C1518.56,1227.56,1604.84,1193.39,1733.01,1175.11z"/>
			</g>
		</g>
		<g>
			<g>
				<path class="st35" d="M2601.96,2970.85L2601.96,2970.85c-47.63,0-86.25-38.61-86.25-86.25V1021.55
					c0-47.63,38.61-86.25,86.25-86.25h0c47.63,0,86.25,38.61,86.25,86.25V2884.6C2688.21,2932.23,2649.6,2970.85,2601.96,2970.85z"
					/>
			</g>
		</g>
		<g class="st1">
			<g>
				<path class="st2" d="M2629.24,2966.4c-8.6,2.9-17.75,4.45-27.3,4.45c-47.6,0-86.2-38.6-86.2-86.25V1021.55
					c0-47.65,38.6-86.25,86.2-86.25c9.55,0,18.7,1.55,27.3,4.45c-34.25,11.4-58.95,43.7-58.95,81.8V2884.6
					C2570.29,2922.7,2594.99,2955,2629.24,2966.4z"/>
			</g>
		</g>
		<g class="st4">
			<g>
				<path class="st5" d="M2688.19,1021.55V2884.6c0,47.65-38.6,86.25-86.25,86.25c-7.45,0-14.75-0.95-21.65-2.75
					c37.15-9.6,64.6-43.35,64.6-83.5V1021.55c0-23.85-9.65-45.4-25.25-61c-10.75-10.7-24.25-18.6-39.35-22.5
					c6.9-1.8,14.2-2.75,21.65-2.75c23.8,0,45.4,9.65,61,25.25C2678.54,976.15,2688.19,997.7,2688.19,1021.55z"/>
			</g>
		</g>
		<g>
			<g>
				<path class="st2" d="M2601.97,2987.88c-56.95,0-103.27-46.33-103.27-103.28V1021.55c0-56.94,46.33-103.28,103.27-103.28
					s103.27,46.33,103.27,103.28V2884.6C2705.24,2941.55,2658.91,2987.88,2601.97,2987.88z M2601.97,952.33
					c-38.17,0-69.22,31.05-69.22,69.21V2884.6c0,38.16,31.05,69.21,69.22,69.21s69.22-31.05,69.22-69.21V1021.55
					C2671.18,983.38,2640.13,952.33,2601.97,952.33z"/>
			</g>
		</g>
		<g>
			<g>
				<rect x="2420.41" y="1036.07" class="st2" width="89.78" height="151.43"/>
			</g>
		</g>
		<g>
			<g>
				<rect x="2420.41" y="2733.88" class="st2" width="89.78" height="151.43"/>
			</g>
		</g>
	</g>
</g>
</svg>
