<?xml version="1.0" encoding="utf-8"?>
<!-- Generator: Adobe Illustrator 18.0.0, SVG Export Plug-In . SVG Version: 6.00 Build 0)  -->
<!DOCTYPE svg PUBLIC "-//W3C//DTD SVG 1.1//EN" "http://www.w3.org/Graphics/SVG/1.1/DTD/svg11.dtd">
<svg version="1.1" id="Layer_1" xmlns="http://www.w3.org/2000/svg" xmlns:xlink="http://www.w3.org/1999/xlink" x="0px" y="0px"
	 viewBox="0 0 3285 2501.9" style="enable-background:new 0 0 3285 2501.9;" xml:space="preserve">
<style type="text/css">
	.st0{fill:#FFE082;}
	.st1{opacity:0.3;}
	.st2{fill:#650000;}
	.st3{opacity:0.4;}
	.st4{fill:#56CE2E;}
	.st5{opacity:0.5;}
	.st6{fill:#FFFFFF;}
	.st7{fill:#FFDCB5;}
	.st8{opacity:0.2;}
	.st9{fill:#808080;}
	.st10{fill:#FBFCFC;}
	.st11{fill:#4FC3F7;}
	.st12{opacity:0.4;clip-path:url(#SVGID_2_);}
	.st13{fill:#26C6DA;}
	.st14{opacity:0.4;clip-path:url(#SVGID_4_);}
	.st15{fill:#BCAAA4;}
	.st16{fill:#CCD1D1;}
	.st17{clip-path:url(#SVGID_8_);}
	.st18{fill:#29B6F6;}
	.st19{fill:#ED1B24;}
	.st20{fill:#515A5A;}
	.st21{fill:#FFB74D;}
	.st22{opacity:0.4;clip-path:url(#SVGID_10_);}
	.st23{fill:#56CE2E;stroke:#650000;stroke-width:27.8767;stroke-linecap:round;stroke-linejoin:round;stroke-miterlimit:10;}
</style>
<g>
	<g>
		<g>
			<g>
				<path class="st0" d="M2413.1,2350.5c321.6-237,530.3-618.4,530.3-1048.6C2943.4,582.9,2360.6,0,1641.5,0
					S339.7,582.9,339.7,1301.9c0,430.2,208.7,811.6,530.4,1048.6c229-4.5,492.3-7.1,772.5-7.1
					C1921.9,2343.5,2184.5,2346,2413.1,2350.5z"/>
			</g>
		</g>
		<g class="st1">
			<path class="st2" d="M3285,2400.3c0-31.4-735.4-56.9-1642.5-56.9S0,2368.9,0,2400.3c0,18.2,245.7,34.3,628.3,44.7
				c82.6,20.4,402.6,35.5,784.9,35.5c320.1,0,596.6-10.6,726.6-26.1C2803.8,2447.2,3285,2425.7,3285,2400.3z"/>
		</g>
		<g class="st3">
			<g>
				
					<ellipse transform="matrix(0.8967 -0.4426 0.4426 0.8967 -959.5517 463.5825)" class="st2" cx="513.5" cy="2287.7" rx="20.9" ry="11.6"/>
			</g>
		</g>
		<g>
			<g>
				<g>
					<path class="st4" d="M305,2373.6c-5.1,0-9.9-2.4-12.9-6.4c-3.1-4-4.1-9.3-2.7-14.2c13.9-50,44.2-95.3,85.3-127.4
						c40.2-31.4,88.1-49,138.9-51.3c46-64.2,119.6-102.2,198.8-102.2c11.2,0,22.6,0.8,34,2.4c46.2-60.4,118-96.1,194.3-96.1
						c65.3,0,126.7,25.4,172.9,71.6c46.2,46.2,71.6,107.6,71.6,172.9c0,52.2-16.3,102-47,144.1c-3.1,4.2-7.9,6.7-13.1,6.7H305z"/>
				</g>
				<g>
					<path class="st2" d="M940.6,1994.6c126,0,228.2,102.2,228.2,228.2c0,50.3-16.3,96.8-43.9,134.5H305
						c26.5-95.5,113.5-165.9,217.2-167c40.9-61.4,110.8-102,190.1-102c14.1,0,27.8,1.3,41.2,3.8
						C794.8,2033.2,863.2,1994.6,940.6,1994.6 M940.6,1962.1c-42.6,0-85,10.5-122.4,30.5c-30.2,16.1-57.2,38.2-79,64.7
						c-9-0.9-18-1.4-26.9-1.4c-81.8,0-158.1,38.1-207.4,102.7c-23.1,1.7-45.8,6.5-67.6,14.3c-26.2,9.3-50.7,22.8-72.7,40
						c-21.8,17-40.7,37.2-56.1,60.1c-15.7,23.3-27.4,48.7-34.9,75.7c-2.7,9.8-0.7,20.3,5.4,28.4s15.7,12.8,25.9,12.8H1125
						c10.4,0,20.1-5,26.3-13.3c32.8-44.9,50.1-98,50.1-153.7c0-35.2-6.9-69.3-20.5-101.5c-13.1-31.1-31.9-58.9-55.9-82.9
						c-23.9-23.9-51.8-42.7-82.9-55.9C1009.9,1968.9,975.8,1962.1,940.6,1962.1L940.6,1962.1z"/>
				</g>
			</g>
			<g class="st5">
				<path class="st6" d="M540.9,2202c40.9-61.4,110.8-102,190.1-102c14.1,0,27.8,1.3,41.2,3.8c41.3-58.9,109.6-97.5,187-97.5
					c40.8,0,79.1,10.8,112.2,29.5c-37-26-82.1-41.2-130.8-41.2c-77.4,0-145.8,38.6-187,97.5c-13.4-2.4-27.1-3.8-41.2-3.8
					c-79.3,0-149.2,40.5-190.1,102c-103.7,1.2-190.7,71.5-217.2,167h22.2C357.4,2267.8,441.4,2203.1,540.9,2202z"/>
			</g>
			<g>
				<g>
					<path class="st4" d="M2152.1,2373.6c-5.2,0-10.1-2.5-13.1-6.7c-30.8-42.1-47-91.9-47-144.1c0-65.3,25.4-126.7,71.6-172.9
						c46.2-46.2,107.6-71.6,172.9-71.6c76.2,0,148.1,35.8,194.3,96.1c11.4-1.6,22.7-2.4,34-2.4c79.2,0,152.8,38,198.8,102.2
						c50.8,2.3,98.6,20,138.9,51.3c41.1,32.1,71.5,77.3,85.3,127.4c1.4,4.9,0.4,10.1-2.7,14.2c-3.1,4-7.9,6.4-12.9,6.4H2152.1z"/>
				</g>
				<g>
					<path class="st2" d="M2336.5,1994.6c77.4,0,145.8,38.6,187,97.5c13.4-2.4,27.1-3.8,41.2-3.8c79.3,0,149.2,40.5,190.1,102
						c103.7,1.2,190.7,71.5,217.2,167h-819.9c-27.6-37.7-43.9-84.2-43.9-134.5C2108.3,2096.8,2210.5,1994.6,2336.5,1994.6
						 M2336.5,1962.1c-35.2,0-69.3,6.9-101.5,20.5c-31.1,13.1-58.9,31.9-82.9,55.9c-23.9,23.9-42.7,51.8-55.9,82.9
						c-13.6,32.2-20.5,66.3-20.5,101.5c0,55.7,17.3,108.8,50.1,153.7c6.1,8.4,15.9,13.3,26.3,13.3h819.9c10.2,0,19.7-4.8,25.9-12.8
						c6.2-8.1,8.2-18.6,5.4-28.4c-7.5-27-19.2-52.4-34.9-75.7c-15.4-22.9-34.3-43.1-56.1-60.1c-22-17.2-46.5-30.6-72.7-40
						c-21.8-7.8-44.5-12.6-67.6-14.3c-49.2-64.6-125.6-102.7-207.4-102.7c-8.9,0-17.9,0.5-26.9,1.4c-21.8-26.4-48.8-48.6-79-64.7
						C2421.5,1972.6,2379.1,1962.1,2336.5,1962.1L2336.5,1962.1z"/>
				</g>
			</g>
			<g class="st5">
				<path class="st6" d="M2322.6,2001.7c77.4,0,145.8,38.6,187,97.5c13.4-2.4,27.1-3.8,41.2-3.8c79.3,0,149.2,40.5,190.1,102
					c101.1,1.1,186.4,68.1,215.1,159.9h16.1c-26.5-95.5-113.5-165.9-217.2-167c-40.9-61.4-110.8-102-190.1-102
					c-14.1,0-27.8,1.3-41.2,3.8c-41.3-58.9-109.6-97.5-187-97.5c-40,0-77.6,10.3-110.4,28.4
					C2255.4,2009.3,2288.1,2001.7,2322.6,2001.7z"/>
			</g>
			<g>
				<g>
					<g>
						<path class="st6" d="M630.4,1556.9c-13.9,0-25.3-11.3-25.3-25.3v-0.5c0-13.9,11.3-25.3,25.3-25.3h180
							c13.9,0,25.3,11.3,25.3,25.3v0.5c0,13.9-11.3,25.3-25.3,25.3H630.4z"/>
					</g>
					<g>
						<path class="st2" d="M810.3,1522c5,0,9,4,9,9v0.5c0,5-4,9-9,9h-180c-5,0-9-4-9-9v-0.5c0-5,4-9,9-9H810.3 M810.3,1489.5h-180
							c-22.9,0-41.6,18.6-41.6,41.6v0.5c0,22.9,18.6,41.6,41.6,41.6h180c22.9,0,41.6-18.6,41.6-41.6v-0.5
							C851.9,1508.1,833.3,1489.5,810.3,1489.5L810.3,1489.5z"/>
					</g>
				</g>
				<g>
					<g>
						<path class="st6" d="M630.4,1711.6c-13.9,0-25.3-11.3-25.3-25.3v-0.5c0-13.9,11.3-25.3,25.3-25.3h180
							c13.9,0,25.3,11.3,25.3,25.3v0.5c0,13.9-11.3,25.3-25.3,25.3H630.4z"/>
					</g>
					<g>
						<path class="st2" d="M810.3,1676.7c5,0,9,4,9,9v0.5c0,5-4,9-9,9h-180c-5,0-9-4-9-9v-0.5c0-5,4-9,9-9H810.3 M810.3,1644.2h-180
							c-22.9,0-41.6,18.6-41.6,41.6v0.5c0,22.9,18.6,41.6,41.6,41.6h180c22.9,0,41.6-18.6,41.6-41.6v-0.5
							C851.9,1662.9,833.3,1644.2,810.3,1644.2L810.3,1644.2z"/>
					</g>
				</g>
			</g>
			<g>
				<g>
					<path class="st6" d="M543.5,1451.8c-9,0-16.3-7.3-16.3-16.3v-122.9c0-38.4,31.2-69.6,69.6-69.6h28.1
						c38.4,0,69.6,31.2,69.6,69.6v122.9c0,9-7.3,16.3-16.3,16.3H543.5z"/>
				</g>
				<g>
					<g>
						<path class="st2" d="M624.9,1259.4c29.4,0,53.3,23.9,53.3,53.3v122.9H543.5v-122.9c0-29.4,23.9-53.3,53.3-53.3H624.9
							 M624.9,1226.9h-28.1c-47.3,0-85.8,38.5-85.8,85.8v122.9c0,18,14.6,32.5,32.5,32.5h134.7c18,0,32.5-14.6,32.5-32.5v-122.9
							C710.8,1265.4,672.3,1226.9,624.9,1226.9L624.9,1226.9z"/>
					</g>
				</g>
			</g>
			<g class="st1">
				<g>
					<path class="st2" d="M615.6,1259.4h-18.8c-4,0-7.8,0.5-11.5,1.3c23.9,5.3,41.8,26.5,41.8,52v122.9H669v-122.9
						C669,1283.3,645.1,1259.4,615.6,1259.4z"/>
				</g>
			</g>
			<g>
				<g>
					<path class="st6" d="M596.8,1976.3c-38.4,0-69.6-31.2-69.6-69.6v-122.9c0-9,7.3-16.3,16.3-16.3h134.7c9,0,16.3,7.3,16.3,16.3
						v122.9c0,38.4-31.2,69.6-69.6,69.6H596.8z"/>
				</g>
				<g>
					<g>
						<path class="st2" d="M678.3,1783.8v122.9c0,29.4-23.9,53.3-53.3,53.3h-28.1c-29.4,0-53.3-23.9-53.3-53.3v-122.9H678.3
							 M678.3,1751.3H543.5c-18,0-32.5,14.6-32.5,32.5v122.9c0,47.3,38.5,85.8,85.8,85.8h28.1c47.3,0,85.8-38.5,85.8-85.8v-122.9
							C710.8,1765.9,696.2,1751.3,678.3,1751.3L678.3,1751.3z"/>
					</g>
				</g>
			</g>
			<g class="st1">
				<g>
					<path class="st2" d="M669,1906.7v-122.9h-46.5v122.9c0,24.7-16.8,45.3-39.5,51.4c4.4,1.2,9,1.9,13.8,1.9h18.8
						C645.1,1960,669,1936.2,669,1906.7z"/>
				</g>
			</g>
			<g>
				<g>
					<path class="st7" d="M783,2319.5c-9,0-16.3-7.3-16.3-16.3V971.6c0-9,7.3-16.3,16.3-16.3h1733.7c9,0,16.3,7.3,16.3,16.3v1331.7
						c0,9-7.3,16.3-16.3,16.3H783z"/>
				</g>
				<g>
					<path class="st2" d="M2516.8,971.6v1331.7H783V971.6H2516.8 M2516.8,939.1H783c-18,0-32.5,14.6-32.5,32.5v1331.7
						c0,18,14.6,32.5,32.5,32.5h1733.7c18,0,32.5-14.6,32.5-32.5V971.6C2549.3,953.6,2534.7,939.1,2516.8,939.1L2516.8,939.1z"/>
				</g>
			</g>
			<g class="st5">
				<rect x="783" y="971.6" class="st6" width="27.9" height="1331.7"/>
			</g>
			<g class="st8">
				<g>
					<path class="st2" d="M2437.8,971.6H783v304.6c40.1-5.5,74.3-29.7,93.3-63.6c21.8,38.6,63.1,64.8,110.5,64.8
						s88.8-26.2,110.5-64.8c21.8,38.6,63.1,64.8,110.5,64.8c47.4,0,88.8-26.2,110.5-64.8c21.8,38.6,63.1,64.8,110.5,64.8
						c47.4,0,88.8-26.1,110.5-64.8c21.8,38.6,63.1,64.8,110.5,64.8c47.4,0,88.8-26.1,110.5-64.8c21.8,38.6,63.1,64.8,110.5,64.8
						c47.4,0,88.8-26.1,110.5-64.8c21.8,38.6,63.1,64.8,110.5,64.8c47.4,0,88.8-26.2,110.5-64.8c21.8,38.6,63.1,64.8,110.5,64.8
						c40.2,0,76.1-18.8,99.4-48.2c5.6-7.1,16.5-7.4,22.1-0.2c0.1,0.1,0.1,0.1,0.2,0.2c2,2.6,3.2,5.7,3.2,9v1065.2h55.8V1270.7V971.6
						H2437.8z"/>
				</g>
			</g>
			<g>
				<g>
					<path class="st7" d="M939.3,734.2c-9,0-16.3-7.3-16.3-16.3V563.2c0-9,7.3-16.3,16.3-16.3h1421.2c9,0,16.3,7.3,16.3,16.3V718
						c0,9-7.3,16.3-16.3,16.3H939.3z"/>
				</g>
				<g>
					<g>
						<path class="st2" d="M2360.5,563.2V718H939.3V563.2H2360.5 M2360.5,530.7H939.3c-18,0-32.5,14.6-32.5,32.5V718
							c0,18,14.6,32.5,32.5,32.5h1421.2c18,0,32.5-14.6,32.5-32.5V563.2C2393.1,545.3,2378.5,530.7,2360.5,530.7L2360.5,530.7z"/>
					</g>
				</g>
			</g>
			<g class="st8">
				<g>
					<rect x="939.3" y="563.2" class="st2" width="1421.2" height="154.7"/>
				</g>
			</g>
			<g>
				<g>
					<path class="st9" d="M878.9,593.4c-24.8,0-44.9-20.1-44.9-44.9c0-24.8,20.1-44.9,44.9-44.9h1542c24.8,0,44.9,20.1,44.9,44.9
						c0,24.8-20.1,44.9-44.9,44.9H878.9z"/>
				</g>
				<g>
					<path class="st2" d="M2420.9,519.9c15.8,0,28.6,12.8,28.6,28.6c0,15.8-12.8,28.6-28.6,28.6h-1542c-15.8,0-28.6-12.8-28.6-28.6
						c0-15.8,12.8-28.6,28.6-28.6H2420.9 M2420.9,487.3h-1542c-33.7,0-61.2,27.4-61.2,61.2c0,33.7,27.4,61.2,61.2,61.2h1542
						c33.7,0,61.2-27.4,61.2-61.2C2482.1,514.8,2454.7,487.3,2420.9,487.3L2420.9,487.3z"/>
				</g>
			</g>
			<g class="st1">
				<g>
					<path class="st2" d="M2426.3,548.5c0-15.8-12.8-28.6-28.6-28.6H2234c1.2,3.1,1.9,6.5,1.9,10.1c0,15.8-12.8,28.6-28.6,28.6
						H852.1c4.1,10.8,14.5,18.6,26.8,18.6h1518.8C2413.5,577.2,2426.3,564.3,2426.3,548.5z"/>
				</g>
			</g>
			<g class="st5">
				<path class="st6" d="M880.4,564.8c0-15.8,12.8-28.6,28.6-28.6c0,0,1523.2-16.3,1511.8-16.3h-1542c-15.8,0-28.6,12.8-28.6,28.6
					c0,15.8,12.8,28.6,28.6,28.6h4.4C881.5,573.4,880.4,569.2,880.4,564.8z"/>
			</g>
			<g>
				<g>
					<path class="st9" d="M738.5,2319.5c-9,0-16.3-7.3-16.3-16.3v-89.1c0-32.9,26.7-59.6,59.6-59.6H2518c32.9,0,59.6,26.7,59.6,59.6
						v89.1c0,9-7.3,16.3-16.3,16.3H738.5z"/>
				</g>
				<g>
					<g>
						<path class="st2" d="M2518,2170.8c23.9,0,43.3,19.4,43.3,43.3v89.1H738.5v-89.1c0-23.9,19.4-43.3,43.3-43.3H2518 M2518,2138.3
							H781.9c-41.8,0-75.9,34-75.9,75.9v89.1c0,18,14.6,32.5,32.5,32.5h1822.8c18,0,32.5-14.6,32.5-32.5v-89.1
							C2593.8,2172.3,2559.8,2138.3,2518,2138.3L2518,2138.3z"/>
					</g>
				</g>
			</g>
			<g class="st5">
				<path class="st6" d="M771.1,2223.4c0-23.9,19.4-43.3,43.3-43.3h1730.3c-7.4-5.8-16.6-9.3-26.8-9.3H781.9
					c-23.9,0-43.3,19.4-43.3,43.3v89.1h32.5V2223.4z"/>
			</g>
			<g class="st1">
				<g>
					<polygon class="st2" points="1522.7,1960.8 1653.2,2277.5 2420.2,2277.5 2361.2,1957 					"/>
				</g>
			</g>
			<g>
				<g>
					<path class="st10" d="M902.1,2317.2c-7.7,0-13.9-6.2-13.9-13.9V1352c0-31.5,25.6-57.1,57.1-57.1h365.8
						c31.5,0,57.1,25.6,57.1,57.1v951.3c0,7.7-6.2,13.9-13.9,13.9H902.1z"/>
				</g>
				<g>
					<path class="st2" d="M1311.1,1308.9c23.8,0,43.1,19.3,43.1,43.1v951.3H902.1V1352c0-23.8,19.3-43.1,43.1-43.1H1311.1
						 M1311.1,1281H945.3c-39.2,0-71,31.9-71,71v951.3c0,15.4,12.5,27.9,27.9,27.9h452.1c15.4,0,27.9-12.5,27.9-27.9V1352
						C1382.1,1312.8,1350.3,1281,1311.1,1281L1311.1,1281z"/>
				</g>
			</g>
			<g>
				<g>
					<path class="st6" d="M1572.6,1972.2c-7.7,0-13.9-6.2-13.9-13.9v-601.5c0-34.1,27.8-61.9,61.9-61.9h650
						c34.1,0,61.9,27.8,61.9,61.9v601.5c0,7.7-6.2,13.9-13.9,13.9H1572.6z"/>
				</g>
				<g>
					<g>
						<path class="st2" d="M2270.6,1308.9c26.5,0,48,21.5,48,48v601.5h-745.9v-601.5c0-26.5,21.5-48,48-48H2270.6 M2270.6,1281h-650
							c-41.8,0-75.8,34-75.8,75.8v601.5c0,15.4,12.5,27.9,27.9,27.9h745.9c15.4,0,27.9-12.5,27.9-27.9v-601.5
							C2346.4,1315,2312.4,1281,2270.6,1281L2270.6,1281z"/>
					</g>
				</g>
			</g>
			<g>
				<g>
					<path class="st11" d="M1633.5,1922.5c-6.3,0-11.4-5.1-11.4-11.4v-533.1c0-13.2,10.8-24,24-24h599c13.2,0,24,10.8,24,24v533.1
						c0,6.3-5.1,11.4-11.4,11.4H1633.5z"/>
				</g>
				<g>
					<g>
						<path class="st2" d="M2245.1,1365.5c7,0,12.6,5.6,12.6,12.6v533.1h-624.2v-533.1c0-7,5.6-12.6,12.6-12.6H2245.1
							 M2245.1,1342.7h-599c-19.5,0-35.4,15.9-35.4,35.4v533.1c0,12.6,10.2,22.8,22.8,22.8h624.2c12.6,0,22.8-10.2,22.8-22.8v-533.1
							C2280.4,1358.5,2264.6,1342.7,2245.1,1342.7L2245.1,1342.7z"/>
					</g>
				</g>
			</g>
			<g>
				<g>
					<g>
						<path class="st6" d="M2043.8,1804.9c-17,0-34.9-3.1-54.7-9.4c-20-6.4-26.8-10.9-44.6-29c-30.9,30.1-69.3,33.8-96.3,33.8
							c-3.1,0-6.4-0.1-9.7-0.2c-20.3-0.7-38.6-6.9-54.4-18.5c-27.9-20.4-36.4-54.9-21-85.9c4.6-9.4,10.9-15.6,19.1-19
							c3.7-1.6,7.2-2.3,10.6-2.3c7.6,0,14.5,3.8,20.5,11.3c2.1,2.7,2.6,6.3,1.3,9.4c-1.3,3.1-4.3,5.3-7.7,5.6
							c-13.4,1.3-17.2,6.7-19.1,11.8c-4.2,11.1-0.3,16.7,3.7,20.4c2.2,2.1,5.5,3.2,9.4,3.2c3.9,0,8-1.2,11.4-3.3
							c9-5.6,16-13.9,23.3-22.7c1.1-1.3,2.1-2.5,3.2-3.8c1.9-2.2,3.8-4.5,5.7-6.8c9.3-11.2,18.9-22.7,31.2-32
							c11.6-8.7,22.3-13,32.8-13c13.3,0,25.5,6.7,37.6,20.5c0.6,0.7,1.3,1.4,1.9,2.1c0.3-0.4,0.6-0.8,1-1.2c1.2-1.5,2.5-3.2,4-4.8
							c9.9-10.3,21.5-15.7,33.7-15.7c10.9,0,21.7,4.5,31.4,12.9c12.4,10.8,21.5,23.9,30.4,36.5c0.9,1.3,4.9,7,4.9,7
							c6.9,9.8,13.4,19.1,22.1,26.3c4.6,3.9,9.6,5.9,14.3,5.9c2.8,0,5.4-0.7,7.8-2.2c6.2-3.8,8.6-9.1,7.7-17.2
							c-0.7-6.2-3.1-12.5-15.8-15.5c-2.3-0.6-4-1.7-5-2.3c-0.1-0.1-0.3-0.2-0.4-0.3c-2.4-1.4-4.1-3.7-4.5-6.4
							c-0.5-2.7,0.3-5.5,2-7.6c7.6-9.1,15.5-11,20.7-11c8.9,0,17.3,5.5,23.5,15.4c10.1,16.2,12.8,36.1,7.3,54.7
							c-5.4,18.4-18.2,33.5-35.2,41.4C2081,1800.9,2062.8,1804.9,2043.8,1804.9z"/>
					</g>
					<g>
						<path class="st2" d="M1908.5,1663.9c10.6,0,20.5,5.7,30.5,17.3c2.6,3,5.3,6,8,8.9c6.3-3,8.7-8.5,12.6-12.5
							c8.2-8.5,17.5-12.9,27-12.9c8.5,0,17.2,3.5,25.3,10.6c12.8,11.2,22.1,25.2,31.7,38.9c7.8,11,15.3,22.3,25.8,31.1
							c6.4,5.3,13.5,8,20.3,8c4.4,0,8.7-1.2,12.7-3.5c9.9-6,13.4-15.1,12.1-26.2c-1.4-12.6-9-20.2-22.8-23.5c-1-0.3-1.9-1.1-3-1.7
							c4.3-5.1,9-7.7,13.6-7.7c5.6,0,11,3.7,15.6,11c18,28.8,7,68.3-24,82.9c-16.5,7.7-33.2,11-50,11c-17.3,0-34.6-3.4-51.9-8.9
							c-20.6-6.6-25.1-10.3-47.6-33.5c-25.8,29.8-59.6,37.9-96.2,37.9c-3.1,0-6.2-0.1-9.4-0.2c-18-0.6-34.6-6-49.3-16.7
							c-24.4-17.8-31.5-47.3-18.1-74.3c3.2-6.4,7.5-11.7,14.3-14.6c2.5-1,4.8-1.6,7-1.6c4.6,0,8.9,2.3,13.2,7.8
							c-13.3,1.3-22.6,6.3-26.9,17.7c-4.3,11.3-3.1,21.9,6,30.5c4,3.8,9.7,5.7,15.8,5.7c5.5,0,11.3-1.6,16.3-4.7
							c11.7-7.3,19.9-18.1,28.7-28.4c11.1-13.1,21.5-26.9,35.4-37.3C1891,1667.6,1900,1663.9,1908.5,1663.9 M1908.5,1645.3
							c-12.6,0-25.2,4.9-38.4,14.8c-13.2,10-23.2,21.9-32.8,33.5c-1.8,2.2-3.7,4.5-5.6,6.7c-1.1,1.3-2.1,2.5-3.2,3.8
							c-6.9,8.2-13.4,16-21.1,20.8c-2,1.2-4.3,1.9-6.5,1.9c-1.9,0-2.9-0.5-3-0.7c-1.8-1.7-3.9-3.7-1.3-10.4
							c0.8-2.2,1.9-4.9,11.3-5.8c6.8-0.6,12.7-5,15.4-11.2c2.7-6.3,1.7-13.5-2.6-18.8c-7.8-9.8-17.2-14.8-27.8-14.8
							c-4.6,0-9.4,1-14.2,3c-10.2,4.3-18.2,12.1-23.8,23.5c-17.5,35.3-7.9,74.5,23.8,97.6c17.4,12.7,37.4,19.5,59.6,20.2
							c3.4,0.1,6.8,0.2,10,0.2c22.4,0,41.5-2.9,58.3-8.8c13.9-4.9,26.5-12.1,37.7-21.4c13.8,13.4,22.4,18.7,42.1,25
							c20.7,6.6,39.5,9.8,57.5,9.8c20.4,0,39.9-4.3,57.9-12.7c19.4-9.1,34-26.3,40.2-47.2c6.2-21.2,3.2-43.9-8.3-62.3
							c-10.7-17.2-24.2-19.7-31.3-19.7c-7.2,0-17.9,2.5-27.8,14.3c-3.5,4.2-5,9.8-4,15.2c1,5.3,4.2,10,8.8,12.7l0.1,0.1
							c1.3,0.9,4,2.7,7.9,3.6c8.1,2,8.4,4.5,8.7,7.5c0.7,5.8-1.3,7-3.3,8.2c-1,0.6-1.9,0.9-3,0.9c-2.5,0-5.5-1.4-8.4-3.8
							c-7.7-6.4-13.8-15.2-20.4-24.5c-0.7-1-1.4-2-2.1-3c-0.9-1.3-1.9-2.7-2.8-4c-9.2-13.1-18.7-26.6-31.9-38.2
							c-11.4-10-24.3-15.2-37.5-15.2c-14.1,0-27.5,5.9-38.9,17.1C1935.4,1651.2,1922.5,1645.3,1908.5,1645.3L1908.5,1645.3z"/>
					</g>
				</g>
			</g>
			<g>
				<g>
					<g>
						<g>
							<path class="st6" d="M1732.3,1599.3c-0.5,0-1.1-0.1-1.6-0.2c-1.8-0.4-3.3-1.6-4.3-3.1l-2.1-3.4c-1.9-3-1.1-7,1.7-9.2
								c0.5-0.4,1.4-1.1,2.1-1.7c-0.3-0.7-0.9-1.8-1.9-3.4l-21.6-37c-0.9-1.6-1.5-2.6-2-3.2c-0.7,0.3-1.6,0.7-2.7,1.2
								c-1,0.5-2,0.7-3.1,0.7c-2.4,0-4.6-1.2-6-3.3l-2.1-3.4c-2-3.3-1-7.6,2.3-9.6c12-7.3,18.3-10.9,30.8-17.3
								c7.9-4.1,14-5.9,19.8-5.9c1.1,0,2.2,0.1,3.3,0.2c7.5,1,13.9,5.8,17,12.9c1.7,3.8,3.3,10,0.5,16.9c7.8,1.1,13.8,5.7,17.1,13.3
								c3.7,8.5,2.8,18-2.5,25.9c-3.9,5.8-10.7,11.5-19.3,16c-9,4.8-13.3,7.2-22.1,12.6C1734.9,1599,1733.6,1599.3,1732.3,1599.3z
								 M1750.2,1564.5c0.9,1.7,1.6,2.6,2,3.1c0.1-0.1,0.2-0.1,0.4-0.2c2.3-1.3,3.9-4.6,1.2-10.2c-2.1-4.5-4.4-5.1-6.4-5.1
								c-1,0-2.2,0.2-3.5,0.6L1750.2,1564.5z M1734.6,1535.7c3.5-2.8,2.5-4.8,1.2-7.5c-1.5-3-3.2-4.6-5.2-4.6
								c-0.7,0-1.5,0.2-2.2,0.5L1734.6,1535.7z"/>
						</g>
						<g>
							<path class="st2" d="M1741.9,1507.5c0.8,0,1.6,0.1,2.4,0.2c5,0.6,9.3,3.8,11.6,8.8c4.4,10-2.4,17.7-8.8,22.6
								c0.1,0.2,0.2,0.3,0.3,0.5c4.2-1.5,8.1-2.3,11.6-2.3c6.6,0,11.8,2.9,14.6,9.4c2.9,6.8,1.8,13.7-1.9,19.2
								c-3.3,4.9-9.3,9.8-16.8,13.7c-9.1,4.8-13.6,7.4-22.4,12.8c-0.8-1.4-1.3-2-2.1-3.4c6.3-4.8,6.9-5.8,2-14.2
								c-8.6-14.8-13-22.2-21.6-37c-2.9-5-4.6-7-7.1-7c-1.7,0-3.7,0.9-6.7,2.3c-0.8-1.4-1.2-2-2.1-3.4c12-7.3,18-10.7,30.4-17.1
								C1732.1,1509.1,1737.3,1507.5,1741.9,1507.5 M1732,1545.5c0.9-0.5,1.3-0.7,2.2-1.2c9.4-5,12-10.9,8-19.1
								c-3-6.1-7.2-8.5-11.4-8.5c-2.1,0-4.2,0.6-6.1,1.6c-2.3,1.2-3.8,2.9-4,3.8c-0.3,1,0.3,2.6,1.4,4.7
								C1725.9,1534.3,1727.9,1538,1732,1545.5 M1751.6,1574.9c1.3,0,2.6-0.5,4.2-1.3c4.9-2.7,8.8-9.6,4.1-19.4
								c-2.9-5.9-7.1-9-12.7-9c-3.3,0-7.1,1.1-11.3,3.3c-0.8,0.4-1.1,0.6-1.9,1c4,7.3,5.9,11,9.9,18.3
								C1746.7,1572.8,1749,1574.9,1751.6,1574.9 M1741.9,1493.6L1741.9,1493.6c-7,0-14.1,2.1-23,6.7c-12.7,6.5-19.1,10.1-31.3,17.6
								c-6.6,4-8.6,12.6-4.6,19.2l2.1,3.4c2.6,4.3,7.2,6.7,11.9,6.7c0.9,0,1.9-0.1,2.8-0.3l7.9,13.5l11.7,20c-3.6,4.5-4.1,10.9-1,16
								l0.8,1.3l1.3,2.1c1.9,3.2,5,5.4,8.6,6.3c1.1,0.3,2.2,0.4,3.3,0.4c2.6,0,5.1-0.7,7.3-2.1c8.6-5.2,12.8-7.7,21.7-12.4
								c6.8-3.6,16.1-9.7,21.8-18.3c6.7-10,7.8-21.8,3.2-32.6c-3.2-7.3-8.5-12.6-15.2-15.4c0.6-6.4-1.1-11.8-2.5-14.9
								c-4.2-9.3-12.6-15.7-22.5-17C1744.7,1493.7,1743.3,1493.6,1741.9,1493.6L1741.9,1493.6z"/>
						</g>
					</g>
					<g>
						<g>
							<path class="st6" d="M1797.1,1567.2c-1,0-2-0.2-2.9-0.6c-1.7-0.8-3-2.2-3.7-4l-1.3-3.8c-1.1-3.2,0.2-6.8,3.2-8.4
								c2-1.1,2.4-1.5,2.5-1.6c0.5-0.9,0.5-5.6,0.5-7.6c0.3-24.6,1-37.4,3.6-62.1c0.2-2.2,1.5-4.2,3.4-5.3c2.2-1.3,3.3-1.9,5.4-3.1
								c1.1-0.6,2.3-0.9,3.4-0.9c2.1,0,4.2,1,5.6,2.8c11.2,14.8,22.4,31.1,35.5,51.5c2.5,3.9,4.1,6,4.7,6.4l0,0c0,0,0.3,0.1,1.1,0.1
								c0.5,0,0.9,0,1.5-0.1c0.1,0,0.3,0,0.4,0c3.3,0,6.1,2.3,6.8,5.5l0.8,3.9c0.4,1.8,0,3.7-1,5.2c-1,1.5-2.6,2.6-4.4,3
								c-10.9,2.3-16.2,3.6-26.9,6.6c-0.6,0.2-1.3,0.3-1.9,0.3c-3,0-5.8-2-6.7-5.1l-1.1-3.8c-0.8-2.9,0.3-6,2.8-7.7
								c-1-1.5-2.3-3.5-3.8-5.8c-3.4,1-6.2,1.8-9.5,2.9c0,2.1,0.1,4.3,0.2,6.6c0.1,0,0.1,0,0.2,0c0.4-0.1,0.8-0.1,1.2-0.1
								c3,0,5.7,1.9,6.6,4.8l1.2,3.8c0.6,1.8,0.4,3.7-0.4,5.3c-0.8,1.6-2.3,2.9-4,3.5c-8.4,2.7-12.4,4.2-20.6,7.4
								C1798.8,1567,1798,1567.2,1797.1,1567.2z"/>
						</g>
						<g>
							<path class="st2" d="M1811.3,1476.7c12.6,16.7,24.2,33.9,35.2,51.1c5,7.9,6.8,9.7,11.7,9.7c0.6,0,1.2,0,1.9-0.1
								c0.3,1.6,0.5,2.3,0.8,3.9c-11,2.3-16.5,3.7-27.4,6.7c-0.4-1.5-0.7-2.3-1.1-3.8c5.4-2.7,5.5-4.1,2.8-8.3
								c-1.8-2.9-4.6-7.2-7.6-11.4c-7.8,2.2-11.7,3.4-19.4,6c0,3.9,0.1,8.3,0.4,12.9c0.3,4.1,0.7,5.9,4.4,5.9c1,0,2.3-0.1,3.9-0.4
								c0.5,1.5,0.7,2.3,1.2,3.8c-8.4,2.8-12.6,4.3-20.9,7.5c-0.5-1.5-0.8-2.3-1.3-3.8c6.1-3.3,6.5-5,6.6-15.2
								c0.3-24.4,1-36.7,3.5-61.4C1808,1478.5,1809.1,1477.9,1811.3,1476.7 M1808,1524.3c6.4-2.1,9.6-3.1,16-4.9
								c-5.7-8.4-8.7-12.6-14.7-20.9c-0.1,0-0.2,0.1-0.3,0.1C1808.4,1507.2,1808.1,1515.8,1808,1524.3 M1811.2,1462.7
								c-2.4,0-4.7,0.6-6.9,1.8c-2.2,1.2-3.3,1.9-5.5,3.2c-3.8,2.2-6.3,6.2-6.8,10.6c-2.6,25-3.3,37.9-3.6,62.7c0,0,0,0,0,0.1
								c0,0.7,0,2.2-0.1,3.5c-5.5,3.4-7.9,10.2-5.7,16.4l1.3,3.8c1.3,3.6,3.9,6.5,7.3,8c1.8,0.8,3.8,1.3,5.8,1.3
								c1.7,0,3.4-0.3,5.1-1c8-3.1,12-4.6,20.2-7.2c2.7-0.9,5-2.5,6.7-4.8c1.4,0.5,2.9,0.7,4.4,0.7c1.3,0,2.5-0.2,3.8-0.5
								c10.5-3,15.7-4.3,26.4-6.5c3.6-0.8,6.8-2.9,8.8-6c2-3.1,2.7-6.9,2-10.5l-0.4-1.8l-0.4-2.1c-1.3-6.4-7-11-13.4-11.1
								c-0.5-0.7-1.2-1.7-2.1-3.2c0,0,0,0,0,0c-13.2-20.5-24.5-37-35.8-51.9C1819.7,1464.7,1815.5,1462.7,1811.2,1462.7
								L1811.2,1462.7z"/>
						</g>
					</g>
					<g>
						<g>
							<path class="st6" d="M1879.5,1544.8c-3.4,0-6.3-2.4-6.9-5.9l-0.6-3.9c-0.6-3.5,1.5-6.8,4.9-7.8c1.1-0.3,1.9-0.6,2.4-0.8
								c0-0.7-0.1-1.9-0.4-3.9l-6-42.5c-0.3-1.8-0.5-2.9-0.6-3.6c-0.1,0-0.2,0-0.2,0c-0.7,0-1.5,0-2.6,0.1c-0.2,0-0.4,0-0.5,0
								c-3.4,0-6.3-2.5-6.9-5.9l-0.6-3.9c-0.3-1.8,0.2-3.7,1.2-5.2c1.1-1.5,2.7-2.5,4.5-2.8c12.8-2.1,19.4-2.9,32.3-4.1
								c3.1-0.3,5.7-0.4,8.1-0.4c7.3,0,12.7,1.3,17.3,4.2c6.9,4.3,11.1,11.7,11.4,20.4c0.2,6.4-1.6,14.8-10.2,21.5
								c1.8,3,3.9,6.5,5.8,9.3l2,3c2.5,3.9,4.3,6.7,5.7,8.2c1.6,1.9,2.2,2.2,3.2,2.5c3,1.2,4.8,4.3,4.4,7.5
								c-0.2,1.5-0.3,2.2-0.5,3.7c-0.5,3.4-3.4,5.9-6.8,6c0,0-0.1,0-0.2,0c-0.2,0-0.5,0-0.9,0c-0.3,0-0.8,0-1.2,0c0,0-0.4,0-0.4,0
								c-0.1,0-0.2,0-0.3,0c-9.9-0.4-16-2.2-21-6.8c0.1,1.8-0.5,3.5-1.6,4.8c-1.2,1.4-2.9,2.3-4.7,2.5c-11.6,1-17.3,1.7-28.8,3.6
								C1880.3,1544.7,1879.9,1544.8,1879.5,1544.8z M1906.4,1523.1c0.4,0,0.9,0.1,1.5,0.1c-0.7-1.1-1.3-2.2-2-3.3
								C1906.1,1521.4,1906.2,1522.4,1906.4,1523.1z M1902.8,1491.4c1.2-0.4,1.7-0.8,1.8-0.9c1.4-1.5,2.8-3.7,2.5-8.6
								c-0.3-4-1.6-8.7-6.3-8.8L1902.8,1491.4z"/>
						</g>
						<g>
							<path class="st2" d="M1907.7,1461.2c6,0,10.2,1,13.7,3.1c4.6,2.8,7.8,7.8,8.1,14.7c0.3,10-5.8,15.5-12.6,18.9
								c1.8,3.2,6.1,10.4,9.4,15.4c3.9,6,6.2,9.7,8.2,12c2.1,2.5,3.7,3.6,6,4.5c-0.2,1.5-0.3,2.3-0.5,3.8c0,0,0,0-0.1,0
								c-0.4,0-1.2,0-2.1,0c-0.1,0-0.3,0-0.5,0c-12.4-0.5-16.3-3.3-20.8-10.1c-2.9-4.4-6-10.2-9.6-15.9c-1.8-2.8-3.7-4-6.4-4
								c-0.3,0-0.7,0-1.1,0.1c-0.8,0.1-1.2,0.1-2,0.2c0.7,6.4,1,9.7,1.7,16.1c1,9.2,2.1,10,9.6,10.2c0.1,1.6,0.2,2.4,0.3,4
								c-11.8,1-17.6,1.8-29.3,3.7c-0.3-1.6-0.4-2.4-0.6-3.9c7.1-2.1,8.3-3.2,7-12.3c-2.4-17-3.6-25.5-6-42.5
								c-1.1-7.6-2.2-9.6-7.8-9.6c-0.9,0-2,0.1-3.2,0.1c-0.3-1.6-0.4-2.4-0.6-3.9c12.7-2,19.1-2.8,31.9-4
								C1903,1461.4,1905.4,1461.2,1907.7,1461.2 M1896.7,1499.4c1-0.1,1.6-0.2,2.6-0.3c4.6-0.5,8.3-1.5,10.5-3.9
								c3.4-3.7,4.6-8.1,4.3-13.8c-0.7-11.2-7.2-15.3-13.3-15.3c-0.4,0-0.9,0-1.3,0.1c-3,0.3-4.5,1-5.2,1.8c-0.7,0.7-0.8,2-0.5,4.2
								C1894.9,1483,1895.5,1488.5,1896.7,1499.4 M1907.7,1447.3L1907.7,1447.3c-2.6,0-5.5,0.1-8.8,0.4c-13.1,1.2-19.8,2.1-32.8,4.1
								c-3.7,0.6-6.9,2.6-9.1,5.6c-2.2,3-3.1,6.7-2.5,10.4l0.6,3.9c1,5.9,5.6,10.4,11.2,11.5l4.2,30.1l1.2,8.4
								c-4.9,2.9-7.6,8.5-6.7,14.2l0.4,2.7l0.2,1.3c1.1,6.8,7,11.7,13.7,11.7c0.7,0,1.5-0.1,2.2-0.2c11.3-1.8,16.9-2.5,28.3-3.5
								c3.3-0.3,6.4-1.7,8.7-4.1c4.8,2.2,10.6,3.3,17.8,3.6c0.2,0,0.4,0,0.5,0c0.1,0,0.2,0,0.3,0l0.2,0c0.4,0,0.7,0,1,0
								c0.4,0,0.8,0,1.1,0l0.2,0c6.9-0.1,12.7-5.1,13.6-12c0.2-1.5,0.3-2.2,0.5-3.7c0.9-6.4-2.6-12.6-8.6-15
								c-0.1-0.1-0.3-0.3-0.6-0.6c-1-1.2-2.8-4-5.1-7.5c-0.6-1-1.3-2-2-3.1c-0.9-1.3-1.8-2.8-2.7-4.2c7.3-8.1,8.4-17.2,8.2-22.9
								c-0.4-11.1-5.7-20.6-14.7-26.1C1922.9,1448.9,1916.2,1447.3,1907.7,1447.3L1907.7,1447.3z"/>
						</g>
					</g>
					<g>
						<g>
							<path class="st6" d="M1988.3,1541.6c-2.1,0-4.3-0.1-6.6-0.3c-9.8-0.9-14.7-1.2-24.5-1.5c-1.8-0.1-3.6-0.9-4.9-2.2
								s-1.9-3.1-1.9-5l0.1-4c0.1-3.5,2.9-6.4,6.4-6.7c0.5,0,1.6-0.1,2.4-0.2c0.1-0.8,0.2-2,0.3-3.9l2.3-42.8c0.1-1.8,0.1-3,0.1-3.8
								c-0.6-0.1-1.5-0.3-2.6-0.4c-3.6-0.5-6.2-3.6-6.1-7.1l0.1-4c0.1-3.8,3.2-6.7,7-6.7c0.1,0,0.2,0,0.2,0
								c13.6,0.5,20.6,0.9,34.2,2.4c10.2,1.1,17,3.5,22.1,7.9c5.6,4.9,8.3,12.4,7,20c-0.7,4.2-2.7,10.1-8.7,14.5
								c7.9,7,7.7,16,6.9,20.5c-1.5,9.1-7.4,16.5-16.1,20.3C2001.4,1540.5,1995.2,1541.6,1988.3,1541.6z M1987,1523
								c0.1,0,0.2,0,0.3,0c2.4,0,5.2-2.1,6-8c0.4-2.9,0-5.1-1.1-6.5c-0.8-1.1-2.3-1.9-4.2-2.5l-1.1,13.3c-0.2,1.9-0.1,3-0.1,3.7
								C1986.9,1523,1987,1523,1987,1523z M1989.7,1486.6c3.3-0.4,4.2-2,4.6-5.6c0.2-1.9,0.3-4.4-0.9-5.9c-0.7-0.8-1.7-1.2-2.6-1.4
								L1989.7,1486.6z"/>
						</g>
						<g>
							<path class="st2" d="M1960.5,1459.8c13.5,0.5,20.2,0.9,33.7,2.3c8.8,0.9,14.3,2.8,18.2,6.2c3.8,3.3,5.6,8.2,4.7,13.7
								c-1.7,10.8-11.5,13.5-19.4,14.1c0,0.2,0,0.4-0.1,0.6c12.3,3,19.5,9.6,17.7,20.2c-1.2,7.3-5.9,12.4-12,15.1
								c-4,1.8-9.3,2.6-15.2,2.6c-1.9,0-3.9-0.1-5.9-0.3c-10-0.9-15-1.3-25-1.6c0.1-1.6,0.1-2.4,0.1-4c7.6-0.6,8.7-1.1,9.2-10.7
								c0.9-17.1,1.4-25.7,2.3-42.8c0.5-9.6-0.6-10.4-8.6-11.4C1960.5,1462.2,1960.5,1461.4,1960.5,1459.8 M1987.5,1493.7
								c8.3,0,12.6-3.7,13.7-11.8c1.3-10.1-4.3-14.7-10.6-15.3c-0.4,0-0.7-0.1-1.1-0.1c-2,0-3.7,0.6-4.2,1c-0.8,0.7-1.2,2.4-1.4,4.7
								c-0.7,8.4-1.1,12.7-1.8,21.1c0.9,0.1,1.4,0.1,2.4,0.2C1985.6,1493.6,1986.6,1493.7,1987.5,1493.7 M1987.3,1530
								c5.3,0,11.5-3.9,12.9-14c1.4-10.4-4.1-16.7-16.4-17.8c-0.8-0.1-1.2-0.1-2.1-0.2c-0.7,8.3-1.1,12.4-1.8,20.7
								c-0.7,8.3,1.1,10.8,6.5,11.3C1986.7,1529.9,1987,1530,1987.3,1530 M1960.5,1445.9c-7.5,0-13.7,5.9-13.9,13.5l-0.1,3.3l0,0.7
								c-0.2,5.9,3.3,11.1,8.5,13.3l-1.9,36.1l-0.2,2.9c-5.3,1.9-9.1,6.8-9.3,12.7l0,1l-0.1,3c-0.1,3.7,1.2,7.3,3.8,10
								c2.5,2.7,6,4.3,9.7,4.4c9.7,0.3,14.4,0.6,24.1,1.5c2.4,0.2,4.9,0.3,7.2,0.3c7.9,0,15-1.3,20.7-3.8
								c10.9-4.7,18.2-14,20.2-25.5c1.2-6.9,0.2-14.5-4.3-21.1c4.1-5.1,5.5-10.5,6.1-13.9c1.6-10.1-1.9-19.9-9.4-26.4
								c-6.2-5.4-14.2-8.3-25.9-9.6c-13.7-1.4-20.9-1.9-34.7-2.4C1960.8,1445.9,1960.7,1445.9,1960.5,1445.9L1960.5,1445.9z"/>
						</g>
					</g>
					<g>
						<g>
							<path class="st6" d="M2080.2,1563c-0.8,0-1.6-0.1-2.3-0.4c-18.9-6.7-28.3-9.4-47.8-13.7c-1.8-0.4-3.4-1.5-4.4-3.1
								c-1-1.6-1.3-3.4-0.9-5.3l0.9-3.9c0.7-3.2,3.6-5.5,6.8-5.5c0.3,0,0.6,0,0.8,0c1.2,0.1,2.4,0.3,3.4,0.3c0.2-0.7,0.6-1.9,1-3.7
								l10.2-41.5c0.5-1.9,0.7-3.1,0.8-3.9c-0.9-0.3-2.1-0.7-2.6-0.9c-3.5-1.1-5.5-4.6-4.7-8.2l0.9-3.9c0.7-3.2,3.6-5.4,6.8-5.4
								c0.5,0,1,0.1,1.5,0.2c21.7,4.9,32.8,8,53.8,15.3c3.5,1.2,5.5,5,4.4,8.6c-0.3,1-1.1,3.8-2,7.1c-0.8,2.8-1.7,6.1-2.6,9.3
								c-0.9,3-3.6,5.1-6.7,5.1c-0.4,0-0.8,0-1.2-0.1c0,0.1,0,0.1-0.1,0.2l-7,20.9c0.6,0.2,1.1,0.5,1.7,0.8c1.3,0.9,1.9,1.3,3.2,2.2
								c2.9,2,3.9,5.9,2.3,9c-2.5,4.8-8,13.9-10.1,17.1C2084.8,1561.8,2082.6,1563,2080.2,1563z M2063.6,1537.8
								c0.9,0.4,2.3,0.9,4.5,1.5c1.5,0.5,3.6,1.1,5,1.1c0.7,0,0.9-0.1,0.9-0.2c1.1-0.7,2.7-2,5.2-4.6c-0.9-0.3-1.6-0.5-2.8-0.9
								c-3.2-1.1-5.2-4.3-4.7-7.7c0.2-1.2,0.3-2,0.3-2.6c-1.2-0.5-3.3-1.1-4.1-1.4c-0.1,0-0.1,0-0.2-0.1l-3.2,11.6
								C2064,1536,2063.8,1537,2063.6,1537.8z M2073.5,1504.2c1.1,0.3,3.3,1,4.7,1.2c0.3-0.4,0.7-1.1,1.4-2.3
								c1.2-2.3,3.6-3.7,6.1-3.7c0.3,0,0.5,0,0.8,0c0-2.7-0.3-4.5-0.7-5.1c-0.1-0.2-0.8-1.2-5.7-2.7c-1.4-0.4-2.3-0.7-3.4-1
								l-3.7,13.3C2073.1,1504.1,2073.3,1504.1,2073.5,1504.2z"/>
						</g>
						<g>
							<path class="st2" d="M2048.9,1471.1c21.5,4.8,32.1,7.8,53,15.1c-0.6,1.9-2.7,9.5-4.6,16.5c-1.6-0.3-2.4-0.5-4-0.8
								c0.3-4,0-8.3-1.3-10.8c-1.3-2.5-4-4.3-9.9-6.1c-2.2-0.7-3.4-1-5.6-1.7c-1.5-0.4-2.6-0.7-3.3-0.7c-1.3,0-1.7,0.9-2.4,3.2
								c-2.6,9.2-3.9,13.8-6.4,23c2.9,0.8,4.3,1.2,7.1,2.1c3.3,1,5.6,1.6,7.3,1.6c3,0,4.5-1.7,6.9-6.1c1.5,0.5,2.3,0.8,3.8,1.3
								c-2.9,8.6-4.4,13-7.3,21.6c-1.4-0.5-2.2-0.7-3.6-1.2c1.2-8.1-0.1-9.1-8.7-11.7c-2.8-0.8-4.2-1.2-7-2
								c-2.1,7.3-3.1,11-5.1,18.3c-1.4,5.2-1.8,8.1-0.2,9.6c1.4,1.3,5,2.6,8.5,3.7c2.6,0.8,4.9,1.4,7,1.4c1.7,0,3.3-0.4,4.7-1.3
								c2.6-1.7,5.7-4.6,9.1-8.7c1.3,0.8,1.9,1.3,3.2,2.1c-2.4,4.6-7.9,13.6-9.8,16.5c-19.2-6.8-29-9.6-48.7-13.9
								c0.3-1.6,0.5-2.3,0.9-3.9c2,0.2,3.6,0.4,4.9,0.4c4.3,0,5.3-1.8,7.1-9.1c4.1-16.6,6.1-24.9,10.2-41.5c2.4-9.7,1.5-10.5-6.5-13
								C2048.4,1473.5,2048.6,1472.7,2048.9,1471.1 M2048.9,1457.2c-6.4,0-12.1,4.4-13.6,10.9l-0.4,1.7l-0.5,2.2
								c-1.3,5.8,1.2,11.7,6.1,14.8l-7.8,32l-1.4,5.5c-6,0.5-11.2,4.8-12.5,10.9l-0.3,1.3l-0.6,2.6c-1.7,7.5,3.1,15,10.6,16.6
								c19.2,4.2,28.5,6.9,47,13.5c1.5,0.5,3.1,0.8,4.7,0.8c4.6,0,9.1-2.3,11.7-6.4c2.1-3.3,7.8-12.7,10.4-17.6
								c3.3-6.3,1.4-14.1-4.5-18c-0.1-0.1-0.3-0.2-0.4-0.3l2.3-6.8l1.6-4.7c4.4-1.3,8.1-4.8,9.4-9.6c0.9-3.2,1.8-6.5,2.6-9.3
								c0.9-3.1,1.7-6,1.9-6.9c2.2-7.2-1.7-14.8-8.7-17.2c-21.3-7.4-32.5-10.6-54.6-15.6C2051,1457.3,2049.9,1457.2,2048.9,1457.2
								L2048.9,1457.2z"/>
						</g>
					</g>
					<g>
						<g>
							<path class="st6" d="M2155.3,1599.9c-1.2,0-2.5-0.3-3.6-1c-0.2-0.1-0.5-0.3-0.9-0.6c-0.4-0.2-0.9-0.6-1.4-0.9
								c-0.1-0.1-0.2-0.1-0.3-0.2c-8.7-5.9-13-10.8-14.9-17.6l0,0.1c-0.8,1.6-2.3,2.9-4.1,3.5c-0.7,0.2-1.4,0.3-2.2,0.3
								c-1.1,0-2.2-0.3-3.2-0.8c-10.6-5.4-15.9-7.8-26.9-12.4c-3.6-1.5-5.2-5.6-3.7-9.1l1.5-3.7c1.1-2.6,3.7-4.3,6.4-4.3
								c0.6,0,1.3,0.1,1.9,0.3c1.1,0.3,2,0.5,2.6,0.7c0.4-0.6,0.9-1.7,1.7-3.5l17.4-39.3c0.7-1.7,1.1-2.7,1.4-3.4
								c-0.5-0.3-1.3-0.8-2.6-1.5c-3.2-1.7-4.6-5.5-3.2-8.9l1.5-3.7c0.7-1.7,2.1-3.1,3.8-3.8c0.8-0.3,1.7-0.5,2.6-0.5
								c0.9,0,1.8,0.2,2.7,0.5c12.2,5.1,18.4,8,30.2,13.9c10.9,5.5,16.8,10.4,20.1,16.8c3.8,7.4,3.5,16-0.9,23.5
								c-4.4,7.6-11.4,11.9-20.3,12.7c0,3.5,0,7.5,0.1,10.9l0.1,3.6c0.1,4.7,0.3,8.1,0.6,10.2c0.4,2.4,0.8,3,1.5,4
								c2,2.6,1.9,6.3-0.3,8.8c-1,1.1-1.5,1.7-2.5,2.9C2159.2,1599,2157.2,1599.9,2155.3,1599.9z M2131.5,1565.7
								c0.4,0.3,0.9,0.6,1.5,1.1c0-1.5,0-3.1,0.1-4.7l0,0.1C2132.2,1563.9,2131.7,1565,2131.5,1565.7z M2145.2,1537
								c0.9,0.2,1.5,0.3,1.9,0.3c0.2,0,0.4,0,0.5-0.1c2.1-0.5,4.4-1.6,6.7-5.9c1.7-3.1,2.2-5.8,1.5-7.8c-0.5-1.6-1.7-2.6-2.7-3.2
								L2145.2,1537z"/>
						</g>
						<g>
							<path class="st2" d="M2129.1,1496.7c12,5,18,7.8,29.8,13.7c9.6,4.8,14.4,8.7,17,13.8c2.5,4.9,2.8,10.9-0.7,16.8
								c-4.2,7.2-10.7,9.3-17.2,9.3c-1.3,0-2.6-0.1-3.9-0.2c-0.2,3.7-0.2,12.2,0,18.2c0.2,7.2,0.3,11.6,0.8,14.7
								c0.5,3.3,1.3,5.1,2.9,7.1c-1,1.2-1.5,1.7-2.5,2.9c-0.4-0.2-1.3-0.9-2.3-1.5c-10.7-7.2-12.6-11.8-12.9-19.9
								c-0.2-5.3,0.1-11.9,0.1-18.7c-0.1-3.8-1.3-5.9-4.4-7.4c-0.8-0.4-1.1-0.6-1.9-0.9c-2.8,5.8-4.2,8.8-7,14.6
								c-4,8.3-3.5,9.6,3,13.9c-0.7,1.4-1.1,2.1-1.8,3.6c-10.8-5.5-16.3-8-27.4-12.7c0.6-1.5,0.9-2.2,1.5-3.7c2.3,0.6,4,1,5.4,1
								c3.1,0,4.6-2,7.2-7.8c6.9-15.7,10.4-23.6,17.4-39.3c3.6-8.2,3.1-9.9-4.5-13.9C2128.2,1498.9,2128.5,1498.1,2129.1,1496.7
								 M2147.1,1544.3c0.8,0,1.6-0.1,2.3-0.3c4.9-1.3,8.4-4.4,11-9.4c5.7-10.6,1.3-17.8-4.6-20.8c-2.1-1-3.6-1.4-4.6-1.4
								c-0.3,0-0.6,0-0.9,0.1c-1,0.3-1.7,1.3-2.7,3.3c-4.8,9.9-7.1,14.8-11.9,24.7c1,0.5,1.5,0.7,2.4,1.2
								C2141.4,1543.2,2144.4,1544.3,2147.1,1544.3 M2129.1,1482.7c-1.8,0-3.6,0.3-5.3,1c-3.4,1.4-6.1,4.1-7.6,7.5l-1.1,2.7
								l-0.4,0.9c-2.3,5.6-0.8,11.9,3.6,15.8l-3.9,8.9l-11.8,26.6c-0.2,0-0.3,0-0.5,0c-5.5,0-10.7,3.3-12.9,8.6l-0.8,1.8l-0.8,1.8
								c-3,7.1,0.4,15.3,7.5,18.2c10.8,4.5,16,6.9,26.5,12.2c2,1,4.1,1.5,6.3,1.5c1.1,0,2.3-0.1,3.4-0.4c3,4.6,7.5,8.6,13.8,12.9
								c0.2,0.1,0.4,0.3,0.6,0.4c0.3,0.2,0.7,0.5,1.1,0.7c0.5,0.3,0.8,0.6,1.1,0.7c2.3,1.4,4.8,2,7.3,2c4,0,7.9-1.7,10.6-4.9
								c1-1.1,1.5-1.7,2.5-2.9c4.3-5,4.5-12.3,0.5-17.6c0-0.2-0.1-0.5-0.2-0.9c-0.3-1.6-0.4-5-0.5-9.3c0-1.1-0.1-2.3-0.1-3.6
								c-0.1-1.5-0.1-3.1-0.1-4.8c8.2-2.2,14.9-7.4,19.3-15c5.6-9.6,6-20.7,1.1-30.2c-5-9.8-14.1-15.3-23.2-19.9
								c-12-6-18.3-8.9-30.6-14.1C2132.7,1483.1,2130.9,1482.7,2129.1,1482.7L2129.1,1482.7z"/>
						</g>
					</g>
				</g>
			</g>
			<g>
				<defs>
					<path id="SVGID_1_" d="M2257.7,1911.1h-624.2v-533.1c0-7,5.6-12.6,12.6-12.6h599c7,0,12.6,5.6,12.6,12.6V1911.1z"/>
				</defs>
				<clipPath id="SVGID_2_">
					<use xlink:href="#SVGID_1_"  style="overflow:visible;"/>
				</clipPath>
				<g class="st12">
					<g>
						
							<rect x="970.1" y="1530.9" transform="matrix(0.8341 -0.5516 0.5516 0.8341 -577.0662 1219.7261)" class="st10" width="1538.1" height="76.6"/>
					</g>
				</g>
				<g class="st12">
					<g>
						
							<rect x="1090.1" y="1630.1" transform="matrix(0.8341 -0.5516 0.5516 0.8341 -633.6068 1308.8802)" class="st10" width="1538.1" height="155.3"/>
					</g>
				</g>
				<g class="st12">
					<g>
						
							<rect x="1270.1" y="1788.8" transform="matrix(0.8341 -0.5516 0.5516 0.8341 -657.0178 1424.2205)" class="st10" width="1538.1" height="31.1"/>
					</g>
				</g>
			</g>
			<g>
				<g>
					<path class="st13" d="M1522,1989.6c-21.5,0-38.9-17.5-38.9-38.9s17.5-38.9,38.9-38.9h847.1c21.5,0,38.9,17.5,38.9,38.9
						s-17.5,38.9-38.9,38.9H1522z"/>
				</g>
				<g>
					<path class="st2" d="M2369.1,1925.7c13.8,0,25,11.2,25,25s-11.2,25-25,25H1522c-13.8,0-25-11.2-25-25s11.2-25,25-25H2369.1
						 M2369.1,1897.8H1522c-29.1,0-52.9,23.7-52.9,52.9s23.7,52.9,52.9,52.9h847.1c29.1,0,52.9-23.7,52.9-52.9
						S2398.3,1897.8,2369.1,1897.8L2369.1,1897.8z"/>
				</g>
			</g>
			<g class="st8">
				<g>
					<path class="st2" d="M2375.5,1950.7c0-13.8-11.2-25-25-25h-107.8c1.7,3.3,2.7,7.1,2.7,11c0,13.8-11.2,25-25,25h-720.8
						c4.1,8.2,12.5,13.9,22.3,13.9h828.6C2364.4,1975.7,2375.5,1964.5,2375.5,1950.7z"/>
				</g>
			</g>
			<g class="st5">
				<path class="st6" d="M1524.9,1960c0-13.8,11.2-25,25-25h838.6c-4.6-5.6-11.5-9.3-19.3-9.3H1522c-13.8,0-25,11.2-25,25
					c0,13.8,11.2,25,25,25h8.6C1527.1,1971.4,1524.9,1966,1524.9,1960z"/>
			</g>
			<g>
				<g>
					<path class="st11" d="M975.3,1706.6c-7.7,0-13.9-6.2-13.9-13.9v-318.7c0-7.7,6.2-13.9,13.9-13.9h305.8
						c7.7,0,13.9,6.2,13.9,13.9v318.7c0,7.7-6.2,13.9-13.9,13.9H975.3z"/>
				</g>
				<g>
					<path class="st2" d="M1281.1,1373.9v318.7H975.3v-318.7H1281.1 M1281.1,1346H975.3c-15.4,0-27.9,12.5-27.9,27.9v318.7
						c0,15.4,12.5,27.9,27.9,27.9h305.8c15.4,0,27.9-12.5,27.9-27.9v-318.7C1308.9,1358.5,1296.5,1346,1281.1,1346L1281.1,1346z"/>
				</g>
			</g>
			<g>
				<defs>
					<rect id="SVGID_3_" x="975.3" y="1373.9" width="305.8" height="318.7"/>
				</defs>
				<clipPath id="SVGID_4_">
					<use xlink:href="#SVGID_3_"  style="overflow:visible;"/>
				</clipPath>
				<g class="st14">
					<g>
						
							<rect x="547.6" y="1479.1" transform="matrix(0.7745 -0.6326 0.6326 0.7745 -719.6245 987.1156)" class="st10" width="954" height="47.5"/>
					</g>
				</g>
				<g class="st14">
					<g>
						
							<rect x="631.8" y="1533.4" transform="matrix(0.7745 -0.6326 0.6326 0.7745 -750.4286 1058.1008)" class="st10" width="954" height="96.3"/>
					</g>
				</g>
				<g class="st14">
					<g>
						
							<rect x="719.5" y="1620.9" transform="matrix(0.7745 -0.6326 0.6326 0.7745 -761.6092 1124.6379)" class="st10" width="954" height="19.3"/>
					</g>
				</g>
			</g>
			<g>
				<g>
					<path class="st11" d="M975.3,2285.4c-7.7,0-13.9-6.2-13.9-13.9v-473.9c0-7.7,6.2-13.9,13.9-13.9h305.8
						c7.7,0,13.9,6.2,13.9,13.9v473.9c0,7.7-6.2,13.9-13.9,13.9H975.3z"/>
				</g>
				<g>
					<path class="st2" d="M1281.1,1797.6v473.9H975.3v-473.9H1281.1 M1281.1,1769.7H975.3c-15.4,0-27.9,12.5-27.9,27.9v473.9
						c0,15.4,12.5,27.9,27.9,27.9h305.8c15.4,0,27.9-12.5,27.9-27.9v-473.9C1308.9,1782.2,1296.5,1769.7,1281.1,1769.7
						L1281.1,1769.7z"/>
				</g>
			</g>
			<g>
				<g>
					<path class="st15" d="M576.8,2371.8c-9,0-16.3-7.3-16.3-16.3c0-38.5,31.3-69.8,69.8-69.8h2039.2c38.5,0,69.8,31.3,69.8,69.8
						c0,9-7.3,16.3-16.3,16.3H576.8z"/>
				</g>
				<g>
					<path class="st2" d="M2669.5,2302c29.6,0,53.5,24,53.5,53.5v0H576.8v0c0-29.6,24-53.5,53.5-53.5H2669.5 M2669.5,2269.5H630.3
						c-47.5,0-86.1,38.6-86.1,86.1c0,18,14.6,32.5,32.5,32.5l2146.3,0c8.6,0,16.9-3.4,23-9.5c6.1-6.1,9.5-14.4,9.5-23
						C2755.6,2308.1,2717,2269.5,2669.5,2269.5L2669.5,2269.5z"/>
				</g>
			</g>
			<g class="st5">
				<path class="st6" d="M662.8,2311.3h2036.8c-8.6-5.9-19-9.3-30.1-9.3H630.3c-29.6,0-53.5,24-53.5,53.5v0h33.4
					C614.6,2330.4,636.4,2311.3,662.8,2311.3z"/>
			</g>
			<g>
				<g>
					<path class="st16" d="M902.1,2371.8c-9,0-16.3-7.3-16.3-16.3v-51.8c0-9,7.3-16.3,16.3-16.3h452.1c9,0,16.3,7.3,16.3,16.3v51.8
						c0,9-7.3,16.3-16.3,16.3H902.1z"/>
				</g>
				<g>
					<g>
						<path class="st2" d="M1354.2,2303.8v51.8H902.1v-51.8H1354.2 M1354.2,2271.2H902.1c-18,0-32.5,14.6-32.5,32.5v51.8
							c0,18,14.6,32.5,32.5,32.5h452.1c18,0,32.5-14.6,32.5-32.5v-51.8C1386.8,2285.8,1372.2,2271.2,1354.2,2271.2L1354.2,2271.2z"
							/>
					</g>
				</g>
			</g>
			<g>
				<g>
					<path class="st6" d="M543.5,1849.8c-9,0-16.3-7.3-16.3-16.3v-449.8c0-9,7.3-16.3,16.3-16.3h134.7c9,0,16.3,7.3,16.3,16.3v449.8
						c0,9-7.3,16.3-16.3,16.3H543.5z"/>
				</g>
				<g>
					<path class="st2" d="M678.3,1383.8v449.8H543.5v-449.8H678.3 M678.3,1351.2H543.5c-18,0-32.5,14.6-32.5,32.5v449.8
						c0,18,14.6,32.5,32.5,32.5h134.7c18,0,32.5-14.6,32.5-32.5v-449.8C710.8,1365.8,696.2,1351.2,678.3,1351.2L678.3,1351.2z"/>
				</g>
			</g>
			<g>
				<defs>
					<rect id="SVGID_7_" x="543.5" y="1383.8" width="134.7" height="449.8"/>
				</defs>
				<clipPath id="SVGID_8_">
					<use xlink:href="#SVGID_7_"  style="overflow:visible;"/>
				</clipPath>
				<g class="st17">
					<g>
						
							<rect x="474.9" y="1205.2" transform="matrix(0.7071 0.7071 -0.7071 0.7071 1240.514 100.3937)" class="st18" width="48.2" height="684.8"/>
					</g>
					<g>
						
							<rect x="474.9" y="1330.8" transform="matrix(0.7071 0.7071 -0.7071 0.7071 1329.2899 137.1659)" class="st19" width="48.2" height="684.8"/>
					</g>
					<g>
						
							<rect x="535.8" y="1391.6" transform="matrix(0.7071 0.7071 -0.7071 0.7071 1390.1636 111.9529)" class="st18" width="48.2" height="684.8"/>
					</g>
					<g>
						
							<rect x="596.7" y="1452.5" transform="matrix(0.7071 0.7071 -0.7071 0.7071 1451.038 86.7402)" class="st19" width="48.2" height="684.8"/>
					</g>
				</g>
			</g>
			<g class="st1">
				<g>
					<rect x="622.5" y="1383.8" class="st2" width="46.5" height="449.8"/>
				</g>
			</g>
			<g>
				<g>
					<path class="st6" d="M540.1,1402.1c-15.4,0-27.9-12.5-27.9-27.9v-7.9c0-15.4,12.5-27.9,27.9-27.9h141.6
						c15.4,0,27.9,12.5,27.9,27.9v7.9c0,15.4-12.5,27.9-27.9,27.9H540.1z"/>
				</g>
				<g>
					<path class="st2" d="M681.7,1354.7c6.4,0,11.6,5.2,11.6,11.6v7.9c0,6.4-5.2,11.6-11.6,11.6H540.1c-6.4,0-11.6-5.2-11.6-11.6
						v-7.9c0-6.4,5.2-11.6,11.6-11.6H681.7 M681.7,1322.2H540.1c-24.3,0-44.1,19.8-44.1,44.1v7.9c0,24.3,19.8,44.1,44.1,44.1h141.6
						c24.3,0,44.1-19.8,44.1-44.1v-7.9C725.8,1342,706,1322.2,681.7,1322.2L681.7,1322.2z"/>
				</g>
			</g>
			<g class="st1">
				<g>
					<path class="st2" d="M684,1374.2v-7.9c0-6.4-5.2-11.6-11.6-11.6h-41.9c1.5,1.9,2.4,4.3,2.4,7v7.9c0,6.4-5.2,11.6-11.6,11.6
						h-90.4c2.1,2.8,5.4,4.6,9.2,4.6h132.3C678.8,1385.8,684,1380.6,684,1374.2z"/>
				</g>
			</g>
			<g>
				<g>
					<path class="st6" d="M540.1,1880.9c-15.4,0-27.9-12.5-27.9-27.9v-7.9c0-15.4,12.5-27.9,27.9-27.9h141.6
						c15.4,0,27.9,12.5,27.9,27.9v7.9c0,15.4-12.5,27.9-27.9,27.9H540.1z"/>
				</g>
				<g>
					<path class="st2" d="M681.7,1833.6c6.4,0,11.6,5.2,11.6,11.6v7.9c0,6.4-5.2,11.6-11.6,11.6H540.1c-6.4,0-11.6-5.2-11.6-11.6
						v-7.9c0-6.4,5.2-11.6,11.6-11.6H681.7 M681.7,1801.1H540.1c-24.3,0-44.1,19.8-44.1,44.1v7.9c0,24.3,19.8,44.1,44.1,44.1h141.6
						c24.3,0,44.1-19.8,44.1-44.1v-7.9C725.8,1820.9,706,1801.1,681.7,1801.1L681.7,1801.1z"/>
				</g>
			</g>
			<g class="st1">
				<g>
					<path class="st2" d="M684,1853.1v-7.9c0-6.4-5.2-11.6-11.6-11.6h-46.5c1.5,1.9,2.4,4.3,2.4,7v7.9c0,6.4-5.2,11.6-11.6,11.6
						h-85.8c2.1,2.8,5.4,4.6,9.2,4.6h132.3C678.8,1864.7,684,1859.5,684,1853.1z"/>
				</g>
			</g>
			<g>
				<g>
					<g>
						<path class="st6" d="M2507.7,2375.4c-9,0-16.3-7.3-16.3-16.3v-376.1c0-9,7.3-16.3,16.3-16.3h223.2c9,0,16.3,7.3,16.3,16.3
							v376.1c0,9-7.3,16.3-16.3,16.3H2507.7z"/>
					</g>
					<g>
						<path class="st2" d="M2730.9,1983.1v376.1h-223.2v-376.1H2730.9 M2730.9,1950.6h-223.2c-18,0-32.5,14.6-32.5,32.5v376.1
							c0,18,14.6,32.5,32.5,32.5h223.2c18,0,32.5-14.6,32.5-32.5v-376.1C2763.4,1965.1,2748.9,1950.6,2730.9,1950.6L2730.9,1950.6z"
							/>
					</g>
				</g>
				<g>
					<g>
						<path class="st16" d="M2507.7,2016.5c-9,0-16.3-7.3-16.3-16.3v-67.9c0-70.5,57.4-127.8,127.8-127.8s127.8,57.4,127.8,127.8
							v67.9c0,9-7.3,16.3-16.3,16.3H2507.7z"/>
					</g>
					<g>
						<path class="st2" d="M2619.3,1820.7c61.6,0,111.6,50,111.6,111.6v67.9h-223.2v-67.9
							C2507.7,1870.7,2557.7,1820.7,2619.3,1820.7L2619.3,1820.7 M2619.3,1788.2c-38.5,0-74.7,15-101.9,42.2
							c-27.2,27.2-42.2,63.4-42.2,101.9v67.9c0,18,14.6,32.5,32.5,32.5h223.2c18,0,32.5-14.6,32.5-32.5v-67.9
							c0-38.5-15-74.7-42.2-101.9C2694,1803.2,2657.8,1788.2,2619.3,1788.2L2619.3,1788.2z"/>
					</g>
				</g>
				<g class="st5">
					<g>
						<path class="st6" d="M2686.4,1992.2c15.7,0,28.5-12.8,28.5-28.5v-31.4c0-58.9-45.7-107.1-103.6-111.2c2.6-0.2,5.3-0.4,8-0.4
							c61.6,0,111.6,50,111.6,111.6v59.9v8h-16h-207.2v-8H2686.4z"/>
					</g>
				</g>
				<g class="st1">
					<g>
						<path class="st2" d="M2526.3,1922.2v78h33.2v-82.6c0-43.2,28.3-79.8,67.4-92.2h-3.7
							C2569.7,1825.3,2526.3,1868.7,2526.3,1922.2z"/>
					</g>
				</g>
				<g>
					<path class="st2" d="M2576.6,1822.1c5.6-0.9,11.3-1.4,17.1-1.4c45.9,0,85.3,27.8,102.4,67.4c2.5,5.8-1.9,12.4-8.3,12.4h-10.6
						c-6.2,0-11.9-3.7-14.2-9.5C2648.7,1855,2616.1,1828.2,2576.6,1822.1z"/>
				</g>
				<g class="st1">
					<g>
						<path class="st2" d="M2597.2,2061.6H2736v-31.9h-167.9h-41.8v31.9v297.6h204.6v-25.9h-15.2c-81.5,0-147.6-66.1-147.6-147.6
							v-95.1C2568.1,2074.6,2581.1,2061.6,2597.2,2061.6z"/>
					</g>
				</g>
			</g>
			<g>
				<path class="st20" d="M2546.6,971.6c0-16.5-13.3-29.8-29.8-29.8h-22.5l52.3,63.4V971.6z"/>
				<path class="st2" d="M2546.6,1021.4c-4.8,0-9.4-2.1-12.5-5.9l-52.3-63.4c-4-4.9-4.9-11.6-2.2-17.3c2.7-5.7,8.4-9.3,14.7-9.3
					h22.5c25.4,0,46.1,20.7,46.1,46.1v33.6c0,6.9-4.3,13-10.8,15.3C2550.3,1021.1,2548.4,1021.4,2546.6,1021.4z"/>
			</g>
			<g>
				<path class="st20" d="M783,941.8c-16.5,0-29.8,13.3-29.8,29.8v33.6l52.3-63.4H783z"/>
				<path class="st2" d="M753.2,1021.4c-1.8,0-3.7-0.3-5.5-1c-6.5-2.3-10.8-8.4-10.8-15.3v-33.6c0-25.4,20.7-46.1,46.1-46.1h22.5
					c6.3,0,12,3.6,14.7,9.3c2.7,5.7,1.8,12.4-2.2,17.3l-52.3,63.4C762.6,1019.3,758,1021.4,753.2,1021.4z"/>
			</g>
			<g class="st1">
				<g>
					<path class="st20" d="M805.6,958c-6.3,0-12-3.6-14.7-9.3s-1.8-12.4,2.2-17.3l132.8-160.9c3.1-3.7,7.7-5.9,12.5-5.9h1423.1
						c4.9,0,9.5,2.2,12.5,5.9l132.8,160.9c4,4.9,4.9,11.6,2.2,17.3s-8.4,9.3-14.7,9.3H805.6z"/>
				</g>
				<g>
					<path class="st2" d="M2361.5,780.9l132.8,160.9H805.6l132.8-160.9h156.5h156.5h156.5h156.5h171.3H1892h156.5H2205H2361.5
						 M2361.5,748.4H2205h-156.5H1892h-156.5h-171.3h-156.5h-156.5h-156.5H938.3c-9.7,0-18.9,4.3-25.1,11.8L780.5,921.1
						c-8,9.7-9.7,23.2-4.3,34.6c5.4,11.4,16.8,18.7,29.4,18.7h1688.7c12.6,0,24.1-7.3,29.4-18.7c5.4-11.4,3.7-24.9-4.3-34.6
						l-132.8-160.9C2380.4,752.7,2371.2,748.4,2361.5,748.4L2361.5,748.4z"/>
				</g>
			</g>
			<g>
				<g>
					<path class="st19" d="M938.3,665.4L664.9,996.6c-6.2,7.5-9.6,16.9-9.6,26.6v76.3c0,61,49.5,110.5,110.5,110.5h0
						c61,0,110.5-49.5,110.5-110.5v-91.3l218.4-342.8H938.3z"/>
					<path class="st2" d="M765.9,1226.3c-69.9,0-126.8-56.9-126.8-126.8v-76.3c0-13.5,4.7-26.6,13.3-37L925.8,655
						c3.1-3.7,7.7-5.9,12.5-5.9h156.5c5.9,0,11.4,3.2,14.3,8.4c2.9,5.2,2.6,11.6-0.5,16.6l-215.9,338.8v86.5
						C892.6,1169.4,835.8,1226.3,765.9,1226.3z M946,681.6L677.5,1007c-3.8,4.6-5.8,10.3-5.8,16.3v76.3c0,52,42.3,94.2,94.2,94.2h0
						c52,0,94.2-42.3,94.2-94.2v-91.3c0-3.1,0.9-6.1,2.5-8.7l202.5-317.8H946z"/>
				</g>
				<g>
					<path class="st10" d="M1318.4,1008.2v91.3c0,61,49.5,110.5,110.5,110.5h0c61,0,110.5-49.5,110.5-110.5v-91.3l24.8-342.8h-156.5
						L1318.4,1008.2z"/>
					<path class="st2" d="M1428.9,1226.3c-69.9,0-126.8-56.9-126.8-126.8v-91.3c0-1.4,0.2-2.8,0.5-4.1l89.4-342.8
						c1.9-7.2,8.3-12.2,15.7-12.2h156.5c4.5,0,8.8,1.9,11.9,5.2c3.1,3.3,4.6,7.7,4.3,12.3l-24.8,342.3v90.7
						C1555.7,1169.4,1498.8,1226.3,1428.9,1226.3z M1334.7,1010.3v89.2c0,52,42.3,94.2,94.2,94.2h0c52,0,94.2-42.3,94.2-94.2v-91.3
						c0-0.4,0-0.8,0-1.2l23.6-325.4h-126.4L1334.7,1010.3z"/>
				</g>
				<g>
					<path class="st10" d="M876.4,1008.2v91.3c0,61,49.5,110.5,110.5,110.5h0c61,0,110.5-49.5,110.5-110.5v-91.3l153.9-342.8h-156.5
						L876.4,1008.2z"/>
					<path class="st2" d="M986.9,1226.3c-69.9,0-126.8-56.9-126.8-126.8v-91.3c0-3.1,0.9-6.1,2.5-8.7l218.4-342.8
						c3-4.7,8.2-7.5,13.7-7.5h156.5c5.5,0,10.7,2.8,13.7,7.4c3,4.6,3.4,10.5,1.2,15.5l-152.5,339.7v87.8
						C1113.6,1169.4,1056.8,1226.3,986.9,1226.3z M892.6,1012.9v86.5c0,52,42.3,94.2,94.2,94.2h0c52,0,94.2-42.3,94.2-94.2v-91.3
						c0-2.3,0.5-4.6,1.4-6.7l143.6-319.9h-122.4L892.6,1012.9z"/>
				</g>
				<g>
					<path class="st10" d="M1735.6,665.4l24.8,342.8v91.3c0,61,49.5,110.5,110.5,110.5h0c61,0,110.5-49.5,110.5-110.5v-91.3
						L1892,665.4H1735.6z"/>
					<path class="st2" d="M1870.9,1226.3c-69.9,0-126.8-56.9-126.8-126.8v-90.7l-24.8-342.3c-0.3-4.5,1.2-8.9,4.3-12.3
						c3.1-3.3,7.4-5.2,11.9-5.2H1892c7.4,0,13.9,5,15.7,12.2l89.4,342.8c0.3,1.3,0.5,2.7,0.5,4.1v91.3
						C1997.7,1169.4,1940.8,1226.3,1870.9,1226.3z M1753.1,681.6l23.6,325.4c0,0.4,0,0.8,0,1.2v91.3c0,52,42.3,94.2,94.2,94.2h0
						c52,0,94.2-42.3,94.2-94.2v-89.2l-85.7-328.7H1753.1z"/>
				</g>
				<g>
					<path class="st10" d="M2205,665.4h-156.5l153.9,342.8v91.3c0,61,49.5,110.5,110.5,110.5h0c61,0,110.5-49.5,110.5-110.5v-91.3
						L2205,665.4z"/>
					<path class="st2" d="M2312.9,1226.3c-69.9,0-126.8-56.9-126.8-126.8v-87.8L2033.7,672c-2.3-5-1.8-10.9,1.2-15.5
						c3-4.6,8.1-7.4,13.7-7.4H2205c5.6,0,10.7,2.8,13.7,7.5l218.4,342.8c1.7,2.6,2.5,5.6,2.5,8.7v91.3
						C2439.7,1169.4,2382.8,1226.3,2312.9,1226.3z M2073.6,681.6l143.6,319.9c0.9,2.1,1.4,4.4,1.4,6.7v91.3
						c0,52,42.3,94.2,94.2,94.2h0c52,0,94.2-42.3,94.2-94.2v-86.5l-211.1-331.3H2073.6z"/>
				</g>
				<g>
					<path class="st19" d="M1564.2,665.4l-24.8,342.8v91.3c0,61,49.5,110.5,110.5,110.5h0c61,0,110.5-49.5,110.5-110.5v-91.3
						l-24.8-342.8H1564.2z"/>
					<path class="st2" d="M1649.9,1226.3c-69.9,0-126.8-56.9-126.8-126.8v-91.3c0-0.4,0-0.8,0-1.2l24.8-342.8
						c0.6-8.5,7.7-15.1,16.2-15.1h171.3c8.5,0,15.6,6.6,16.2,15.1l24.8,342.8c0,0.4,0,0.8,0,1.2v91.3
						C1776.7,1169.4,1719.8,1226.3,1649.9,1226.3z M1555.7,1008.8v90.7c0,52,42.3,94.2,94.2,94.2h0c52,0,94.2-42.3,94.2-94.2v-90.7
						l-23.7-327.2h-141.1L1555.7,1008.8z"/>
				</g>
				<g class="st5">
					<path class="st6" d="M1578.9,1099.5v-90.7l21.1-291.7c0.9-12.5,10.6-22.6,23-24.1l97.4-11.4h-117.9h-23.2l-23.7,327.2v90.7
						c0,3,0.2,6,0.5,9c0.1,1.1,0.3,2.1,0.4,3.1c0.2,1.9,0.5,3.7,0.8,5.5c0.2,1.3,0.5,2.5,0.8,3.8c0.4,1.5,0.7,3,1.2,4.5
						c0.4,1.4,0.8,2.8,1.3,4.1c0.4,1.2,0.9,2.5,1.4,3.7c0.6,1.5,1.2,3,1.8,4.4c0.4,0.9,0.9,1.8,1.3,2.7c3.1,6.3,6.8,12.3,11.1,17.8
						c0,0,0,0,0,0l0,0c17.3,21.7,43.8,35.6,73.6,35.6c3.9,0,7.8-0.3,11.6-0.8C1615,1187.2,1578.9,1147.5,1578.9,1099.5z"/>
				</g>
				<g>
					<path class="st19" d="M1097.4,1008.2v91.3c0,61,49.5,110.5,110.5,110.5h0c61,0,110.5-49.5,110.5-110.5v-91.3l89.4-342.8h-156.5
						L1097.4,1008.2z"/>
					<path class="st2" d="M1207.9,1226.3c-69.9,0-126.8-56.9-126.8-126.8v-91.3c0-2.3,0.5-4.6,1.4-6.7l153.9-342.8
						c2.6-5.8,8.4-9.6,14.8-9.6h156.5c5,0,9.8,2.3,12.9,6.3c3.1,4,4.1,9.2,2.9,14l-88.8,340.8v89.2
						C1334.7,1169.4,1277.8,1226.3,1207.9,1226.3z M1113.6,1011.7v87.8c0,52,42.3,94.2,94.2,94.2h0c52,0,94.2-42.3,94.2-94.2v-91.3
						c0-1.4,0.2-2.8,0.5-4.1l84.1-322.5h-124.9L1113.6,1011.7z"/>
				</g>
				<g>
					<path class="st19" d="M1892,665.4l89.4,342.8v91.3c0,61,49.5,110.5,110.5,110.5h0c61,0,110.5-49.5,110.5-110.5v-91.3
						l-153.9-342.8H1892z"/>
					<path class="st2" d="M2091.9,1226.3c-69.9,0-126.8-56.9-126.8-126.8v-89.2l-88.8-340.8c-1.3-4.9-0.2-10.1,2.9-14
						c3.1-4,7.8-6.3,12.9-6.3h156.5c6.4,0,12.2,3.8,14.8,9.6l153.9,342.8c0.9,2.1,1.4,4.4,1.4,6.7v91.3
						C2218.7,1169.4,2161.8,1226.3,2091.9,1226.3z M1913.1,681.6l84.1,322.5c0.3,1.3,0.5,2.7,0.5,4.1v91.3c0,52,42.3,94.2,94.2,94.2
						h0c52,0,94.2-42.3,94.2-94.2v-87.8L2038,681.6H1913.1z"/>
				</g>
				<g>
					<path class="st19" d="M2361.5,665.4H2205l218.4,342.8v91.3c0,61,49.5,110.5,110.5,110.5h0c61,0,110.5-49.5,110.5-110.5v-76.3
						c0-9.7-3.4-19.1-9.6-26.6L2361.5,665.4z"/>
					<path class="st2" d="M2533.9,1226.3c-69.9,0-126.8-56.9-126.8-126.8v-86.5l-215.9-338.8c-3.2-5-3.4-11.4-0.5-16.6
						c2.9-5.2,8.3-8.4,14.3-8.4h156.5c4.9,0,9.5,2.2,12.5,5.9l273.4,331.3c8.6,10.4,13.3,23.5,13.3,37v76.3
						C2660.7,1169.4,2603.8,1226.3,2533.9,1226.3z M2234.6,681.6l202.5,317.8c1.7,2.6,2.5,5.6,2.5,8.7v91.3
						c0,52,42.3,94.2,94.2,94.2c52,0,94.2-42.3,94.2-94.2v-76.3c0-5.9-2.1-11.7-5.8-16.3l-268.5-325.3H2234.6z"/>
				</g>
				<g class="st5">
					<path class="st6" d="M1285,681.6h-23.2l-43.6,97l-54,120.3l-50.6,112.7v9.3v78.5c0,52,42.3,94.2,94.2,94.2
						c3.9,0,7.8-0.3,11.6-0.8c-46.5-5.8-82.6-45.4-82.6-93.5v-87.8l44.9-100.1c16.2-0.9,36.3-23.7,47.6-55.6c8.5-24,9.9-47.1,5-61.7
						l38.9-86.7c4.6-10.3,14.4-17.3,25.7-18.3l87.6-7.7H1285z"/>
				</g>
				<g class="st5">
					<path class="st6" d="M969.2,681.6H946L777.3,886l-60.6,73.4l-39.2,47.5c-3.8,4.6-5.8,10.3-5.8,16.3v9.3v67
						c0,52,42.3,94.2,94.2,94.2c3.9,0,7.8-0.3,11.6-0.8c-46.5-5.8-82.6-45.4-82.6-93.5v-76.3c0-5.9,2.1-11.7,5.8-16.3l26-31.5
						c12.2,3.6,32.6-8.1,48.6-28.8c14.5-18.7,20.9-39.1,17.1-50.9l159.3-193c6.3-7.6,15.3-12.4,25.2-13.3l88.3-7.9H969.2z"/>
				</g>
				<g class="st5">
					<path class="st6" d="M2020.9,1099.5v-91.3c0-1.4-0.2-2.8-0.5-4.1l-13.9-53.5c4.6-12,4.9-30.3-0.1-49.8
						c-5.1-19.6-14.4-35.7-24.3-43.8l-35.9-137.9c-3.3-12.6,5.1-25.2,18-27l73.9-10.5h-101.7h-23.2l45.3,173.7l28.3,108.6l10.5,40.1
						c0.3,1.3,0.5,2.7,0.5,4.1v91.3c0,3,0.2,6,0.5,9c0.1,1.1,0.3,2.1,0.4,3.1c0.2,1.9,0.5,3.7,0.8,5.5c0.2,1.3,0.5,2.5,0.8,3.8
						c0.4,1.5,0.7,3,1.2,4.5c0.4,1.4,0.8,2.8,1.3,4.1c0.4,1.2,0.9,2.5,1.4,3.7c0.6,1.5,1.2,3,1.8,4.4c0.4,0.9,0.9,1.8,1.3,2.7
						c3.1,6.3,6.8,12.3,11.1,17.8c0,0,0,0,0,0l0,0c17.3,21.7,43.8,35.6,73.6,35.6c3.9,0,7.8-0.3,11.6-0.8
						C2057,1187.2,2020.9,1147.5,2020.9,1099.5z"/>
				</g>
				<g class="st5">
					<path class="st6" d="M2467.6,1099.5v-91.3c0-3.1-0.9-6.1-2.5-8.7l-112.4-176.3c-0.2-12.2-5.1-28.3-14.3-44.2
						c-11.3-19.5-25.9-33.6-37.9-37.8l-19.6-30.8c-4.1-6.4,0.5-14.8,8.1-14.8l64.9-13.9h-91.3h-27.9l45.6,71.5l57.6,90.4l99.4,156
						c1.7,2.6,2.5,5.6,2.5,8.7v91.3c0,2.9,0.2,5.7,0.4,8.5c0.1,0.7,0.1,1.5,0.2,2.2c0.3,2.6,0.7,5.1,1.2,7.7c0,0.2,0.1,0.5,0.1,0.7
						c0.5,2.6,1.2,5.2,2,7.7c0.2,0.8,0.5,1.6,0.8,2.4c0.7,2,1.4,4,2.2,6c0.3,0.7,0.6,1.4,0.9,2.1c0.9,2.1,1.9,4.1,3,6.2
						c0.5,1,1.1,2,1.6,2.9c0.8,1.3,1.6,2.7,2.4,4c1,1.5,2,3,3,4.5c0.9,1.2,1.7,2.4,2.6,3.5c0.9,1.1,1.8,2.2,2.8,3.3
						c0.6,0.7,1.3,1.4,1.9,2.1c2,2.1,3.9,4.2,6.1,6.1c0.5,0.4,1,0.9,1.5,1.3c1.3,1.1,2.6,2.2,4,3.2c0.5,0.4,1,0.8,1.6,1.2
						c15.7,11.6,35,18.6,55.9,18.6c4.7,0,9.4-0.5,13.9-1.1C2502.5,1185.8,2467.6,1146.7,2467.6,1099.5z"/>
				</g>
			</g>
			<g>
				<g>
					<g>
						<g>
							<line class="st19" x1="1101.9" y1="1367.5" x2="1062.3" y2="1506"/>
							<path class="st2" d="M1062.3,1515.3c-0.8,0-1.7-0.1-2.6-0.4c-4.9-1.4-7.8-6.6-6.4-11.5l39.6-138.5c1.4-4.9,6.6-7.8,11.5-6.4
								c4.9,1.4,7.8,6.6,6.4,11.5l-39.6,138.5C1070.1,1512.6,1066.3,1515.3,1062.3,1515.3z"/>
						</g>
					</g>
					<g>
						<g>
							<line class="st19" x1="1161.4" y1="1367.5" x2="1200.9" y2="1506"/>
							<path class="st2" d="M1200.9,1515.3c-4,0-7.8-2.7-8.9-6.7l-39.6-138.5c-1.4-4.9,1.4-10.1,6.4-11.5c4.9-1.4,10.1,1.4,11.5,6.4
								l39.6,138.5c1.4,4.9-1.4,10.1-6.4,11.5C1202.6,1515.2,1201.8,1515.3,1200.9,1515.3z"/>
						</g>
					</g>
				</g>
				<g>
					<path class="st21" d="M1198.5,1542h-133.9c-18.8,0-34.1-15.2-34.1-34.1l0,0c0-18.8,15.2-34.1,34.1-34.1h133.9
						c18.8,0,34.1,15.2,34.1,34.1l0,0C1232.6,1526.8,1217.3,1542,1198.5,1542z"/>
					<path class="st2" d="M1198.5,1549h-133.9c-22.6,0-41-18.4-41-41s18.4-41,41-41h133.9c22.6,0,41,18.4,41,41
						S1221.2,1549,1198.5,1549z M1064.7,1480.9c-14.9,0-27.1,12.2-27.1,27.1s12.1,27.1,27.1,27.1h133.9c14.9,0,27.1-12.2,27.1-27.1
						s-12.1-27.1-27.1-27.1H1064.7z"/>
				</g>
				<g class="st8">
					<g>
						<path class="st2" d="M1212.3,1474c1.1,2.5,1.7,5.3,1.7,8.3v26.7c0,11.4-9.3,20.7-20.7,20.7h-160.6c-0.1,0-0.2,0-0.4,0
							c3.2,7.3,10.5,12.4,19,12.4h160.6c11.4,0,20.7-9.3,20.7-20.7v-26.7C1232.6,1483.3,1223.5,1474.2,1212.3,1474z"/>
					</g>
				</g>
				<g>
					<g>
						<path class="st6" d="M1077.4,1492.1c7.9,0,13.2,5.7,13.2,13.6c0,7.9-5.3,13.6-13.2,13.6c-7.9,0-13.2-5.7-13.2-13.6
							C1064.3,1497.7,1069.5,1492.1,1077.4,1492.1z M1077.4,1512.8c2,0,5.2-1.3,5.2-7.1c0-5.8-3.1-7.1-5.2-7.1c-2,0-5.2,1.3-5.2,7.1
							C1072.3,1511.5,1075.4,1512.8,1077.4,1512.8z"/>
					</g>
					<g>
						<path class="st6" d="M1101.3,1492.7h13.4c7.1,0,9.5,5.2,9.5,8.9c0,6.3-4.2,9.2-10.2,9.2h-4.7v7.9h-8V1492.7z M1109.3,1504.6
							h3.1c2.1,0,4.3-0.1,4.3-2.8c0-2.4-1.8-2.5-3.8-2.5h-3.6V1504.6z"/>
					</g>
					<g>
						<path class="st6" d="M1134.2,1492.7h21.5v6.7h-13.5v3.2h12.3v6.2h-12.3v3.2h13.9v6.7h-21.9V1492.7z"/>
					</g>
					<g>
						<path class="st6" d="M1167.2,1492.7h8.2l7.6,13.9h0.1v-13.9h7.6v26h-7.8l-8-14.2h-0.1v14.2h-7.6V1492.7z"/>
					</g>
				</g>
			</g>
			<g class="st1">
				<g>
					<path class="st2" d="M2511,1224.1c-2.4-0.4-4.8-1-7.1-1.5C2506.2,1223.1,2508.6,1223.7,2511,1224.1z"/>
				</g>
			</g>
			<g class="st1">
				<g>
					<path class="st2" d="M2600.3,1099.5v-76.3c0-0.1,0-0.1,0-0.2c0-11.1-9.6-20-20.7-20H642.8c-2.4,6.4-3.6,13.2-3.6,20.2v73.7
						c0,70,55.7,128.8,125.7,129.4c47.8,0.4,89.7-25.8,111.6-64.8c21.8,38.6,63.1,64.8,110.5,64.8s88.8-26.2,110.5-64.8
						c21.8,38.6,63.1,64.8,110.5,64.8c47.4,0,88.8-26.2,110.5-64.8c21.8,38.6,63.1,64.8,110.5,64.8c47.4,0,88.8-26.1,110.5-64.8
						c21.8,38.6,63.1,64.8,110.5,64.8c47.4,0,88.8-26.1,110.5-64.8c21.8,38.6,63.1,64.8,110.5,64.8c47.4,0,88.8-26.1,110.5-64.8
						c21.8,38.6,63.1,64.8,110.5,64.8c47.4,0,88.8-26.2,110.5-64.8c21.8,38.6,63.1,64.8,110.5,64.8c47.4,0,88.8-26.2,110.5-64.8
						c17,30.2,46,52.6,80.4,61.1C2559.2,1209,2600.3,1159,2600.3,1099.5z"/>
				</g>
			</g>
			<g class="st1">
				<g>
					<path class="st2" d="M2525.8,1226c-1.7-0.1-3.4-0.3-5.1-0.5C2522.4,1225.7,2524.1,1225.9,2525.8,1226z"/>
				</g>
			</g>
			<g class="st1">
				<g>
					<path class="st2" d="M2518.2,1225.2c-2.2-0.3-4.4-0.6-6.6-1C2513.8,1224.6,2516,1225,2518.2,1225.2z"/>
				</g>
			</g>
			<g>
				<defs>
					<rect id="SVGID_9_" x="975.3" y="1797.6" width="305.8" height="473.9"/>
				</defs>
				<clipPath id="SVGID_10_">
					<use xlink:href="#SVGID_9_"  style="overflow:visible;"/>
				</clipPath>
				<g class="st22">
					<g>
						
							<rect x="606" y="2169.9" transform="matrix(0.8114 -0.5845 0.5845 0.8114 -1081.2029 1047.8555)" class="st10" width="954" height="58.7"/>
					</g>
				</g>
				<g class="st22">
					<g>
						
							<rect x="546.3" y="1997.1" transform="matrix(0.8114 -0.5845 0.5845 0.8114 -1009.0991 986.0055)" class="st10" width="954" height="119.1"/>
					</g>
				</g>
				<g class="st22">
					<g>
						
							<rect x="549.7" y="1901.6" transform="matrix(0.8114 -0.5845 0.5845 0.8114 -924.7896 961.0345)" class="st10" width="954" height="23.8"/>
					</g>
				</g>
			</g>
			<g class="st8">
				<g>
					<path class="st2" d="M1018.8,1811.5l262.3-13.9H975.3v473.9h18.6v-435.1C993.9,1822.6,1005,1811.5,1018.8,1811.5z"/>
				</g>
			</g>
			<g class="st8">
				<g>
					<path class="st2" d="M1015.5,1387.8l265.5-13.9H975.3v318.7h18.6v-283.2C993.9,1397.5,1003.6,1387.8,1015.5,1387.8z"/>
				</g>
			</g>
			<g class="st8">
				<g>
					<path class="st2" d="M1656.7,1392c0-7,5.6-12.6,12.6-12.6c0,0,582.7-13.9,575.7-13.9h-599c-7,0-12.6,5.6-12.6,12.6v533.1h23.2
						V1392z"/>
				</g>
			</g>
			<g>
				<g>
					<g>
						<path class="st4" d="M1501.8,2379c-88.2,0-160-71.8-160-160s71.8-160,160-160s160,71.8,160,160S1590.1,2379,1501.8,2379z"/>
					</g>
					<g>
						<path class="st2" d="M1501.8,2072.9c80.7,0,146.1,65.4,146.1,146.1s-65.4,146.1-146.1,146.1s-146.1-65.4-146.1-146.1
							S1421.2,2072.9,1501.8,2072.9 M1501.8,2045c-23.5,0-46.2,4.6-67.7,13.7c-20.7,8.8-39.3,21.3-55.3,37.3
							c-16,16-28.5,34.6-37.3,55.3c-9.1,21.5-13.7,44.2-13.7,67.7s4.6,46.2,13.7,67.7c8.8,20.7,21.3,39.3,37.3,55.3
							c16,16,34.6,28.5,55.3,37.3c21.5,9.1,44.2,13.7,67.7,13.7s46.2-4.6,67.7-13.7c20.7-8.8,39.3-21.3,55.3-37.3
							s28.5-34.6,37.3-55.3c9.1-21.5,13.7-44.2,13.7-67.7s-4.6-46.2-13.7-67.7c-8.8-20.7-21.3-39.3-37.3-55.3s-34.6-28.5-55.3-37.3
							C1548.1,2049.6,1525.3,2045,1501.8,2045L1501.8,2045z"/>
					</g>
				</g>
				<g class="st1">
					<g>
						<path class="st2" d="M1642.6,2179.8c-6.7,24.2-19.5,45.8-36.6,63.2c-13.8-2.5-34,1.7-54,12.4c-16.1,8.7-28.8,19.8-35.9,30.6
							c-4.7,0.5-9.4,0.7-14.3,0.7c-67.1,0-123.6-45.3-140.7-106.9c-2.9,10.6-4.7,21.6-5.1,33c4.1,77,67.8,138.2,145.8,138.2
							s141.8-61.2,145.8-138.2C1647.2,2201.5,1645.5,2190.4,1642.6,2179.8z"/>
					</g>
				</g>
				<g class="st1">
					<g>
						
							<ellipse transform="matrix(0.9795 0.2015 -0.2015 0.9795 481.0847 -249.5684)" class="st2" cx="1466.3" cy="2238.1" rx="25.8" ry="13.9"/>
					</g>
				</g>
				<g class="st5">
					<path class="st6" d="M1503.4,2073c-0.5,0-1,0-1.6,0c-44.6,0-84.6,20.1-111.4,51.6c-21.6,25.5-34.7,58.4-34.7,94.4
						c0,3.1,0.1,6.2,0.3,9.3c2.6-41.4,22.5-78.1,52.5-103.1c11.6-0.8,25.6-3.4,40.3-8c22.5-7,41.1-16.7,50.9-25.7c0.7,0,1.3,0,2,0
						c77.5,0,140.9,60.4,145.7,136.8c0.2-3.1,0.3-6.2,0.3-9.3C1647.9,2138.8,1583.4,2073.8,1503.4,2073z"/>
				</g>
			</g>
			<g>
				<path class="st23" d="M1984,2183.2"/>
			</g>
			<g>
				<path class="st4" d="M609.4,2202.1c-6.3-12.6-1.2-27.9,11.4-34.2c12.6-6.3,27.9-1.2,34.2,11.4"/>
				<path class="st2" d="M609.4,2209.9c-2.9,0-5.6-1.6-7-4.3c-8.2-16.4-1.6-36.5,14.8-44.7c16.4-8.2,36.5-1.6,44.7,14.8
					c1.9,3.9,0.4,8.6-3.5,10.5c-3.9,1.9-8.6,0.4-10.5-3.5c-4.4-8.7-15-12.2-23.7-7.9c-8.7,4.4-12.2,15-7.9,23.7
					c1.9,3.9,0.4,8.6-3.5,10.5C611.8,2209.7,610.6,2209.9,609.4,2209.9z"/>
			</g>
			<g>
				<path class="st4" d="M2828.1,2281.8c5.6-11.6,19.6-16.5,31.3-10.8c11.6,5.6,16.5,19.6,10.8,31.3"/>
				<path class="st2" d="M2870.2,2309.5c-1.1,0-2.1-0.2-3.1-0.7c-3.6-1.7-5.1-6-3.3-9.6c1.9-3.9,2.1-8.3,0.7-12.4s-4.3-7.4-8.2-9.3
					c-3.9-1.9-8.3-2.1-12.4-0.7c-4.1,1.4-7.4,4.3-9.3,8.2c-1.7,3.6-6,5.1-9.6,3.3c-3.6-1.7-5.1-6-3.3-9.6
					c3.6-7.4,9.8-12.9,17.5-15.6s16-2.2,23.4,1.4s12.9,9.8,15.6,17.5c2.7,7.7,2.2,16-1.4,23.4
					C2875.5,2308,2872.9,2309.5,2870.2,2309.5z"/>
			</g>
			<g>
				<g>
					<line class="st19" x1="868.4" y1="1003.1" x2="752.8" y2="1003.1"/>
				</g>
				<g>
					<path class="st2" d="M868.4,1012.4l-115.6-9.3l115.6-9.3c5.1-0.4,9.6,3.4,10,8.5c0.4,5.1-3.4,9.6-8.5,10
						C869.4,1012.4,868.9,1012.4,868.4,1012.4z"/>
				</g>
			</g>
			<g>
				<g>
					<line class="st19" x1="1319.1" y1="1003.1" x2="1180.2" y2="1003.1"/>
				</g>
				<g>
					<path class="st2" d="M1319.1,1012.4l-138.9-9.3l138.9-9.3c5.1-0.3,9.6,3.5,9.9,8.7c0.3,5.1-3.5,9.6-8.7,9.9
						C1319.9,1012.4,1319.5,1012.4,1319.1,1012.4z"/>
				</g>
			</g>
			<g>
				<g>
					<line class="st19" x1="1755.8" y1="1003.1" x2="1621.6" y2="1003.1"/>
				</g>
				<g>
					<path class="st2" d="M1755.8,1012.4l-134.2-9.3l134.2-9.3c5.1-0.4,9.6,3.5,9.9,8.6c0.4,5.1-3.5,9.6-8.6,9.9
						C1756.7,1012.4,1756.2,1012.4,1755.8,1012.4z"/>
				</g>
			</g>
			<g>
				<g>
					<line class="st19" x1="2197.2" y1="1003.1" x2="2086.2" y2="1003.1"/>
				</g>
				<g>
					<path class="st2" d="M2197.2,1012.4l-111-9.3l111-9.3c5.1-0.4,9.6,3.4,10.1,8.5s-3.4,9.6-8.5,10.1
						C2198.2,1012.4,2197.7,1012.4,2197.2,1012.4z"/>
				</g>
			</g>
			<g>
				<g>
					<line class="st19" x1="2633.9" y1="1003.1" x2="2522.9" y2="1003.1"/>
				</g>
				<g>
					<path class="st2" d="M2633.9,1012.4l-111-9.3l111-9.3c5.1-0.4,9.6,3.4,10.1,8.5s-3.4,9.6-8.5,10.1
						C2635,1012.4,2634.4,1012.4,2633.9,1012.4z"/>
				</g>
			</g>
			<g>
				<g>
					<g>
						<path class="st4" d="M2435.7,2379c-88.2,0-160-71.8-160-160s71.8-160,160-160c88.2,0,160,71.8,160,160
							S2523.9,2379,2435.7,2379z"/>
					</g>
					<g>
						<path class="st2" d="M2435.7,2072.9c80.7,0,146.1,65.4,146.1,146.1s-65.4,146.1-146.1,146.1c-80.7,0-146.1-65.4-146.1-146.1
							S2355.1,2072.9,2435.7,2072.9 M2435.7,2045c-23.5,0-46.2,4.6-67.7,13.7c-20.7,8.8-39.3,21.3-55.3,37.3
							c-16,16-28.5,34.6-37.3,55.3c-9.1,21.5-13.7,44.2-13.7,67.7s4.6,46.2,13.7,67.7c8.8,20.7,21.3,39.3,37.3,55.3
							c16,16,34.6,28.5,55.3,37.3c21.5,9.1,44.2,13.7,67.7,13.7c23.5,0,46.2-4.6,67.7-13.7c20.7-8.8,39.3-21.3,55.3-37.3
							c16-16,28.5-34.6,37.3-55.3c9.1-21.5,13.7-44.2,13.7-67.7s-4.6-46.2-13.7-67.7c-8.8-20.7-21.3-39.3-37.3-55.3
							c-16-16-34.6-28.5-55.3-37.3C2482,2049.6,2459.2,2045,2435.7,2045L2435.7,2045z"/>
					</g>
				</g>
				<g class="st1">
					<g>
						<path class="st2" d="M2295,2179.8c6.7,24.2,19.5,45.8,36.6,63.2c13.8-2.5,34,1.7,54,12.4c16.1,8.7,28.8,19.8,35.9,30.6
							c4.7,0.5,9.4,0.7,14.3,0.7c67.1,0,123.6-45.3,140.7-106.9c2.9,10.6,4.7,21.6,5.1,33c-4.1,77-67.8,138.2-145.8,138.2
							c-78,0-141.8-61.2-145.8-138.2C2290.4,2201.5,2292.1,2190.4,2295,2179.8z"/>
					</g>
				</g>
				<g class="st1">
					<g>
						
							<ellipse transform="matrix(-0.9795 0.2015 -0.2015 -0.9795 5342.8481 3932.1877)" class="st2" cx="2471.3" cy="2238.1" rx="25.8" ry="13.9"/>
					</g>
				</g>
				<g class="st5">
					<path class="st6" d="M2434.1,2073c0.5,0,1,0,1.6,0c44.6,0,84.6,20.1,111.4,51.6c21.6,25.5,34.7,58.4,34.7,94.4
						c0,3.1-0.1,6.2-0.3,9.3c-2.6-41.4-22.5-78.1-52.5-103.1c-11.6-0.8-25.6-3.4-40.3-8c-22.5-7-41.1-16.7-50.9-25.7
						c-0.7,0-1.3,0-2,0c-77.5,0-140.9,60.4-145.7,136.8c-0.2-3.1-0.3-6.2-0.3-9.3C2289.7,2138.8,2354.2,2073.8,2434.1,2073z"/>
				</g>
			</g>
			<g>
				<g>
					<g>
						<path class="st4" d="M1961.8,2379c-88.2,0-160-71.8-160-160s71.8-160,160-160s160,71.8,160,160S2050,2379,1961.8,2379z"/>
					</g>
					<g>
						<path class="st2" d="M1961.8,2072.9c80.7,0,146.1,65.4,146.1,146.1s-65.4,146.1-146.1,146.1s-146.1-65.4-146.1-146.1
							S1881.1,2072.9,1961.8,2072.9 M1961.8,2045c-23.5,0-46.2,4.6-67.7,13.7c-20.7,8.8-39.3,21.3-55.3,37.3
							c-16,16-28.5,34.6-37.3,55.3c-9.1,21.5-13.7,44.2-13.7,67.7s4.6,46.2,13.7,67.7c8.8,20.7,21.3,39.3,37.3,55.3
							c16,16,34.6,28.5,55.3,37.3c21.5,9.1,44.2,13.7,67.7,13.7s46.2-4.6,67.7-13.7c20.7-8.8,39.3-21.3,55.3-37.3
							c16-16,28.5-34.6,37.3-55.3c9.1-21.5,13.7-44.2,13.7-67.7s-4.6-46.2-13.7-67.7c-8.8-20.7-21.3-39.3-37.3-55.3
							c-16-16-34.6-28.5-55.3-37.3C2008.1,2049.6,1985.3,2045,1961.8,2045L1961.8,2045z"/>
					</g>
				</g>
				<g class="st1">
					<g>
						<path class="st2" d="M2102.5,2179.8c-6.7,24.2-19.5,45.8-36.6,63.2c-13.8-2.5-34,1.7-54,12.4c-16.1,8.7-28.8,19.8-35.9,30.6
							c-4.7,0.5-9.4,0.7-14.3,0.7c-67.1,0-123.6-45.3-140.7-106.9c-2.9,10.6-4.7,21.6-5.1,33c4.1,77,67.8,138.2,145.8,138.2
							c78,0,141.8-61.2,145.8-138.2C2107.2,2201.5,2105.5,2190.4,2102.5,2179.8z"/>
					</g>
				</g>
				<g class="st1">
					<g>
						
							<ellipse transform="matrix(0.9795 0.2015 -0.2015 0.9795 490.5208 -342.259)" class="st2" cx="1926.3" cy="2238.1" rx="25.8" ry="13.9"/>
					</g>
				</g>
				<g class="st5">
					<path class="st6" d="M1963.4,2073c-0.5,0-1,0-1.6,0c-44.6,0-84.6,20.1-111.4,51.6c-21.6,25.5-34.7,58.4-34.7,94.4
						c0,3.1,0.1,6.2,0.3,9.3c2.6-41.4,22.5-78.1,52.5-103.1c11.6-0.8,25.6-3.4,40.3-8c22.5-7,41.1-16.7,50.9-25.7c0.7,0,1.3,0,2,0
						c77.5,0,140.9,60.4,145.7,136.8c0.2-3.1,0.3-6.2,0.3-9.3C2107.9,2138.8,2043.3,2073.8,1963.4,2073z"/>
				</g>
			</g>
		</g>
		<g>
			<g>
				<circle class="st2" cx="339" cy="1968.6" r="25.7"/>
			</g>
			<g>
				<circle class="st2" cx="2961.7" cy="2042" r="29.7"/>
			</g>
			<g>
				<circle class="st2" cx="3105.9" cy="909.9" r="24.8"/>
			</g>
			<g>
				<path class="st2" d="M2994.6,693.9c5.7-5.7,2.1-19.3-8-34.7c-3-4.6-3-10.5,0-15.1c10.1-15.4,13.7-29,8-34.7s-19.3-2.1-34.7,8
					c-4.6,3-10.5,3-15.1,0c-15.4-10.1-29-13.7-34.7-8s-2.1,19.3,8,34.7c3,4.6,3,10.5,0,15.1c-10.1,15.4-13.7,29-8,34.7
					c5.7,5.7,19.3,2.1,34.7-8c4.6-3,10.5-3,15.1,0C2975.3,696,2988.9,699.6,2994.6,693.9z"/>
			</g>
			<g>
				<path class="st2" d="M226.8,1810.4c6.6,0,12.3-9.9,15.4-24.6c0.9-4.4,4.3-7.8,8.7-8.7c14.7-3,24.6-8.8,24.6-15.4
					s-9.9-12.3-24.6-15.4c-4.4-0.9-7.8-4.3-8.7-8.7c-3-14.7-8.8-24.6-15.4-24.6c-6.6,0-12.3,9.9-15.4,24.6c-0.9,4.4-4.3,7.8-8.7,8.7
					c-14.7,3-24.6,8.8-24.6,15.4s9.9,12.3,24.6,15.4c4.4,0.9,7.8,4.3,8.7,8.7C214.5,1800.5,220.3,1810.4,226.8,1810.4z"/>
			</g>
			<g>
				<circle class="st2" cx="597" cy="254.4" r="39.2"/>
			</g>
			<g>
				<circle class="st2" cx="401.7" cy="465.8" r="25.7"/>
			</g>
		</g>
		<g>
			<g>
				<line class="st6" x1="144.3" y1="2374.4" x2="3140.7" y2="2374.4"/>
			</g>
			<g>
				<path class="st2" d="M144.3,2368.9c0,0,11.7-1.9,33.7-4.1c21.9-2.2,54.1-4.7,95.1-6.2c41-1.3,90.7-2.1,147.8-2
					c57.1,0.1,121.4,1.3,191.7,1.3c280.9,0,655.5,0,1030,0c374.6,0,749.1,0,1030,0c70.2,0,134.6,0,191.7,0c28.5-0.1,55.2-0.6,79.9-1
					c24.7-0.4,47.4-0.3,67.9,0.2c20.5,0.5,38.8,1.2,54.7,2.4c15.9,1.1,29.4,2.5,40.4,3.9c21.9,2.8,33.7,5.4,33.7,5.4
					c3,0.7,4.9,3.7,4.2,6.7c-0.5,2.2-2.2,3.8-4.2,4.2c0,0-11.7,2.7-33.7,5.4c-11,1.4-24.5,2.8-40.4,3.9c-15.9,1.2-34.2,1.9-54.7,2.4
					c-20.5,0.5-43.2,0.6-67.9,0.2c-24.7-0.3-51.4-0.9-79.9-1c-57.1,0-121.4,0-191.7,0c-280.9,0-655.5,0-1030,0
					c-374.6,0-749.1,0-1030,0c-70.2,0-134.6,1.2-191.7,1.3c-57.1,0.1-106.8-0.7-147.8-2c-41-1.5-73.2-4-95.1-6.2
					c-21.9-2.2-33.7-4.1-33.7-4.1c-3-0.5-5.1-3.3-4.6-6.4C140,2371.1,142,2369.3,144.3,2368.9z"/>
			</g>
		</g>
	</g>
</g>
</svg>
