<?xml version="1.0" encoding="utf-8"?>
<!-- Generator: Adobe Illustrator 24.3.0, SVG Export Plug-In . SVG Version: 6.00 Build 0)  -->
<svg version="1.1" id="Layer_1" xmlns="http://www.w3.org/2000/svg" xmlns:xlink="http://www.w3.org/1999/xlink" x="0px" y="0px"
	 viewBox="0 0 4000 4000" style="enable-background:new 0 0 4000 4000;" xml:space="preserve">
<style type="text/css">
	.st0{fill:#6CEFE6;}
	.st1{opacity:0.3;}
	.st2{fill:#102770;}
	.st3{fill:#418BF9;}
	.st4{opacity:0.55;}
	.st5{fill:#FFFFFF;}
	.st6{fill:#F43F08;}
	.st7{fill:#FAC100;}
	.st8{opacity:0.25;}
	.st9{fill:#3CCE54;}
	.st10{opacity:0.4;}
	.st11{fill:#00EDF9;}
	.st12{fill:#6C7A89;}
	.st13{fill:#B7BDCE;}
	.st14{fill:#263069;}
	.st15{fill:#959AAF;}
	.st16{fill:#27B5FC;}
	.st17{opacity:0.15;}
	.st18{fill:#FFD553;}
	.st19{fill:#FFB602;}
	.st20{opacity:0.6;}
	.st21{fill:#0BCBFF;}
	.st22{fill:url(#SVGID_1_);}
	.st23{fill:#F7710D;}
	.st24{fill:#01D3EC;}
	.st25{opacity:0.3;fill:#FFFFFF;}
	.st26{fill:#02DAFF;}
	.st27{fill:#FFD199;}
	.st28{fill:none;}
	.st29{fill:#4F4F70;}
	.st30{opacity:0.7;}
	.st31{fill:#000072;}
	.st32{fill:#5377FF;}
	.st33{fill:#7D8BB7;}
	.st34{fill:#F2355D;}
	.st35{fill:#9BAAE0;}
	.st36{fill:#262F6A;}
	.st37{fill:#FEB702;}
	.st38{opacity:0.65;}
	.st39{fill:#BFBFBF;}
	.st40{opacity:0.26;}
	.st41{opacity:0.75;}
	.st42{fill:#525F93;}
	.st43{opacity:0.2;}
	.st44{opacity:0.4;fill:url(#SVGID_2_);}
	.st45{opacity:0.4;fill:url(#SVGID_3_);}
	.st46{opacity:0.4;fill:url(#SVGID_4_);}
	.st47{opacity:0.4;fill:url(#SVGID_5_);}
	.st48{opacity:0.4;fill:url(#SVGID_6_);}
	.st49{opacity:0.4;fill:url(#SVGID_7_);}
	.st50{opacity:0.4;fill:url(#SVGID_8_);}
	.st51{opacity:0.3;fill:#102770;}
	.st52{fill:#1CDB7C;}
	.st53{opacity:0.55;fill:url(#SVGID_9_);}
	.st54{opacity:0.55;fill:url(#SVGID_10_);}
	.st55{opacity:0.55;fill:url(#SVGID_11_);}
	.st56{opacity:0.55;fill:url(#SVGID_12_);}
	.st57{fill:#DC9AFE;}
	.st58{opacity:0.4;fill:url(#SVGID_13_);}
	.st59{opacity:0.4;fill:url(#SVGID_14_);}
	.st60{opacity:0.55;fill:url(#SVGID_15_);}
	.st61{opacity:0.55;fill:url(#SVGID_16_);}
	.st62{opacity:0.55;fill:url(#SVGID_17_);}
	.st63{opacity:0.55;fill:url(#SVGID_18_);}
	.st64{opacity:0.55;fill:url(#SVGID_19_);}
	.st65{opacity:0.55;fill:url(#SVGID_20_);}
	.st66{fill:#FDD301;}
	.st67{fill:#FFCCBC;}
	.st68{fill:#C5CDE2;}
	.st69{opacity:0.4;fill:url(#SVGID_21_);}
	.st70{opacity:0.4;fill:url(#SVGID_22_);}
	.st71{opacity:0.55;fill:url(#SVGID_23_);}
	.st72{opacity:0.55;fill:url(#SVGID_24_);}
	.st73{opacity:0.55;fill:url(#SVGID_25_);}
	.st74{opacity:0.55;fill:url(#SVGID_26_);}
	.st75{opacity:0.55;fill:url(#SVGID_27_);}
	.st76{opacity:0.55;fill:url(#SVGID_28_);}
	.st77{fill:#66FEFF;}
</style>
<g>
	<g>
		<rect class="st5" width="4000" height="4000"/>
	</g>
	<path class="st51" d="M3707.5,3337.01c0,65.19-764.49,117.99-1707.5,117.99s-1707.5-52.8-1707.5-117.99
		c0-18.67,62.77-36.32,174.61-52.01h3065.77C3644.73,3300.69,3707.5,3318.34,3707.5,3337.01z"/>
	<path class="st26" d="M3293.91,2018.91c0,557.7-352.79,1032.98-847.42,1214.79h-892.98
		c-494.63-181.81-847.42-657.09-847.42-1214.79C706.09,1304.29,1285.38,725,2000,725S3293.91,1304.29,3293.91,2018.91z"/>
	<g>
		<g>
			<g>
				<path class="st52" d="M2905.52,3288.7h457.76c87.86-28.26,26.12-199.99-109.46-178.84c104.49-79.72,43.12-145.95-67.17-48.51
					c141.81-208.51-67.17-273.25-153.42-72.56c51.62-174.77-79.43-171.1-96.99-45.61c-123.06-64.79-151.66,71.02-187.46,191.56
					L2905.52,3288.7z"/>
			</g>
			<g class="st4">
				<path class="st5" d="M3030.59,2963.41c4.95-87.87-58.11-94.04-91.14-37.25c26.32-108.42,142.95-103.89,93.79,62.64
					c79.46-184.95,263.11-144.54,180.57,26.07c35.84-121.59-84.09-153.26-163.82-44.72
					C3043.67,2978.78,3029.99,2974.09,3030.59,2963.41z"/>
			</g>
			<g class="st4">
				<path class="st5" d="M3194.54,3061.15c1.97-3.74,3.82-7.42,5.55-11.04c83.64-66.38,133.85-34.83,93.19,21.05
					c-1.03-25.78-35.65-32.75-87.13,0.67C3199.14,3076.37,3190.64,3068.54,3194.54,3061.15z"/>
			</g>
			<g class="st4">
				<path class="st5" d="M3389.56,3271.77c4.68-59.01-54.23-140.36-150.07-125.44c17.51-13.33,30.35-26.32,39.11-38.21
					C3380.7,3109.61,3431.1,3223.8,3389.56,3271.77z"/>
			</g>
			<g>
				<path class="st2" d="M3363.29,3303.49h-457.76c-8.16,0-14.79-6.62-14.79-14.79s6.62-14.79,14.79-14.79h455.3
					c30.69-11.25,34.61-44.91,28.48-70.77c-11.27-47.5-57.33-90.2-123.52-79.84c-6.72,1.01-13.21-2.58-15.87-8.78
					c-2.66-6.21-0.78-13.43,4.58-17.55c27.81-21.36,38.29-43.54,36.34-56.05c-0.71-4.59-3.06-7.46-7.39-9.02
					c-13.5-4.87-44.35,2.85-87.01,40.53c-5.59,4.94-13.97,4.94-19.57,0.01s-6.64-13.25-2.45-19.41
					c41.67-61.26,55.85-116.77,37.96-148.49c-8.73-15.46-24.65-23.39-44.77-22.29c-34.24,1.85-86.43,32.39-120.8,112.37
					c-3.09,7.19-11.25,10.72-18.6,8.07c-7.36-2.66-11.38-10.59-9.16-18.1c18.73-63.39,11.46-99.25-1.57-111.68
					c-5.69-5.43-12.83-6.7-21.23-3.79c-18.17,6.33-39.24,32.31-45.37,76.1c-0.64,4.56-3.36,8.55-7.37,10.82
					c-4.01,2.26-8.85,2.53-13.07,0.73c-61.1-26.04-78.94-17.75-83.78-12.98c-5.21,5.13-14.27,24.52,13.95,93.56
					c3.09,7.56-0.54,16.19-8.1,19.28c-7.53,3.08-16.19-0.52-19.28-8.1c-26.44-64.7-28.77-104.68-7.32-125.81
					c18.54-18.28,50.27-18.34,99.14,0.01c11.48-47.97,38.37-73.5,61.47-81.55c18.86-6.56,37.59-2.82,51.35,10.31
					c9.57,9.12,21.65,27.66,22.18,63.35c34.7-42.47,74.57-60.44,105.97-62.14c31.4-1.65,57.77,11.89,72.11,37.29
					c17.4,30.83,14.55,73.93-7.15,122.8c23.99-11.66,45.54-14.87,62.5-8.74c14.51,5.24,24.19,17.01,26.57,32.29
					c2.75,17.7-4.21,37.54-19.17,56.51c62.51,6.43,105.17,52.81,117.18,103.44c11.9,50.17-8.3,92.95-50.26,106.46
					C3366.35,3303.25,3364.82,3303.49,3363.29,3303.49z"/>
			</g>
		</g>
		<g>
			<g>
				<path class="st52" d="M1073.83,3288.7H616.07c-87.86-28.26-26.12-199.99,109.46-178.84c-104.49-79.72-43.12-145.95,67.17-48.51
					c-141.81-208.51,67.17-273.25,153.42-72.56c-51.62-174.77,79.43-171.1,96.99-45.61c123.06-64.79,151.66,71.02,187.46,191.56
					L1073.83,3288.7z"/>
			</g>
			<g class="st4">
				<path class="st5" d="M948.77,2963.41c-4.95-87.87,58.11-94.04,91.14-37.25c-26.32-108.42-142.95-103.89-93.79,62.64
					c-79.46-184.95-263.11-144.54-180.57,26.07c-35.84-121.59,84.09-153.26,163.82-44.72
					C935.69,2978.78,949.37,2974.09,948.77,2963.41z"/>
			</g>
			<g class="st4">
				<path class="st5" d="M784.82,3061.15c-1.97-3.74-3.82-7.42-5.55-11.04c-83.64-66.38-133.85-34.83-93.19,21.05
					c1.03-25.78,35.65-32.75,87.13,0.67C780.22,3076.37,788.72,3068.54,784.82,3061.15z"/>
			</g>
			<g class="st4">
				<path class="st5" d="M589.8,3271.77c-4.68-59.01,54.23-140.36,150.07-125.44c-17.51-13.33-30.35-26.32-39.11-38.21
					C598.66,3109.61,548.26,3223.8,589.8,3271.77z"/>
			</g>
			<g>
				<path class="st2" d="M1073.83,3303.49H616.07c-1.54,0-3.07-0.24-4.53-0.71c-41.97-13.5-62.17-56.28-50.26-106.46
					c12.01-50.62,54.68-97.01,117.18-103.43c-14.96-18.97-21.92-38.82-19.17-56.52c2.38-15.28,12.06-27.05,26.57-32.29
					c16.94-6.12,38.52-2.93,62.5,8.74c-21.69-48.88-24.55-91.97-7.15-122.8c14.33-25.4,40.6-38.94,72.11-37.29
					c31.4,1.69,71.26,19.67,105.97,62.14c0.53-35.69,12.61-54.23,22.18-63.35c13.76-13.12,32.49-16.87,51.35-10.31
					c23.1,8.05,49.99,33.58,61.47,81.55c48.87-18.35,80.61-18.29,99.14-0.01c21.45,21.13,19.12,61.11-7.32,125.81
					c-3.09,7.56-11.72,11.18-19.28,8.1c-7.56-3.09-11.19-11.72-8.1-19.28c28.22-69.05,19.15-88.44,13.95-93.56
					c-4.84-4.77-22.68-13.06-83.78,12.98c-4.23,1.81-9.06,1.53-13.07-0.73c-4-2.27-6.73-6.26-7.37-10.82
					c-6.13-43.79-27.2-69.78-45.37-76.1c-8.37-2.91-15.53-1.64-21.23,3.79c-13.04,12.43-20.3,48.29-1.57,111.68
					c2.22,7.5-1.8,15.44-9.16,18.1c-7.32,2.66-15.51-0.87-18.6-8.07c-34.38-79.99-86.56-110.53-120.8-112.37
					c-20.09-1.1-36.04,6.83-44.77,22.29c-17.9,31.71-3.71,87.23,37.96,148.49c4.19,6.16,3.14,14.48-2.45,19.41
					s-13.97,4.92-19.57-0.01c-42.67-37.7-73.54-45.4-87.01-40.53c-4.33,1.56-6.68,4.43-7.39,9.02c-1.95,12.51,8.54,34.7,36.34,56.05
					c5.36,4.12,7.24,11.34,4.58,17.55c-2.66,6.21-9.18,9.8-15.87,8.78c-66.19-10.34-112.25,32.35-123.52,79.84
					c-6.13,25.85-2.21,59.51,28.48,70.77h455.3c8.16,0,14.79,6.62,14.79,14.79S1082,3303.49,1073.83,3303.49z"/>
			</g>
		</g>
		<g>
			<rect x="2956.9" y="2239.76" class="st37" width="241.6" height="57.43"/>
		</g>
		<g class="st1">
			<rect x="2956.88" y="2239.76" class="st2" width="59.65" height="57.44"/>
		</g>
		<g class="st4">
			<rect x="3164.73" y="2239.76" class="st5" width="33.76" height="57.44"/>
		</g>
		<g>
			<path class="st32" d="M3077.7,2106.96L3077.7,2106.96c-52.08,0-94.29,42.22-94.29,94.29v38.51h188.59v-38.51
				C3171.99,2149.17,3129.77,2106.96,3077.7,2106.96z"/>
			<path class="st2" d="M3174.49,2242.26H2980.9v-41.01c0-53.37,43.42-96.79,96.79-96.79c53.37,0,96.8,43.42,96.8,96.79V2242.26z
				 M2985.9,2237.26h183.59v-36.01c0-50.62-41.18-91.79-91.8-91.79s-91.79,41.18-91.79,91.79V2237.26z"/>
		</g>
		<g class="st4">
			<path class="st5" d="M3171.98,2201.27v38.49h-26.47v-18.23c0-52.09-42.23-94.31-94.31-94.31c-15.53,0-30.16,3.74-43.08,10.4
				c17.29-18.86,42.05-30.66,69.6-30.66C3129.79,2106.96,3171.98,2149.18,3171.98,2201.27z"/>
		</g>
		<g>
			<rect x="2956.9" y="2835.51" class="st37" width="241.6" height="57.43"/>
		</g>
		<g class="st1">
			<rect x="2956.88" y="2835.5" class="st2" width="73.29" height="57.44"/>
		</g>
		<g class="st4">
			<rect x="3157.97" y="2835.5" class="st5" width="40.52" height="57.44"/>
		</g>
		<g>
			<path class="st32" d="M3077.7,3025.74L3077.7,3025.74c-52.08,0-94.29-42.22-94.29-94.29v-38.51h188.59v38.51
				C3171.99,2983.53,3129.77,3025.74,3077.7,3025.74z"/>
			<path class="st2" d="M3077.7,3028.24c-53.37,0-96.79-43.42-96.79-96.79v-41.02h193.59v41.02
				C3174.49,2984.82,3131.07,3028.24,3077.7,3028.24z M2985.9,2895.43v36.02c0,50.62,41.18,91.79,91.79,91.79s91.8-41.18,91.8-91.79
				v-36.02H2985.9z"/>
		</g>
		<g class="st4">
			<path class="st5" d="M3141.99,2892.94v33.51c0,52.08-42.22,94.29-94.29,94.29l0,0c-0.05,0-0.09-0.01-0.14-0.01
				c9.48,3.2,19.58,5.01,30.14,5.01l0,0c52.08,0,94.29-42.22,94.29-94.29v-38.51H3141.99z"/>
		</g>
		<g class="st1">
			<path class="st2" d="M3156.17,2983.7c-16.88,25.35-45.74,42.05-78.47,42.05c-52.09,0-94.31-42.23-94.31-94.31v-38.49h52.27v0.18
				c0,52.09,42.23,94.31,94.31,94.31C3139.07,2987.43,3147.84,2986.13,3156.17,2983.7z"/>
		</g>
		<g>
			<g>
				<rect x="1028.77" y="1710.53" class="st5" width="1870.44" height="1578.17"/>
			</g>
			<g>
				<path class="st2" d="M2901.7,3291.2H1026.26V1708.03H2901.7V3291.2z M1031.26,3286.2H2896.7V1713.03H1031.26V3286.2z"/>
			</g>
		</g>
		<g>
			<path class="st2" d="M2899.2,3303.49H1028.76c-8.16,0-14.79-6.62-14.79-14.79V1710.53c0-8.16,6.62-14.79,14.79-14.79H2899.2
				c8.16,0,14.79,6.62,14.79,14.79V3288.7C2913.99,3296.87,2907.37,3303.49,2899.2,3303.49z M1043.55,3273.92h1840.87v-1548.6
				H1043.55V3273.92z"/>
		</g>
		<g>
			<path class="st32" d="M2983.39,1589.01v349.53c0,33.94-27.51,61.5-61.5,61.5H1006.07c-33.99,0-61.5-27.55-61.5-61.5v-349.53
				c0-33.99,27.51-61.54,61.5-61.54H2921.9C2955.89,1527.47,2983.39,1555.02,2983.39,1589.01z"/>
		</g>
		<g class="st1">
			<path class="st2" d="M2983.39,1852.64v85.9c0,33.94-27.51,61.5-61.5,61.5H1006.07c-33.99,0-61.5-27.55-61.5-61.5v-85.9
				c0,33.94,27.51,61.5,61.5,61.5H2921.9C2955.89,1914.14,2983.39,1886.59,2983.39,1852.64z"/>
		</g>
		<g class="st4">
			<path class="st5" d="M2983.39,1589.01v43.13c0-33.94-27.51-61.5-61.5-61.5H1006.07c-33.99,0-61.5,27.55-61.5,61.5v-43.13
				c0-33.99,27.51-61.54,61.5-61.54H2921.9C2955.89,1527.47,2983.39,1555.02,2983.39,1589.01z"/>
		</g>
		<g>
			<path class="st2" d="M2921.89,2014.82H1006.08c-42.07,0-76.3-34.23-76.3-76.3v-349.53c0-42.07,34.23-76.3,76.3-76.3h1915.81
				c42.07,0,76.3,34.23,76.3,76.3v349.53C2998.19,1980.59,2963.96,2014.82,2921.89,2014.82z M1006.08,1542.27
				c-25.77,0-46.73,20.96-46.73,46.73v349.53c0,25.77,20.96,46.73,46.73,46.73h1915.81c25.77,0,46.73-20.96,46.73-46.73v-349.53
				c0-25.77-20.96-46.73-46.73-46.73H1006.08z"/>
		</g>
		<g>
			<path class="st2" d="M2444.91,1703.25c-183.86,27.07-350.9-22.7-463.53-125.78c-9.8-8.97-25.01-8.97-34.81,0
				c-112.63,103.08-279.67,152.84-463.53,125.78c-418.67-76.53-207.09-460.68-41.28-301.63c-164.99-17.74-129.43,211.54,93.14,83.87
				c27.1-15.53,51.77-34.8,74.82-55.87c108.17-98.73,263.66-109.03,336.98-44.42c9.89,8.71,24.66,8.71,34.54,0
				c73.32-64.61,228.81-54.31,336.98,44.42c23.05,21.07,47.72,40.34,74.82,55.87c222.57,127.67,258.14-101.61,93.14-83.87
				C2652,1242.58,2863.59,1626.72,2444.91,1703.25z"/>
		</g>
		<g class="st1">
			<path class="st2" d="M2444.92,1812.71c-183.86,27.06-350.92-22.69-463.56-125.78c-9.77-8.96-24.99-8.96-34.8,0
				c-112.64,103.09-279.66,152.84-463.51,125.78c-224.87-41.1-267.91-170.94-233.87-257.69c24.27,62.62,93.77,122.63,233.87,148.25
				c183.86,27.06,350.88-22.73,463.51-125.78c9.81-9,25.03-9,34.8,0c112.64,103.05,279.7,152.84,463.56,125.78
				c140.1-25.62,209.61-85.63,233.87-148.25C2712.83,1641.78,2669.79,1771.61,2444.92,1812.71z"/>
		</g>
		<g class="st1">
			<g>
				<path class="st36" d="M2444.91,1703.23c-183.86,27.1-350.92-22.69-463.51-125.74c-9.81-9-25.03-9-34.84,0
					c-112.59,103.05-279.66,152.84-463.51,125.74c-208.39-38.09-260.66-152.39-240.08-237.97
					c16.57,69.42,85.18,139.83,240.08,168.15c183.86,27.1,350.92-22.69,463.51-125.78c9.81-8.96,25.03-8.96,34.84,0
					c112.59,103.09,279.66,152.88,463.51,125.78c154.91-28.32,223.52-98.73,240.08-168.15
					C2705.57,1550.84,2653.31,1665.15,2444.91,1703.23z"/>
			</g>
			<g>
				<path class="st2" d="M2347.01,1713c-141.98,0-272.26-46.68-367.3-133.66c-8.82-8.1-22.65-8.09-31.46,0
					c-116.63,106.74-286.33,152.77-465.57,126.37c-133.72-24.44-193.49-78.3-220.1-119.17c-24.18-37.15-32.01-80.42-22.05-121.86
					l2.44-10.15l2.42,10.15c11.44,47.93,57.58,133.27,238.1,166.26c177.68,26.19,345.88-19.42,461.38-125.17
					c10.72-9.79,27.5-9.79,38.22,0c115.49,105.75,283.69,151.38,461.46,125.15c180.43-32.98,226.58-118.32,238.02-166.25l2.42-10.15
					l2.44,10.15c9.96,41.44,2.12,84.71-22.06,121.86c-26.61,40.88-86.38,94.73-220.01,119.16l-0.08,0.01
					C2412.11,1710.6,2379.25,1713,2347.01,1713z M1243.32,1475.99c-6.18,36.94,1.99,74.86,23.44,107.82
					c26.07,40.05,84.84,92.86,216.72,116.96c177.67,26.21,345.87-19.4,461.38-125.12c10.71-9.82,27.51-9.83,38.22,0
					c115.5,105.7,283.66,151.31,461.42,125.11c131.84-24.11,190.6-76.91,216.67-116.96c21.46-32.96,29.63-70.87,23.45-107.81
					c-15.69,50.21-68,128.56-239.27,159.87c-179.36,26.45-349.04-19.63-465.65-126.4c-8.82-8.05-22.64-8.06-31.47,0
					c-116.6,106.76-286.26,152.82-465.57,126.41C1311.33,1604.56,1259.02,1526.21,1243.32,1475.99z"/>
			</g>
		</g>
		<g class="st4">
			<g>
				<path class="st5" d="M1240.12,1519.78c-14.9-112.55,101.7-214.06,201.64-118.17c-22.37-2.39-41.06-0.27-56.09,4.91
					C1315.17,1386.08,1249.89,1444.92,1240.12,1519.78z"/>
			</g>
			<g>
				<path class="st2" d="M1240.14,1538.96l-2.5-18.86c-8.11-61.28,21.65-122.02,72.38-147.72c43.63-22.09,92.28-12.11,133.47,27.42
					l5.28,5.06l-7.28-0.78c-20.84-2.22-39.35-0.61-55.01,4.79l-0.75,0.26l-0.76-0.22c-28.26-8.2-57.84-3.54-83.29,13.11
					c-31.69,20.74-53.78,57.4-59.08,98.08L1240.14,1538.96z M1356.96,1365.91c-15.16,0-30.22,3.61-44.68,10.94
					c-42.86,21.71-70.8,71.7-70.91,123.57c9.03-34.33,29.73-64.36,57.58-82.58c26.45-17.31,57.19-22.25,86.66-13.95
					c14.31-4.8,30.79-6.61,49.07-5.41C1410.26,1376.96,1383.47,1365.91,1356.96,1365.91z"/>
			</g>
		</g>
		<g class="st4">
			<g>
				<path class="st5" d="M2585.28,1483.99c20.53,53.12-44.88,125.06-192.23,40.52c-27.1-15.53-51.77-34.8-74.82-55.87
					c-108.18-98.73-263.68-109.04-336.97-44.43c-9.9,8.73-24.67,8.73-34.58,0c-73.29-64.6-228.78-54.29-336.97,44.43
					c-23.05,21.07-47.72,40.34-74.82,55.87c-147.35,84.54-212.76,12.6-192.23-40.52c15.53,39.57,80.18,65.73,192.23,1.49
					c27.1-15.53,51.77-34.8,74.82-55.87c108.18-98.73,263.67-109.04,336.97-44.39c9.9,8.69,24.67,8.69,34.58,0
					c73.29-64.65,228.78-54.34,336.97,44.39c23.05,21.07,47.72,40.34,74.82,55.87C2505.1,1549.72,2569.75,1523.56,2585.28,1483.99z"
					/>
			</g>
			<g>
				<path class="st2" d="M1414.76,1565.85c-23.39,0-43.13-6.2-57.77-18.76c-18.88-16.2-25.42-41.33-16.65-64l2.31-5.99l2.35,5.98
					c6.01,15.32,19.17,27.23,37.07,33.52c37.37,13.15,91.22,1.32,151.58-33.29c24.55-14.07,48.88-32.24,74.38-55.55
					c113.14-103.25,270.16-106.29,340.3-44.42c8.91,7.81,22.35,7.82,31.27,0c70.15-61.86,227.15-58.84,340.3,44.42
					c25.49,23.3,49.81,41.47,74.38,55.55c60.37,34.6,114.2,46.43,151.58,33.29c17.9-6.29,31.06-18.2,37.08-33.52l2.35-5.98
					l2.31,5.99c8.76,22.68,2.23,47.8-16.66,64.01c-36.01,30.92-102.99,23.28-179.16-20.42c-24.88-14.26-49.5-32.64-75.26-56.19
					c-111.18-101.46-265.06-104.84-333.63-44.4c-10.8,9.52-27.09,9.52-37.88,0c-68.56-60.43-222.44-57.07-333.63,44.4
					c-25.78,23.56-50.4,41.94-75.26,56.19C1490.93,1552.62,1448.94,1565.85,1414.76,1565.85z M1343.1,1490.87
					c-4.83,19,1.55,39.04,17.15,52.43c34.34,29.47,99.16,21.64,173.41-20.96c24.55-14.07,48.88-32.23,74.38-55.54
					c113.12-103.25,270.14-106.3,340.3-44.46c8.9,7.85,22.35,7.86,31.26,0c70.17-61.84,227.18-58.78,340.31,44.46
					c25.49,23.3,49.82,41.46,74.38,55.54c74.25,42.6,139.07,50.43,173.41,20.97c15.61-13.39,21.99-33.43,17.15-52.44
					c-7.36,13.81-20.4,24.5-37.32,30.45c-38.79,13.63-94.09,1.67-155.73-33.67c-24.88-14.26-49.5-32.64-75.26-56.19
					c-111.21-101.48-265.08-104.82-333.63-44.36c-10.81,9.48-27.08,9.48-37.88,0c-68.54-60.46-222.43-57.11-333.63,44.36
					c-25.78,23.56-50.4,41.94-75.26,56.19c-61.65,35.35-116.95,47.3-155.73,33.67C1363.49,1515.37,1350.46,1504.68,1343.1,1490.87z"
					/>
			</g>
		</g>
		<g class="st4">
			<g>
				<path class="st5" d="M2687.88,1519.78c-9.81-74.87-75.09-133.71-145.59-113.27c-15.04-5.18-33.72-7.29-56.09-4.91
					C2586.14,1305.72,2702.74,1407.24,2687.88,1519.78z"/>
			</g>
			<g>
				<path class="st2" d="M2687.87,1538.95l-2.47-18.84c-5.33-40.69-27.45-77.37-59.16-98.1c-25.43-16.63-55.01-21.28-83.26-13.09
					l-0.76,0.22l-0.75-0.26c-15.66-5.4-34.18-7-55.01-4.79l-7.28,0.78l5.28-5.06c41.18-39.52,89.81-49.51,133.46-27.42
					c50.74,25.69,80.53,86.44,72.44,147.72L2687.87,1538.95z M2570.56,1399.96c20.29,0,40.36,6.04,58.42,17.86
					c27.87,18.22,48.59,48.26,57.64,82.61c-0.12-51.88-28.08-101.88-70.96-123.59c-39.75-20.14-84.02-12.19-122.39,21.64
					c18.29-1.2,34.77,0.61,49.08,5.41C2551.68,1401.26,2561.15,1399.96,2570.56,1399.96z"/>
			</g>
		</g>
		<g>
			<path class="st2" d="M1580.84,1725.3c-32.81,0-66.21-2.45-99.96-7.41c-0.17-0.02-0.34-0.05-0.5-0.08
				c-209.43-38.29-247.79-147.95-254.57-193.33c-9.99-66.88,21.97-133.72,77.71-162.54c48.82-25.23,102.92-14.66,148.46,29.03
				c4.57,4.38,5.84,11.18,3.17,16.91c-2.67,5.74-8.67,9.08-14.99,8.46c-48.2-5.23-74.42,13.1-82.86,31.94
				c-7.13,15.9-3.2,33.91,10.02,45.88c23.03,20.84,77.2,26.14,160.21-21.47c23.76-13.62,47.38-31.27,72.21-53.96
				c53.21-48.57,120.65-79.55,189.9-87.25c66.87-7.43,127.65,8.12,166.83,42.65c4.28,3.77,10.73,3.77,15,0
				c39.18-34.53,99.98-50.05,166.83-42.65c69.25,7.7,136.69,38.68,189.89,87.24c24.82,22.69,48.44,40.34,72.21,53.96
				c83.01,47.62,137.2,42.32,160.21,21.48c13.22-11.97,17.16-29.98,10.03-45.88c-8.44-18.84-34.64-37.14-82.87-31.94
				c-6.36,0.61-12.31-2.73-14.99-8.46s-1.4-12.53,3.17-16.91c45.54-43.69,99.66-54.27,148.46-29.02
				c55.74,28.82,87.7,95.65,77.71,162.53c-6.78,45.38-45.14,155.04-254.57,193.33c-0.17,0.03-0.33,0.06-0.5,0.08
				c-182.93,26.94-356.32-20.27-475.67-129.5c-4.17-3.82-10.68-3.82-14.85,0C1859.22,1677.47,1725.93,1725.29,1580.84,1725.3z
				 M2444.92,1703.26h0.05H2444.92z M1485.45,1688.67c174.02,25.55,338.43-18.96,451.14-122.1c15.35-14.05,39.41-14.06,54.78,0
				c112.71,103.15,277.14,147.64,451.14,122.09c134.1-24.57,218.06-86,230.39-168.56c8.02-53.7-18.08-109.17-62.05-131.9
				c-26.26-13.58-54.11-13.4-80.96-0.04c36.37,6.72,58.42,27.23,67.74,48.01c12.47,27.81,5.73,59.17-17.16,79.9
				c-39.8,36.02-112.6,29.38-194.77-17.75c-25.67-14.72-51-33.62-77.44-57.78c-106.36-97.08-252.56-101.24-317.23-44.24
				c-15.42,13.57-38.67,13.58-54.1,0c-64.67-57-210.86-52.84-317.24,44.24c-26.44,24.17-51.78,43.07-77.44,57.78
				c-82.16,47.13-154.98,53.77-194.76,17.75c-22.9-20.73-29.63-52.09-17.16-79.9c9.31-20.78,31.38-41.28,67.73-48.01
				c-26.84-13.37-54.69-13.54-80.95,0.04c-43.97,22.73-70.06,78.21-62.05,131.9C1267.39,1602.67,1351.36,1664.1,1485.45,1688.67z"/>
		</g>
		<g>
			<rect x="944.57" y="3117.58" class="st32" width="2038.84" height="171.12"/>
		</g>
		<g class="st4">
			<rect x="944.58" y="3117.58" class="st5" width="2038.81" height="33.76"/>
		</g>
		<g>
			<path class="st2" d="M2983.4,3303.49H944.57c-8.16,0-14.79-6.62-14.79-14.79v-135.3c0-27.91,22.7-50.61,50.61-50.61h1967.2
				c27.9,0,50.6,22.7,50.6,50.61v135.3C2998.19,3296.87,2991.57,3303.49,2983.4,3303.49z M959.35,3273.92h2009.27V3153.4
				c0-11.6-9.43-21.04-21.03-21.04H980.39c-11.6,0-21.04,9.44-21.04,21.04V3273.92z"/>
		</g>
		<g>
			<path class="st35" d="M1824.43,3288.7h-574.35v-976.93c0-19.05,15.44-34.49,34.49-34.49h505.37c19.05,0,34.49,15.44,34.49,34.49
				V3288.7z"/>
		</g>
		<g>
			<rect x="1340" y="2745" class="st37" width="390" height="525"/>
		</g>
		<g class="st4">
			<path class="st5" d="M1824.43,2311.77v33c0-19.04-15.44-34.48-34.48-34.48h-505.38c-19.04,0-34.49,15.44-34.49,34.48v-33
				c0-19.04,15.44-34.48,34.49-34.48h505.38C1808.99,2277.29,1824.43,2292.73,1824.43,2311.77z"/>
		</g>
		<g>
			<rect x="1344.62" y="2371.83" class="st24" width="385.27" height="379.24"/>
		</g>
		<linearGradient id="SVGID_1_" gradientUnits="userSpaceOnUse" x1="1420.3481" y1="2528.2117" x2="1610.9279" y2="2771.3132">
			<stop  offset="0" style="stop-color:#FFFFFF"/>
			<stop  offset="1" style="stop-color:#F1F2F2;stop-opacity:0"/>
		</linearGradient>
		<polygon style="opacity:0.55;fill:url(#SVGID_1_);" points="1607.89,2751.07 1503.89,2751.07 1344.62,2475.15 1344.62,2371.83 
			1388.91,2371.83 		"/>
		<linearGradient id="SVGID_2_" gradientUnits="userSpaceOnUse" x1="1520.9211" y1="2449.3674" x2="1711.5007" y2="2692.4692">
			<stop  offset="0" style="stop-color:#FFFFFF"/>
			<stop  offset="1" style="stop-color:#F1F2F2;stop-opacity:0"/>
		</linearGradient>
		<polygon style="opacity:0.55;fill:url(#SVGID_2_);" points="1729.89,2713.97 1729.89,2751.07 1685.23,2751.07 1466.3,2371.83 
			1532.34,2371.83 		"/>
		<g class="st1">
			<rect x="1344.62" y="2371.83" class="st2" width="385.27" height="60.78"/>
		</g>
		<g>
			<path class="st2" d="M1824.43,3303.49h-574.35c-8.16,0-14.79-6.62-14.79-14.79v-976.93c0-27.17,22.1-49.28,49.28-49.28h505.37
				c27.17,0,49.28,22.1,49.28,49.28v976.93C1839.21,3296.87,1832.59,3303.49,1824.43,3303.49z M1264.86,3273.92h544.78v-962.15
				c0-10.86-8.84-19.71-19.71-19.71h-505.37c-10.86,0-19.71,8.84-19.71,19.71V3273.92z"/>
		</g>
		<g>
			<path class="st2" d="M1729.89,3303.49h-385.27c-8.16,0-14.79-6.62-14.79-14.79v-916.88c0-8.16,6.62-14.79,14.79-14.79h385.27
				c8.16,0,14.79,6.62,14.79,14.79v916.88C1744.67,3296.87,1738.05,3303.49,1729.89,3303.49z M1359.4,3273.92h355.7V2386.6h-355.7
				V3273.92z"/>
		</g>
		<g>
			<path class="st2" d="M1729.89,2765.85h-385.27c-8.16,0-14.79-6.62-14.79-14.79s6.62-14.79,14.79-14.79h385.27
				c8.16,0,14.79,6.62,14.79,14.79S1738.05,2765.85,1729.89,2765.85z"/>
		</g>
		<g>
			<path class="st2" d="M1670.61,2903.38h-19.51c-6.22,0-11.25-5.04-11.25-11.25v-69.03c0-6.22,5.04-11.25,11.25-11.25h19.51
				c6.22,0,11.25,5.04,11.25,11.25v69.03C1681.87,2898.34,1676.83,2903.38,1670.61,2903.38z"/>
		</g>
		<g>
			<path class="st34" d="M2690.29,2973.57h-642.27c-29.01,0-52.52-23.51-52.52-52.52V2329.8c0-29.01,23.51-52.52,52.52-52.52h642.27
				c29.01,0,52.52,23.51,52.52,52.52v591.25C2742.81,2950.05,2719.3,2973.57,2690.29,2973.57z"/>
		</g>
		<g class="st1">
			<g>
				<path class="st36" d="M2742.81,2921.03v77.43c0,28.99-23.5,52.54-52.54,52.54h-642.24c-29.04,0-52.54-23.54-52.54-52.54v-77.43
					c0,29.04,23.5,52.54,52.54,52.54h642.24C2719.31,2973.57,2742.81,2950.07,2742.81,2921.03z"/>
			</g>
			<g>
				<path class="st2" d="M2690.27,3053.5h-642.24c-30.35,0-55.04-24.69-55.04-55.04v-77.43h5c0,27.59,22.45,50.04,50.04,50.04
					h642.24c27.59,0,50.04-22.45,50.04-50.04h5v77.43C2745.31,3028.81,2720.62,3053.5,2690.27,3053.5z M1998,2943.95v54.52
					c0,27.59,22.45,50.04,50.04,50.04h642.24c27.59,0,50.04-22.45,50.04-50.04v-54.52c-8.71,18.94-27.86,32.12-50.04,32.12h-642.24
					C2025.86,2976.07,2006.7,2962.89,1998,2943.95z"/>
			</g>
		</g>
		<g class="st4">
			<path class="st5" d="M2742.81,2329.8v33.76c0-28.99-23.5-52.54-52.54-52.54h-642.24c-29.04,0-52.54,23.55-52.54,52.54v-33.76
				c0-28.99,23.5-52.54,52.54-52.54h642.24C2719.31,2277.26,2742.81,2300.81,2742.81,2329.8z"/>
		</g>
		<g>
			<path class="st2" d="M2690.29,2988.35h-642.27c-37.11,0-67.31-30.2-67.31-67.31V2329.8c0-37.11,30.2-67.31,67.31-67.31h642.27
				c37.11,0,67.31,30.2,67.31,67.31v591.25C2757.6,2958.16,2727.4,2988.35,2690.29,2988.35z M2048.02,2292.06
				c-20.81,0-37.74,16.93-37.74,37.74v591.25c0,20.81,16.93,37.74,37.74,37.74h642.27c20.81,0,37.74-16.93,37.74-37.74V2329.8
				c0-20.81-16.93-37.74-37.74-37.74H2048.02z"/>
		</g>
		<g>
			<rect x="2090.04" y="2371.8" class="st24" width="558.23" height="507.23"/>
		</g>
		<g class="st4">
			<path class="st5" d="M2648.27,2879.03L2648.27,2879.03c0,18.65-15.12,33.76-33.76,33.76H2123.8c-18.65,0-33.76-15.12-33.76-33.76
				l0,0H2648.27z"/>
		</g>
		<linearGradient id="SVGID_3_" gradientUnits="userSpaceOnUse" x1="2178.8936" y1="2400.4541" x2="2326.5496" y2="2764.0571">
			<stop  offset="0" style="stop-color:#FFFFFF"/>
			<stop  offset="1" style="stop-color:#F1F2F2;stop-opacity:0"/>
		</linearGradient>
		<polygon style="opacity:0.55;fill:url(#SVGID_3_);" points="2455.82,2879.03 2302.3,2879.03 2090.04,2384.99 2090.04,2371.8 
			2237.88,2371.8 		"/>
		<linearGradient id="SVGID_4_" gradientUnits="userSpaceOnUse" x1="2409.3083" y1="2386.3828" x2="2550.7473" y2="2734.676">
			<stop  offset="0" style="stop-color:#FFFFFF"/>
			<stop  offset="1" style="stop-color:#F1F2F2;stop-opacity:0"/>
		</linearGradient>
		<polygon style="opacity:0.55;fill:url(#SVGID_4_);" points="2648.27,2850.62 2648.27,2879.03 2570.88,2879.03 2352.95,2371.8 
			2442.54,2371.8 		"/>
		<g>
			<path class="st2" d="M2648.27,2893.81h-558.23c-8.16,0-14.79-6.62-14.79-14.79v-507.21c0-8.16,6.62-14.79,14.79-14.79h558.23
				c8.16,0,14.79,6.62,14.79,14.79v507.21C2663.06,2887.19,2656.44,2893.81,2648.27,2893.81z M2104.82,2864.24h528.66V2386.6
				h-528.66V2864.24z"/>
		</g>
		<g class="st1">
			<rect x="1028.77" y="2000.04" class="st2" width="1870.44" height="178.2"/>
		</g>
		<g>
			<path class="st2" d="M2461.2,2700.58c-30.89,4.55-58.95-3.81-77.87-21.13c-1.65-1.51-4.2-1.51-5.85,0
				c-18.92,17.32-46.98,25.68-77.87,21.13c-70.33-12.86-34.79-77.39-6.94-50.67c-27.72-2.98-21.74,35.54,15.65,14.09
				c4.55-2.61,8.7-5.85,12.57-9.39c18.17-16.59,44.29-18.32,56.61-7.46c1.66,1.46,4.14,1.46,5.8,0
				c12.32-10.85,38.44-9.12,56.61,7.46c3.87,3.54,8.02,6.78,12.57,9.39c37.39,21.45,43.37-17.07,15.65-14.09
				C2495.99,2623.19,2531.54,2687.72,2461.2,2700.58z"/>
		</g>
		<g>
			<g>
				<path class="st2" d="M2154.33,2619.92c5.88-4.21,11.84-8.24,17.87-12.08c4.46-2.84,8.59-3.86,11.86-3.12
					c2.62,0.59,4.5,2.09,5.72,4.58c0.02,0.04,0.03,0.07,0.05,0.11c2.01,4.1,0.85,7.72-1.1,10.78c5.17-1.04,9.04-0.12,11.4,4.77
					c0.02,0.04,0.03,0.07,0.05,0.11c3.21,6.69-0.55,13.03-8.5,18.08c-5.6,3.56-11.14,7.3-16.61,11.21
					C2168.16,2642.87,2161.25,2631.39,2154.33,2619.92z M2178.15,2623.34c3.63-2.34,5.37-4.89,3.98-7.55
					c-0.02-0.04-0.04-0.07-0.05-0.1c-1.22-2.35-3.9-2.47-7.45-0.19c-2.76,1.78-5.52,3.6-8.25,5.45c1.41,2.46,2.82,4.93,4.23,7.39
					C2173.11,2626.64,2175.62,2624.97,2178.15,2623.34z M2188.01,2636.27c3.5-2.22,4.99-4.74,3.63-7.41
					c-0.02-0.04-0.04-0.07-0.05-0.1c-1.24-2.41-3.86-2.79-8.03-0.14c-3.12,1.99-6.22,4.03-9.31,6.12c1.47,2.56,2.93,5.13,4.4,7.69
					C2181.75,2640.31,2184.87,2638.26,2188.01,2636.27z"/>
			</g>
			<g>
				<path class="st2" d="M2208.31,2587.06c2.74-1.37,5.5-2.7,8.26-3.99c10.85,9.96,21.2,20.34,31.03,31.09
					c-2.88,1.18-5.75,2.4-8.61,3.66c-2.2-2.35-4.42-4.69-6.66-7.01c-5.36,2.43-10.68,5.01-15.96,7.72c0.07,3.37,0.16,6.74,0.28,10.1
					c-2.72,1.44-5.44,2.92-8.14,4.44C2207.85,2617.87,2207.79,2602.52,2208.31,2587.06z M2226.47,2604.82
					c-3.32-3.3-6.68-6.56-10.1-9.78c-0.1,4.92-0.15,9.83-0.13,14.73C2219.63,2608.06,2223.04,2606.41,2226.47,2604.82z"/>
			</g>
			<g>
				<path class="st2" d="M2240.75,2573.03c6.34-2.47,12.74-4.75,19.16-6.86c5.37-1.76,9.92-1.59,13.32,0.22
					c2.89,1.54,4.88,4.33,5.76,8.09c0.01,0.04,0.02,0.08,0.03,0.12c1.5,6.44-1.07,11.46-5.63,14.88c4.46,3.72,8.82,7.53,13.07,11.41
					c-3.31,0.91-6.61,1.88-9.9,2.9c-3.84-3.38-7.77-6.7-11.77-9.95c-2.27,0.76-4.54,1.55-6.8,2.36c1.26,4.17,2.52,8.35,3.79,12.52
					c-2.79,1-5.56,2.04-8.33,3.11C2249.21,2598.89,2244.98,2585.96,2240.75,2573.03z M2264.63,2585.51c4.31-1.41,6.2-4.43,5.34-7.78
					c-0.01-0.04-0.02-0.08-0.03-0.11c-0.96-3.73-4.2-4.84-8.64-3.37c-3.01,1-6.02,2.03-9.02,3.11c1.13,3.74,2.26,7.49,3.4,11.24
					C2258.66,2587.53,2261.64,2586.5,2264.63,2585.51z"/>
			</g>
			<g>
				<path class="st2" d="M2284.38,2559.04c6.61-1.69,13.25-3.19,19.92-4.51c4.93-0.97,9.01-0.37,11.79,1.56
					c2.22,1.54,3.5,3.66,3.87,6.45c0,0.04,0.01,0.08,0.02,0.12c0.61,4.6-1.55,7.55-4.26,9.69c5.05,0.97,8.32,3.29,9.01,8.77
					c0,0.04,0.01,0.08,0.02,0.12c0.92,7.48-4.44,12.02-13.23,13.74c-6.19,1.22-12.36,2.61-18.51,4.18
					C2290.13,2585.77,2287.25,2572.41,2284.38,2559.04z M2305.08,2571.31c4.02-0.81,6.37-2.55,5.91-5.57
					c-0.01-0.04-0.01-0.08-0.02-0.12c-0.41-2.66-2.82-3.79-6.75-3c-3.06,0.62-6.12,1.28-9.17,1.97c0.55,2.84,1.09,5.68,1.64,8.52
					C2299.48,2572.48,2302.28,2571.88,2305.08,2571.31z M2310.21,2587.15c3.86-0.76,6-2.55,5.55-5.57
					c-0.01-0.04-0.01-0.08-0.02-0.12c-0.4-2.72-2.7-4.07-7.3-3.17c-3.45,0.68-6.9,1.41-10.33,2.2c0.57,2.96,1.14,5.91,1.71,8.87
					C2303.27,2588.57,2306.74,2587.83,2310.21,2587.15z"/>
			</g>
			<g>
				<path class="st2" d="M2328.85,2550.51c10.91-1.41,21.86-2.34,32.82-2.79c0.09,2.69,0.18,5.37,0.28,8.06
					c-7.64,0.31-15.28,0.86-22.9,1.65c0.24,2.77,0.48,5.55,0.73,8.32c6.58-0.68,13.16-1.18,19.76-1.5c0.11,2.68,0.22,5.37,0.33,8.05
					c-6.47,0.31-12.93,0.8-19.38,1.47c0.25,2.87,0.5,5.74,0.75,8.61c7.28-0.75,14.57-1.28,21.87-1.57c0.09,2.69,0.18,5.37,0.27,8.06
					c-10.03,0.4-20.06,1.24-30.04,2.54C2331.83,2577.78,2330.34,2564.15,2328.85,2550.51z"/>
			</g>
			<g>
				<path class="st2" d="M2370.54,2547.47c6.65-0.11,13.3-0.04,19.94,0.2c5.55,0.2,9.77,1.95,12.45,4.85
					c2.27,2.46,3.32,5.8,3.05,9.67c0,0.04-0.01,0.08-0.01,0.12c-0.47,6.63-4.36,10.48-9.65,12.13c3.11,5.08,6.09,10.21,8.95,15.37
					c-3.38-0.29-6.77-0.52-10.16-0.71c-2.62-4.54-5.34-9.05-8.14-13.53c-2.35-0.07-4.71-0.11-7.06-0.14
					c-0.03,4.39-0.07,8.79-0.1,13.18c-2.9-0.02-5.8-0.02-8.7,0.03C2370.93,2574.93,2370.73,2561.2,2370.54,2547.47z
					 M2389.26,2567.65c4.45,0.16,7.12-2.03,7.29-5.5c0-0.04,0-0.08,0.01-0.12c0.19-3.88-2.53-6.04-7.12-6.21
					c-3.12-0.11-6.24-0.18-9.36-0.2c-0.03,3.94-0.06,7.89-0.09,11.83C2383.08,2567.47,2386.17,2567.54,2389.26,2567.65z"/>
			</g>
			<g>
				<path class="st2" d="M2426.86,2586.29c1.99-1.86,4.01-3.71,6.05-5.53c3.22,3.62,6.67,6.2,11.22,7.1
					c3.57,0.71,5.98-0.25,6.43-2.62c0.01-0.04,0.01-0.08,0.02-0.12c0.4-2.24-0.74-3.74-7.25-6.81c-7.86-3.65-12.94-6.68-11.92-14.8
					c0.01-0.04,0.01-0.08,0.01-0.11c0.91-7.4,7.87-11.39,16.72-9.67c6.29,1.22,11.31,4.28,14.94,8.59c-2.06,1.83-4.1,3.69-6.12,5.56
					c-3.23-3.32-6.67-5.59-10.24-6.28c-3.57-0.69-5.69,0.55-5.98,2.53c-0.01,0.04-0.01,0.08-0.02,0.11
					c-0.41,2.69,1.29,3.82,8.14,7.06c8.04,3.88,12.08,8.02,10.63,15c-0.01,0.04-0.02,0.08-0.02,0.12
					c-1.68,7.98-8.46,10.97-16.83,9.3C2436.75,2594.51,2431.11,2591.36,2426.86,2586.29z"/>
			</g>
			<g>
				<path class="st2" d="M2473.5,2560.18c3.13,0.84,6.25,1.72,9.36,2.64c-1.31,5.24-2.61,10.49-3.92,15.73
					c5.53,1.63,11.03,3.4,16.5,5.31c1.52-5.18,3.03-10.35,4.55-15.53c3.08,1.07,6.15,2.18,9.21,3.34
					c-4.12,12.98-8.24,25.95-12.36,38.93c-2.78-1.05-5.56-2.06-8.35-3.03c1.54-5.25,3.08-10.5,4.61-15.75
					c-5.36-1.87-10.76-3.6-16.18-5.2c-1.32,5.32-2.65,10.64-3.97,15.96c-2.82-0.83-5.65-1.63-8.48-2.39
					C2467.49,2586.84,2470.49,2573.51,2473.5,2560.18z"/>
			</g>
			<g>
				<path class="st2" d="M2510.78,2594.27c0.01-0.04,0.02-0.07,0.04-0.11c3.62-11,16.03-16.38,28.74-10.32
					c12.7,6.07,17.56,19.57,12.59,29.92c-0.02,0.04-0.03,0.07-0.05,0.11c-4.98,10.4-17.05,14.32-28.33,8.94
					C2512.48,2617.43,2507.14,2605.31,2510.78,2594.27z M2543.26,2609.25c0.02-0.03,0.03-0.07,0.05-0.1
					c2.82-6.34,0.19-14.29-6.94-17.7c-7.14-3.4-14.08-0.16-16.44,6.41c-0.01,0.04-0.03,0.07-0.04,0.11
					c-2.37,6.58,0.44,14.09,7.07,17.25C2533.59,2618.38,2540.43,2615.61,2543.26,2609.25z"/>
			</g>
			<g>
				<path class="st2" d="M2568.48,2599.98c5.39,3.16,10.72,6.45,16.01,9.89c9.3,6.07,11.8,14.96,7.53,21.95
					c-0.02,0.03-0.04,0.07-0.06,0.1c-4.85,7.93-13.71,7.44-21.81,2.2c-2.02-1.31-4.05-2.6-6.09-3.86
					c-1.87,3.58-3.74,7.16-5.61,10.74c-2.6-1.62-5.22-3.19-7.85-4.73C2556.56,2624.17,2562.52,2612.07,2568.48,2599.98z
					 M2574.19,2627.36c4.06,2.64,7.72,1.96,9.44-1.03c0.02-0.03,0.04-0.07,0.06-0.1c1.97-3.43,0.44-7.06-3.76-9.79
					c-2.16-1.4-4.33-2.77-6.5-4.13c-1.91,3.65-3.81,7.3-5.71,10.94C2569.88,2624.59,2572.04,2625.96,2574.19,2627.36z"/>
			</g>
		</g>
		<g>
			<path class="st2" d="M451.35,3282.7c64.53-9.32,129.06-11.56,193.58-12.7c64.53-1.29,129.05-0.61,193.58,0.1l96.79,0.56
				l96.79,0.04h193.58H2000h774.32h387.16l96.79-0.04l48.4-0.43l48.39-0.75c32.26-0.39,64.53,0.21,96.79,1.72
				c16.13,0.86,32.26,2.05,48.39,3.94c16.13,1.84,32.26,4.03,48.4,7.55c3.32,0.72,5.42,4,4.69,7.31c-0.53,2.42-2.42,4.19-4.69,4.69
				c-16.13,3.52-32.26,5.71-48.4,7.55c-16.13,1.89-32.26,3.08-48.39,3.94c-32.27,1.51-64.53,2.11-96.79,1.72l-48.39-0.75l-48.4-0.43
				l-96.79-0.04h-387.16H2000h-774.32h-193.58l-96.79,0.04l-96.79,0.56c-64.53,0.7-129.06,1.38-193.58,0.1
				c-64.53-1.15-129.06-3.38-193.58-12.7c-3.32-0.48-5.62-3.55-5.13-6.87C446.61,3285.11,448.76,3283.07,451.35,3282.7z"/>
		</g>
		<g>
			<g>
				<rect x="2983.39" y="2297.21" class="st34" width="188.58" height="538.29"/>
				<path class="st2" d="M3181.98,2845.49h-208.58v-558.29h208.58V2845.49z M2993.39,2825.49h168.58v-518.29h-168.58V2825.49z"/>
			</g>
			<g>
				<polygon class="st34" points="3159.23,2706.83 3021.93,2835.14 3171.98,2835.14 				"/>
				<path class="st2" d="M3183.02,2845.14h-186.44l170.61-159.42L3183.02,2845.14z M3047.28,2825.14h113.66l-9.66-97.19
					L3047.28,2825.14z"/>
			</g>
			<g>
				<polygon class="st32" points="3171.98,2330.58 3171.98,2460.91 2983.39,2628.47 2983.39,2498.14 				"/>
				<path class="st2" d="M2973.39,2650.73v-157.08l208.58-185.33v157.08L2973.39,2650.73z M2993.39,2502.63v103.57l168.58-149.79
					v-103.58L2993.39,2502.63z"/>
			</g>
			<g>
				<polygon class="st5" points="3171.98,2499.62 3171.98,2629.95 2983.39,2797.51 2983.39,2667.18 				"/>
				<path class="st2" d="M2973.39,2819.77v-157.08l208.58-185.33v157.08L2973.39,2819.77z M2993.39,2671.67v103.57l168.58-149.79
					v-103.58L2993.39,2671.67z"/>
			</g>
			<g>
				<polygon class="st5" points="3171.98,2297.21 3171.98,2346.28 2983.39,2513.84 2983.39,2420.74 3122.41,2297.21 				"/>
				<path class="st2" d="M2973.39,2536.1v-119.85l145.22-129.04h63.36v63.56L2973.39,2536.1z M2993.39,2425.23v66.35l168.58-149.79
					v-34.58h-35.77L2993.39,2425.23z"/>
			</g>
			<g>
				<polygon class="st32" points="3171.98,2624.63 3171.98,2717.77 3039.44,2835.5 2983.39,2835.5 2983.39,2792.19 				"/>
				<path class="st2" d="M3043.24,2845.49h-69.84v-57.8l208.58-185.33v119.89L3043.24,2845.49z M2993.39,2825.49h42.25
					l126.34-112.22v-66.39l-168.58,149.79V2825.49z"/>
			</g>
			<g>
				<polygon class="st34" points="3171.98,2436.04 3171.98,2529.14 2983.39,2696.7 2983.39,2603.6 				"/>
				<path class="st2" d="M2973.39,2718.96v-119.85l208.58-185.33v119.85L2973.39,2718.96z M2993.39,2608.1v66.35l168.58-149.79
					v-66.34L2993.39,2608.1z"/>
			</g>
		</g>
		<g class="st4">
			<rect x="3129.97" y="2297.19" class="st5" width="42.02" height="550.33"/>
		</g>
		<g>
			<path class="st2" d="M3171.99,2850.3H2983.4c-8.16,0-14.79-6.62-14.79-14.79v-538.33c0-8.16,6.62-14.79,14.79-14.79h188.59
				c8.16,0,14.79,6.62,14.79,14.79v538.33C3186.78,2843.68,3180.16,2850.3,3171.99,2850.3z M2998.19,2820.73h159.02v-508.75h-159.02
				V2820.73z"/>
		</g>
		<g>
			<g>
				<rect x="2899.2" y="2371.82" class="st36" width="84.19" height="54.02"/>
			</g>
			<g>
				<path class="st2" d="M2985.89,2428.34h-89.19v-59.02h89.19V2428.34z M2901.7,2423.34h79.19v-49.02h-79.19V2423.34z"/>
			</g>
		</g>
		<g>
			<g>
				<rect x="2899.2" y="2701.8" class="st36" width="84.19" height="54.02"/>
			</g>
			<g>
				<path class="st2" d="M2985.89,2758.33h-89.19v-59.02h89.19V2758.33z M2901.7,2753.33h79.19v-49.02h-79.19V2753.33z"/>
			</g>
		</g>
		<g>
			<path class="st2" d="M3198.5,2311.97h-241.6c-8.16,0-14.79-6.62-14.79-14.79v-57.43c0-8.16,6.62-14.79,14.79-14.79h241.6
				c8.16,0,14.79,6.62,14.79,14.79v57.43C3213.28,2305.35,3206.66,2311.97,3198.5,2311.97z M2971.68,2282.4h212.03v-27.86h-212.03
				V2282.4z"/>
		</g>
		<g>
			<path class="st2" d="M3171.99,2254.55H2983.4c-8.16,0-14.79-6.62-14.79-14.79v-38.51c0-60.15,48.93-109.08,109.08-109.08
				s109.08,48.93,109.08,109.08v38.51C3186.78,2247.92,3180.16,2254.55,3171.99,2254.55z M2998.19,2224.98h159.02v-23.73
				c0-43.84-35.67-79.51-79.51-79.51s-79.51,35.67-79.51,79.51V2224.98z"/>
		</g>
		<g>
			<path class="st2" d="M3198.5,2907.72h-241.6c-8.16,0-14.79-6.62-14.79-14.79v-57.42c0-8.16,6.62-14.79,14.79-14.79h241.6
				c8.16,0,14.79,6.62,14.79,14.79v57.42C3213.28,2901.1,3206.66,2907.72,3198.5,2907.72z M2971.68,2878.15h212.03v-27.85h-212.03
				V2878.15z"/>
		</g>
		<g>
			<path class="st2" d="M3077.7,3040.53c-60.15,0-109.08-48.93-109.08-109.08v-38.52c0-8.16,6.62-14.79,14.79-14.79h188.59
				c8.16,0,14.79,6.62,14.79,14.79v38.52C3186.78,2991.6,3137.84,3040.53,3077.7,3040.53z M2998.19,2907.72v23.73
				c0,43.84,35.66,79.51,79.51,79.51s79.51-35.67,79.51-79.51v-23.73H2998.19z"/>
		</g>
		<g class="st1">
			<rect x="2983.39" y="2297.19" class="st2" width="67.05" height="538.32"/>
		</g>
		<g class="st1">
			<path class="st2" d="M3072.5,2122.5c0,0-85,100,80,105l-9.38,12.26H2986.7l-3.31-28.13l9.11-44.13c0,0,25-45,30-45
				S3072.5,2122.5,3072.5,2122.5z"/>
		</g>
	</g>
</g>
</svg>
