<?xml version="1.0" encoding="utf-8"?>
<!-- Generator: Adobe Illustrator 24.3.0, SVG Export Plug-In . SVG Version: 6.00 Build 0)  -->
<svg version="1.1" id="Layer_1" xmlns="http://www.w3.org/2000/svg" xmlns:xlink="http://www.w3.org/1999/xlink" x="0px" y="0px"
	 viewBox="0 0 4000 4000" style="enable-background:new 0 0 4000 4000;" xml:space="preserve">
<style type="text/css">
	.st0{fill:#6CEFE6;}
	.st1{opacity:0.3;}
	.st2{fill:#102770;}
	.st3{fill:#418BF9;}
	.st4{opacity:0.55;}
	.st5{fill:#FFFFFF;}
	.st6{fill:#F43F08;}
	.st7{fill:#FAC100;}
	.st8{opacity:0.25;}
	.st9{fill:#3CCE54;}
	.st10{opacity:0.4;}
	.st11{fill:#00EDF9;}
	.st12{fill:#6C7A89;}
	.st13{fill:#B7BDCE;}
	.st14{fill:#263069;}
	.st15{fill:#959AAF;}
	.st16{fill:#27B5FC;}
	.st17{opacity:0.15;}
	.st18{fill:#FFD553;}
	.st19{fill:#FFB602;}
	.st20{opacity:0.6;}
	.st21{fill:#0BCBFF;}
	.st22{fill:url(#SVGID_1_);}
	.st23{fill:#F7710D;}
	.st24{fill:#01D3EC;}
	.st25{opacity:0.3;fill:#FFFFFF;}
	.st26{fill:#02DAFF;}
	.st27{fill:#FFD199;}
	.st28{fill:none;}
	.st29{fill:#4F4F70;}
	.st30{opacity:0.7;}
	.st31{fill:#000072;}
	.st32{fill:#5377FF;}
	.st33{fill:#7D8BB7;}
	.st34{fill:#F2355D;}
	.st35{fill:#9BAAE0;}
	.st36{fill:#262F6A;}
	.st37{fill:#FEB702;}
	.st38{opacity:0.65;}
	.st39{fill:#BFBFBF;}
	.st40{opacity:0.26;}
	.st41{opacity:0.75;}
	.st42{fill:#525F93;}
	.st43{opacity:0.2;}
	.st44{opacity:0.4;fill:url(#SVGID_2_);}
	.st45{opacity:0.4;fill:url(#SVGID_3_);}
	.st46{opacity:0.4;fill:url(#SVGID_4_);}
	.st47{opacity:0.4;fill:url(#SVGID_5_);}
	.st48{opacity:0.4;fill:url(#SVGID_6_);}
	.st49{opacity:0.4;fill:url(#SVGID_7_);}
	.st50{opacity:0.4;fill:url(#SVGID_8_);}
	.st51{opacity:0.3;fill:#102770;}
	.st52{fill:#1CDB7C;}
	.st53{opacity:0.55;fill:url(#SVGID_9_);}
	.st54{opacity:0.55;fill:url(#SVGID_10_);}
	.st55{opacity:0.55;fill:url(#SVGID_11_);}
	.st56{opacity:0.55;fill:url(#SVGID_12_);}
	.st57{fill:#DC9AFE;}
	.st58{opacity:0.4;fill:url(#SVGID_13_);}
	.st59{opacity:0.4;fill:url(#SVGID_14_);}
	.st60{opacity:0.55;fill:url(#SVGID_15_);}
	.st61{opacity:0.55;fill:url(#SVGID_16_);}
	.st62{opacity:0.55;fill:url(#SVGID_17_);}
	.st63{opacity:0.55;fill:url(#SVGID_18_);}
	.st64{opacity:0.55;fill:url(#SVGID_19_);}
	.st65{opacity:0.55;fill:url(#SVGID_20_);}
	.st66{fill:#FDD301;}
	.st67{fill:#FFCCBC;}
	.st68{fill:#C5CDE2;}
	.st69{opacity:0.4;fill:url(#SVGID_21_);}
	.st70{opacity:0.4;fill:url(#SVGID_22_);}
	.st71{opacity:0.55;fill:url(#SVGID_23_);}
	.st72{opacity:0.55;fill:url(#SVGID_24_);}
	.st73{opacity:0.55;fill:url(#SVGID_25_);}
	.st74{opacity:0.55;fill:url(#SVGID_26_);}
	.st75{opacity:0.55;fill:url(#SVGID_27_);}
	.st76{opacity:0.55;fill:url(#SVGID_28_);}
	.st77{fill:#66FEFF;}
</style>
<g>
	<g>
		<g>
			<rect class="st5" width="4000" height="4000"/>
		</g>
	</g>
	<g class="st1">
		<g>
			<ellipse class="st2" cx="2070" cy="3312.5" rx="788.64" ry="252.5"/>
		</g>
	</g>
	<g>
		<g>
			<circle class="st26" cx="2066.76" cy="1922.5" r="1177.5"/>
		</g>
	</g>
	<g>
		<g>
			<g>
				<g>
					<path class="st39" d="M1424.73,2391.44c-27.88-1.08-51.51-22.44-54.61-51.01c-3.41-31.42,19.29-59.65,50.71-63.06l359.86-34.49
						c9.13-0.99,16.81-7.64,19.11-16.53l123.16-477.4l-627.25-4.86c-0.59-0.01-1.18-0.02-1.76-0.04
						c-30.78-1.18-55.24-26.64-54.98-57.65c0.26-31.6,26.09-57.01,57.7-56.74l644.01,5c31.33,0.27,60.39,14.7,79.53,39.61
						c19.13,24.91,25.61,56.64,17.76,87.05l-127.35,493.63c-14.12,54.73-61.36,95.61-117.56,101.71l-359.86,34.49
						C1430.34,2391.45,1427.51,2391.55,1424.73,2391.44z"/>
				</g>
			</g>
			<g class="st4">
				<g>
					<path class="st5" d="M1296.66,1664.64l644.01,5c31.33,0.27,60.39,14.7,79.53,39.61c10.12,13.18,16.66,28.27,19.45,44.06
						c4.89-27.91-1.99-56.32-19.45-79.06c-19.13-24.9-48.19-39.34-79.53-39.61l-644.01-5c-31.6-0.26-57.43,25.14-57.7,56.74
						c-0.05,6.25,0.94,12.26,2.75,17.91C1249.18,1681.11,1271.02,1664.43,1296.66,1664.64z"/>
				</g>
			</g>
			<g class="st4">
				<g>
					<path class="st5" d="M1420.83,2312.37l359.86-34.49c9.13-1,16.81-7.64,19.11-16.54l123.16-477.4l-9.01-0.07l-114.15,442.47
						c-2.29,8.9-9.97,15.54-19.11,16.54l-359.86,34.49c-31.42,3.41-54.12,31.64-50.71,63.06c0.43,3.93,1.28,7.71,2.44,11.33
						C1379.27,2330.92,1397.66,2314.89,1420.83,2312.37z"/>
				</g>
			</g>
			<g>
				<g>
					<path class="st2" d="M1426.99,2406.42c-0.93,0-1.87-0.02-2.82-0.05c-35.42-1.37-65.04-29.01-68.91-64.3
						c-4.25-39.57,24.45-75.23,63.96-79.54l44.96-4.89c3.94-0.42,7.89,0.72,10.97,3.21c3.09,2.48,5.06,6.09,5.49,10.02
						c1.74,16.07,14.19,28.73,30.28,30.8c0.8,0.08,1.93,0.21,3.02,0.25c17.92,0.68,33.63-12.68,35.86-30.43l1.33-11.59
						c0.81-7.05,6.47-12.55,13.54-13.17l214.77-18.7c2.61-0.29,5.2-2.55,5.97-5.47l118.35-458.81l-279.58-1.98l-328.23-2.77
						c-0.87,0.01-1.74,0-2.6-0.03c-39.2-1.51-69.64-33.45-69.26-72.71c0.28-39.55,32.61-71.56,72.18-71.56c0.17,0,0.35,0,0.52,0
						l644.03,5.04c36.02,0.3,69.28,16.85,91.25,45.39c21.95,28.65,29.37,65.05,20.38,99.91l0,0l-127.35,493.63
						c-15.66,60.72-68.06,106.07-130.4,112.83l-360.06,34.48C1432.2,2406.27,1429.65,2406.42,1426.99,2406.42z M1454.27,2288.75
						l-31.82,3.46c-23.17,2.52-40,23.45-37.51,46.64c2.27,20.67,19.63,36.88,40.38,37.69c2.1,0.09,4.1,0.01,6.1-0.23l360.2-34.49
						c49.87-5.42,91.95-41.83,104.53-90.59l127.35-493.63c6.68-25.91,1.16-52.98-15.15-74.27c-16.32-21.2-41.04-33.5-67.81-33.72
						l-644.01-5.04c-23.38-0.27-42.45,18.66-42.62,41.96c-0.22,23.03,17.6,41.73,40.59,42.62l0.63,0.02
						c0.29-0.01,0.42-0.01,0.71-0.01l328.54,2.77l298.69,2.12c4.6,0.03,8.92,2.18,11.73,5.83c2.81,3.65,3.77,8.38,2.62,12.83
						l-123.14,477.4c-3.92,14.9-16.75,25.99-31.94,27.65l-202.96,17.67c-4.33,32.96-33.39,57.51-66.58,56.34
						c-1.77-0.07-3.62-0.25-5.4-0.44C1482.41,2328.11,1462.26,2311.39,1454.27,2288.75z M2037.96,1761.31h0.05H2037.96z"/>
				</g>
			</g>
			<g>
				<g>
					<path class="st39" d="M1624.25,1746.84l-58.31,514.76l-1.35,11.75c-3.24,25.77-25.72,44.47-51.22,43.49
						c-1.44-0.06-2.93-0.21-4.37-0.37c-23.34-2.99-40.79-21.59-43.22-43.99c-0.4-3.8-0.4-7.68,0.1-11.65l58.31-514.86
						L1624.25,1746.84z"/>
				</g>
			</g>
			<g class="st1">
				<g>
					<polygon class="st2" points="1630,1820 1515,1810 1515,1745 1630,1745 					"/>
				</g>
			</g>
			<g>
				<g>
					<path class="st2" d="M1515.26,2331.8c-0.82,0-1.64-0.02-2.46-0.05c-1.77-0.07-3.62-0.25-5.4-0.44
						c-30.13-3.86-53.22-27.38-56.45-57.23c-0.54-5.12-0.49-10.2,0.14-15.13l58.29-514.66c0.86-7.6,7.48-13.26,14.96-13.25
						l100.05,0.87c4.23,0.04,8.24,1.87,11.05,5.03c2.8,3.16,4.13,7.37,3.65,11.57l-59.66,526.53
						C1575.37,2307.38,1547.44,2331.8,1515.26,2331.8z M1537.52,1761.01l-56.8,501.5c-0.36,2.86-0.38,5.62-0.09,8.4
						c1.73,16.03,14.18,28.69,30.27,30.75c0.8,0.08,1.93,0.21,3.02,0.25c17.92,0.68,33.63-12.68,35.86-30.43l1.33-11.59
						l56.44-498.28L1537.52,1761.01z"/>
				</g>
			</g>
		</g>
		<g>
			<g>
				<ellipse class="st5" cx="2060.19" cy="2600.72" rx="245.24" ry="79.61"/>
			</g>
		</g>
		<g class="st1">
			<g>
				<path class="st2" d="M2155.34,2674.12c-29.26,4.03-61.4,6.22-95.14,6.22c-135.44,0-245.25-35.63-245.25-79.61
					s109.81-79.61,245.25-79.61c56.47,0,108.47,6.17,149.92,16.67c-88.12,12.04-149.97,40.35-149.97,73.34
					C2060.15,2636.75,2097.42,2659.54,2155.34,2674.12z"/>
			</g>
		</g>
		<g>
			<g>
				<path class="st2" d="M2060.2,2695.27c-79.15,0-152.4-11.88-200.95-32.59c-48.95-20.76-59.23-45.15-59.23-61.95
					c0-62.07,130.89-94.54,260.18-94.54c129.27,0,260.13,32.47,260.13,94.54c0,16.77-10.27,41.12-59.18,61.95
					C2212.6,2683.39,2139.35,2695.27,2060.2,2695.27z M2060.2,2536.04c-140.6,0-230.33,38.31-230.33,64.68
					c0,10.68,15.35,23.57,41.06,34.48c44.36,18.92,115.1,30.21,189.27,30.21c74.16,0,144.91-11.29,189.24-30.2
					c25.7-10.94,41.04-23.83,41.04-34.49C2290.48,2574.36,2200.77,2536.04,2060.2,2536.04z"/>
			</g>
		</g>
		<g>
			<g>
				<path class="st37" d="M2661.67,3209.43c0,50.2-45.1,96.54-121.12,133.64c-108.25,52.96-279.16,87.02-471.59,87.02
					c-192.32,0-363.35-34.07-471.59-87.02c-76.01-36.96-121.24-83.3-121.24-133.64c0-121.92,265.44-220.67,592.83-220.67
					C2396.34,2988.76,2661.67,3087.51,2661.67,3209.43z"/>
			</g>
		</g>
		<g class="st4">
			<g>
				<path class="st5" d="M1669.31,3343.06c101.4,49.66,257.94,82.65,435.47,86.63c-11.84,0.25-23.78,0.4-35.83,0.4
					c-192.31,0-363.33-34.03-471.6-87.03c-76.03-36.97-121.26-83.29-121.26-133.65c0-121.91,265.45-220.62,592.86-220.62
					c12.09,0,24.08,0.15,35.97,0.45c-310.63,6.87-556.88,102.75-556.88,220.18C1548.05,3259.76,1593.28,3306.09,1669.31,3343.06z"/>
			</g>
		</g>
		<g>
			<g>
				<path class="st2" d="M2068.95,3327.69c-159.35,0-306.45-23.76-403.56-65.2c-72.81-30.87-111.31-69.61-111.31-112.01
					c0-50.36,55.67-96.16,156.76-128.96c95.87-31.11,223.04-48.25,358.11-48.25c135.06,0,262.22,17.13,358.06,48.25
					c101.05,32.81,156.7,78.61,156.7,128.96c0,42.31-38.46,81.05-111.22,112.02C2375.4,3303.92,2228.3,3327.69,2068.95,3327.69z
					 M2068.95,3003.12c-285.83,0-485.01,77.66-485.01,147.36c0,29.05,33.08,59.07,93.14,84.54c93.58,39.93,236.4,62.82,391.87,62.82
					c155.48,0,298.3-22.89,391.85-62.81c60.02-25.54,93.07-55.57,93.07-84.55C2553.86,3080.78,2354.71,3003.12,2068.95,3003.12z"/>
			</g>
		</g>
		<g>
			<g>
				<path class="st2" d="M2068.96,3445.02c-188.86,0-363.14-32.28-478.15-88.54c-84.78-41.23-129.6-92.08-129.6-147.05
					c0-132.11,266.96-235.6,607.76-235.6c340.73,0,607.64,103.49,607.64,235.6c0,54.86-44.78,105.71-129.49,147.06
					C2432.09,3412.75,2257.81,3445.02,2068.96,3445.02z M2068.96,3003.69c-313.25,0-577.9,94.22-577.9,205.74
					c0,42.14,40.07,84.83,112.84,120.22c111.1,54.36,280.6,85.52,465.07,85.52s353.96-31.17,465.03-85.51
					c72.71-35.49,112.75-78.19,112.75-120.23C2646.74,3097.91,2382.15,3003.69,2068.96,3003.69z"/>
			</g>
		</g>
		<g>
			<g>
				<polygon class="st35" points="1823.66,2576.35 1673.54,3012.32 1619.16,3032.32 1583.58,3045.41 1448.84,2999.98 
					1170.5,2906.09 1274.04,2496.69 1294.64,2415.13 				"/>
			</g>
		</g>
		<g class="st4">
			<g>
				<path class="st5" d="M1585.47,3044.71l-1.89,0.7l-413.08-139.32l97.03-393.43h0c26.81,8.15,42.36,36.05,35.19,63.14
					l-90.77,342.93L1585.47,3044.71z"/>
			</g>
		</g>
		<g class="st4">
			<g>
				<polygon class="st5" points="1750.02,2553.91 1336.04,2427.77 1336.04,2427.72 				"/>
			</g>
			<g>
				<polygon class="st2" points="1749.29,2556.3 1333.54,2429.62 1333.54,2424.4 1336.77,2425.33 1750.75,2551.51 				"/>
			</g>
		</g>
		<g>
			<g>
				<polygon class="st33" points="1673.54,3012.32 1640.1,3125.02 1284.44,3247.27 1270.96,3251.9 928.53,3106.36 872.9,3082.73 
					872.9,2968.28 932.06,2971.52 1448.84,2999.98 1567.5,3042.5 				"/>
			</g>
		</g>
		<g>
			<g>
				<polygon class="st35" points="1579.75,3046.65 1283.4,3144.92 872.9,2968.28 1170.5,2906.09 				"/>
			</g>
			<g>
				<path class="st2" d="M1283.28,3147.59l-418.63-180.14l306.01-63.96l0.65,0.22l416.25,142.97L1283.28,3147.59z M881.15,2969.12
					l402.36,173.13l288.42-95.64l-401.59-137.93L881.15,2969.12z"/>
			</g>
		</g>
		<g class="st4">
			<g>
				<polygon class="st5" points="1579.75,3046.65 1565.52,3051.38 1217.42,2931.81 928.48,2992.22 872.9,2968.28 1170.5,2906.09 
									"/>
			</g>
		</g>
		<g>
			<g>
				<path class="st35" d="M1283.4,3144.92l-12.44,106.98L1283.4,3144.92z"/>
			</g>
			<g>
				
					<rect x="1223.33" y="3195.91" transform="matrix(0.1153 -0.9933 0.9933 0.1153 -2047.1205 4098.4453)" class="st2" width="107.7" height="5"/>
			</g>
		</g>
		<g class="st4">
			<g>
				<polygon class="st5" points="910.86,2984.62 912.08,2983.51 912.08,3097.65 872.9,3082.73 872.9,2968.28 				"/>
			</g>
		</g>
		<g>
			<g>
				<polygon class="st5" points="2538.52,1313.86 2587.03,1342.47 2546.4,1473.08 2491.25,1458.16 				"/>
			</g>
			<g>
				<polygon class="st2" points="2548.07,1476.12 2490.6,1460.57 2491.9,1455.74 2544.72,1470.04 2584.05,1343.62 2537.25,1316.02 
					2539.79,1311.71 2590.01,1341.32 				"/>
			</g>
		</g>
		<g class="st1">
			<g>
				<polygon class="st36" points="2538.52,1313.86 2587.03,1342.47 2546.4,1473.08 2491.25,1458.16 				"/>
			</g>
			<g>
				<polygon class="st2" points="2548.07,1476.12 2490.6,1460.57 2491.9,1455.74 2544.72,1470.04 2584.05,1343.62 2537.25,1316.02 
					2539.79,1311.71 2590.01,1341.32 				"/>
			</g>
		</g>
		<g>
			<g>
				<polygon class="st5" points="2391.74,1293.96 2350.69,1432.03 2491.25,1458.16 2538.52,1313.86 				"/>
			</g>
			<g>
				<path class="st2" d="M2492.94,1461.01l-145.45-27.03l42.45-142.79l151.88,20.6L2492.94,1461.01z M2353.87,1430.08l135.68,25.21
					l45.65-139.36l-141.68-19.22L2353.87,1430.08z"/>
			</g>
		</g>
		<g>
			<g>
				<path class="st2" d="M2491.26,1473.08c-0.9,0-1.82-0.08-2.74-0.25l-140.56-26.12c-4.16-0.78-7.8-3.28-10.01-6.89
					c-2.21-3.61-2.78-7.98-1.57-12.04l41.05-138.08c2.1-7.06,9.02-11.54,16.32-10.54l146.78,19.91c4.39,0.6,8.29,3.11,10.64,6.87
					c2.35,3.75,2.92,8.36,1.54,12.57l-47.27,144.29C2503.4,1469.02,2497.6,1473.08,2491.26,1473.08z M2369.72,1420.39l111.41,20.7
					l37.62-114.84l-116.35-15.78L2369.72,1420.39z"/>
			</g>
		</g>
		<g>
			<g>
				<path class="st2" d="M2546.4,1488.01c-1.29,0-2.6-0.17-3.91-0.52l-55.15-14.93c-7.96-2.15-12.66-10.35-10.51-18.31
					c2.16-7.95,10.37-12.64,18.31-10.51l41.27,11.17l32.85-105.59l-38.33-22.61c-7.1-4.18-9.46-13.34-5.28-20.44
					c4.19-7.1,13.34-9.47,20.44-5.27l48.51,28.61c5.97,3.52,8.73,10.68,6.67,17.29l-40.63,130.61
					C2558.67,1483.89,2552.79,1488.01,2546.4,1488.01z"/>
			</g>
		</g>
		<g>
			<g>
				<path class="st34" d="M2780.19,1261.67c-15.43,68.37-58.66,116.88-96.68,108.32c-37.96-8.56-56.28-70.95-40.85-139.27
					c14.33-63.59,52.74-109.96,88.62-109.32c2.69,0.05,5.37,0.4,8.06,1C2777.3,1130.96,2795.61,1193.36,2780.19,1261.67z"/>
			</g>
		</g>
		<g class="st1">
			<g>
				<path class="st2" d="M2780.19,1261.67c-15.43,68.37-58.66,116.88-96.68,108.32c-0.9-0.2-1.79-0.45-2.69-0.7
					c-17.66-25.53-23.49-70.61-12.69-118.67c14.33-63.59,52.79-109.96,88.62-109.32c2.74,0.05,5.42,0.4,8.06,0.99
					c0.9,0.2,1.84,0.45,2.74,0.7C2785.21,1168.47,2791.04,1213.6,2780.19,1261.67z"/>
			</g>
		</g>
		<g>
			<g>
				<path class="st34" d="M2642.66,1230.72c-15.42,68.32,2.89,130.71,40.85,139.27l-375.42-45.48l-8.06-0.99
					c-38.01-8.56-56.28-70.9-40.9-139.27c15.42-68.37,58.66-116.83,96.68-108.27l375.47,45.43
					C2695.4,1120.76,2656.99,1167.13,2642.66,1230.72z"/>
			</g>
		</g>
		<g class="st1">
			<g>
				<path class="st2" d="M2683.51,1369.99l-375.42-45.48l-8.06-1c-34.73-7.81-52.99-60.55-44.08-121.81
					c7.41,10.85,17.02,18.16,28.31,20.7l8.06,1l345.31,41.85C2634.15,1318.94,2652.11,1362.92,2683.51,1369.99z"/>
			</g>
		</g>
		<g class="st4">
			<g>
				<path class="st5" d="M2731.28,1124.72c-17.02-0.3-34.63,10-50.01,27.71l-326.71-39.51c-38.01-8.56-81.25,39.91-96.68,108.27
					c-1.74,7.86-3.08,15.67-3.98,23.34c-0.9-17.71,0.75-37.07,5.22-56.97c15.42-68.37,58.66-116.83,96.68-108.27L2731.28,1124.72z"
					/>
			</g>
		</g>
		<g>
			<g>
				<path class="st2" d="M2692.28,1385.9c-4.03,0-8.05-0.44-12.05-1.34c-23.89-5.39-42.18-25.83-51.49-57.58
					c-8.42-28.71-8.65-64.06-0.64-99.54c15.85-70.33,58.81-120.96,102.44-120.96c0.34,0,0.67,0,1.01,0
					c3.62,0.07,7.32,0.53,11.02,1.35c23.94,5.4,42.22,25.85,51.54,57.6c8.42,28.71,8.65,64.06,0.64,99.54
					C2778.74,1335.9,2735.32,1385.9,2692.28,1385.9z M2730.54,1136.33c-24.75,0-59.67,37.13-73.32,97.68
					c-6.91,30.61-6.85,60.64,0.16,84.57c6.04,20.58,16.76,34.01,29.41,36.87c25.62,5.77,64.31-32.68,78.84-97.05l0,0
					c6.91-30.61,6.85-60.63-0.17-84.56c-6.04-20.58-16.76-34.01-29.41-36.87c-1.73-0.38-3.46-0.6-5.07-0.63
					C2730.83,1136.33,2730.69,1136.33,2730.54,1136.33z"/>
			</g>
		</g>
		<g>
			<g>
				<path class="st2" d="M2683.53,1384.92c-0.6,0-1.2-0.03-1.81-0.11l-383.51-46.48c-0.49-0.06-0.97-0.14-1.45-0.25
					c-46.71-10.51-69.64-79.52-52.19-157.1c17.4-77.12,67.23-129.51,113.72-119.73l374.78,45.34c7.89,0.96,13.65,7.92,13.1,15.85
					c-0.54,7.84-7.06,13.9-14.89,13.9c-0.23,0-0.47,0-0.72,0c-24.78,0-59.7,37.13-73.34,97.68c0,0,0,0,0,0
					c-6.91,30.61-6.85,60.63,0.17,84.56c6.04,20.58,16.76,34.01,29.41,36.87c7.76,1.75,12.78,9.27,11.43,17.1
					C2696.97,1379.77,2690.69,1384.92,2683.53,1384.92z M2302.69,1308.81l7.24,0.89l327.86,39.72c-3.58-6.67-6.62-14.17-9.05-22.45
					c-8.42-28.71-8.65-64.06-0.64-99.53l0,0c9.32-41.36,28.02-75.9,50.71-97.35l-324.79-39.29c-0.5-0.06-1-0.15-1.49-0.26
					c-25.67-5.79-64.32,32.64-78.84,97C2259.34,1251.38,2277.38,1302.36,2302.69,1308.81z M2642.66,1230.72h0.05H2642.66z"/>
			</g>
		</g>
		<g>
			<g>
				<path class="st32" d="M2863.18,1670.39l-147.63,563.1l-3.38,12.94h-0.05l-13.14,50.21l-31.7,121.51
					c-17.07,65.33-70.85,114.59-137.48,125.84l-450.6,75.93c-13.88,2.34-27.86,4.03-41.9,5.03h-0.1
					c-54.98,4.03-110.36-2.14-163.3-18.26l-609.77-185.84c-44.03-13.43-75.73-52.1-80.21-97.97l-12.69-130.31
					c-6.47-66.43,30.75-129.72,92.3-155.59c108.42-45.58,295.51-42.89,592.06-4.88c39.86-220.67,88.72-498.02,170.72-599.67
					c24.93-30.85,64.44-46.12,103.79-41.05l457.82,59.11c52.64,6.82,103.59,22.54,150.76,46.47h0.05
					c11.1,5.62,21.94,11.69,32.59,18.21l39.06,23.88C2855.02,1566.4,2876.47,1619.74,2863.18,1670.39z"/>
			</g>
		</g>
		<g class="st4">
			<g>
				<path class="st5" d="M2810.39,1524.03l-39.06-23.88c-55.88-34.23-118.37-56.28-183.4-64.69l-457.81-59.11
					c-39.36-5.08-78.86,10.2-103.79,41.05c-82,101.65-130.86,379-170.72,599.67c-297.65-38.16-484.98-40.7-593.25,5.37
					c-24.28,10.35-44.68,26.57-60.06,46.57c0.1-0.05,0.15-0.05,0.15-0.05c-5.97,24.48,13.53,29.4,80.51-2.19
					c4.43-2.44,9.06-4.68,13.78-6.67c85.6-35.99,220.33-41.88,419.26-24.04c71.67,6.43,142.87,17.09,213.35,31.58
					c141.53,29.09,390.97,86.53,515.66,152.34v-14.67c0,0-297.66-130.39-560.39-178.67c7.42-8.43,12.74-18.88,14.88-30.68
					c37.96-208.78,85.23-447.71,160.02-540.41c24.93-30.9,64.44-46.13,103.79-41.05l457.81,59.11
					c64.98,8.36,127.48,30.4,183.4,64.63l39.06,23.93c3.08,1.89,6.02,3.88,8.86,5.97
					C2842.78,1550.46,2828.5,1535.13,2810.39,1524.03z"/>
			</g>
		</g>
		<g>
			<g>
				<path class="st2" d="M2004.98,2626.02c-45.8,0-91.63-6.73-135.4-20.07l-609.77-185.83c-50.03-15.24-85.64-58.73-90.72-110.78
					l-12.71-130.32c-7.19-73.67,33.55-142.31,101.37-170.82c104.22-43.8,279.8-46.17,585.68-7.69
					c39.47-218.62,88.6-489.99,171.29-592.47c27.78-34.42,72.72-52.24,117.31-46.46l457.81,59.1
					c67.53,8.72,131.22,31.17,189.28,66.74l39.05,23.92c50.63,31.01,74.52,90.43,59.46,147.86l-164.22,626.23l-31.69,121.47
					c-18.5,70.92-77.16,124.61-149.43,136.8l-450.6,75.94C2056.39,2623.9,2030.69,2626.02,2004.98,2626.02z M1492.05,2003.07
					c-99.4,0-170.9,10.86-222.73,32.65c-55.69,23.4-89.14,79.82-83.23,140.4l12.71,130.32c3.9,40,31.26,73.41,69.7,85.13
					l609.77,185.83c63.94,19.48,132.57,23.91,198.47,12.8l450.6-75.94c60.7-10.23,109.96-55.33,125.5-114.89l31.69-121.48
					l164.23-626.25c11.7-44.6-6.86-90.75-46.18-114.83l-39.05-23.92c-54.45-33.35-114.18-54.41-177.51-62.59l-457.81-59.1l0,0
					c-34.39-4.45-68.96,9.2-90.26,35.61c-78.09,96.78-126.51,365.02-165.42,580.56l-2.24,12.4c-1.41,7.82-8.69,13.17-16.59,12.15
					C1703.88,2012.69,1585.61,2003.07,1492.05,2003.07z"/>
			</g>
		</g>
		<g>
			<g>
				<path class="st2" d="M2603.52,2299.65c-9,0-18.06-0.97-27.09-2.94c-58.53-12.76-104.49-65.4-117.09-134.1
					c-5.98-32.6-3.7-67.99,6.61-102.33l160.8-535.64c7.12-23.72,24-43.47,46.31-54.2c22.31-10.73,48.29-11.59,71.25-2.34
					c7.65,3.08,11.35,11.77,8.28,19.42c-3.08,7.65-11.77,11.37-19.42,8.28c-15.42-6.21-32.18-5.65-47.17,1.55
					c-14.99,7.21-25.88,19.96-30.66,35.88l-160.8,535.64c-8.96,29.83-10.98,60.39-5.84,88.36c10.42,56.83,47.36,100.13,94.09,110.32
					c44.24,9.62,88.15-11.34,120.51-57.55c4.73-6.75,14.05-8.39,20.79-3.66c6.75,4.73,8.39,14.04,3.66,20.79
					C2695.06,2273.81,2650.04,2299.64,2603.52,2299.65z"/>
			</g>
		</g>
		<g class="st1">
			<g>
				<path class="st36" d="M2863.18,1655.39l-147.63,563.1c-0.05,0.05-0.05,0.05-0.05,0.05c-46.03,65.78-109.86,79.01-160.86,55.08
					c-22.74-21.54-39.86-52.44-46.82-90.46c-5.82-31.75-3.08-64.48,6.22-95.38l160.77-535.64c12.44-41.35,57.62-63.09,97.67-46.97
					h0.05c11.1,5.62,21.94,11.69,32.59,18.21l23.34,14.28C2860.55,1566.92,2874.53,1612.15,2863.18,1655.39z"/>
			</g>
			<g>
				<path class="st2" d="M2604.32,2287.27c-18.37,0-35.73-4.34-50.74-11.39l-0.66-0.44c-24.33-23.05-40.78-54.8-47.56-91.82
					c-5.64-30.77-3.47-64.16,6.28-96.56l160.77-535.63c6.14-20.4,20.65-37.37,39.82-46.59c19-9.14,41.11-9.92,60.73-2.17h0.12
					l0.58,0.27c11.03,5.59,22.05,11.75,32.77,18.31l23.33,14.28c33.73,30.69,47.32,76.75,35.84,120.5l-147.8,563.75l-0.48,0.48
					C2682.92,2269.45,2641.55,2287.27,2604.32,2287.27z M2556.07,2271.53c43.54,20.24,107.54,16.59,157.19-54.13l147.51-562.64
					c11-41.94-2.02-86.1-34-115.25l-22.96-13.99c-10.52-6.45-21.35-12.5-32.17-17.99l-0.1-0.03c-18.43-7.43-39.27-6.74-57.15,1.86
					c-17.91,8.6-31.47,24.47-37.2,43.52l-160.77,535.63c-9.53,31.64-11.66,64.22-6.15,94.22
					C2516.84,2218.54,2532.67,2249.23,2556.07,2271.53z"/>
			</g>
		</g>
		<g>
			<g>
				<path class="st2" d="M2037.22,2624.87c-0.13,0-0.25,0-0.38,0l-15.06-0.38c-52.03-1.29-96.54-37.88-108.22-88.96
					c-24.48-107.04-13.66-185.5,33.06-239.84c89.96-104.63,288.55-98.44,559.27-78.29c8.22,0.62,14.39,7.77,13.78,16
					c-0.61,8.22-7.75,14.34-15.99,13.78c-209.67-15.62-447.32-33.31-534.41,67.98c-40.11,46.66-48.81,116.56-26.6,213.73
					c8.64,37.77,41.48,64.81,79.86,65.77l15.06,0.38c8.24,0.21,14.76,7.05,14.55,15.29
					C2051.93,2618.43,2045.29,2624.87,2037.22,2624.87z"/>
			</g>
		</g>
		<g class="st1">
			<g>
				<path class="st36" d="M2706.45,2245.56l-12.24,54.33l-26.92,103.25c-17.07,65.33-70.85,114.59-137.48,125.84l-450.6,75.93
					c-13.88,2.34-27.86,4.03-41.9,5.03h-0.1l-15.08-0.35c-18.61-0.45-36.07-6.12-50.9-15.72c-3.58-7.07-6.32-14.68-8.16-22.64
					c-77.87-340.59,227.59-325.91,576.49-299.94c1.64-2.89,2.69-4.58,2.69-4.58l109.47,18.01L2706.45,2245.56z"/>
			</g>
			<g>
				<path class="st2" d="M2037.49,2612.43l-15.41-0.34c-18.56-0.45-36.61-6.03-52.2-16.12l-0.56-0.37l-0.31-0.61
					c-3.66-7.22-6.47-15.02-8.37-23.21c-23.54-102.93-13.6-177.83,30.38-228.97c86-100.02,281.01-93.91,547.16-74.14
					c1.21-2.09,1.95-3.28,1.95-3.28l0.88-1.43l110.1,18.12l59.23-42.37l-13.68,60.74l-26.94,103.33
					c-17.29,66.17-72.03,116.28-139.48,127.67l-450.6,75.93C2065.54,2609.75,2051.37,2611.45,2037.49,2612.43z M1973.16,2592.13
					c14.69,9.37,31.63,14.54,49.04,14.96l15.08,0.35c13.58-0.96,27.6-2.64,41.52-4.99l450.6-75.93
					c65.51-11.05,118.69-59.73,135.47-124l26.92-103.25l10.78-47.86l-50.24,35.95l-1.02-0.17l-107.79-17.73
					c-0.45,0.75-1.06,1.79-1.78,3.07l-0.78,1.38l-1.58-0.12c-212.52-15.82-453.39-33.75-544.57,72.29
					c-42.86,49.86-52.45,123.32-29.29,224.59C1967.26,2578.22,1969.83,2585.44,1973.16,2592.13z"/>
			</g>
		</g>
		<g>
			<g>
				<path class="st2" d="M2493.39,2246.38c-2.52,0-5.07-0.64-7.41-1.98c-182.65-104.68-446.78-178.47-633.07-212.62
					c-8.11-1.48-13.48-9.27-11.99-17.37c1.49-8.11,9.26-13.47,17.38-11.99c188.71,34.59,456.61,109.53,642.53,216.08
					c7.15,4.1,9.63,13.22,5.53,20.37C2503.59,2243.68,2498.56,2246.38,2493.39,2246.38z"/>
			</g>
		</g>
		<g>
			<g>
				<g>
					<path class="st39" d="M2728.54,1837.11c-0.35,2.34-0.8,4.73-1.29,7.12l-81.65,376.06l-26.52,122.1
						c-8.61,39.51-34.38,72.55-68.81,91.25c-13.73,7.41-28.86,12.59-44.78,14.93l-315.86,46.67c-2.84,0.45-5.67,0.65-8.46,0.65
						c-27.91,0-52.34-20.45-56.52-48.86c-4.63-31.25,16.97-60.36,48.21-64.98l315.91-46.67c9.11-1.34,16.52-8.31,18.46-17.27
						l18.81-86.68l85.83-395.12l-584.6,17.66c-0.6,0.05-1.19,0.05-1.74,0.05c-30.8,0-56.23-24.48-57.17-55.48
						c-0.95-31.59,23.88-58.02,55.48-58.96l601.31-18.16c31.35-0.95,60.95,12.34,81,36.47
						C2724.71,1780.18,2732.67,1808.69,2728.54,1837.11z"/>
				</g>
			</g>
			<g class="st4">
				<g>
					<path class="st5" d="M2728.54,1837.11c-3.58-14.83-10.55-28.86-20.65-41.05c-20.1-24.13-49.71-37.47-81-36.52l-601.36,18.21
						c-25.18,0.75-46.08,17.66-53.04,40.5c-2.44-6.12-3.93-12.74-4.13-19.7c-0.95-31.59,23.88-58.02,55.48-58.96l601.31-18.16
						c31.35-0.95,60.95,12.34,81,36.47C2724.71,1780.18,2732.67,1808.69,2728.54,1837.11z"/>
				</g>
			</g>
			<g>
				<g>
					<path class="st2" d="M2181.18,2510.82c-35.44,0-66.11-26.48-71.34-61.59c-5.77-39.38,21.53-76.13,60.84-81.94l44.73-6.62
						c3.92-0.58,7.91,0.42,11.08,2.78c3.18,2.36,5.29,5.89,5.87,9.81c2.35,15.99,15.28,28.16,31.44,29.6
						c0.83,0.06,1.96,0.14,3.05,0.14c17.88,0,33.09-13.96,34.64-31.79l0.88-11.63c0.53-6.96,5.8-12.62,12.71-13.64l171.51-25.33
						c2.92-0.43,5.42-2.79,6.07-5.74l100.57-463.06l-565.21,17.08c-0.84,0.05-1.69,0.06-2.54,0.06c-39.26,0-70.91-30.74-72.04-69.98
						c-1.25-39.71,30.1-73.06,69.88-74.32l601.38-18.16c36.1-0.94,69.87,14.17,92.93,41.84c23.03,27.79,31.85,63.88,24.21,99.05l0,0
						l-108.22,498.17c-13.31,61.29-63.92,108.62-125.95,117.78l-315.91,46.67C2188.36,2510.55,2184.86,2510.82,2181.18,2510.82z
						 M2206.72,2392.12l-31.67,4.69c-23.06,3.41-39.06,24.97-35.68,48.05c3.06,20.57,21.04,36.1,41.8,36.1c2.11,0,4.1-0.15,6.1-0.46
						l316.04-46.69c49.81-7.35,90.45-45.37,101.14-94.58l108.22-498.17c5.68-26.15-0.88-52.98-18-73.63
						c-17.12-20.55-42.31-31.91-69.06-31.07l-601.36,18.16c-23.31,0.73-41.69,20.28-40.96,43.57c0.67,23.02,19.2,41.02,42.2,41.02
						l0.66,0c0.25-0.02,0.43-0.03,0.68-0.04l584.6-17.67c4.69-0.09,8.99,1.85,11.93,5.38c2.94,3.53,4.08,8.22,3.11,12.71
						l-104.64,481.8c-3.34,15.05-15.74,26.62-30.86,28.86l-159.72,23.58c-2.93,33.24-31.19,59.13-64.38,59.13
						c-1.79,0-3.65-0.11-5.43-0.24C2236.35,2430.38,2215.58,2414.44,2206.72,2392.12z M2727.27,1844.22h0.05H2727.27z"/>
				</g>
			</g>
			<g>
				<g>
					<path class="st39" d="M2355.68,1844.07l-38.41,516.63l-0.9,11.79c-2.24,25.87-23.98,45.43-49.51,45.43
						c-1.44,0-2.94-0.1-4.38-0.2c-23.44-2.09-41.6-20-44.88-42.29c-0.55-3.78-0.7-7.66-0.35-11.64l38.41-516.73L2355.68,1844.07z"/>
				</g>
			</g>
			<g>
				<g>
					<path class="st2" d="M2266.86,2432.85c-1.79,0-3.65-0.11-5.43-0.24c-30.23-2.69-54.22-25.3-58.59-55.01
						c-0.73-5.08-0.88-10.15-0.45-15.12l38.4-516.53c0.57-7.62,6.8-13.58,14.44-13.81l100.01-2.98c4.29-0.16,8.31,1.55,11.23,4.6
						c2.92,3.06,4.41,7.21,4.1,11.43l-39.31,528.44C2328.38,2406.9,2300.1,2432.85,2266.86,2432.85z M2269.56,1861.58l-37.41,503.32
						c-0.25,2.87-0.17,5.63,0.23,8.39c2.35,15.95,15.28,28.12,31.44,29.57c0.83,0.06,1.96,0.14,3.05,0.14
						c17.88,0,33.09-13.96,34.64-31.79l0.88-11.63l37.19-500.08L2269.56,1861.58z"/>
				</g>
			</g>
			<g class="st1">
				<g>
					<path class="st2" d="M2728.54,1837.11c-0.35,2.34-0.8,4.73-1.29,7.12l-81.65,376.06l-26.52,122.1
						c-5.42,24.88-17.61,47.17-34.53,64.93c-1.24,1.34-2.59,2.69-3.98,3.98c-1.29,1.29-2.64,2.54-3.98,3.73
						c-0.05,0.05-0.1,0.1-0.15,0.15c-1.29,1.14-2.59,2.29-3.93,3.38c-2.99,2.49-6.07,4.83-9.25,7.02c-1.24,0.9-2.49,1.74-3.78,2.54
						c-0.45,0.35-0.9,0.6-1.34,0.85c-1.19,0.8-2.34,1.49-3.58,2.24c-0.6,0.35-1.19,0.7-1.84,1.04c-0.8,0.5-1.64,0.95-2.49,1.34
						c-13.73,7.51-28.81,12.64-44.73,14.98l-315.86,46.67c-2.84,0.45-5.67,0.65-8.46,0.65c-27.91,0-52.34-20.45-56.52-48.86
						c-4.63-31.25,16.97-60.36,48.21-64.98l40.55-5.97c-1.04-1.59-2.04-3.18-3.08-4.88l20.1-125.64
						c31.99,54.58,63.99,52.2,95.93-7.11l-4.13,121.56l166.54-24.63c5.47-0.8,10.3-3.63,13.73-7.71c8.01,0.47,17.37,1.93,26.9,5.41
						c18.25,6.66,38.14-5.27,40.15-24.59c0.05-0.47,0.07-0.72,0.07-0.72l83.07-367.47c7.65-33.84,28.57-62.65,56.95-82.6
						C2722.94,1848.33,2728.54,1837.11,2728.54,1837.11z"/>
				</g>
			</g>
			<g class="st1">
				<g>
					<path class="st36" d="M2550.21,2433.59c0.85-0.4,1.69-0.85,2.49-1.34c-0.8,0.5-1.59,0.95-2.44,1.39
						C2550.26,2433.64,2550.26,2433.59,2550.21,2433.59z"/>
				</g>
				<g>
					<path class="st2" d="M2547.76,2437.78v-1.68h-8.78l10.18-4.77c0.75-0.35,1.51-0.75,2.22-1.2l0.6,0.96h0.74l0.02,1.22l1.29,2.06
						c-0.85,0.53-1.7,1.01-2.6,1.48L2547.76,2437.78z"/>
				</g>
			</g>
			<g class="st1">
				<g>
					<polygon class="st2" points="2355,1925 2240,1915 2240,1850 2355,1850 					"/>
				</g>
			</g>
		</g>
		<g>
			<g>
				<path class="st2" d="M1583.6,3060.33c-1.61,0-3.22-0.26-4.77-0.78l-413.09-139.32c-7.39-2.49-11.61-10.25-9.7-17.8
					l124.11-490.98c2.02-8,10.15-12.82,18.13-10.82c7.99,2.02,12.83,10.14,10.82,18.13l-120.72,477.59l395.01,133.22l78.37-28.82
					l147.81-429.27c2.68-7.8,11.17-11.93,18.97-9.26c7.79,2.69,11.94,11.18,9.25,18.97l-150.11,435.97
					c-1.46,4.24-4.75,7.6-8.96,9.15l-89.96,33.09C1587.09,3060.02,1585.34,3060.33,1583.6,3060.33z"/>
			</g>
		</g>
		<g>
			<g>
				<path class="st2" d="M1283.4,3159.85c-2.01,0-4.02-0.41-5.9-1.22L867,2982c-5.98-2.57-9.6-8.73-8.95-15.21
					c0.65-6.47,5.43-11.79,11.8-13.12l297.61-62.2c8.07-1.68,15.98,3.49,17.67,11.56c1.69,8.07-3.49,15.98-11.56,17.66
					l-251.39,52.54l361.91,155.73l287.46-95.3l147.75-489.1c2.39-7.89,10.72-12.38,18.61-9.97c7.89,2.38,12.36,10.71,9.97,18.6
					l-149.99,496.51c-1.4,4.65-4.98,8.33-9.59,9.85l-300.2,99.52C1286.56,3159.59,1284.98,3159.85,1283.4,3159.85z"/>
			</g>
		</g>
		<g>
			<g>
				<path class="st2" d="M1270.96,3266.83c-1.99,0-3.98-0.4-5.84-1.19l-398.06-169.17c-5.51-2.34-9.09-7.75-9.09-13.74v-114.44
					c0-8.24,6.68-14.93,14.93-14.93s14.93,6.68,14.93,14.93v104.57l383.7,163.07l356.46-122.52l31.26-105.33
					c2.34-7.9,10.64-12.4,18.56-10.06c7.9,2.35,12.41,10.65,10.06,18.56l-33.45,112.7c-1.37,4.62-4.9,8.3-9.46,9.87l-369.15,126.88
					C1274.23,3266.56,1272.59,3266.83,1270.96,3266.83z"/>
			</g>
		</g>
		<g>
			<g>
				<path class="st2" d="M1270.98,3266.83c-0.58,0-1.16-0.03-1.74-0.1c-8.19-0.95-14.06-8.36-13.1-16.55l12.44-106.98
					c0.95-8.19,8.37-14.05,16.55-13.11c8.19,0.95,14.06,8.36,13.1,16.55l-12.44,106.98
					C1284.9,3261.23,1278.45,3266.83,1270.98,3266.83z"/>
			</g>
		</g>
		<g>
			<g>
				<path class="st35" d="M2255.3,2648.94l-44.98,440.35c0,36.22-67.22,65.58-150.12,65.58c-28.31,0-54.78-3.43-77.37-9.35
					c-0.55-0.15-1.05-0.3-1.54-0.45c-42.79-11.54-71.25-32.19-71.25-55.78l-43.69-427.96l-1.24-12.39
					c23.83,10.15,54.98,18.41,90.86,23.88c31.65,4.83,66.97,7.51,104.24,7.51C2139.81,2680.34,2210.52,2668.05,2255.3,2648.94z"/>
			</g>
		</g>
		<g class="st40">
			<g>
				<polygon class="st5" points="1992.52,2680.76 1992.51,3150.47 2049.49,3154.87 2084.32,2678.35 				"/>
			</g>
		</g>
		<g class="st1">
			<g>
				<path class="st2" d="M2255.3,2648.94l-44.98,440.35c0,36.22-67.22,65.58-150.12,65.58c-11.64,0-22.99-0.6-33.83-1.69
					c66.57-6.67,116.23-32.74,116.23-63.89l42.94-420.1C2212.61,2663.97,2236.29,2657.05,2255.3,2648.94z"/>
			</g>
		</g>
		<g class="st4">
			<g>
				<path class="st5" d="M1981.29,3145.07c-42.79-11.54-71.25-32.19-71.25-55.78l-43.69-427.96c16.52,4.58,34.88,8.46,54.68,11.49
					l26.42,428.61C1946.81,3117.51,1959.59,3132.88,1981.29,3145.07z"/>
			</g>
		</g>
		<g class="st1">
			<g>
				<path class="st36" d="M2005.62,2678.35c-8.66-0.65-17.17-1.39-25.48-2.34l-0.75-7.16
					C1987.36,2672.23,1996.12,2675.41,2005.62,2678.35z"/>
			</g>
			<g>
				<path class="st2" d="M2027.54,2682.5l-22.11-1.66c-9.92-0.75-18.05-1.49-25.57-2.35l-1.99-0.23l-1.39-13.38l3.9,1.66
					c7.94,3.37,16.68,6.54,25.98,9.41L2027.54,2682.5z M1982.42,2673.75c1.07,0.12,2.17,0.23,3.27,0.35
					c-1.14-0.44-2.26-0.88-3.37-1.33L1982.42,2673.75z"/>
			</g>
		</g>
		<g>
			<g>
				<path class="st2" d="M2060.2,3169.8c-93.55,0-164.23-34.19-165.09-79.67l-44.86-439.67c-0.53-5.25,1.75-10.4,6-13.54
					c4.25-3.13,9.84-3.78,14.71-1.71c44.33,18.91,115.08,30.2,189.24,30.2c74.16,0,144.91-11.29,189.24-30.2
					c4.86-2.07,10.45-1.42,14.71,1.71c4.26,3.13,6.54,8.28,6,13.54l-44.91,439.66C2224.38,3135.61,2153.72,3169.8,2060.2,3169.8z
					 M1882.39,2671.29l42.5,416.49c0.05,0.5,0.08,1.01,0.08,1.51c0,21.15,51.45,50.65,135.24,50.65
					c83.76,0,135.19-29.5,135.19-50.65c0-0.51,0.02-1.01,0.08-1.52l42.54-416.48c-47.25,15.36-110.39,23.98-177.81,23.98
					C1992.78,2695.27,1929.64,2686.65,1882.39,2671.29z"/>
			</g>
		</g>
		<g>
			<g>
				<path class="st2" d="M2431.54,2785.5c-15.28,0-28.15,10.21-32.22,24.17l-214.68,24.22l0.53-6.24c0.28-3.26-2.48-5.96-5.73-5.62
					l-14.55,1.52c-2.5,0.26-4.46,2.27-4.65,4.77l-5.33,67.98c-0.25,3.25,2.51,5.94,5.75,5.59l14.11-1.53
					c2.48-0.27,4.42-2.25,4.63-4.74l1.24-14.64l222.95-43.26c6.02,9.02,16.29,14.96,27.94,14.96c18.55,0,33.59-15.04,33.59-33.59
					C2465.13,2800.53,2450.09,2785.5,2431.54,2785.5z"/>
			</g>
		</g>
		<g class="st1">
			<g>
				<path class="st2" d="M2022.15,2609.57c-96.15,12.93-130.06-161.25-90.49-261.55l-678.12-185.81
					c-17.28-4.68-34.44,7.85-35.25,25.73l6.03,142.68c-1.69,37.26,22.18,70.9,57.91,81.6l644.2,192.02L2022.15,2609.57z"/>
			</g>
		</g>
		<g class="st1">
			<g>
				<path class="st2" d="M1823.66,2576.35l-150.12,435.97l-33.44,112.7l-355.66,122.25c-0.7-1.84-1.04-2.84-1.04-2.84l28.21-72.15
					l257.48-88.97c23.76-8.21,42.3-27.09,50.07-51l0,0l7.36-22.59l107.08-329.39l-30.25-31.4l-426.17-136.29l-3.13-15.97l20.6-81.55
					L1823.66,2576.35z"/>
			</g>
		</g>
		<g class="st1">
			<g>
				<path class="st2" d="M2468.71,3046.45c2.28,1.22,4.44,2.47,6.65,3.71c-61.24-29.3-150.19-47.41-265.03-55.08l-13.06,96.76
					c1.19,19.81-6.28,33.32-25.71,38.15l-87.24,20.48l489.73,21.62c-1.18-15.26-4.94-29.47-11.09-42.72
					c7.28,13.82,11.09,28.11,11.09,42.72c0,50.21-45.08,96.58-121.11,133.65c-108.22,52.99-279.14,87.02-471.6,87.02
					c-153.9,0-294.16-21.79-399.55-57.67c5.03,2.69,10.25,5.38,15.57,7.96c108.27,52.99,279.29,87.03,471.6,87.03
					c192.41,0,363.33-34.04,471.6-87.03c76.03-37.07,121.11-83.44,121.11-133.65C2661.67,3144.87,2587.28,3086.81,2468.71,3046.45z"
					/>
			</g>
		</g>
	</g>
</g>
</svg>
