<?xml version="1.0" encoding="utf-8"?>
<!-- Generator: Adobe Illustrator 24.3.0, SVG Export Plug-In . SVG Version: 6.00 Build 0)  -->
<svg version="1.1" id="Layer_1" xmlns="http://www.w3.org/2000/svg" xmlns:xlink="http://www.w3.org/1999/xlink" x="0px" y="0px"
	 viewBox="0 0 4000 4000" style="enable-background:new 0 0 4000 4000;" xml:space="preserve">
<style type="text/css">
	.st0{fill:#6CEFE6;}
	.st1{opacity:0.3;}
	.st2{fill:#102770;}
	.st3{fill:#418BF9;}
	.st4{opacity:0.55;}
	.st5{fill:#FFFFFF;}
	.st6{fill:#F43F08;}
	.st7{fill:#FAC100;}
	.st8{opacity:0.25;}
	.st9{fill:#3CCE54;}
	.st10{opacity:0.4;}
	.st11{fill:#00EDF9;}
	.st12{fill:#6C7A89;}
	.st13{fill:#B7BDCE;}
	.st14{fill:#263069;}
	.st15{fill:#959AAF;}
	.st16{fill:#27B5FC;}
	.st17{opacity:0.15;}
	.st18{fill:#FFD553;}
	.st19{fill:#FFB602;}
	.st20{opacity:0.6;}
	.st21{fill:#0BCBFF;}
	.st22{fill:url(#SVGID_1_);}
	.st23{fill:#F7710D;}
	.st24{fill:#01D3EC;}
	.st25{opacity:0.3;fill:#FFFFFF;}
	.st26{fill:#02DAFF;}
	.st27{fill:#FFD199;}
	.st28{fill:none;}
	.st29{fill:#4F4F70;}
	.st30{opacity:0.7;}
	.st31{fill:#000072;}
	.st32{fill:#5377FF;}
	.st33{fill:#7D8BB7;}
	.st34{fill:#F2355D;}
	.st35{fill:#9BAAE0;}
	.st36{fill:#262F6A;}
	.st37{fill:#FEB702;}
	.st38{opacity:0.65;}
	.st39{fill:#BFBFBF;}
	.st40{opacity:0.26;}
	.st41{opacity:0.75;}
	.st42{fill:#525F93;}
	.st43{opacity:0.2;}
	.st44{opacity:0.4;fill:url(#SVGID_2_);}
	.st45{opacity:0.4;fill:url(#SVGID_3_);}
	.st46{opacity:0.4;fill:url(#SVGID_4_);}
	.st47{opacity:0.4;fill:url(#SVGID_5_);}
	.st48{opacity:0.4;fill:url(#SVGID_6_);}
	.st49{opacity:0.4;fill:url(#SVGID_7_);}
	.st50{opacity:0.4;fill:url(#SVGID_8_);}
	.st51{opacity:0.3;fill:#102770;}
	.st52{fill:#1CDB7C;}
	.st53{opacity:0.55;fill:url(#SVGID_9_);}
	.st54{opacity:0.55;fill:url(#SVGID_10_);}
	.st55{opacity:0.55;fill:url(#SVGID_11_);}
	.st56{opacity:0.55;fill:url(#SVGID_12_);}
	.st57{fill:#DC9AFE;}
	.st58{opacity:0.4;fill:url(#SVGID_13_);}
	.st59{opacity:0.4;fill:url(#SVGID_14_);}
	.st60{opacity:0.55;fill:url(#SVGID_15_);}
	.st61{opacity:0.55;fill:url(#SVGID_16_);}
	.st62{opacity:0.55;fill:url(#SVGID_17_);}
	.st63{opacity:0.55;fill:url(#SVGID_18_);}
	.st64{opacity:0.55;fill:url(#SVGID_19_);}
	.st65{opacity:0.55;fill:url(#SVGID_20_);}
	.st66{fill:#FDD301;}
	.st67{fill:#FFCCBC;}
	.st68{fill:#C5CDE2;}
	.st69{opacity:0.4;fill:url(#SVGID_21_);}
	.st70{opacity:0.4;fill:url(#SVGID_22_);}
	.st71{opacity:0.55;fill:url(#SVGID_23_);}
	.st72{opacity:0.55;fill:url(#SVGID_24_);}
	.st73{opacity:0.55;fill:url(#SVGID_25_);}
	.st74{opacity:0.55;fill:url(#SVGID_26_);}
	.st75{opacity:0.55;fill:url(#SVGID_27_);}
	.st76{opacity:0.55;fill:url(#SVGID_28_);}
	.st77{fill:#66FEFF;}
</style>
<g>
	<g>
		<g>
			<g>
				<rect class="st5" width="4000" height="4000"/>
			</g>
		</g>
	</g>
	<g class="st1">
		<g>
			<g>
				<ellipse class="st2" cx="2000" cy="3505.83" rx="788.64" ry="77.5"/>
			</g>
		</g>
	</g>
	<g>
		<g>
			<g>
				<circle class="st26" cx="2000" cy="1966.45" r="1116.45"/>
			</g>
		</g>
	</g>
	<g>
		<g>
			<g>
				<g>
					<path class="st37" d="M2739.99,1559.35c225.61,156.57-58.67,589.53-273.14,463.01L2739.99,1559.35z"/>
				</g>
			</g>
		</g>
		<g>
			<g>
				<g>
					<path class="st33" d="M1660.08,2908.24l-78.17,160.89c-4.05,8.35-13.56,12.47-22.41,9.73l-35.58-11.01
						c-9.03-2.79-14.52-11.81-12.91-21.1l4.58-26.6l20.72-119.51l4.53-26.28L1660.08,2908.24z"/>
				</g>
			</g>
			<g>
				<g>
					<path class="st2" d="M1565.13,3082.21c-2.11,0-4.25-0.32-6.37-0.97l-35.58-11.02c-10.16-3.14-16.46-13.42-14.63-23.91
						l30.3-175.13l124.78,35.46l-1.3,2.69l-78.17,160.88C1580.52,3077.73,1573.08,3082.21,1565.13,3082.21z M1542.84,2877.51
						l-29.36,169.65c-1.39,8.02,3.42,15.88,11.18,18.29l35.58,11.02c7.76,2.38,15.9-1.16,19.42-8.43l76.87-158.2L1542.84,2877.51z"
						/>
				</g>
			</g>
		</g>
		<g class="st1">
			<g>
				<g>
					<path class="st36" d="M2762.2,1906.7c-70.68,106.63-191.21,177.06-295.34,115.64l89.3-151.35
						c15.76,10.48,35.49,15.86,52.67,18.6l-7.15,12.07C2653.85,1932.42,2710.12,1930.1,2762.2,1906.7z"/>
				</g>
			</g>
			<g>
				<g>
					<path class="st2" d="M2549.14,2047.78c-27.93,0-56.14-7.12-83.55-23.29l-2.15-1.27l91.91-155.78l2.2,1.46
						c13.09,8.71,30.48,14.83,51.68,18.21l3.63,0.58l-7.74,13.06c47.33,27.01,101.25,28.3,156.05,3.67l7.89-3.54l-4.78,7.2
						C2713.95,1984.02,2632.73,2047.78,2549.14,2047.78z M2470.29,2021.44c103.54,59.13,218.74-13.74,285.05-109.08
						c-54.48,22.11-107.88,19.2-154.93-8.55l-2.16-1.27l6.57-11.09c-19.16-3.4-35.22-9.09-47.83-16.95L2470.29,2021.44z"/>
				</g>
			</g>
		</g>
		<g class="st38">
			<g>
				<g>
					<path class="st5" d="M2799.71,1835.27c10.34-76.23-10.82-150.66-80.29-198.88l-8.12,13.81l-2.23-38.46l30.94-52.41
						C2832.98,1623.89,2839.36,1735.37,2799.71,1835.27z"/>
				</g>
			</g>
		</g>
		<g>
			<g>
				<g>
					<path class="st34" d="M2728.9,1715.16c-17.98,60.12-43.21,112.2-73.98,156.19c-88.37,126.49-222.23,186.12-359.93,177.71
						c-35.84-2.13-71.9-8.9-107.5-20.32c-3.19-1.04-6.41-1.64-9.61-1.85c-20.84-1.63-40.51,12.65-45.06,34.1
						c-9.69,45.93-19.9,91.99-30.88,137.71c-31.55,131.51-69.33,260.65-118.3,378.38c-0.01,0.04-0.03,0.09-0.03,0.09
						c-23.88,57.47-50.43,112.21-80.15,163.2c-15.7,26.96-32.34,52.85-49.98,77.56c-46.55,65.22-124.87,100.04-204.24,89.11
						c-32.02-4.4-63.44-14.03-94.62-26.17c-54.65-21.35-83.26-81.47-64.67-137.12l21.59-64.56c0.01-0.04,0.01-0.04,0.01-0.04
						l42.49-127.19l1.96-5.87l208.01-622.19l22.87-68.36c16.39-49.16,13.58-102.76-8.09-149.87
						c-89.83-195.01-278.81-356.67-513.53-502.82c-5.3-3.35-10.63-6.6-15.98-9.92l282.99-493.23
						c227.54,196.12,466.46,349.8,722.23,440.38c50.35,19.49,99.18,39.96,145.38,62.16c96.08,46.02,180.81,99.29,244.38,166.1
						c5.56,5.81,10.97,11.78,16.21,17.84C2738.63,1476.56,2763.13,1600.66,2728.9,1715.16z"/>
				</g>
			</g>
		</g>
		<g>
			<g>
				<g>
					<path class="st32" d="M2319.98,2031.45l-24.99,17.6c-35.84-2.13-71.9-8.9-107.5-20.32c-3.19-1.04-6.41-1.64-9.61-1.85
						l-121.47-95.93c267.04-46.72,542.8-552.47,343.47-728.74c96.08,46.02,180.81,99.29,244.38,166.1l2.36,7.16
						C2719.74,1581.33,2538.9,1908.92,2319.98,2031.45z"/>
				</g>
			</g>
		</g>
		<g class="st38">
			<g>
				<g>
					<path class="st5" d="M2538.65,1985.3c67-55.72,121.08-136.59,152.7-242.34c34.23-114.5,9.73-238.6-68.42-329.02
						c-5.24-6.06-10.65-12.02-16.21-17.84c-31.91-33.56-69.18-63.67-110.51-91.18c61.58,218.72-180.89,594.43-411.18,630.74
						l119.82,97.96c3.23,0.27,6.44,0.92,9.61,2c3.17,1.08,6.41,2.13,9.55,3.15c-12.19-2.8-24.41-6.14-36.51-10.04
						c-3.19-1.04-6.41-1.64-9.61-1.85l-121.47-95.93c235.56-41.21,477.88-439.58,394.97-653.93c-11.1-28.68-28.01-54.04-51.5-74.81
						c5.27,2.51,10.52,5.06,15.67,7.63c3.21,1.58,6.38,3.15,9.53,4.8c2.29,1.1,4.57,2.24,6.79,3.42c3.68,1.82,7.24,3.7,10.84,5.6
						c1.06,0.52,2.1,1.09,3.14,1.65c4.04,2.08,8,4.23,11.92,6.37c0.55,0.27,1.09,0.58,1.58,0.88
						c71.59,38.88,134.84,83.12,184.92,135.75c5.56,5.81,10.97,11.78,16.21,17.84c78.15,90.42,102.64,214.52,68.42,329.02
						C2691.56,1840.05,2622.9,1930.24,2538.65,1985.3z"/>
				</g>
			</g>
		</g>
		<g class="st38">
			<g>
				<g>
					<path class="st5" d="M2451.38,1277.02c-28.29-16.6-58.07-32.16-89.05-47.01c-46.2-22.2-95.02-42.67-145.38-62.16
						c-250.37-88.66-484.57-237.77-707.74-428l23.06-40.18c227.54,196.12,466.46,349.8,722.23,440.38
						c50.35,19.49,99.18,39.96,145.38,62.16C2423.38,1222.98,2440.28,1248.34,2451.38,1277.02z"/>
				</g>
			</g>
		</g>
		<g>
			<g>
				<g>
					
						<ellipse transform="matrix(0.4977 -0.8674 0.8674 0.4977 -122.1264 1681.6829)" class="st39" cx="1390.78" cy="946.28" rx="284.31" ry="145.82"/>
				</g>
			</g>
		</g>
		<g class="st1">
			<g>
				<g>
					<path class="st36" d="M1459.6,982.62c-43.5,75.81-100.81,129.02-143.82,138.42c-7.03-43.55,10.68-112.43,49.96-180.92
						c43.5-75.81,100.81-129.02,143.82-138.42C1516.6,845.25,1498.88,914.13,1459.6,982.62z"/>
				</g>
			</g>
			<g>
				<g>
					<path class="st2" d="M1313.73,1124.05l-0.42-2.61c-7.38-45.69,11.88-115.64,50.26-182.56
						c42.97-74.9,100.07-129.7,145.45-139.61l2.58-0.56l0.42,2.61c7.38,45.69-11.88,115.64-50.26,182.56v0
						c-42.97,74.9-100.07,129.7-145.46,139.61L1313.73,1124.05z M1507.49,804.76c-43.06,11.06-98.75,65.44-139.58,136.6
						c-37.09,64.67-56.11,131.96-50.06,176.62c43.05-11.06,98.75-65.44,139.58-136.6C1494.53,916.7,1513.54,849.41,1507.49,804.76z"
						/>
				</g>
			</g>
		</g>
		<g class="st38">
			<g>
				<g>
					<path class="st5" d="M1557.83,930.72c24.39-91.23,13.04-169.64-35.87-197.7c-69.85-40.09-189.82,37.82-268.01,174.05
						c-16.84,29.38-30.38,59.11-40.51,88.04c10.39-39.08,27.42-80.55,50.83-121.4c78.18-136.22,198.16-214.14,268.01-174.05
						C1587.02,731.09,1594.73,825.68,1557.83,930.72z"/>
				</g>
			</g>
		</g>
		<g>
			<g>
				<g>
					<path class="st2" d="M1290.99,1217.45c-17.54,0-33.96-4.02-48.65-12.45c-77.72-44.59-73.39-193.17,9.84-338.24
						s209.35-223.78,287.04-179.2c38.56,22.12,58.09,70.53,55,136.31c-2.93,62.46-25.96,134.17-64.84,201.93
						C1461.88,1143.44,1366.2,1217.45,1290.99,1217.45z M1490.77,703.12c-63.98,0-153.48,71.42-214.36,177.54
						c-72.93,127.11-82.17,264.54-20.18,300.11c10.24,5.87,21.9,8.67,34.55,8.67c63.98,0.01,153.48-71.42,214.36-177.54l0,0
						c36.71-63.98,58.44-131.23,61.17-189.34c2.58-54.79-11.98-94.13-40.99-110.77C1515.08,705.91,1503.42,703.12,1490.77,703.12z"
						/>
				</g>
			</g>
		</g>
		<g>
			<g>
				<g>
					<path class="st32" d="M2132.82,2060.99c-58.25,276.65-136.4,556.64-279.34,756.93c-46.55,65.22-124.87,100.04-204.24,89.11
						c-32.02-4.4-63.44-14.03-94.62-26.17c-54.65-21.35-83.26-81.47-64.67-137.12l21.59-64.56c0.01-0.04,0.01-0.04,0.01-0.04
						c260.31,130.73,382.56-192.09,454.14-411.84l0.4-1.29c10.49-33.89-15.05-69.13-40.02-93.96
						c-23.35-23.26-30.41-58.39-18.63-89.2l46.82-122.3c15.79-41.26,66.67-56.06,102.14-29.59l131.08,97.79
						c-3.19-1.04-6.41-1.64-9.61-1.85C2157.04,2025.26,2137.37,2039.54,2132.82,2060.99z"/>
				</g>
			</g>
		</g>
		<g class="st38">
			<g>
				<g>
					<path class="st5" d="M1998.26,2280.34l-0.4,1.29c-71.63,219.73-193.83,542.57-454.14,411.84c0,0,0,0-0.01,0.04l-21.64,64.55
						c-16.41,49.06,3.97,101.62,46.43,128.02c-4.6-1.67-9.28-3.41-13.88-5.22c-54.65-21.35-83.26-81.47-64.67-137.12l21.59-64.56
						c0.01-0.04,0.01-0.04,0.01-0.04c260.31,130.73,382.56-192.09,454.14-411.84l0.4-1.29c10.49-33.89-15.05-69.13-40.02-93.96
						c-23.35-23.26-30.41-58.39-18.63-89.2l46.82-122.3c15.79-41.26,66.67-56.06,102.14-29.59l2.45,1.83
						c-29.72-4.57-60.73,11.51-72.44,42.1l-46.87,122.28c-11.78,30.81-4.67,65.95,18.63,89.2
						C1983.16,2211.19,2008.75,2246.45,1998.26,2280.34z"/>
				</g>
			</g>
		</g>
		<g>
			<g>
				<g>
					<path class="st2" d="M1302.72,1136.46c-10.11,0-19.41-2.35-27.68-7.09c-25.34-14.54-36.14-48.82-30.41-96.54
						c5.24-43.61,23.65-94.68,51.83-143.8s62.98-90.79,97.99-117.32c38.3-29.02,73.35-37,98.68-22.47
						c49.96,28.66,40.75,131.98-21.42,240.34c-28.18,49.12-62.98,90.79-97.99,117.32
						C1347.93,1126.46,1323.6,1136.46,1302.72,1136.46z M1465.19,770.06c-14.38,0-33.16,8.22-53.87,23.92
						c-32.08,24.32-64.27,63.02-90.63,108.96c-26.36,45.94-43.53,93.26-48.33,133.23c-4.25,35.35,1.79,60.5,16.57,68.97
						c14.79,8.48,39.54,1.01,67.92-20.5c32.08-24.32,64.27-63.02,90.63-108.96c56.07-97.73,61.74-185,31.75-202.21
						C1475.24,771.18,1470.52,770.06,1465.19,770.06z"/>
				</g>
			</g>
		</g>
		<g>
			<g>
				<g>
					<path class="st2" d="M1302.73,1135.03c-9.91,0-18.94-2.32-26.96-6.94c-24.78-14.22-35.33-47.99-29.67-95.08
						c5.22-43.42,23.56-94.29,51.65-143.22c28.07-48.95,62.72-90.47,97.57-116.89c37.8-28.65,72.28-36.6,97.08-22.37
						c15.59,8.92,25.8,25.94,29.5,49.21c1.04,6.54-3.2,12.76-9.68,14.18c-40.8,8.91-95.31,62.13-135.64,132.42l0,0
						c-36.2,63.11-55.22,130.9-48.47,172.71c1.06,6.55-3.19,12.79-9.68,14.21C1312.99,1134.44,1307.74,1135.03,1302.73,1135.03z
						 M1465.24,768.63c-14.77,0-33.86,8.31-54.81,24.2c-32.24,24.44-64.56,63.3-90.99,109.41c-26.46,46.09-43.69,93.6-48.51,133.76
						c-4.33,35.97,1.98,61.64,17.3,70.43c3.96,2.28,8.57,3.47,13.81,3.59c-2.74-47.4,16.83-113.28,52.86-176.11c0,0,0,0,0,0
						c40.64-70.85,94.2-124.4,139.84-140.87c-2.6-8.22-7.07-16.4-14.77-20.81C1475.77,769.81,1470.81,768.63,1465.24,768.63z"/>
				</g>
			</g>
		</g>
		<g>
			<g>
				<g>
					<path class="st2" d="M1678.26,2922.99c-10.26,0-20.58-0.7-30.92-2.11c-30.04-4.13-61.11-12.72-97.77-27.03
						c-61.77-24.11-93.78-91.99-72.88-154.53l296.92-888.22c15.41-46.09,12.75-95.67-7.5-139.59
						c-80.92-175.66-247.47-336.67-524.15-506.72c-6.57-4.04-8.62-12.64-4.58-19.21c4.04-6.57,12.65-8.63,19.21-4.58
						c281.59,173.07,451.56,337.93,534.89,518.83c23.22,50.41,26.28,107.28,8.62,160.14l-296.92,888.22
						c-16.19,48.41,8.65,100.97,56.54,119.66c34.56,13.49,63.61,21.55,91.42,25.37c73.82,10.16,147-21.81,190.95-83.4
						c149.27-209.11,226.49-511.56,277.08-751.69c3.33-15.83,13.27-29.57,27.24-37.69c13.75-7.99,30.27-9.81,45.33-4.99
						c105.72,33.85,215.2,25.48,308.27-23.58c102.18-53.86,176.69-150.92,215.51-280.67c33.39-111.64,8.86-229.72-65.62-315.89
						c-100.36-116.1-266.71-190.43-400.43-242.21c-242.6-85.91-480.31-230.81-726.31-442.82c-5.84-5.03-6.5-13.85-1.46-19.69
						c5.04-5.85,13.86-6.49,19.7-1.46c243.33,209.72,478.12,352.92,717.79,437.8c137.12,53.1,307.47,129.37,411.86,250.13
						c80.75,93.43,107.38,221.33,71.24,342.16c-41.01,137.11-120.28,239.94-229.24,297.38c-99.75,52.59-216.89,61.63-329.81,25.47
						c-7.64-2.45-15.74-1.55-22.77,2.54c-7.15,4.16-12.24,11.2-13.95,19.3c-51.16,242.79-129.4,548.84-281.68,762.16
						C1820.97,2887.48,1751.45,2922.99,1678.26,2922.99z"/>
				</g>
			</g>
		</g>
		<g>
			<g>
				<g>
					<path class="st2" d="M2255.83,2058.42c-0.99,0-1.98-0.01-2.96-0.03c-7.71-0.15-13.84-6.52-13.7-14.23
						c0.15-7.62,6.37-13.7,13.96-13.7c0.09,0,0.18,0,0.27,0c83.94,1.71,190.28-81.24,277.59-216.18
						c88.55-136.85,153.58-326.44,99.24-441.48c-3.3-6.97-0.31-15.3,6.66-18.59c6.98-3.3,15.3-0.31,18.59,6.66
						c58.93,124.75-8.29,325.23-101.04,468.58C2461.49,1973.12,2350.12,2058.42,2255.83,2058.42z"/>
				</g>
			</g>
		</g>
		<g>
			<g>
				<g>
					<path class="st2" d="M2549.79,2059.61c-29.97,0-60.35-7.71-90.04-25.23c-6.65-3.92-8.85-12.48-4.93-19.13
						c3.92-6.64,12.48-8.85,19.12-4.93c24.86,14.67,50.45,21.15,75.83,21.15c79.14,0.01,156.36-63.02,204.09-137.52
						c65.79-102.68,87.02-247.6-21.84-323.14c-6.33-4.4-7.91-13.1-3.51-19.44c4.4-6.33,13.09-7.92,19.44-3.51
						c124.05,86.09,102.21,247.56,29.43,361.15C2724.92,1990.9,2639.23,2059.61,2549.79,2059.61z"/>
				</g>
			</g>
		</g>
		<g>
			<g>
				<g>
					<path class="st2" d="M1626.23,2723.23c-38.54,0-78.97-10.55-120.94-31.63c-6.89-3.46-9.67-11.86-6.21-18.75
						c3.46-6.89,11.87-9.66,18.75-6.21c64.82,32.55,122.43,37.48,176.11,15.09c124.48-51.93,200.51-240.84,258.48-418.78
						c0.07-0.21,0.15-0.42,0.22-0.63c8.89-27.69-14.83-58.97-36.39-80.41c-27.14-26.99-35.71-67.84-21.84-104.08l46.8-122.28
						c9.11-23.81,28.38-41.53,52.86-48.63c24.51-7.1,50.25-2.42,70.67,12.81l131.08,97.79c6.18,4.61,7.46,13.36,2.85,19.54
						c-4.62,6.19-13.37,7.45-19.55,2.84l-131.08-97.79c-13.35-9.96-30.18-13.01-46.19-8.38c-16.01,4.64-28.6,16.23-34.56,31.79
						l-46.8,122.28c-9.93,25.93-3.86,55.09,15.45,74.29c39.14,38.92,54.01,76.82,43,109.59c-0.05,0.16-0.11,0.32-0.17,0.47
						c-59.91,183.8-139.33,379.11-274.09,435.33C1679.57,2718,1653.37,2723.23,1626.23,2723.23z"/>
				</g>
			</g>
		</g>
		<g>
			<g>
				<g>
					<path class="st2" d="M2056.39,1944.91c-6.66,0-12.56-4.78-13.74-11.56c-1.33-7.6,3.75-14.83,11.35-16.16
						c75.33-13.16,157.18-66.47,230.46-150.1c69.61-79.45,124.89-179.34,151.64-274.06c20.27-71.79,41.31-203.67-45.55-280.4
						c-5.78-5.1-6.32-13.93-1.22-19.71c5.11-5.78,13.93-6.33,19.72-1.22c72.87,64.36,92.02,174.07,53.94,308.93
						c-53.36,188.93-223.06,412.44-404.18,444.09C2057.99,1944.84,2057.18,1944.91,2056.39,1944.91z"/>
				</g>
			</g>
		</g>
		<g>
			<g>
				<g>
					<path class="st33" d="M1720.02,2346.78l-81.6-27.7c-12.39-4.21-19.03-17.66-14.82-30.05l60.85-179.27
						c4.21-12.39,17.66-19.03,30.05-14.82l81.6,27.7c12.39,4.21,19.03,17.66,14.82,30.05l-60.85,179.27
						C1745.86,2344.35,1732.41,2350.99,1720.02,2346.78z"/>
				</g>
			</g>
			<g>
				<g>
					<path class="st2" d="M1727.66,2350.55c-2.84,0-5.68-0.46-8.44-1.4l-81.61-27.7c-6.62-2.25-11.97-6.94-15.07-13.22
						c-3.1-6.27-3.56-13.37-1.31-20l60.84-179.27c4.65-13.68,19.54-21.02,33.22-16.38l81.61,27.7
						c13.67,4.64,21.02,19.55,16.38,33.22l-60.84,179.27c-2.25,6.62-6.94,11.97-13.22,15.07
						C1735.56,2349.64,1731.62,2350.55,1727.66,2350.55z M1720.82,2344.41c11.05,3.75,23.12-2.19,26.88-13.26l60.84-179.27
						c3.75-11.06-2.19-23.12-13.26-26.88l-81.61-27.7c-11.03-3.76-23.12,2.19-26.88,13.25l-60.84,179.27
						c-3.75,11.06,2.19,23.12,13.26,26.87L1720.82,2344.41z"/>
				</g>
			</g>
		</g>
		<g class="st1">
			<g>
				<g>
					<path class="st2" d="M1810.89,2152.69l-60.81,179.27c-4.22,12.39-17.69,19.04-30.07,14.81l-81.58-27.69
						c-12.39-4.22-19.05-17.64-14.83-30.03l15.06-44.41c0.18,9.66,6.38,18.59,16.04,21.87l81.58,27.69
						c12.4,4.18,25.85-2.43,30.07-14.81l45.76-134.91C1812.2,2147.2,1811.84,2149.96,1810.89,2152.69z"/>
				</g>
			</g>
		</g>
		<g class="st38">
			<g>
				<g>
					<path class="st5" d="M1810.89,2152.69l-9.29,27.34c0.5-10.27-5.81-19.97-16.03-23.48l-81.58-27.69
						c-12.39-4.22-25.85,2.43-30.07,14.81l-51.52,151.93c0.04-2.18,0.48-4.38,1.2-6.55l60.82-179.32
						c4.22-12.39,17.67-18.99,30.07-14.81l81.58,27.69C1808.47,2126.84,1815.12,2140.31,1810.89,2152.69z"/>
				</g>
			</g>
		</g>
		<g>
			<g>
				<g>
					<path class="st2" d="M1727.67,2362.02c-4.08,0-8.16-0.67-12.13-2.02l0,0l-81.61-27.7c-19.66-6.67-30.23-28.1-23.55-47.75
						l60.84-179.27c6.67-19.66,28.09-30.23,47.76-23.55l81.6,27.7c19.66,6.68,30.23,28.1,23.56,47.76l-60.85,179.27
						c-3.23,9.53-9.98,17.22-19,21.67C1739.03,2360.71,1733.36,2362.02,1727.67,2362.02z M1724.51,2333.56
						c2.45,0.83,5.09,0.66,7.43-0.49c2.33-1.15,4.08-3.14,4.91-5.6l60.84-179.27c1.72-5.08-1.01-10.62-6.09-12.34l-81.6-27.7
						c-5.09-1.73-10.61,1.01-12.34,6.09l-60.84,179.27c-0.83,2.46-0.66,5.1,0.49,7.43c1.15,2.33,3.14,4.07,5.6,4.91L1724.51,2333.56
						z"/>
				</g>
			</g>
		</g>
		<g>
			<g>
				<g>
					<path class="st37" d="M1690.71,2295.49l-61.62-20.92c-9.36-3.18-14.37-13.33-11.19-22.69l45.95-135.37
						c3.18-9.36,13.33-14.37,22.69-11.19l61.62,20.92c9.36,3.18,14.37,13.33,11.19,22.69l-45.95,135.37
						C1710.22,2293.65,1700.06,2298.66,1690.71,2295.49z"/>
				</g>
			</g>
		</g>
		<g class="st1">
			<g>
				<g>
					<path class="st2" d="M1759.34,2148.92l-45.95,135.38c-3.14,9.36-13.31,14.35-22.67,11.21l-61.65-20.93
						c-9.35-3.19-14.35-13.31-11.15-22.7l10.06-29.68c0.04,7.42,4.7,14.27,12.1,16.81l61.65,20.93c9.36,3.14,19.53-1.85,22.67-11.21
						l35.87-105.66C1760.3,2145.02,1759.99,2146.97,1759.34,2148.92z"/>
				</g>
			</g>
		</g>
		<g class="st38">
			<g>
				<g>
					<path class="st5" d="M1759.34,2148.92l-8.53,25.19c0.16-7.6-4.56-14.71-12.14-17.3l-61.6-20.92
						c-9.36-3.14-19.53,1.85-22.67,11.21l-37.43,110.2c0.02-1.8,0.33-3.6,0.94-5.41l45.94-135.34c3.15-9.4,13.32-14.39,22.67-11.21
						l61.6,20.92C1757.53,2129.4,1762.52,2139.57,1759.34,2148.92z"/>
				</g>
			</g>
		</g>
		<g>
			<g>
				<g>
					<path class="st2" d="M1696.43,2310.41c-3.38,0-6.83-0.55-10.21-1.69c0,0,0,0,0,0l-61.63-20.91
						c-16.64-5.65-25.57-23.78-19.92-40.41l45.94-135.37c5.65-16.63,23.76-25.58,40.4-19.93l61.63,20.92
						c16.63,5.65,25.57,23.77,19.93,40.41l-45.95,135.37C1722.12,2302.04,1709.7,2310.41,1696.43,2310.41z M1695.19,2282.27
						c2.06,0.67,4.28-0.41,4.98-2.46l45.95-135.37c0.69-2.05-0.41-4.29-2.46-4.98l-61.62-20.92c-2.06-0.7-4.28,0.41-4.98,2.46
						l-45.94,135.37c-0.69,2.06,0.41,4.29,2.46,4.99L1695.19,2282.27z"/>
				</g>
			</g>
		</g>
		<g class="st1">
			<g>
				<g>
					<path class="st2" d="M1509.56,801.7c-43.01,9.39-100.32,62.61-143.82,138.42c-2.2,3.8-4.31,7.63-6.36,11.43
						c-10.05-29.87-44.35-31.47-64.67-29.57c4.28-8.62,8.9-17.27,13.89-25.96c56.35-98.29,135.88-158.57,177.59-134.64
						C1498.81,768.6,1506.55,782.79,1509.56,801.7z"/>
				</g>
			</g>
		</g>
		<g>
			<g>
				<g>
					
						<ellipse transform="matrix(0.2957 -0.9553 0.9553 0.2957 -1269.8567 3294.4583)" class="st37" cx="1599.34" cy="2508.43" rx="47.72" ry="31.81"/>
				</g>
			</g>
		</g>
		<g>
			<g>
				<g>
					<path class="st2" d="M1591.61,2568.93c-3.57,0-7.1-0.52-10.52-1.58c-24.52-7.59-35.71-39.42-25.48-72.46
						c10.22-33.05,37.45-52.97,61.97-45.38c12.53,3.88,22.24,14.59,26.62,29.38c3.85,13,3.45,28.3-1.13,43.08
						s-12.89,27.63-23.41,36.18C1610.95,2565.23,1601.14,2568.93,1591.61,2568.93z M1606.91,2475.84c-8.08,0-19.45,10.6-24.62,27.31
						c-5.71,18.45-0.98,35.03,7.07,37.52c4.92,1.5,10.51-2.43,12.68-4.19c6.2-5.04,11.43-13.34,14.35-22.77l0,0
						c2.92-9.43,3.29-19.23,1.03-26.89c-0.8-2.69-3.18-9.1-8.1-10.62C1608.56,2475.96,1607.75,2475.84,1606.91,2475.84z"/>
				</g>
			</g>
		</g>
		<g class="st1">
			<g>
				<g>
					<path class="st2" d="M2654.92,1871.35c-88.37,126.49-222.23,186.12-359.93,177.71c-35.84-2.13-71.9-8.9-107.5-20.32
						c-3.19-1.04-6.41-1.64-9.61-1.85c-20.84-1.63-40.51,12.65-45.06,34.1c-9.69,45.93-19.9,91.99-30.88,137.71l-195.87-135
						c33.61-171.56-142.04-139.83-142.04-139.83l22.87-68.36c16.39-49.16,13.58-102.76-8.09-149.87
						c-89.83-195.01-278.81-356.67-513.53-502.82l86.19-14.74c76.12,1.58,147.67-37.81,211.45-146.87
						c10.96-18.73,35.85-23.55,52.94-10.12c304.45,238.74,453.63,560.3,701.48,718.36
						C2425.95,1837.75,2536.62,1901.2,2654.92,1871.35z"/>
				</g>
			</g>
		</g>
		<g class="st1">
			<g>
				<g>
					<path class="st2" d="M1983.61,2577.16c-23.88,57.47-50.43,112.21-80.15,163.2c-15.7,26.96-32.34,52.85-49.98,77.56
						c-46.55,65.22-124.87,100.04-204.24,89.11c-32.02-4.4-63.44-14.03-94.62-26.17c-54.65-21.35-83.26-81.47-64.67-137.12
						l21.59-64.56c0.01-0.04,0.01-0.04,0.01-0.04l42.49-127.19l1.96-5.87l5.59,0.66l37.48,7.07
						C1673.93,2798.64,1789.47,2862.38,1983.61,2577.16z"/>
				</g>
			</g>
		</g>
		<g>
			<g>
				<g>
					<path class="st2" d="M1497.73,908.77c-1.14,0-2.3-0.17-3.45-0.52l-83.72-25.92c-6.14-1.9-9.58-8.42-7.68-14.56
						c1.9-6.14,8.42-9.58,14.56-7.68l83.72,25.92c6.14,1.9,9.58,8.42,7.68,14.56C1507.3,905.56,1502.7,908.77,1497.73,908.77z"/>
				</g>
			</g>
		</g>
		<g>
			<g>
				<g>
					<path class="st2" d="M1474.06,967.13c-1.14,0-2.3-0.17-3.45-0.52l-99.14-30.69c-6.14-1.9-9.58-8.42-7.68-14.56
						c1.9-6.14,8.41-9.58,14.56-7.68l99.14,30.69c6.14,1.9,9.58,8.42,7.68,14.56C1483.62,963.93,1479.02,967.13,1474.06,967.13z"/>
				</g>
			</g>
		</g>
		<g>
			<g>
				<g>
					<path class="st2" d="M1441.09,1023.97c-1.14,0-2.3-0.17-3.45-0.52l-96.86-29.98c-6.14-1.9-9.58-8.42-7.68-14.56
						s8.42-9.57,14.56-7.68l96.86,29.98c6.14,1.9,9.58,8.42,7.68,14.56C1450.65,1020.77,1446.05,1023.97,1441.09,1023.97z"/>
				</g>
			</g>
		</g>
		<g>
			<g>
				<g>
					<path class="st2" d="M1396.58,1076.77c-1.14,0-2.3-0.17-3.45-0.52l-73.62-22.79c-6.14-1.9-9.58-8.42-7.68-14.56
						c1.9-6.14,8.41-9.57,14.56-7.68l73.62,22.79c6.14,1.9,9.58,8.42,7.68,14.56C1406.15,1073.57,1401.55,1076.77,1396.58,1076.77z"
						/>
				</g>
			</g>
		</g>
		<g class="st1">
			<g>
				<g>
					<path class="st5" d="M2288.77,1516.8c-44.39,0.88-39.56-53.1-40.88-119.54c-1.32-66.44-8.29-120.19,36.09-121.07
						c44.39-0.88,81.44,52.27,82.77,118.71S2333.16,1515.92,2288.77,1516.8z"/>
				</g>
			</g>
		</g>
		<g>
			<g>
				<g>
					<path class="st2" d="M1565.18,3093.69c-3.24,0-6.53-0.48-9.79-1.49l-35.6-11.03c-15.65-4.85-25.35-20.68-22.55-36.83
						l29.85-172.39c1.31-7.6,8.54-12.72,16.14-11.38c7.6,1.31,12.7,8.54,11.38,16.14l-29.85,172.39c-0.41,2.36,1.01,4.67,3.3,5.38
						l35.6,11.02c2.26,0.7,4.67-0.34,5.71-2.48l78.15-160.93c3.37-6.94,11.73-9.82,18.66-6.46c6.94,3.37,9.83,11.72,6.46,18.66
						l-78.15,160.93C1588.86,3086.81,1577.41,3093.69,1565.18,3093.69z"/>
				</g>
			</g>
		</g>
		<g class="st1">
			<g>
				<g>
					<path class="st2" d="M1660.08,2908.24l-78.17,160.89c-4.05,8.35-13.56,12.47-22.41,9.73l-35.58-11.01
						c-9.03-2.79-14.52-11.81-12.91-21.1l4.58-26.6c82.2,11.85,100.17-104.76,20.72-119.51l4.53-26.28L1660.08,2908.24z"/>
				</g>
			</g>
		</g>
		<g>
			<g>
				<g>
					<path class="st2" d="M1718.36,3252.32c-28.43,0-56.08-2.47-81.93-7.39c-87.12-16.57-132.28-73.34-127.15-159.86
						c0.05-0.96,0.16-1.91,0.32-2.86l1.5-9.08l54.27,8.96l-1.26,7.61c-2.98,57.74,23.3,89.91,82.6,101.19
						c118.61,22.54,287.55-14.44,353.63-113.53c45.81-68.69,34.65-158.71-32.27-260.32c-44.07-66.92-115.71-144.77-191.57-227.18
						c-190.14-206.59-405.65-440.75-366.99-674.85c21.76-131.78,119.94-243.63,300.13-341.95l26.34,48.28
						c-164.34,89.67-253.38,188.66-272.21,302.63c-34.29,207.63,171.57,431.3,353.19,628.64c77.41,84.1,150.52,163.54,197.04,234.17
						c101.11,153.54,73.26,259.36,32.09,321.09C1981.3,3205.06,1842.59,3252.32,1718.36,3252.32z"/>
				</g>
			</g>
		</g>
		<g class="st1">
			<g>
				<g>
					
						<ellipse transform="matrix(0.4977 -0.8674 0.8674 0.4977 -119.4462 1672.3813)" class="st2" cx="1384.09" cy="939.31" rx="205.16" ry="87.06"/>
				</g>
			</g>
		</g>
	</g>
</g>
</svg>
