<?xml version="1.0" encoding="utf-8"?>
<!-- Generator: Adobe Illustrator 24.3.0, SVG Export Plug-In . SVG Version: 6.00 Build 0)  -->
<svg version="1.1" id="Layer_1" xmlns="http://www.w3.org/2000/svg" xmlns:xlink="http://www.w3.org/1999/xlink" x="0px" y="0px"
	 viewBox="0 0 4000 4000" style="enable-background:new 0 0 4000 4000;" xml:space="preserve">
<style type="text/css">
	.st0{fill:#6CEFE6;}
	.st1{opacity:0.3;}
	.st2{fill:#102770;}
	.st3{fill:#418BF9;}
	.st4{opacity:0.55;}
	.st5{fill:#FFFFFF;}
	.st6{fill:#F43F08;}
	.st7{fill:#FAC100;}
	.st8{opacity:0.25;}
	.st9{fill:#3CCE54;}
	.st10{opacity:0.4;}
	.st11{fill:#00EDF9;}
	.st12{fill:#6C7A89;}
	.st13{fill:#B7BDCE;}
	.st14{fill:#263069;}
	.st15{fill:#959AAF;}
	.st16{fill:#27B5FC;}
	.st17{opacity:0.15;}
	.st18{fill:#FFD553;}
	.st19{fill:#FFB602;}
	.st20{opacity:0.6;}
	.st21{fill:#0BCBFF;}
	.st22{fill:url(#SVGID_1_);}
	.st23{fill:#F7710D;}
	.st24{fill:#01D3EC;}
	.st25{opacity:0.3;fill:#FFFFFF;}
	.st26{fill:#02DAFF;}
	.st27{fill:#FFD199;}
	.st28{fill:none;}
	.st29{fill:#4F4F70;}
	.st30{opacity:0.7;}
	.st31{fill:#000072;}
	.st32{fill:#5377FF;}
	.st33{fill:#7D8BB7;}
	.st34{fill:#F2355D;}
	.st35{fill:#9BAAE0;}
	.st36{fill:#262F6A;}
	.st37{fill:#FEB702;}
	.st38{opacity:0.65;}
	.st39{fill:#BFBFBF;}
	.st40{opacity:0.26;}
	.st41{opacity:0.75;}
	.st42{fill:#525F93;}
	.st43{opacity:0.2;}
	.st44{opacity:0.4;fill:url(#SVGID_2_);}
	.st45{opacity:0.4;fill:url(#SVGID_3_);}
	.st46{opacity:0.4;fill:url(#SVGID_4_);}
	.st47{opacity:0.4;fill:url(#SVGID_5_);}
	.st48{opacity:0.4;fill:url(#SVGID_6_);}
	.st49{opacity:0.4;fill:url(#SVGID_7_);}
	.st50{opacity:0.4;fill:url(#SVGID_8_);}
	.st51{opacity:0.3;fill:#102770;}
	.st52{fill:#1CDB7C;}
	.st53{opacity:0.55;fill:url(#SVGID_9_);}
	.st54{opacity:0.55;fill:url(#SVGID_10_);}
	.st55{opacity:0.55;fill:url(#SVGID_11_);}
	.st56{opacity:0.55;fill:url(#SVGID_12_);}
	.st57{fill:#DC9AFE;}
	.st58{opacity:0.4;fill:url(#SVGID_13_);}
	.st59{opacity:0.4;fill:url(#SVGID_14_);}
	.st60{opacity:0.55;fill:url(#SVGID_15_);}
	.st61{opacity:0.55;fill:url(#SVGID_16_);}
	.st62{opacity:0.55;fill:url(#SVGID_17_);}
	.st63{opacity:0.55;fill:url(#SVGID_18_);}
	.st64{opacity:0.55;fill:url(#SVGID_19_);}
	.st65{opacity:0.55;fill:url(#SVGID_20_);}
	.st66{fill:#FDD301;}
	.st67{fill:#FFCCBC;}
	.st68{fill:#C5CDE2;}
	.st69{opacity:0.4;fill:url(#SVGID_21_);}
	.st70{opacity:0.4;fill:url(#SVGID_22_);}
	.st71{opacity:0.55;fill:url(#SVGID_23_);}
	.st72{opacity:0.55;fill:url(#SVGID_24_);}
	.st73{opacity:0.55;fill:url(#SVGID_25_);}
	.st74{opacity:0.55;fill:url(#SVGID_26_);}
	.st75{opacity:0.55;fill:url(#SVGID_27_);}
	.st76{opacity:0.55;fill:url(#SVGID_28_);}
	.st77{fill:#66FEFF;}
</style>
<g>
	<g>
		<g>
			<rect class="st5" width="4000" height="4000"/>
		</g>
	</g>
	<g>
		<g>
			<circle class="st26" cx="2000" cy="1805.63" r="1315.63"/>
		</g>
	</g>
	<g>
		<g>
			<g>
				<g>
					<path class="st27" d="M2898.82,2036.41c0,0,116.72-6.59,103.86,192.7c-12.86,199.29-96.43,408.21-229.82,295.71
						S2769.24,2052.64,2898.82,2036.41z"/>
				</g>
				<g>
					<path class="st2" d="M2844.82,2558.95c-23.51,0-48.13-10.76-73.57-32.22c-70.93-59.82-65.7-184.11-37.15-280.48
						c34.73-117.24,102.34-204.55,164.41-212.33l0.17-0.01c1.45-0.08,35.42-1.64,65.13,28.32c32.49,32.75,46.4,88.95,41.37,167.04
						c-8.85,137.18-52.41,290.35-129.79,323.33C2865.44,2556.83,2855.24,2558.95,2844.82,2558.95z M2899.03,2038.9
						c-60.13,7.62-125.97,93.44-160.14,208.77c-28.1,94.85-33.51,216.97,35.58,275.23c35.15,29.65,68.44,38.09,98.96,25.09
						c75.42-32.14,118-183.4,126.76-319.05c4.94-76.52-8.47-131.4-39.84-163.1C2932.9,2038.11,2900.78,2038.82,2899.03,2038.9z"/>
				</g>
			</g>
			<g>
				<path class="st2" d="M2845.05,2573.84c-23.13,0-51.45-8.63-83.47-35.64c-76.46-64.48-71.76-195.29-41.86-296.2
					c30.75-103.79,97.38-212.99,176.93-222.95c0.4-0.05,0.79-0.09,1.19-0.11c1.71-0.09,42.21-1.96,76.63,32.73
					c35.64,35.93,51.01,96.01,45.69,178.56c-8.48,131.38-49.93,298.26-138.87,336.16
					C2871.36,2570.62,2859.17,2573.84,2845.05,2573.84z M2900.22,2053.88c-53.39,7.4-115.08,90.46-146.95,198.06
					c-26.75,90.31-32.69,205.9,30.87,259.51c30.91,26.06,58.19,33.51,83.41,22.75c59.28-25.26,107.66-151.18,117.67-306.22
					c4.59-71.11-7.72-123.55-35.61-151.66c-21.41-21.58-45.74-22.44-49.35-22.44C2900.25,2053.88,2900.23,2053.88,2900.22,2053.88z"
					/>
			</g>
			<g class="st1">
				<path class="st2" d="M2775.67,2439.82c129.84,109.51,212.47-85.54,228.63-279.79c2.3,19.73,2.9,42.56,1.19,69.08
					c-12.86,199.29-96.43,408.21-229.82,295.71c-49.02-41.34-62.47-116.08-53.48-194.88
					C2728.21,2374.87,2744.94,2413.91,2775.67,2439.82z"/>
			</g>
		</g>
		<g>
			<g>
				<g>
					<path class="st27" d="M1098.37,2036.41c0,0-116.72-6.59-103.86,192.7c12.86,199.29,96.43,408.21,229.82,295.71
						S1227.95,2052.64,1098.37,2036.41z"/>
				</g>
				<g>
					<path class="st2" d="M1152.37,2558.95c-10.42,0-20.62-2.12-30.57-6.36c-77.37-32.97-120.94-186.15-129.79-323.33
						c-5.04-78.09,8.88-134.29,41.37-167.04c29.71-29.95,63.68-28.41,65.13-28.32l0.17,0.01c62.07,7.78,129.68,95.09,164.41,212.32
						c28.55,96.37,33.78,220.66-37.15,280.48C1200.51,2548.19,1175.88,2558.95,1152.37,2558.95z M1097.26,2038.89
						c-5.67,0-35.04,1.3-60.42,26.95c-31.37,31.7-44.77,86.58-39.84,163.1c8.75,135.65,51.34,286.91,126.76,319.05
						c30.51,13.01,63.8,4.57,98.96-25.09c69.09-58.27,63.68-180.38,35.58-275.24c-34.17-115.33-100.01-201.15-160.14-208.77
						C1098.03,2038.9,1097.72,2038.89,1097.26,2038.89z"/>
				</g>
			</g>
			<g class="st1">
				<path class="st2" d="M1224.33,2439.82c-129.84,109.51-212.47-85.54-228.63-279.79c-2.3,19.73-2.9,42.56-1.19,69.08
					c12.86,199.29,96.43,408.21,229.82,295.71c49.02-41.34,62.47-116.08,53.48-194.88
					C1271.79,2374.87,1255.06,2413.91,1224.33,2439.82z"/>
			</g>
			<g>
				<path class="st2" d="M1152.14,2573.84c-14.13,0-26.31-3.22-36.22-7.44c-88.94-37.91-130.4-204.78-138.87-336.16
					c-5.33-82.56,10.04-142.64,45.69-178.57c34.41-34.69,74.9-32.81,76.62-32.73c0.4,0.02,0.79,0.06,1.19,0.11
					c79.55,9.96,146.18,119.15,176.93,222.95c29.9,100.91,34.6,231.72-41.86,296.2C1203.6,2565.2,1175.27,2573.84,1152.14,2573.84z
					 M1096.92,2053.88c-4.31,0-28.52,1.03-49.92,23.03c-27.46,28.24-39.57,80.48-35.02,151.07c10,155.03,58.39,280.95,117.67,306.21
					c25.22,10.75,52.5,3.31,83.41-22.75c63.56-53.61,57.62-169.2,30.87-259.51c-31.87-107.57-93.53-190.62-146.91-198.05
					C1096.98,2053.88,1096.95,2053.88,1096.92,2053.88z"/>
			</g>
		</g>
		<g>
			<g>
				<path class="st27" d="M2805.35,2522.85c-1.05,87.85-11.8,161.8-11.8,161.8C2608.2,3209.65,2000,3312.5,2000,3312.5
					s-608.2-102.85-793.55-627.85c0,0-10.75-73.95-11.8-161.8c-0.6-49.5-0.55-171.2-0.4-268v-0.05c0.1-35.05,0.2-66.8,0.25-90.7
					c0,0-2.2-23.95-1.25-63.55c4.45-188.5,80.35-731.6,806.75-731.6c0,0,502.45-14.45,713.65,382.6c9.25,17.4,17.95,35.55,26,54.55
					c40.95,96.35,65.8,213.95,65.85,357.4v0.6C2805.5,2254,2806.2,2455.4,2805.35,2522.85z"/>
			</g>
			<g class="st1">
				<path class="st2" d="M2719.64,2170.28c-4.4-20.77-20.09-37.39-40.59-42.93c-84.71-22.89-319.05-67.08-550.3,61.4
					c0,0-1.56,6.08-3.37,16.71l0,0c0,0-43.6-18.32-125.38-18.32s-125.38,18.32-125.38,18.32l-1.43,4.7
					c-2.11-13.52-4.13-21.41-4.13-21.41c-231.26-128.48-465.59-84.29-550.3-61.4c-20.5,5.54-36.19,22.15-40.59,42.93
					c-91.06,429.91,208.39,412.22,208.39,412.22c238.04,0.05,334.41-95.28,370.91-192.14c21.69-57.56,77.08-95.53,138.6-96.06
					c1.3-0.01,2.61-0.02,3.93-0.02c0.56,0,1.12,0,1.67,0c61.7,0.23,116.97,38.77,138.81,96.47
					c36.62,96.72,133.06,191.79,370.77,191.74C2511.25,2582.5,2810.7,2600.18,2719.64,2170.28z"/>
			</g>
			<g class="st1">
				<path class="st2" d="M2326.6,2892.4c-120.9-151.17-326.6-84.95-326.6-84.95s-205.7-66.22-326.6,84.95
					c0,0-54.98,87.43,70.9,134.3c0,0-62.69-50.63-39.39-106.88c22.01-53.12,195.53-116.27,280.95-66.97
					c8.71,5.03,19.57,5.03,28.28,0c85.42-49.3,258.94,13.85,280.95,66.97c23.3,56.25-39.39,106.88-39.39,106.88
					C2381.58,2979.83,2326.6,2892.4,2326.6,2892.4z"/>
			</g>
			<g>
				<path class="st28" d="M2805.49,2164.12c0,89.86,0.69,291.27-0.13,358.73c-1.07,87.86-11.79,161.79-11.79,161.79
					c-185.36,525-793.57,627.86-793.57,627.86s-608.21-102.86-793.57-627.86c0,0-10.71-73.93-11.79-161.79
					c-0.82-67.47-0.38-268.88-0.13-358.73c0,0-73.44-795.19,805.49-795.19C2000,1368.93,2805.49,1345.75,2805.49,2164.12z"/>
			</g>
			<g>
				<path class="st2" d="M2000,2883.93h-67.03c-6.54,0-9.73,6.91-5.07,10.91c9.89,8.5,28.29,20.24,60.26,28.64
					c7.69,2.02,15.99,2.02,23.68,0c31.97-8.4,50.37-20.14,60.26-28.64c4.66-4.01,1.47-10.91-5.07-10.91H2000z"/>
			</g>
		</g>
		<g>
			<g>
				<path class="st29" d="M2805.5,2163.9c0.2-2.2,1.8-21.85,1.45-53.65c-0.05-4.15-4.75-6.65-8.2-4.3l-11.3,7.65
					c-1.45,0.95-2.3,2.55-2.3,4.3c-0.05,31.6-1.7,329.15-46.85,485.7c-1.3,4.5-7.4,5.15-9.65,1.05l-6.6-12
					c-2.1-3.9-7.8-3.55-9.4,0.55c-7.15,18.1-22.3,56-33.9,81.6c-1.9,4.1-7.7,4.05-9.55-0.1l-2.05-4.6c-1.9-4.35-8.15-4.1-9.7,0.4
					c-7.05,20.8-23.75,62.05-53.7,93.4c-3.2,3.4-8.9,1.1-8.95-3.55c-0.1-6.6-0.7-14.85-2.7-22.65c-1.2-4.65-7.55-5.35-9.7-1.05
					c-10,19.65-33.45,61.75-62.25,86.15c-3.4,2.9-8.6,0.55-8.65-3.9c-0.05-5.25-0.9-11.95-3.75-19.2c-1.65-4.15-7.4-4.65-9.5-0.7
					c-9.2,17.05-31.6,54.2-62.5,75.45c-2.5,1.75-5.95,1.1-7.5-1.55c-19.1-32.5-142.55-219.3-427.15-156.35
					c-0.35,0.1-0.75,0.1-1.15,0.1s-0.7-0.05-1.05-0.1c-284.6-62.95-408.05,123.85-427.15,156.35c-1.55,2.65-5,3.3-7.5,1.55
					c-30.9-21.25-53.3-58.4-62.5-75.45c-2.1-3.95-7.85-3.45-9.5,0.7c-2.85,7.25-3.7,13.95-3.75,19.2c-0.05,4.45-5.25,6.8-8.65,3.9
					c-28.8-24.4-52.25-66.5-62.25-86.15c-2.15-4.3-8.5-3.6-9.7,1.05c-2,7.8-2.6,16.05-2.7,22.65c-0.05,4.65-5.75,6.95-8.95,3.55
					c-29.95-31.35-46.65-72.6-53.7-93.4c-1.55-4.5-7.8-4.75-9.7-0.4l-2.05,4.6c-1.85,4.15-7.65,4.2-9.55,0.1
					c-11.6-25.6-26.75-63.5-33.9-81.6c-1.6-4.1-7.3-4.45-9.4-0.55l-6.6,12c-2.25,4.1-8.35,3.45-9.65-1.05
					c-28.5-98.9-39.7-254-44.05-362.85c-2.55-63.5-2.75-111.2-2.8-122.85c0-1.75-0.85-3.35-2.3-4.3l-9.1-6.15l-2.2-1.5
					c-3.45-2.35-8.15,0.15-8.2,4.3c-0.35,31.8,1.25,51.45,1.45,53.65v0.45c-0.15,62-0.45,176.65-0.3,264.05c0,0.05,0,0.1,0,0.1
					c0.05,39.5,0.2,73.4,0.45,94.35c1,83.6,10.8,154.6,11.75,161.3c0.05,0.35,0.1,0.65,0.25,1
					c181.15,512.1,764.7,622.25,792.3,627.15c0.05,0.05,0.1,0.05,0.15,0.05h0.2c0.55,0.1,1.05,0.1,1.6,0
					c25.8-4.6,611-114.25,792.45-627.2c0.15-0.35,0.2-0.65,0.25-1c0.95-6.7,10.75-77.7,11.75-161.3c0.85-67.4,0.4-268.5,0.15-358.5
					V2163.9z M2255.7,3026.7c-108.45,32.15-67.05-46.6-255.7-46.6h-0.5c-188.1,0.15-146.85,78.7-255.2,46.6
					c-47.95-14.2-69.2-40-78-64.3c0,0,0-0.1-0.05-0.25c-4.55-12.6-5.75-24.85-5.55-34.85c0.25-12.75,4.7-25.05,12.7-34.9
					c0.7-0.95,1.5-1.85,2.3-2.7c129.95-141.55,304.15-88.55,322.7-82.4c0.15,0.05,0.3,0.1,0.5,0.15c0.3,0.1,0.6,0.1,0.9,0.1
					c0.6,0.05,1.2-0.05,1.8-0.25c18.55-6.15,192.75-59.15,322.7,82.4c9.4,10.25,14.75,23.65,15,37.6
					C2339.85,2956.65,2328.7,3005.05,2255.7,3026.7z"/>
			</g>
			<g>
				<g class="st1">
					<path class="st2" d="M1194.28,2429.06c0.08,23.05,0.2,42.59,0.37,56.44c1,83.75,10.83,154.85,11.76,161.33
						c0.08,0.32,0.15,0.6,0.23,0.92c181.13,512.14,764.71,622.29,792.31,627.19c0.05,0.05,0.1,0.05,0.15,0.05h0.2h0.2
						c0.05,0,0.1,0,0.15-0.05c27.6-4.9,611.18-115.06,792.31-627.19c0.08-0.32,0.15-0.6,0.23-0.92
						c0.92-6.48,10.75-77.59,11.76-161.33c0.17-13.85,0.29-33.39,0.36-56.44c-22.35,150.03-54.14,250.67-68.44,291.12
						c-1.84,5.21-9.11,5.07-10.97-0.13c-1.07-3-2.3-5.8-3.54-8.33c-2.39-4.88-9.52-4.22-10.84,1.05
						c-11.83,47.44-45.75,105.68-61.13,130.57c-2.52,4.08-8.69,3.5-10.33-1.01c-2.12-5.82-5.21-10.7-7.97-14.32
						c-2.65-3.46-8.02-2.9-9.84,1.06c-20.21,44.02-61.84,95.93-81,118.69c-3.31,3.92-9.57,1.91-10.19-3.18
						c-1.07-8.8-3.64-16.7-5.91-22.33c-1.66-4.12-7.14-4.89-9.9-1.41c-34.86,43.85-218.21,265.82-308.15,202.01
						c-99.65-70.7-206.8-31.05-206.8-31.05s-107.15-39.65-206.8,31.05c-89.94,63.81-273.29-158.16-308.15-202.01
						c-2.76-3.48-8.25-2.71-9.9,1.41c-2.27,5.64-4.83,13.53-5.9,22.33c-0.62,5.09-6.89,7.1-10.19,3.18
						c-19.16-22.76-60.79-74.67-81-118.69c-1.82-3.96-7.19-4.53-9.84-1.06c-2.76,3.62-5.85,8.5-7.97,14.32
						c-1.64,4.51-7.8,5.1-10.33,1.01c-15.38-24.88-49.3-83.13-61.13-130.57c-1.31-5.27-8.44-5.93-10.84-1.05
						c-1.24,2.53-2.47,5.34-3.54,8.33c-1.86,5.2-9.13,5.33-10.97,0.13c-14.32-40.51-46.17-141.34-68.53-291.69c0,0,0,0,0,0.01
						C1194.23,2428.69,1194.26,2428.87,1194.28,2429.06z"/>
				</g>
			</g>
			<g class="st1">
				<path class="st2" d="M1998.9,2773.55c-235.1-40.75-305.3,49.55-325.5,118.85c0.7-0.95,1.5-1.85,2.3-2.7
					c129.95-141.55,304.15-88.55,322.7-82.4c0.15,0.05,0.3,0.1,0.5,0.15c0.2-0.05,0.35-0.1,0.5-0.15
					c18.55-6.15,192.75-59.15,322.7,82.4c0.8,0.85,1.6,1.75,2.3,2.7C2304.2,2823.1,2234,2732.8,1998.9,2773.55z"/>
			</g>
			<g>
				<path class="st2" d="M2000,3324.93c-1.02,0-2.03-0.09-3.06-0.27c-25.18-4.49-618.31-115.81-802.09-635.32
					c-0.41-1.16-0.69-2.31-0.85-3.51c-1.1-7.74-10.84-78.7-11.84-162.82c-0.82-65.01-0.45-252.28-0.15-358.37
					c-0.32-3.92-1.81-23.74-1.43-54.54c0.08-6.54,3.73-12.48,9.53-15.52c5.79-3.03,12.73-2.64,18.13,1.01l11.32,7.65
					c4.88,3.29,7.79,8.76,7.8,14.63c0.05,31.92,1.67,307.39,41.86,465.54c3.57-4.08,8.78-6.31,14.42-5.96
					c6.92,0.44,12.81,4.72,15.35,11.18c6.55,16.63,18.1,45.51,28.37,69.09c3.14-2.24,7.01-3.43,11.08-3.24
					c7.33,0.33,13.6,5.04,15.96,11.99c5.99,17.66,18.56,48.85,39.79,75.94c0.44-2.71,0.98-5.31,1.61-7.79
					c1.84-7.21,7.81-12.41,15.22-13.23c7.44-0.84,14.38,2.94,17.75,9.58c7.55,14.85,26.15,48.89,49.13,72.81
					c0.72-2.92,1.63-5.81,2.75-8.64c2.54-6.46,8.64-10.9,15.54-11.31c6.9-0.42,13.29,3.14,16.59,9.27
					c7.35,13.65,26.45,45.97,52.43,66.56c31.52-49.76,159.65-215.77,434.79-155.66c275.16-60.1,403.27,105.9,434.79,155.66
					c25.98-20.59,45.08-52.91,52.43-66.56c3.3-6.13,9.63-9.7,16.59-9.27c6.9,0.41,13,4.85,15.54,11.31
					c1.12,2.84,2.03,5.72,2.75,8.64c22.99-23.92,41.58-57.95,49.13-72.81c3.37-6.64,10.3-10.42,17.75-9.58
					c7.41,0.82,13.39,6.01,15.22,13.23c0.63,2.48,1.17,5.08,1.61,7.79c21.23-27.08,33.8-58.27,39.79-75.94
					c2.36-6.96,8.62-11.67,15.96-11.99c4.07-0.17,7.93,1,11.08,3.24c10.27-23.57,21.82-52.46,28.37-69.08
					c2.54-6.46,8.43-10.74,15.35-11.18c5.62-0.34,10.85,1.88,14.42,5.96c40.2-158.14,41.81-433.62,41.86-465.54
					c0.01-5.87,2.92-11.34,7.8-14.63l11.32-7.65c5.4-3.65,12.34-4.04,18.12-1.01c5.8,3.03,9.45,8.98,9.53,15.52
					c0.38,31.14-1.14,51.05-1.43,54.54c0.3,106.42,0.66,293.7-0.15,358.38c-1,83.93-10.74,155.05-11.85,162.88
					c-0.17,1.19-0.45,2.32-0.85,3.45c-183.78,519.5-776.91,630.82-802.08,635.31C2002.04,3324.84,2001.02,3324.93,2000,3324.93z
					 M1218.65,2681.67c176.81,498.52,742.4,610.96,781.35,618.13c38.87-7.16,604.53-119.6,781.35-618.14
					c1.47-10.53,10.54-78.7,11.5-158.96c0.57-45.25,0.56-150.8,0.4-246.44c-5.32,105.95-17.07,241.02-42.97,330.8
					c-1.99,6.92-7.91,11.9-15.07,12.7c-6.58,0.75-12.95-2.23-16.63-7.64c-8.13,20.35-19.33,47.74-28.48,67.86
					c-2.87,6.31-9.19,10.37-16.11,10.37c-0.03,0-0.06,0-0.09,0c-3.39-0.02-6.63-1.01-9.39-2.75c-9.21,23.65-25.69,57.69-51.75,84.97
					c-4.97,5.21-12.52,6.86-19.23,4.22c-6.04-2.38-10.22-7.75-11.09-14.05c-12.99,22.53-31.93,50.7-54.23,69.61
					c-5.32,4.52-12.57,5.53-18.9,2.63c-5.36-2.45-9.03-7.23-10.05-12.88c-12.61,20.18-31.84,45.75-56.41,62.67
					c-4.09,2.82-9.2,3.83-14.03,2.76c-4.76-1.06-8.91-4.08-11.38-8.29c-20.99-35.76-139.6-211.1-413.66-150.47
					c-2.48,0.55-5.11,0.55-7.6,0c-274.05-60.62-392.66,114.71-413.65,150.47c-2.47,4.21-6.62,7.23-11.38,8.29
					c-4.82,1.08-9.93,0.07-14.03-2.76c-24.57-16.93-43.8-42.49-56.41-62.67c-1.03,5.65-4.69,10.44-10.05,12.89
					c-6.33,2.9-13.57,1.88-18.9-2.63c-22.29-18.91-41.24-47.08-54.22-69.61c-0.87,6.29-5.05,11.67-11.09,14.05
					c-6.71,2.64-14.26,0.98-19.23-4.22c-26.06-27.29-42.53-61.32-51.75-84.97c-2.76,1.74-6,2.73-9.39,2.75c-0.03,0-0.06,0-0.09,0
					c-6.92,0-13.24-4.06-16.11-10.36c-9.16-20.12-20.35-47.51-28.48-67.86c-3.68,5.41-10.05,8.38-16.63,7.64
					c-7.16-0.79-13.07-5.78-15.07-12.7c-25.91-89.79-37.65-224.85-42.97-330.8c-0.16,95.54-0.17,201.01,0.4,246.44
					C1208.11,2603.12,1217.18,2671.13,1218.65,2681.67z M1218.74,2682.31c0,0.02,0.01,0.05,0.01,0.07
					C1218.75,2682.36,1218.75,2682.34,1218.74,2682.31z M2805.77,2116.3L2805.77,2116.3
					C2805.77,2116.3,2805.77,2116.3,2805.77,2116.3z M2211.34,3046.92c-24.53,0-39.5-8.8-56.88-19
					c-26.79-15.74-60.12-35.32-154.47-35.32s-127.68,19.58-154.47,35.32c-26.44,15.53-47.32,27.8-104.78,10.76
					c-81.82-24.25-93.12-80.34-92.56-111.62c0.3-17.01,6.81-33.28,18.33-45.83c130.83-142.54,304.49-95.7,333.49-86.56
					c29.04-9.16,202.68-55.96,333.49,86.56c11.52,12.55,18.02,28.83,18.32,45.83c0.55,31.28-10.73,87.37-92.56,111.62l0,0
					C2239.55,3044.53,2224.14,3046.92,2211.34,3046.92z M2000,2967.6c101.15,0,139.28,22.4,167.13,38.77
					c24.47,14.38,37.95,22.3,85.01,8.35l0,0c62.66-18.57,75.2-57.67,74.67-87.21c-0.19-10.89-4.36-21.32-11.75-29.37
					c-124.39-135.51-290.93-85.17-309.51-78.98c-3.63,1.21-7.49,1.22-11.13,0c-18.57-6.18-185.11-56.52-309.5,78.99
					c-7.39,8.04-11.56,18.47-11.75,29.37c-0.52,29.54,12.01,68.64,74.67,87.21c47.05,13.95,60.54,6.03,85.01-8.35
					C1860.72,2990,1898.86,2967.6,2000,2967.6z"/>
			</g>
		</g>
		<g>
			<g>
				<path class="st29" d="M2900.2,2021.45c-1.75,19.35-35.75,15.05-49.5,29c-29.6,29.9-45.2,70.95-45.2,113.05v0.6
					c0,0-76.85-170.5-108.75-346.8c-3.45-19.15-6.4-38.4-8.65-57.5c0,0,9.5-2.75,25.55-8.25c37.85-13.05,112.3-41.75,184.55-86.9
					c0,0,3.25,25.15,5.95,68.45C2908.15,1797.05,2910.95,1900.7,2900.2,2021.45z"/>
			</g>
			<g class="st1">
				<path class="st2" d="M2904.15,1733.1c-2.7-43.3-5.95-68.45-5.95-68.45c-16.23,10.14-32.54,19.4-48.55,27.89
					c1.19,11.54,2.94,30.48,4.5,55.56c4,63.95,6.8,167.6-3.95,288.35c-1.75,19.35-35.75,15.05-49.5,29
					c-9.05,9.14-16.78,19.34-23.17,30.28c16.21,42.25,27.96,68.37,27.96,68.37v-0.6c0-42.1,15.6-83.15,45.2-113.05
					c13.75-13.95,47.75-9.65,49.5-29C2910.95,1900.7,2908.15,1797.05,2904.15,1733.1z"/>
			</g>
			<g>
				<path class="st2" d="M2805.48,2181.62c-6.77,0-13.08-3.94-15.95-10.31c-3.9-8.66-95.8-214.27-118.79-409.48
					c-1-8.51,4.31-16.49,12.54-18.86c1.05-0.3,106.23-31.02,205.66-93.16c5.05-3.16,11.37-3.53,16.76-0.98
					c5.39,2.55,9.11,7.66,9.88,13.57c0.2,1.56,20.04,158.52,2.04,360.59c-2.07,23.25-24.52,29.52-37.93,33.27
					c-6.24,1.74-14.01,3.91-16.55,6.48c-25.62,25.89-40.24,62.83-40.14,101.34c0.02,8.26-5.73,15.41-13.8,17.15
					C2807.95,2181.5,2806.71,2181.62,2805.48,2181.62z M2707.33,1772.13c17.09,126.19,63.24,257.66,91.34,329.58
					c8.54-23.97,21.99-45.81,39.58-63.59c9.07-9.17,21.26-12.57,32.02-15.58c4.09-1.14,10-2.8,12.63-4.23
					c13.12-148.81,5.41-272.2,0.74-324.51C2808.99,1736.83,2737.19,1762.41,2707.33,1772.13z"/>
			</g>
		</g>
		<g class="st1">
			<path class="st2" d="M2904.15,1733.1c-53.45,33.5-109.6,56.85-164.5,73c-14.4,4.25-28.75,7.95-42.9,11.2
				c-169.95,39.5-311.21,25.74-311.21,25.74c22.03,25.77,43.23,47.14,60.12,63.02c12.94,12.17,4.91,33.93-12.84,34.75
				c-493.01,22.78-796.96-173.34-883.26-238.16c-13.49-10.13-32.51-7.04-42.36,6.65c-45.25,62.84-115.09,100.39-145.22,114.49
				c-9.2,4.31-15.47,13.05-16.87,23.11c-36.86,263.65-150.79,408-150.79,408l-0.05-0.05v-0.05c0.1-35.05,0.2-66.8,0.25-90.7
				c0,0-2.2-23.95-1.25-63.55c4.45-188.5,80.35-731.6,806.75-731.6c0,0,502.45-14.45,713.65,382.6
				c37.85-13.05,112.3-41.75,184.55-86.9C2898.2,1664.65,2901.45,1689.8,2904.15,1733.1z"/>
		</g>
		<g>
			<g>
				<path class="st29" d="M1194.51,2164.12c0.12-42.31-15.44-83.62-45.19-113.69c-13.76-13.91-30.38-25.38-49.49-29
					c0,0-123.44-832.06,261.84-875.72c19.92-2.26,38.04-12.82,49.72-29.13c49.97-69.8,214.71-249.08,588.62-249.08
					c437.1,0,543.09,170.93,842.03,292.87c52.24,21.31,110.67,24.08,164.14,6.07c37.58-12.66,72.81-35.25,81.69-75.55
					c0,0,62.14,323.04-189.64,573.75c0,0-166.07,167.14-639.64,106.07c-36.27-4.68,72.86,106.07,72.86,106.07
					c-572.14-19.29-818.57-287.68-818.57-287.68c-64.29,123.75-215.36,199.29-215.36,199.29
					C1254.11,2045.54,1194.51,2164.12,1194.51,2164.12L1194.51,2164.12z"/>
			</g>
			<g class="st20">
				<path class="st5" d="M3087.86,1090.89c-8.88,40.3-44.11,62.89-81.69,75.55c-53.37,17.97-111.65,15.32-163.8-5.94
					c-299.19-121.95-405.1-293-842.36-293c-374.01,0-538.74,179.38-588.66,249.14c-11.73,16.39-29.86,26.81-49.89,29.1
					c-244.39,27.9-283.93,373.21-280.22,621.73c3.74-240.65,54.96-535.92,280.11-561.72c20.01-2.29,38.28-12.73,50-29.11
					c49.92-69.76,214.65-249.14,588.66-249.14c54.24,0,103.36,2.64,148.39,7.49c15.43,1.66,28.67,10.91,36.61,24.25
					c21.7,36.46,107.86,90.28,217.83,133.02c109.11,42.4,208.28,60.92,249.52,49.26c11.5-3.25,23.84-1.38,34.34,4.33
					c46.91,25.51,97.22,50.78,154.65,74.24c52.21,21.33,110.32,24.44,163.85,6.67c37.94-12.59,73.7-35.23,82.66-75.87
					c0,0,4.44,23.09,6.14,61.7C3097.11,1139.06,3087.86,1090.89,3087.86,1090.89z"/>
			</g>
			<g>
				<path class="st2" d="M1194.52,2181.62c-1.35,0-2.71-0.16-4.07-0.48c-7.9-1.88-13.46-8.95-13.44-17.07
					c0.11-38.51-14.52-75.45-40.13-101.34c-13.31-13.46-26.88-21.57-40.31-24.11c-7.32-1.38-12.96-7.26-14.06-14.63
					c-3.37-22.74-80.56-559.57,98.17-792.08c46.54-60.55,106.77-95.41,179.01-103.59c15.05-1.71,28.7-9.7,37.46-21.93
					C1452.34,1029.31,1621.56,850,2000,850c307.73,0,457.01,85.27,615.06,175.54c70.3,40.15,142.99,81.67,233.57,118.62
					c49.25,20.09,103.21,22.1,151.94,5.69c40.4-13.61,64.01-34.71,70.19-62.73c1.77-8.03,8.88-13.74,17.09-13.74
					c0.08,0,0.16,0,0.24,0c8.3,0.11,15.38,6.04,16.95,14.19c0.66,3.42,15.9,84.94-0.26,198.63
					c-14.92,104.92-60.72,257.9-194.22,390.83c-6.85,6.9-172.18,167.26-631.6,113.8c14.28,19.31,40.73,49.09,64.93,73.66
					c5.03,5.1,6.44,12.75,3.56,19.31c-2.87,6.56-9.4,10.76-16.61,10.46c-298.84-10.07-508.28-88.79-631.35-153.05
					c-96.26-50.26-155.69-99.08-182.6-123.75c-61.73,100.68-172.7,165.65-203.59,182.38c-43.18,250.88-100.7,367.24-103.15,372.12
					C1207.13,2177.99,1201.01,2181.62,1194.52,2181.62z M1115.61,2007.57c16.05,5.53,31.53,15.76,46.15,30.55
					c17.5,17.69,30.91,39.42,39.45,63.25c21.03-57.82,53.06-162.01,79.03-315.89c0.93-5.5,4.43-10.23,9.42-12.74
					c1.46-0.73,146.83-74.6,207.66-191.7c2.63-5.07,7.57-8.53,13.23-9.28c5.66-0.74,11.33,1.31,15.19,5.51
					c0.59,0.64,62.17,66.52,191.72,133.85c113.6,59.05,303.06,130.72,571.25,146.19c-63.89-69.83-56.78-84.14-52.74-92.29
					c1.63-3.28,8.2-13.83,24.83-11.67c457.4,58.99,623.42-99.49,625.04-101.1c126.24-125.7,169.79-270.4,184.09-369.66
					c7.97-55.31,8.02-103.1,6.15-136.72c-15.83,15.54-37.43,28.08-64.34,37.14c-56.69,19.1-119.32,16.8-176.33-6.45
					c-92.72-37.82-166.43-79.92-237.71-120.64C2437.12,964.21,2298.44,885,2000,885c-362.21,0-522.35,169.08-574.39,241.77
					c-14.51,20.27-37.1,33.51-61.98,36.33c-62.44,7.08-114.65,37.4-155.19,90.12C1052.43,1456.15,1105.42,1928.46,1115.61,2007.57z"
					/>
			</g>
			<g class="st1">
				<path class="st2" d="M2273.67,1772.56c-18.77-23.47-31.12-43.91-15.12-41.86c473.6,61.1,639.65-106.05,639.65-106.05
					c159.11-158.42,192.85-345.69,196.14-462.12c0.2,6.77,0.3,13.95,0.29,21.49c0.12-57.17-6.78-93.11-6.78-93.11
					c-4.75,10.8-9.6,21.4-14.55,31.8c-339.49,720.32-979.27,391.92-1175.49,268.27c-18.52-11.67-40.95,8.06-31.61,27.86
					c42.44,90.01,103.43,166.34,148.03,215.33c15.05,16.53-1.52,42.43-22.85,35.71c-213.99-67.44-370.58-176.96-452.32-243.64
					c-72.07-58.79-178.22-52.36-241.22,16.07c-118.04,128.22-148.16,394.33-154.94,562.12c2.19,1.95,4.36,3.94,6.41,6.03
					c29.75,30.05,45.35,71.35,45.2,113.65c0,0,59.6-118.55,103-375.7c0,0,151.05-75.55,215.35-199.3
					c0,0,235.34,256.19,779.79,285.94c0,0,0,0,0,0c-27.16-30.85-55.12-67.05-34.09-64.34c444.19,57.31,617.83-86.17,637.69-104.21
					C2876.6,1684.33,2706.64,1824.7,2273.67,1772.56z"/>
			</g>
		</g>
		<g>
			<g>
				<g>
					<path class="st2" d="M2000,2244.29c120.62,0,166.79,47.56,166.79,47.56l-41.4-136.39c0,0-43.6-18.32-125.38-18.32
						c-81.79,0-125.38,18.32-125.38,18.32l-41.4,136.39C1833.21,2291.85,1879.38,2244.29,2000,2244.29z"/>
				</g>
				<g class="st30">
					<path class="st5" d="M1841.32,2295.15l33.3-109.69c0,0,43.6-18.32,125.38-18.32s125.38,18.32,125.38,18.32l33.3,109.69
						c5.5,4.04,8.11,6.7,8.11,6.7l-41.4-136.39c0,0-43.6-18.32-125.38-18.32s-125.38,18.32-125.38,18.32l-41.4,136.39
						C1833.22,2301.85,1835.82,2299.19,1841.32,2295.15z"/>
					<path class="st2" d="M2172.13,2310.86l-7.13-7.26c-0.02-0.03-2.57-2.6-7.8-6.44l-0.67-0.49l-33.19-109.33
						c-7.17-2.72-50.02-17.7-123.34-17.7s-116.17,14.98-123.34,17.7l-33.19,109.33l-0.67,0.49c-5.23,3.84-7.78,6.41-7.8,6.44
						l-7.13,7.25l44.7-147.25l1.08-0.45c0.44-0.19,45-18.51,126.35-18.51s125.91,18.33,126.35,18.51l1.08,0.45L2172.13,2310.86z
						 M2160.83,2293.63c0.38,0.28,0.75,0.56,1.1,0.83l-38.59-127.12c-7.17-2.72-50.02-17.7-123.34-17.7s-116.17,14.98-123.34,17.7
						l-38.59,127.12c0.35-0.27,0.72-0.55,1.1-0.83l33.4-110.02l1.08-0.45c0.44-0.19,45-18.51,126.35-18.51
						s125.91,18.33,126.35,18.51l1.08,0.45L2160.83,2293.63z"/>
				</g>
				<g class="st1">
					<path class="st2" d="M2000,2194.29c-77.01,0-123.63,19.38-147.31,33.4l-19.48,64.16c0,0,46.16-47.56,166.79-47.56
						s166.79,47.56,166.79,47.56l-19.48-64.16C2123.63,2213.67,2077.01,2194.29,2000,2194.29z"/>
				</g>
				<g>
					<path class="st2" d="M2166.79,2310.6c-4.94,0-9.83-1.95-13.46-5.69c-0.29-0.28-43.66-41.87-153.33-41.87
						s-153.04,41.59-153.47,42.01c-6.1,6.03-15.59,7.22-22.94,2.78s-10.82-13.22-8.32-21.43l41.4-136.39
						c1.62-5.34,5.53-9.68,10.68-11.84c1.92-0.81,48.05-19.78,132.65-19.78c84.59,0,130.72,18.97,132.64,19.78
						c5.14,2.16,9.06,6.5,10.68,11.84l41.4,136.39c2.51,8.28-0.97,17.2-8.42,21.6C2173.34,2309.75,2170.05,2310.6,2166.79,2310.6z
						 M1889.78,2170.05l-24.35,80.23c28.95-12.66,72.77-24.74,134.57-24.74c61.8,0,105.62,12.08,134.57,24.74l-24.36-80.23
						c-15.41-4.76-53.05-14.15-110.21-14.15C1942.87,2155.89,1905.24,2165.27,1889.78,2170.05z"/>
				</g>
			</g>
			<g>
				<g>
					<path class="st2" d="M2679.03,2077.34c-84.73-22.9-319.04-67.06-550.28,61.41c0,0-101.25,393.85,382.5,393.75
						c0,0,299.44,17.68,208.39-412.2C2715.24,2099.51,2699.54,2082.89,2679.03,2077.34z"/>
				</g>
				<g class="st1">
					<g>
						<path class="st31" d="M2513.44,2457.5c0,0,205.45,12.13,224.25-228.03c21.83,317.55-224.25,303.03-224.25,303.03
							c-382.38,0.08-399.24-245.94-389.52-349.07C2135.22,2299.3,2206.75,2457.56,2513.44,2457.5z"/>
					</g>
					<g>
						<path class="st2" d="M2517.67,2535.08c-2.73,0-4.27-0.08-4.38-0.09c-0.07,0-0.15,0-0.22,0
							c-147.4,0-255.56-36.64-321.34-108.89c-73.48-80.72-75.58-186.84-70.3-242.91l4.98-0.01c12.09,124,89.04,271.81,386.84,271.81
							c0.07,0,0.12,0,0.19,0l0.15,0c0.51,0.03,51.48,2.67,103.99-23.79c48.35-24.35,108-79.16,117.61-201.94l4.99,0.02
							c7.46,108.54-15.31,190.38-67.7,243.27C2614.37,2531.26,2536.79,2535.08,2517.67,2535.08z M2513.44,2530
							c1.04,0.06,90.74,4.48,155.54-60.99c46.19-46.67,68.85-116.64,67.53-208.24c-33.1,206.2-218.22,199.45-223.13,199.23
							c-0.04,0-0.09,0-0.13,0c-137.07,0-240.37-31.7-307.05-94.23c-43.26-40.57-70.56-93.14-81.36-156.56
							c-1.73,58.13,8.39,145.21,70.6,213.54c64.79,71.17,171.73,107.26,317.82,107.26C2513.32,2530,2513.37,2530,2513.44,2530z"/>
					</g>
				</g>
				<g class="st30">
					<g>
						<path class="st5" d="M2130.94,2138.75c231.23-128.46,465.55-84.3,550.28-61.41c16.91,4.57,30.43,16.73,37.17,32.49
							c-2.32-0.98-4.7-1.82-7.17-2.49c-80.92-21.87-298.28-63.13-519.08,45.11c-20.54,10.07-34.72,29.87-37.34,52.59
							c-6.29,54.56-6.93,160.11,62.72,242.43C2081.38,2331.71,2130.94,2138.75,2130.94,2138.75z"/>
					</g>
					<g>
						<path class="st2" d="M2215.9,2449.37c-135.77-115.44-87.88-309.3-87.39-311.25l0.27-1.04l0.94-0.52
							c230.44-128.02,462.9-85.75,552.14-61.64c17.47,4.72,31.62,17.09,38.82,33.92l2.43,5.69l-5.71-2.41
							c-2.3-0.97-4.61-1.77-6.85-2.38c-82.5-22.29-298.06-62.54-517.33,44.94c-19.99,9.8-33.43,28.73-35.96,50.63
							c-6.33,54.91-6.68,159.18,62.15,240.53L2215.9,2449.37z M2133.11,2140.4c-3.36,14.41-37.61,174.56,64.26,284.34
							c-51.7-78.25-50.88-169.61-45.06-219.99c2.72-23.61,17.2-44,38.72-54.55c220.79-108.23,437.79-67.72,520.83-45.28
							c0.51,0.14,1.02,0.29,1.54,0.44c-7.11-12.62-18.8-21.82-32.84-25.61C2592.03,2055.83,2361.64,2013.92,2133.11,2140.4z"/>
					</g>
				</g>
				<g>
					<path class="st2" d="M2516.52,2550.12c-2.79,0-4.74-0.07-5.72-0.12c-162.71-0.05-279.15-43.85-346.12-130.19
						c-93.75-120.87-54.59-278.76-52.88-285.42c1.2-4.65,4.25-8.61,8.45-10.94c235.24-130.69,472.33-87.6,563.34-63c0,0,0,0,0,0
						c26.99,7.3,47.37,28.84,53.16,56.23c34.11,161.03,18.75,280.62-45.63,355.44C2628.59,2544.8,2540.81,2550.12,2516.52,2550.12z
						 M2511.25,2515c0.34,0,0.69,0.01,1.03,0.03c0.88,0.07,92.48,4.15,152.61-66.08c56.63-66.15,69.29-175.51,37.63-325.02
						c-3.06-14.46-13.82-25.84-28.06-29.69c-85.99-23.24-308.54-63.82-530.3,56.02c-6.05,30.82-24.4,154.76,48.36,248.33
						c60.06,77.24,167.24,116.41,318.54,116.41C2511.13,2515,2511.23,2515.02,2511.25,2515z"/>
				</g>
				<g class="st10">
					<g>
						<path class="st5" d="M2315.65,2274.74c5.99-12.55,13.53-23.58,21.5-34.19c8.06-10.52,16.74-20.44,25.92-29.86
							c9.17-9.43,18.87-18.35,29.38-26.47c10.51-8.12,21.59-15.68,34.43-21.52c0.24-0.11,0.52,0,0.63,0.23
							c0.06,0.13,0.05,0.26,0,0.38c-5.58,12.95-12.91,24.18-20.82,34.85c-7.91,10.67-16.63,20.54-25.88,29.9
							c-9.24,9.37-18.98,18.24-29.33,26.51c-10.45,8.18-21.33,15.94-33.75,22.18c-0.75,0.38-1.67,0.08-2.05-0.68
							C2315.45,2275.65,2315.46,2275.15,2315.65,2274.74z"/>
					</g>
					<g>
						<path class="st5" d="M2455.31,2396.98c5.99-12.55,13.53-23.58,21.5-34.19c8.06-10.52,16.74-20.44,25.92-29.86
							c9.17-9.43,18.87-18.35,29.38-26.47s21.59-15.68,34.43-21.52c0.24-0.11,0.52,0,0.63,0.23c0.06,0.13,0.05,0.27,0,0.38
							c-5.58,12.95-12.91,24.18-20.82,34.85c-7.91,10.67-16.63,20.54-25.88,29.9c-9.24,9.37-18.98,18.24-29.33,26.51
							c-10.45,8.18-21.33,15.94-33.75,22.19c-0.76,0.38-1.68,0.08-2.06-0.68C2455.1,2397.89,2455.12,2397.39,2455.31,2396.98z"/>
					</g>
					<g>
						<path class="st5" d="M2354.07,2363.73c9.69-19.54,21.72-36.77,34.47-53.31c12.84-16.45,26.6-31.99,41.16-46.76
							c14.56-14.77,29.92-28.74,46.21-41.81c16.38-12.98,33.47-25.26,52.93-35.22c-9.57,19.65-21.5,36.99-34.15,53.63
							c-12.74,16.55-26.4,32.19-40.87,47.04c-14.47,14.85-29.74,28.92-45.92,42.09c-16.28,13.08-33.27,25.46-52.61,35.53
							c-0.44,0.23-0.98,0.06-1.21-0.38C2353.94,2364.28,2353.95,2363.97,2354.07,2363.73z"/>
					</g>
				</g>
			</g>
			<g>
				<g>
					<path class="st2" d="M1318.78,2077.34c84.73-22.9,319.04-67.06,550.28,61.41c0,0,101.25,393.85-382.5,393.75
						c0,0-299.44,17.68-208.39-412.2C1282.57,2099.51,1298.27,2082.89,1318.78,2077.34z"/>
				</g>
				<g class="st1">
					<path class="st2" d="M1486.56,2457.5c0,0-205.45,12.13-224.25-228.03c-21.83,317.55,224.25,303.03,224.25,303.03
						c382.38,0.08,399.24-245.94,389.52-349.07C1864.78,2299.3,1793.25,2457.56,1486.56,2457.5z"/>
				</g>
				<g class="st30">
					<g>
						<path class="st5" d="M1869.06,2138.75c-231.23-128.46-465.55-84.3-550.28-61.41c-16.91,4.57-30.43,16.73-37.17,32.49
							c2.32-0.97,4.7-1.82,7.17-2.49c80.92-21.87,298.28-63.13,519.08,45.11c20.54,10.07,34.72,29.87,37.34,52.59
							c6.3,54.56,6.93,160.11-62.72,242.43C1918.62,2331.71,1869.06,2138.75,1869.06,2138.75z"/>
					</g>
					<g>
						<path class="st2" d="M1784.1,2449.37l-3.53-3.52c68.83-81.35,68.48-185.62,62.15-240.53c-2.53-21.9-15.97-40.83-35.96-50.63
							c-219.26-107.48-434.83-67.23-517.33-44.94c-2.24,0.6-4.54,1.4-6.85,2.38l-5.7,2.4l2.43-5.69
							c7.2-16.83,21.35-29.19,38.82-33.92c89.25-24.12,321.7-66.39,552.14,61.64l0.94,0.52l0.27,1.04
							C1871.98,2140.07,1919.86,2333.94,1784.1,2449.37z M1491.8,2078.55c93.28,0,204.72,16.54,317.16,71.66
							c21.52,10.55,36,30.94,38.72,54.55c5.81,50.38,6.64,141.74-45.06,219.99c101.88-109.78,67.62-269.92,64.26-284.34
							c-228.53-126.48-458.92-84.57-547.45-60.64c-14.04,3.79-25.73,12.99-32.84,25.61c0.52-0.16,1.03-0.3,1.54-0.44
							C1328.88,2093.92,1401.92,2078.55,1491.8,2078.55z"/>
					</g>
				</g>
				<g>
					<path class="st2" d="M1481.29,2550.12c-24.28,0-112.06-5.31-174.61-78c-64.38-74.82-79.74-194.41-45.63-355.44
						c5.8-27.38,26.17-48.93,53.17-56.23l0,0c91.02-24.59,328.1-67.69,563.34,63c4.2,2.33,7.25,6.29,8.45,10.94
						c1.71,6.66,40.87,164.55-52.88,285.42c-66.96,86.34-183.43,130.13-346.12,130.19
						C1486.03,2550.05,1484.07,2550.12,1481.29,2550.12z M1323.35,2094.24c-14.25,3.85-25,15.22-28.06,29.69
						c-31.67,149.51-19.01,258.87,37.63,325.02c60.12,70.23,151.73,66.14,152.66,66.08c0.31-0.02,0.44-0.09,0.99-0.03
						c0.05,0,0.13,0,0.19,0c151.32,0,258.48-39.16,318.54-116.41c72.75-93.56,54.41-217.48,48.36-248.33
						C1631.87,2030.42,1409.35,2071,1323.35,2094.24L1323.35,2094.24z"/>
				</g>
				<g class="st10">
					<g>
						<path class="st5" d="M1418.03,2274.38c4.8-13.72,11.81-25.26,19.31-36.33c7.65-10.92,16.14-21.02,25.31-30.46
							c9.16-9.44,19.03-18.19,30-25.86c10.97-7.67,22.73-14.57,36.86-19.13c0.36-0.11,0.74,0.08,0.85,0.44
							c0.04,0.14,0.04,0.28,0,0.4c-4.28,14.22-10.95,26.11-18.39,37.24c-7.44,11.12-15.99,21.16-25.25,30.51
							c-9.25,9.36-19.18,18.04-29.95,25.91c-10.92,7.72-22.32,14.97-35.94,20.04c-1.12,0.42-2.37-0.15-2.79-1.28
							C1417.86,2275.36,1417.87,2274.84,1418.03,2274.38z"/>
					</g>
					<g>
						<path class="st5" d="M1557.69,2396.62c4.8-13.72,11.81-25.26,19.31-36.33c7.65-10.92,16.14-21.03,25.31-30.46
							c9.16-9.44,19.03-18.19,30-25.86c10.97-7.67,22.73-14.57,36.86-19.13c0.36-0.11,0.74,0.08,0.85,0.43
							c0.04,0.14,0.04,0.28,0,0.4c-4.28,14.22-10.95,26.11-18.39,37.24c-7.44,11.13-15.99,21.16-25.25,30.51
							c-9.25,9.36-19.18,18.04-29.95,25.91c-10.92,7.72-22.32,14.97-35.94,20.04c-1.12,0.42-2.37-0.15-2.79-1.28
							C1557.52,2397.6,1557.53,2397.08,1557.69,2396.62z"/>
					</g>
					<g>
						<path class="st5" d="M1456.82,2363.73c9.69-19.54,21.72-36.77,34.47-53.31c12.84-16.45,26.6-31.99,41.16-46.76
							c14.56-14.77,29.92-28.74,46.21-41.81c16.38-12.98,33.47-25.26,52.93-35.22c-9.57,19.65-21.5,36.99-34.15,53.63
							c-12.74,16.55-26.4,32.19-40.87,47.04c-14.47,14.85-29.74,28.92-45.92,42.09c-16.28,13.08-33.27,25.46-52.61,35.53
							c-0.44,0.23-0.98,0.06-1.21-0.38C1456.69,2364.28,1456.7,2363.97,1456.82,2363.73z"/>
					</g>
				</g>
			</g>
		</g>
	</g>
	<g class="st1">
		<g>
			<ellipse class="st2" cx="2000" cy="3645.83" rx="788.64" ry="77.5"/>
		</g>
	</g>
	<g>
		<polygon class="st2" points="1175,2055 1287.56,2030.36 1260,2150 1180,2170 		"/>
	</g>
	<g>
		<polygon class="st2" points="2830,2055 2710,2030.36 2737.56,2150 2817.56,2170 		"/>
	</g>
</g>
</svg>
