<?xml version="1.0" encoding="utf-8"?>
<!-- Generator: Adobe Illustrator 24.3.0, SVG Export Plug-In . SVG Version: 6.00 Build 0)  -->
<svg version="1.1" id="Layer_1" xmlns="http://www.w3.org/2000/svg" xmlns:xlink="http://www.w3.org/1999/xlink" x="0px" y="0px"
	 viewBox="0 0 4000 4000" style="enable-background:new 0 0 4000 4000;" xml:space="preserve">
<style type="text/css">
	.st0{fill:#6CEFE6;}
	.st1{opacity:0.3;}
	.st2{fill:#102770;}
	.st3{fill:#418BF9;}
	.st4{opacity:0.55;}
	.st5{fill:#FFFFFF;}
	.st6{fill:#F43F08;}
	.st7{fill:#FAC100;}
	.st8{opacity:0.25;}
	.st9{fill:#3CCE54;}
	.st10{opacity:0.4;}
	.st11{fill:#00EDF9;}
	.st12{fill:#6C7A89;}
	.st13{fill:#B7BDCE;}
	.st14{fill:#263069;}
	.st15{fill:#959AAF;}
	.st16{fill:#27B5FC;}
	.st17{opacity:0.15;}
	.st18{fill:#FFD553;}
	.st19{fill:#FFB602;}
	.st20{opacity:0.6;}
	.st21{fill:#0BCBFF;}
	.st22{fill:url(#SVGID_1_);}
	.st23{fill:#F7710D;}
	.st24{fill:#01D3EC;}
	.st25{opacity:0.3;fill:#FFFFFF;}
	.st26{fill:#02DAFF;}
	.st27{fill:#FFD199;}
	.st28{fill:none;}
	.st29{fill:#4F4F70;}
	.st30{opacity:0.7;}
	.st31{fill:#000072;}
	.st32{fill:#5377FF;}
	.st33{fill:#7D8BB7;}
	.st34{fill:#F2355D;}
	.st35{fill:#9BAAE0;}
	.st36{fill:#262F6A;}
	.st37{fill:#FEB702;}
	.st38{opacity:0.65;}
	.st39{fill:#BFBFBF;}
	.st40{opacity:0.26;}
	.st41{opacity:0.75;}
	.st42{fill:#525F93;}
	.st43{opacity:0.2;}
	.st44{opacity:0.4;fill:url(#SVGID_2_);}
	.st45{opacity:0.4;fill:url(#SVGID_3_);}
	.st46{opacity:0.4;fill:url(#SVGID_4_);}
	.st47{opacity:0.4;fill:url(#SVGID_5_);}
	.st48{opacity:0.4;fill:url(#SVGID_6_);}
	.st49{opacity:0.4;fill:url(#SVGID_7_);}
	.st50{opacity:0.4;fill:url(#SVGID_8_);}
	.st51{opacity:0.3;fill:#102770;}
	.st52{fill:#1CDB7C;}
	.st53{opacity:0.55;fill:url(#SVGID_9_);}
	.st54{opacity:0.55;fill:url(#SVGID_10_);}
	.st55{opacity:0.55;fill:url(#SVGID_11_);}
	.st56{opacity:0.55;fill:url(#SVGID_12_);}
	.st57{fill:#DC9AFE;}
	.st58{opacity:0.4;fill:url(#SVGID_13_);}
	.st59{opacity:0.4;fill:url(#SVGID_14_);}
	.st60{opacity:0.55;fill:url(#SVGID_15_);}
	.st61{opacity:0.55;fill:url(#SVGID_16_);}
	.st62{opacity:0.55;fill:url(#SVGID_17_);}
	.st63{opacity:0.55;fill:url(#SVGID_18_);}
	.st64{opacity:0.55;fill:url(#SVGID_19_);}
	.st65{opacity:0.55;fill:url(#SVGID_20_);}
	.st66{fill:#FDD301;}
	.st67{fill:#FFCCBC;}
	.st68{fill:#C5CDE2;}
	.st69{opacity:0.4;fill:url(#SVGID_21_);}
	.st70{opacity:0.4;fill:url(#SVGID_22_);}
	.st71{opacity:0.55;fill:url(#SVGID_23_);}
	.st72{opacity:0.55;fill:url(#SVGID_24_);}
	.st73{opacity:0.55;fill:url(#SVGID_25_);}
	.st74{opacity:0.55;fill:url(#SVGID_26_);}
	.st75{opacity:0.55;fill:url(#SVGID_27_);}
	.st76{opacity:0.55;fill:url(#SVGID_28_);}
	.st77{fill:#66FEFF;}
</style>
<g>
	<g>
		<g>
			<rect class="st5" width="4000" height="4000"/>
		</g>
	</g>
	<g>
		<g>
			<circle class="st26" cx="2000" cy="1966.45" r="1116.45"/>
		</g>
	</g>
	<g class="st1">
		<g>
			<ellipse class="st2" cx="2000" cy="3485.83" rx="788.64" ry="77.5"/>
		</g>
	</g>
	<g>
		<g>
			<g>
				<g>
					<path class="st34" d="M2228.81,2590.99l-828.18,340.82c-83.6,34.4-179.26-5.48-213.66-89.08l-133.9-325.36
						c-11.07-26.91,1.76-57.69,28.67-68.76l1033.48-425.31c26.91-11.07,57.69,1.76,68.77,28.67l133.9,325.36
						C2352.29,2460.93,2312.41,2556.59,2228.81,2590.99z"/>
				</g>
			</g>
			<g class="st8">
				<g>
					
						<rect x="1335.19" y="2334.53" transform="matrix(0.9248 -0.3806 0.3806 0.9248 -890.0767 735.6053)" class="st5" width="159.92" height="568.2"/>
				</g>
			</g>
			<g class="st1">
				<g>
					<path class="st2" d="M2184,2051.95l133.91,325.39c34.39,83.57-5.51,179.27-89.08,213.66l-200.49,82.51
						c83.62-34.41,123.47-130.1,89.08-213.66l-133.91-325.39c-11.06-26.88-41.81-39.74-68.74-28.66l200.43-82.49
						C2142.14,2012.23,2172.94,2025.07,2184,2051.95z"/>
				</g>
			</g>
			<g class="st4">
				<g>
					<path class="st5" d="M2183.99,2051.97c-11.07-26.9-41.86-39.74-68.76-28.67l-975.23,401.34c0.01,0,0.01,0,0.02-0.01
						l-52.2,21.48c0,0-0.01,0-0.01,0l-6.06,2.5c-26.9,11.08-39.74,41.86-28.67,68.77l133.89,325.35
						c8.23,19.99,19.99,37.45,34.22,52.02c-5.46-8.41-10.26-17.41-14.22-27.02l-1.12-2.71c41.56,66.31,126.02,95.1,200.88,64.3
						l52.2-21.48c-83.62,34.41-179.27-5.51-213.66-89.07l-133.91-325.39c-0.03-0.07-0.06-0.15-0.09-0.22
						c-4.56-11.23,1.37-24.03,12.58-28.64l1011.38-416.22c16.83-6.92,35.17-4.5,49.26,4.87L2183.99,2051.97z"/>
				</g>
			</g>
			<g>
				<g>
					<path class="st2" d="M1338.33,2961.16c-23.55,0-47.1-4.67-69.5-14c-44.53-18.56-79.17-53.36-97.53-97.97l-133.89-325.36
						c-14.61-35.49,2.39-76.26,37.88-90.87l1033.49-425.31c17.19-7.08,36.11-7.04,53.28,0.12c17.16,7.15,30.51,20.57,37.59,37.76
						l133.89,325.36c18.36,44.61,18.25,93.71-0.32,138.24c-18.56,44.53-53.36,79.17-97.97,97.52l0,0l-828.18,340.83
						C1384.9,2956.6,1361.61,2961.16,1338.33,2961.16z M2135.28,2036.25c-4.61,0-9.21,0.9-13.6,2.71l-1033.49,425.31
						c-18.23,7.5-26.95,28.43-19.45,46.66l133.89,325.36c14.92,36.25,43.06,64.52,79.24,79.6c36.18,15.09,76.07,15.18,112.32,0.26
						l828.18-340.83l6.45,15.66l-6.45-15.66c36.25-14.92,64.52-43.06,79.6-79.24c15.08-36.18,15.18-76.07,0.26-112.32
						l-133.89-325.36c-3.63-8.83-10.49-15.72-19.3-19.39C2144.6,2037.18,2139.94,2036.25,2135.28,2036.25z"/>
				</g>
			</g>
			<g>
				<g>
					<g>
						<path class="st5" d="M1888.68,1937.52l-738.58,303.95c-6.03-131.37,118.17-200.37,255.78-265.54
							c133.51-63.12,279.61-122.64,331.59-231.86C1737.47,1744.07,1885.88,1797.25,1888.68,1937.52z"/>
					</g>
				</g>
				<g>
					<g>
						<path class="st2" d="M1147.77,2245.13l-0.16-3.55c-6.06-132.05,118.21-202.08,257.2-267.92
							c12.29-5.81,24.68-11.59,37.09-17.37c121.19-56.51,246.5-114.94,293.31-213.3l0.97-2.04l2.13,0.76
							c1.5,0.54,150.07,55.39,152.87,195.76l0.03,1.71l-1.58,0.65L1147.77,2245.13z M1738.72,1747.23
							c-48.33,98.72-173.57,157.11-294.71,213.59c-12.4,5.79-24.79,11.56-37.06,17.36c-136.15,64.48-258,132.9-254.48,259.6
							l733.67-301.93C1882.5,1809.23,1756.6,1754.38,1738.72,1747.23z"/>
					</g>
				</g>
			</g>
			<g>
				<g>
					<g>
						<path class="st34" d="M1112.69,2256.85l845.58-347.98c28.83-11.86,61.81,1.89,73.68,30.72l41.53,100.91l-949.97,390.95
							l-41.53-100.91C1070.11,2301.7,1083.86,2268.71,1112.69,2256.85z"/>
					</g>
				</g>
				<g>
					<g>
						<path class="st2" d="M1122.14,2434.7l-42.48-103.22c-12.37-30.05,2.02-64.57,32.08-76.94l845.58-347.98
							c14.56-6,30.58-5.96,45.11,0.1c14.53,6.05,25.83,17.41,31.83,31.97l42.48,103.23l-2.31,0.95L1122.14,2434.7z M1113.64,2259.16
							c-27.5,11.32-40.67,42.91-29.36,70.42l40.58,98.6l945.35-389.05l-40.58-98.6c-5.48-13.33-15.83-23.72-29.13-29.26
							c-13.3-5.55-27.96-5.58-41.28-0.1L1113.64,2259.16z"/>
					</g>
				</g>
			</g>
			<g class="st8">
				<g>
					
						<rect x="1225.67" y="2196.56" transform="matrix(0.9248 -0.3806 0.3806 0.9248 -771.4658 656.9399)" class="st5" width="99.72" height="165.57"/>
				</g>
			</g>
			<g class="st1">
				<g>
					<path class="st2" d="M2031.93,1939.6l41.52,100.9l-156.95,64.59l-41.52-100.9c-11.88-28.86-44.81-42.59-73.68-30.72
						l156.95-64.59C1987.12,1897.01,2020.05,1910.74,2031.93,1939.6z"/>
				</g>
			</g>
			<g class="st4">
				<g>
					<path class="st5" d="M2031.94,1939.58c-11.86-28.83-44.85-42.58-73.68-30.72l-845.58,347.98
						c-28.83,11.86-42.58,44.85-30.72,73.68l41.53,100.91l4.03-1.66l-30.56-74.26c-1.55-3.76-2.64-7.59-3.34-11.44l35.07,85.21
						l52.2-21.48l-41.52-100.9c-1.09-2.66-1.97-5.35-2.63-8.05c-2.7-11,3.64-22.25,14.12-26.56l822.4-338.44
						c21.69-8.93,45.74-3.34,61.37,12.26L2031.94,1939.58z"/>
				</g>
			</g>
			<g>
				<g>
					<path class="st2" d="M1123.5,2448.37c-2.22,0-4.43-0.43-6.52-1.3c-4.15-1.73-7.43-5.03-9.14-9.18l-41.53-100.91
						c-15.4-37.42,2.52-80.38,39.93-95.78l0,0l845.58-347.98c18.13-7.45,38.07-7.41,56.16,0.13c18.09,7.54,32.16,21.68,39.62,39.8
						l41.53,100.91c3.56,8.65-0.57,18.54-9.21,22.1l-949.97,390.95C1127.88,2447.94,1125.69,2448.37,1123.5,2448.37z
						 M1119.13,2272.5c-20.15,8.29-29.79,31.43-21.5,51.57l35.08,85.25l918.65-378.06l-35.09-85.25
						c-4.02-9.76-11.59-17.37-21.33-21.43c-9.75-4.06-20.48-4.09-30.24-0.07L1119.13,2272.5L1119.13,2272.5z"/>
				</g>
			</g>
			<g>
				<g>
					<path class="st2" d="M1150.08,2258.38c-9,0-16.49-7.08-16.9-16.16c-7.1-154.45,150.43-227.96,302.77-299.06
						c118.78-55.43,241.6-112.74,286.2-206.4c3.74-7.85,12.81-11.59,21-8.66c6.51,2.33,159.47,58.86,162.45,209.06
						c0.19,9.35-7.24,17.08-16.59,17.27c-9.33,0.39-17.08-7.24-17.27-16.59c-2.07-104.12-91.61-155.88-126.51-172.13
						c-54.33,95.84-176.57,152.9-294.96,208.15c-148.78,69.43-289.31,135.01-283.26,266.81c0.43,9.34-6.79,17.26-16.14,17.69
						C1150.61,2258.38,1150.34,2258.38,1150.08,2258.38z"/>
				</g>
			</g>
			<g class="st1">
				<g>
					<path class="st2" d="M1672.79,2026.36l-522.69,215.11c-6.03-131.37,118.17-200.37,255.78-265.54l4.87,1.6
						C1410.75,1977.52,1487.36,2087.6,1672.79,2026.36z"/>
				</g>
			</g>
			<g>
				<g>
					<path class="st32" d="M1527.94,1206.38l85.26,67.44c19.79,15.65,23.1,44.4,7.49,64.14L918.63,2225.5
						c-15.65,19.79-44.35,23.14-64.14,7.48l-85.26-67.44c-46.04-36.42-53.84-103.25-17.42-149.29l626.8-792.4
						C1415.02,1177.8,1481.9,1169.96,1527.94,1206.38z"/>
				</g>
			</g>
			<g class="st1">
				<g>
					<g>
						<path class="st36" d="M1527.94,1206.38l85.26,67.44c19.79,15.65,23.1,44.4,7.49,64.14l-163.42,206.6
							c15.65-19.79,12.3-48.49-7.48-64.14l-85.26-67.44c-46.04-36.42-112.88-28.62-149.29,17.42l163.39-206.56
							C1415.02,1177.8,1481.9,1169.96,1527.94,1206.38z"/>
					</g>
				</g>
				<g>
					<g>
						<path class="st2" d="M1459.22,1546.11l-3.92-3.11l0.02-0.02c7.14-9.04,10.34-20.32,9.01-31.76
							c-1.34-11.45-7.06-21.69-16.1-28.85l-85.26-67.44c-44.89-35.51-110.29-27.88-145.78,17.01l-3.92-3.11
							c0.02-0.02,0.03-0.04,0.05-0.06l163.33-206.49c18.03-22.79,43.85-37.21,72.72-40.59c28.88-3.37,57.33,4.69,80.11,22.71
							l85.26,67.44c10.09,7.98,16.47,19.42,17.95,32.21c1.48,12.78-2.09,25.37-10.06,35.44l-163.39,206.56
							C1459.24,1546.08,1459.23,1546.1,1459.22,1546.11z M1298.69,1387.6c23.64,0,47.43,7.65,67.37,23.42l85.26,67.44
							c10.1,7.99,16.47,19.42,17.97,32.19c0.62,5.27,0.37,10.51-0.7,15.55l150.13-189.79c7.14-9.03,10.34-20.31,9.01-31.76
							c-1.33-11.46-7.05-21.71-16.09-28.86l-85.26-67.44c-44.89-35.5-110.3-27.86-145.82,17.06l-143.14,180.96
							C1255.67,1393.97,1277.12,1387.6,1298.69,1387.6z"/>
					</g>
				</g>
			</g>
			<g class="st8">
				<g>
					
						<rect x="904.69" y="1799.27" transform="matrix(0.6204 -0.7843 0.7843 0.6204 -1138.8776 1506.2242)" class="st5" width="163.67" height="260.66"/>
				</g>
			</g>
			<g class="st4">
				<g>
					<path class="st5" d="M1613.2,1273.82l-85.26-67.44c-46.04-36.42-112.91-28.57-149.33,17.47l-626.8,792.4
						c-2.22,2.81-4.27,5.71-6.17,8.66c-0.66,1.03-1.2,2.09-1.81,3.13c-1.16,1.96-2.34,3.9-3.37,5.91c-0.68,1.32-1.23,2.68-1.84,4.02
						c-0.81,1.77-1.65,3.52-2.36,5.31c-0.6,1.53-1.08,3.08-1.6,4.62c-0.56,1.65-1.15,3.28-1.63,4.95c-0.49,1.69-0.85,3.4-1.25,5.1
						c-0.36,1.54-0.74,3.06-1.03,4.6c-0.35,1.85-0.58,3.7-0.83,5.56c-0.19,1.41-0.4,2.81-0.52,4.23c-0.18,2-0.26,3.99-0.33,5.99
						c-0.04,1.27-0.1,2.53-0.1,3.79c0,2.14,0.1,4.27,0.23,6.4c0.07,1.11,0.13,2.22,0.23,3.33c0.21,2.26,0.51,4.51,0.86,6.75
						c0.15,0.95,0.29,1.89,0.47,2.84c0.44,2.37,0.96,4.72,1.56,7.06c0.2,0.79,0.4,1.57,0.62,2.35c0.69,2.46,1.46,4.88,2.33,7.29
						c0.23,0.62,0.46,1.25,0.69,1.87c0.96,2.51,2,4.99,3.15,7.44c0.23,0.48,0.46,0.95,0.7,1.43c1.24,2.54,2.58,5.04,4.03,7.49
						c0.2,0.34,0.42,0.68,0.63,1.02c1.55,2.54,3.19,5.03,4.96,7.45c0.16,0.21,0.32,0.42,0.48,0.63c1.86,2.51,3.83,4.95,5.94,7.31
						c0.09,0.1,0.19,0.2,0.28,0.3c3.98,4.43,8.28,8.64,13.11,12.46l85.26,67.44c19.78,15.65,48.49,12.29,64.14-7.48l42.02-53.12
						c-15.65,19.79-44.35,23.14-64.14,7.48l-85.26-67.44c-0.51-0.32-1.02-0.65-1.52-0.97c-33.18-21.59-59.73-46.44-15.69-98.3
						l604.57-764.3c36.42-46.04,103.29-53.88,149.33-17.47l80.03,63.31C1625.22,1286.73,1620.29,1279.43,1613.2,1273.82z"/>
				</g>
			</g>
			<g>
				<g>
					<path class="st2" d="M882.69,2259.77c-14.02,0-27.55-4.68-38.71-13.51l-85.25-67.43c-53.29-42.15-62.35-119.81-20.2-173.1
						l626.8-792.41c42.16-53.3,119.81-62.36,173.11-20.2l85.25,67.43c13.11,10.37,21.4,25.23,23.34,41.84
						c1.94,16.61-2.71,32.98-13.08,46.09L931.91,2236c-10.37,13.12-25.23,21.41-41.84,23.34
						C887.6,2259.63,885.14,2259.77,882.69,2259.77z M1462.08,1200.44c-26.41,0-52.57,11.62-70.18,33.89l-626.8,792.41
						c-30.57,38.65-24,94.96,14.65,125.53l85.25,67.43c6.02,4.76,13.54,6.88,21.15,6.01c7.62-0.89,14.44-4.7,19.2-10.71
						l702.04-887.51l0,0c4.76-6.02,6.89-13.54,6.01-21.16c-0.89-7.62-4.69-14.44-10.72-19.2l-85.25-67.43
						C1501.05,1206.73,1481.5,1200.44,1462.08,1200.44z"/>
				</g>
			</g>
		</g>
		<g>
			<g>
				<g>
					<path class="st34" d="M3075.81,1781.58l48.42-100.79c12.91-26.86-21.64-72.52-84.12-118.69
						c-33.31-24.64-74.57-49.41-120.82-71.63c-132.99-63.89-256.91-82.28-276.71-41.07l-48.42,100.79
						c9.34-19.43,41.81-25.63,87.51-20.01c51.17,6.24,118.93,27.33,189.19,61.09c46.25,22.22,87.49,47.04,120.82,71.63
						c17.32,12.83,32.54,25.59,45.16,37.91C3069.7,1732.92,3085.15,1762.14,3075.81,1781.58z"/>
				</g>
			</g>
			<g class="st4">
				<g>
					<path class="st5" d="M2711.8,1427.73c-36.01-1.96-61.17,4.93-69.21,21.67l-48.42,100.79c7.55-15.72,30.16-22.77,62.69-21.92
						l41.97-87.35C2701.42,1435.51,2705.84,1431.13,2711.8,1427.73z"/>
				</g>
			</g>
			<g>
				<g>
					<path class="st32" d="M2970.51,1842.14l105.3-60.56c9.34-19.43-6.12-48.65-38.97-80.78c-12.62-12.32-27.84-25.08-45.16-37.91
						c-33.33-24.59-74.57-49.41-120.82-71.63c-70.26-33.75-138.02-54.85-189.19-61.09c-45.71-5.62-78.18,0.58-87.51,20.01
						l18.53,120.05c-152.91,87.84-245.08,301.06-241.65,495.95c69.26-18.76,189.18,21.5,274.33,79.38
						c42.21,28.67,75.85,61.61,90.57,93.92C2889.38,2220.2,2997.39,2015.85,2970.51,1842.14z"/>
				</g>
			</g>
			<g class="st4">
				<g>
					<path class="st5" d="M2892.65,1602.09c-7.13-3.67-14.4-7.3-21.78-10.84c-70.26-33.75-138.02-54.85-189.19-61.09
						c-45.71-5.62-78.18,0.58-87.51,20.01l18.53,120.05c-152.91,87.84-245.08,301.06-241.65,495.95c13.1-3.54,28.07-4.99,44.23-4.61
						c4.45-178.84,87.05-367.59,221.38-457.62c12.26-8.22,18.55-22.87,16.3-37.46l-14.68-95.12c9.34-19.43,41.81-25.63,87.51-20.01
						C2771.52,1556.92,2830.47,1574.35,2892.65,1602.09z"/>
				</g>
			</g>
			<g>
				<g>
					<path class="st34" d="M2735.96,2339.49c-44.4-97.35-261.31-201.37-364.91-173.31c-34.41,9.33-56.33,33.18-55.24,76.66
						c4.23-8.8,14.44-14.16,29.25-16.32c40.88-5.85,116.38,12.7,196.1,51.01c79.67,38.28,141.39,85.65,162.32,121.19
						c7.63,12.93,9.82,24.26,5.6,33.06C2746.11,2405.54,2751.2,2372.92,2735.96,2339.49z"/>
				</g>
			</g>
			<g class="st4">
				<g>
					<path class="st5" d="M2537.56,2189.38c-61.39-23.8-123.62-34.78-166.51-23.2c-34.41,9.33-56.33,33.18-55.24,76.66
						c4.23-8.8,14.44-14.16,29.25-16.32c3.9-0.57,8.06-0.88,12.58-1.03c7.59-24.66,26.11-39.37,51.45-46.23
						C2443.09,2170.04,2489.26,2175.07,2537.56,2189.38z"/>
				</g>
			</g>
			<g class="st1">
				<g>
					<g>
						<path class="st36" d="M2735.96,2339.49c-14.72-32.31-48.42-65.28-90.67-93.97c12.63,29.24,9.44,57.76-17.32,81.79
							c36.35,25.1,63.1,50.35,75.53,71.41c7.63,12.93,9.82,24.26,5.6,33.06C2746.11,2405.54,2751.2,2372.92,2735.96,2339.49z"/>
					</g>
				</g>
				<g>
					<g>
						<path class="st2" d="M2702.65,2439.4l4.18-8.71c3.76-7.82,1.91-18.15-5.5-30.7c-12.18-20.65-38.74-45.73-74.79-70.63
							l-2.61-1.8l2.36-2.12c24.28-21.8,29.9-48.36,16.69-78.94l-3.41-7.89l7.1,4.82c45.71,31.04,77.37,63.9,91.55,95.01
							c17.08,37.45,7.5,70.42-27.7,95.37L2702.65,2439.4z M2631.95,2327.03c35.33,24.72,61.45,49.66,73.7,70.42
							c6.22,10.54,8.85,19.87,7.89,27.84c28.55-22.97,35.33-51.46,20.15-84.77l0,0c-12.91-28.33-42.3-59.51-83.15-88.34
							C2660.09,2280.48,2653.74,2306.17,2631.95,2327.03z"/>
					</g>
				</g>
			</g>
			<g>
				<g>
					<path class="st2" d="M3075.8,1798.52c-2.46,0-4.96-0.54-7.32-1.67c-8.43-4.05-11.98-14.17-7.93-22.59
						c4.32-9-4.99-31.46-35.54-61.34c-36.97-36.07-95.83-74.85-161.47-106.39c-65.81-31.62-132.84-53.32-183.91-59.55
						c-42.47-5.21-65.83,1.52-70.19,10.52l-0.01,0.02c-4.05,8.43-14.17,11.98-22.6,7.93c-8.43-4.05-11.98-14.17-7.93-22.6
						l48.42-100.79c9.24-19.23,36.46-39.77,113.65-28.29c53.91,8,119.84,29.82,185.65,61.44
						c127.25,61.13,241.23,153.9,212.87,212.92l-48.42,100.79C3088.16,1794.98,3082.11,1798.52,3075.8,1798.52z M2652.04,1511.26
						c9.4,0,19.92,0.65,31.71,2.1c55.37,6.75,124.44,28.99,194.46,62.63c69.84,33.55,130.38,73.57,170.47,112.69
						c15.44,15.1,26.22,28.58,33.51,40.55l26.79-55.77c4.7-9.79-6.29-34.27-41.44-66.91c-37.5-34.82-92.75-70.63-155.57-100.81
						c-62.83-30.19-125.32-50.95-175.95-58.47c-47.48-7.03-73.46-0.33-78.16,9.46l-26.8,55.78
						C2637.33,1511.7,2644.3,1511.26,2652.04,1511.26z"/>
				</g>
			</g>
			<g>
				<g>
					<path class="st2" d="M2735.96,2356.42c-1.35,0-2.71-0.16-4.04-0.49c-5.03-1.24-9.21-4.71-11.36-9.42
						c-41.03-89.95-250.66-189.55-345.07-163.99c-5.04,1.36-10.42,0.33-14.6-2.8c-4.17-3.14-6.67-8.02-6.76-13.24
						c-3.68-209.28,94.57-414.78,240.1-504.94l-16.79-108.78c-0.52-3.38-0.01-6.84,1.47-9.92c8.77-18.25,34.06-38.2,104.84-29.49
						c55.37,6.75,124.44,28.99,194.46,62.63c69.84,33.55,130.38,73.57,170.47,112.69c50.92,49.8,51.16,81.99,42.4,100.22
						c-1.48,3.09-3.86,5.64-6.82,7.35l-95.42,54.87c20.44,169.19-77.92,373.78-242.49,501.73
						C2743.35,2355.19,2739.68,2356.42,2735.96,2356.42z M2409.07,2144.77c109.92,0,275.72,82.5,331.91,168.95
						c147.39-122.73,236.32-317,212.8-468.99c-1.07-6.91,2.22-13.78,8.29-17.27l99.45-57.19c0.71-10.73-9.77-31.2-36.51-57.36
						c-36.97-36.07-95.83-74.85-161.47-106.39c-65.82-31.62-132.85-53.32-183.91-59.55c-37.21-4.57-59.76,0.04-67.7,7.3l17.5,113.38
						c1.07,6.92-2.23,13.78-8.3,17.27c-133.96,76.95-230.04,268.49-233.16,460.96C2394.72,2145.13,2401.77,2144.77,2409.07,2144.77z
						"/>
				</g>
			</g>
			<g>
				<g>
					<path class="st2" d="M2957.78,1853.29c-27.11-34.52-60.13-64.99-96.75-90.83c-36.65-25.85-76.88-47.19-119.26-63.64
						c-1.46-0.56-2.18-2.2-1.62-3.65c0.52-1.36,2.01-2.08,3.38-1.71c44.28,12.13,87.44,29.51,128.03,52.29
						c40.56,22.79,78.62,51.07,111.69,85.23l0.04,0.04c6.51,6.73,6.34,17.47-0.39,23.98c-6.73,6.51-17.46,6.34-23.98-0.39
						C2958.52,1854.19,2958.13,1853.74,2957.78,1853.29z"/>
				</g>
			</g>
			<g>
				<g>
					<path class="st37" d="M2670.33,2944.67c6.87-18.74,11-38.55,12.15-58.66l26.61-454.23c4.23-8.8,2.03-20.13-5.6-33.06
						c-9.42-16.11-27.33-34.61-51.39-53.62c-3.32-2.6-6.75-5.25-10.32-7.84c-27.56-20.44-62-41.18-100.61-59.73
						c-79.72-38.3-155.22-56.85-196.1-51.01c-14.81,2.15-25.03,7.51-29.25,16.32l-338.02,304.62c-8.41,7.61-16.18,15.83-23.17,24.63
						c-20.67,25.95-34.9,56.75-40.52,89.68c-31.83,185.65,132.05,351.55,320.36,415.41c0.05,0.02,0.05,0.02,0.1,0.05
						c36.73,12.45,74.43,21.04,111.75,25.07c0,0,0.05,0.02,0.13,0c109.12,11.91,215.24-14.76,286.6-95.13
						C2649.36,2988.83,2661.9,2967.55,2670.33,2944.67z"/>
				</g>
			</g>
			<g class="st4">
				<g>
					<path class="st5" d="M2576.7,2295.85c-11.33-6.26-23.22-12.41-35.53-18.32c-79.72-38.3-155.22-56.85-196.1-51.01
						c-14.81,2.15-25.03,7.51-29.25,16.32l-338.02,304.62c-8.41,7.61-16.18,15.83-23.17,24.63c-20.67,25.95-34.9,56.75-40.52,89.68
						c-30.24,176.34,116.14,334.89,292.22,405.02c-141.69-80.47-246.11-218.81-220.13-370.38c5.62-32.93,19.85-63.73,40.52-89.68
						c6.98-8.79,14.75-17.02,23.17-24.63l144.22-145.86l176.73-166.96C2375.06,2260.47,2426.43,2238.25,2576.7,2295.85z"/>
				</g>
			</g>
			<g>
				<g>
					<path class="st2" d="M2395.45,3121.92c-75.54,0-157.33-19.51-233.11-55.92c-84.28-40.49-156.91-99.86-204.5-167.16
						c-53.47-75.62-74.37-158.59-60.42-239.94c8.06-47.16,32.58-91.21,69.04-124.03l335.92-302.72c5.5-8.94,16.84-18.97,40.25-22.38
						c45.93-6.56,124.8,13.55,205.87,52.5c81.1,38.96,146.08,87.96,169.58,127.86c12.04,20.41,11.3,35.56,7.75,45.45L2699.38,2887
						c-2.83,48.97-21.9,95.64-53.68,131.41c-54.78,61.71-132.6,97.26-225.06,102.77
						C2412.34,3121.67,2403.93,3121.92,2395.45,3121.92z M2360.88,2242.44c-5.02,0-9.5,0.29-13.42,0.85
						c-10.36,1.5-15.26,4.55-16.39,6.88c-0.95,1.99-2.29,3.77-3.93,5.24l-338.03,304.62c-30.83,27.75-51.55,64.89-58.33,104.58
						c-27.64,161.2,103.74,302.42,246.21,370.86c66.44,31.92,143.76,52.07,218.34,52.07c85.34,0.01,167.1-26.36,225.04-91.63
						c26.75-30.1,42.8-69.48,45.2-110.88c0,0,0-0.01,0-0.01l26.61-454.23c0.13-2.2,0.69-4.36,1.64-6.34
						c1.07-2.23,0.43-8.05-4.92-17.12c-16.37-27.79-70.66-73.98-155.07-114.53C2459.79,2257.22,2396.8,2242.44,2360.88,2242.44z"/>
				</g>
			</g>
			<g>
				<g>
					<path class="st2" d="M2709.09,2448.71c-3.9,0-7.78-1.34-10.93-3.99c-5.9-4.98-7.68-13.32-4.34-20.27
						c1.07-2.23,0.43-8.05-4.92-17.12c-16.37-27.79-70.66-73.98-155.07-114.53c-84.39-40.54-154.43-54.08-186.37-49.51
						c-10.36,1.5-15.26,4.55-16.39,6.88c-3.39,7.05-11.15,10.86-18.82,9.22c-7.65-1.65-13.18-8.31-13.37-16.13
						c-1.21-48.08,22.85-81.26,67.74-93.42c110.31-29.88,336.86,77.64,384.74,182.62h0c20.02,43.92,8.49,84.1-32.49,113.13
						C2715.94,2447.68,2712.51,2448.71,2709.09,2448.71z M2361.39,2208.54c46.98,0,116.2,19.66,187.11,53.73
						c81.1,38.96,146.08,87.96,169.58,127.86c1.09,1.86,2.08,3.67,2.97,5.43c8.27-14.31,8.02-30.36-0.51-49.05h0
						c-41.03-89.95-250.66-189.55-345.07-163.99c-18.42,4.99-30.64,14.1-37.15,27.96c1.38-0.26,2.82-0.51,4.3-0.72
						C2348.38,2208.95,2354.67,2208.54,2361.39,2208.54z"/>
				</g>
			</g>
			<g>
				<g>
					<path class="st2" d="M2573.77,2305.22l-103.58,150.68l74.02-167.2c3.8-8.59,13.85-12.47,22.43-8.66
						c8.59,3.8,12.47,13.85,8.67,22.43C2574.89,2303.42,2574.34,2304.39,2573.77,2305.22z"/>
				</g>
			</g>
			<g>
				<g>
					<path class="st2" d="M2060.35,2571.51c8.52-14.96,18.61-28.32,29.18-41.2c10.64-12.81,21.89-25,33.68-36.64
						c11.79-11.65,24.13-22.73,37.09-33.18c13.02-10.39,26.53-20.29,41.63-28.58c-8.5,14.98-18.59,28.35-29.16,41.22
						c-10.64,12.81-21.89,24.99-33.7,36.61c-11.81,11.62-24.15,22.71-37.11,33.16C2088.92,2553.3,2075.42,2563.2,2060.35,2571.51z"
						/>
				</g>
			</g>
			<g>
				<g>
					<path class="st2" d="M2661.58,2351.4l-35.25,115.95l1.79-121.18c0.14-9.44,7.91-16.98,17.35-16.85s16.99,7.91,16.85,17.35
						C2662.29,2348.29,2662.02,2349.93,2661.58,2351.4z"/>
				</g>
			</g>
			<g>
				<g>
					<path class="st2" d="M2506.99,2817.9c-0.34-17.16,1.49-33.76,3.97-50.18c2.57-16.4,6.01-32.58,10.17-48.56
						c4.16-15.98,9.08-31.77,14.86-47.33c5.86-15.54,12.39-30.91,21.12-45.7c0.37,17.17-1.45,33.77-3.94,50.19
						c-2.58,16.4-6.01,32.58-10.2,48.55c-4.19,15.98-9.11,31.77-14.89,47.33C2522.21,2787.73,2515.68,2803.1,2506.99,2817.9z"/>
				</g>
			</g>
			<g>
				<g>
					<path class="st2" d="M2319.29,2686.68c1.82-10.92,5.49-20.57,9.72-29.83c4.31-9.21,9.34-17.92,15-26.21
						c5.66-8.29,11.97-16.13,19-23.47c7.11-7.29,14.79-14.19,24.34-19.81c-1.79,10.94-5.46,20.59-9.69,29.85
						c-4.31,9.21-9.34,17.92-15.03,26.19c-5.68,8.27-11.99,16.11-19.03,23.45C2336.49,2674.15,2328.82,2681.05,2319.29,2686.68z"/>
				</g>
			</g>
			<g>
				<g>
					<path class="st2" d="M2274.9,2461.33c6.24-15.37,14.25-29.34,22.78-42.89c8.6-13.49,17.9-26.44,27.79-38.91
						c9.89-12.48,20.39-24.46,31.59-35.89c11.27-11.38,23.07-22.33,36.65-31.87c-6.22,15.39-14.22,29.37-22.75,42.91
						c-8.61,13.49-17.9,26.44-27.82,38.89c-9.91,12.45-20.42,24.44-31.61,35.87C2300.26,2440.81,2288.46,2451.77,2274.9,2461.33z"/>
				</g>
			</g>
			<g class="st1">
				<g>
					<path class="st2" d="M2970.51,1842.14l105.3-60.56l48.42-100.79c12.91-26.86-21.64-72.52-84.12-118.69l-48.44,100.84
						l-127.31,89.94c67.66,169.39-96.3,480.3-218.98,492.69c42.21,28.67,75.85,61.61,90.57,93.92
						C2889.38,2220.2,2997.39,2015.85,2970.51,1842.14z"/>
				</g>
			</g>
			<g>
				<g>
					<polygon class="st2" points="2333.96,3095.23 2384.34,3029.47 2364.49,3109.9 					"/>
				</g>
			</g>
			<g>
				<g>
					<polygon class="st2" points="2041.96,2969.95 2107.4,2896.42 2070.75,2987.78 					"/>
				</g>
			</g>
			<g>
				<g>
					<polygon class="st2" points="1923.77,2817.81 1995.56,2757.11 1949.94,2839.31 					"/>
				</g>
			</g>
			<g>
				<g>
					<path class="st2" d="M2254.27,2966.98c0.04-6.16,1.45-11.35,3.28-16.25c1.89-4.86,4.32-9.34,7.22-13.49
						c2.89-4.16,6.27-7.97,10.2-11.4c3.98-3.4,8.37-6.49,14.17-8.62c-0.02,6.17-1.43,11.36-3.26,16.26
						c-1.89,4.86-4.32,9.34-7.24,13.48c-2.91,4.14-6.29,7.95-10.21,11.39C2264.44,2961.74,2260.05,2964.84,2254.27,2966.98z"/>
				</g>
			</g>
			<g>
				<g>
					<path class="st2" d="M2217.46,2770.66c-1.43-5.99-1.28-11.37-0.67-16.56c0.68-5.17,1.98-10.1,3.81-14.82
						c1.83-4.72,4.21-9.23,7.2-13.49c3.06-4.24,6.59-8.3,11.72-11.73c1.45,6,1.31,11.38,0.69,16.57c-0.68,5.17-1.98,10.1-3.83,14.81
						c-1.85,4.71-4.23,9.22-7.22,13.49C2226.1,2763.16,2222.56,2767.21,2217.46,2770.66z"/>
				</g>
			</g>
			<g>
				<g>
					<path class="st2" d="M2093.91,2774.17c-0.64-6.75,0.23-12.77,1.56-18.57c1.4-5.77,3.39-11.26,5.89-16.5
						c2.5-5.24,5.54-10.22,9.17-14.92c3.69-4.67,7.85-9.11,13.54-12.82c0.66,6.76-0.21,12.79-1.54,18.59
						c-1.4,5.77-3.39,11.25-5.92,16.48c-2.52,5.23-5.56,10.21-9.19,14.91C2103.73,2766,2099.58,2770.45,2093.91,2774.17z"/>
				</g>
			</g>
			<g>
				<g>
					<path class="st2" d="M2485.24,2976.26c-0.64-6.75,0.23-12.77,1.56-18.57c1.4-5.77,3.39-11.26,5.89-16.49
						c2.5-5.24,5.54-10.22,9.17-14.92c3.69-4.67,7.85-9.11,13.54-12.82c0.66,6.76-0.21,12.79-1.54,18.59
						c-1.4,5.77-3.39,11.26-5.92,16.48c-2.52,5.23-5.56,10.21-9.19,14.91C2495.07,2968.1,2490.92,2972.55,2485.24,2976.26z"/>
				</g>
			</g>
			<g>
				<g>
					<path class="st2" d="M2389.62,2906.84c-1.41-5.16-1.3-9.59-0.73-13.81c0.63-4.18,1.86-8.08,3.6-11.73
						c1.74-3.65,4.01-7.04,6.88-10.15c2.93-3.08,6.32-5.93,11.25-8.05c1.43,5.17,1.32,9.61,0.75,13.82
						c-0.63,4.18-1.86,8.08-3.62,11.72c-1.76,3.64-4.03,7.03-6.9,10.14C2397.92,2901.86,2394.53,2904.71,2389.62,2906.84z"/>
				</g>
			</g>
			<g>
				<g>
					<path class="st2" d="M2418.77,3064.08c-1.41-5.16-1.3-9.59-0.73-13.8c0.63-4.18,1.86-8.08,3.6-11.73
						c1.74-3.65,4.01-7.04,6.88-10.15c2.93-3.08,6.32-5.93,11.25-8.05c1.43,5.17,1.32,9.6,0.75,13.82
						c-0.63,4.18-1.86,8.08-3.62,11.71c-1.76,3.64-4.03,7.04-6.9,10.14C2427.07,3059.1,2423.68,3061.96,2418.77,3064.08z"/>
				</g>
			</g>
			<g>
				<g>
					<path class="st2" d="M2134.35,2900.52c-1.41-5.16-1.3-9.59-0.73-13.81c0.63-4.18,1.86-8.08,3.6-11.72
						c1.74-3.65,4.01-7.04,6.88-10.15c2.93-3.08,6.32-5.93,11.25-8.05c1.43,5.17,1.32,9.6,0.75,13.82
						c-0.63,4.18-1.86,8.08-3.62,11.71c-1.76,3.64-4.03,7.04-6.9,10.14C2142.65,2895.54,2139.26,2898.4,2134.35,2900.52z"/>
				</g>
			</g>
			<g>
				<g>
					<path class="st2" d="M2000.21,2651.85c-1.41-5.16-1.3-9.59-0.73-13.8c0.63-4.18,1.86-8.08,3.6-11.73
						c1.74-3.65,4.01-7.04,6.88-10.15c2.93-3.08,6.32-5.93,11.25-8.05c1.43,5.17,1.32,9.6,0.75,13.82
						c-0.63,4.18-1.86,8.08-3.62,11.71c-1.76,3.64-4.03,7.04-6.9,10.14C2008.51,2646.86,2005.12,2649.72,2000.21,2651.85z"/>
				</g>
			</g>
			<g>
				<g>
					<path class="st2" d="M2279.06,2853.73c-1.41-5.16-1.3-9.59-0.73-13.8c0.63-4.18,1.86-8.08,3.6-11.73
						c1.74-3.65,4.01-7.04,6.88-10.15c2.93-3.08,6.32-5.93,11.25-8.05c1.43,5.17,1.32,9.6,0.75,13.82
						c-0.63,4.18-1.86,8.08-3.62,11.71c-1.76,3.64-4.03,7.04-6.9,10.14C2287.36,2848.75,2283.97,2851.6,2279.06,2853.73z"/>
				</g>
			</g>
			<g class="st1">
				<g>
					<path class="st2" d="M2670.33,2944.67c6.87-18.74,11-38.55,12.15-58.66l26.61-454.23c4.23-8.8,2.03-20.13-5.6-33.06
						c-9.42-16.11-27.33-34.61-51.39-53.62c-3.32-2.6-6.75-5.25-10.32-7.84c-22.92-4.81-36.9-7.65-36.9-7.65
						s-122.92,292.74-135.72,334.5c-12.75,41.78-85.13,20.78-102.34,50.09c-7.89,13.43-1.5,23.19,7.73,29.83
						c30.71,22.08,57.98,48.8,76.98,81.51c107.9,185.82-45.5,307.47-216.96,251.68c36.73,12.45,74.43,21.04,111.75,25.07
						c0,0,0.05,0.02,0.13,0c109.12,11.91,215.24-14.76,286.6-95.13C2649.36,2988.83,2661.9,2967.55,2670.33,2944.67z"/>
				</g>
			</g>
		</g>
	</g>
</g>
</svg>
