<?xml version="1.0" encoding="utf-8"?>
<!-- Generator: Adobe Illustrator 24.3.0, SVG Export Plug-In . SVG Version: 6.00 Build 0)  -->
<svg version="1.1" id="Layer_1" xmlns="http://www.w3.org/2000/svg" xmlns:xlink="http://www.w3.org/1999/xlink" x="0px" y="0px" viewBox="0 0 4000 4000" style="enable-background: new 0 0 4000 4000" xml:space="preserve">
<style>.st0 {
  fill: #6cefe6;
}

.st1 {
  opacity: .3;
}

.st2 {
  fill: #102770;
}

.st3 {
  fill: #418bf9;
}

.st4 {
  opacity: .55;
}

.st5 {
  fill: #fff;
}

.st6 {
  fill: #f43f08;
}

.st7 {
  fill: #fac100;
}

.st8 {
  opacity: .25;
}

.st9 {
  fill: #3cce54;
}

.st10 {
  opacity: .4;
}

.st11 {
  fill: #00edf9;
}

.st12 {
  fill: #6c7a89;
}

.st13 {
  fill: #b7bdce;
}

.st14 {
  fill: #263069;
}

.st15 {
  fill: #959aaf;
}

.st16 {
  fill: #27b5fc;
}

.st17 {
  opacity: .15;
}

.st18 {
  fill: #ffd553;
}

.st19 {
  fill: #ffb602;
}

.st20 {
  opacity: .6;
}

.st21 {
  fill: #0bcbff;
}

.st22 {
  fill: url("#SVGID_1_");
}

.st23 {
  fill: #f7710d;
}

.st24 {
  fill: #01d3ec;
}

.st25 {
  opacity: .3;
  fill: #fff;
}

.st26 {
  fill: #02daff;
}

.st27 {
  fill: #ffd199;
}

.st28 {
  fill: none;
}

.st29 {
  fill: #4f4f70;
}

.st30 {
  opacity: .7;
}

.st31 {
  fill: #000072;
}

.st32 {
  fill: #5377ff;
}

.st33 {
  fill: #7d8bb7;
}

.st34 {
  fill: #f2355d;
}

.st35 {
  fill: #9baae0;
}

.st36 {
  fill: #262f6a;
}

.st37 {
  fill: #feb702;
}

.st38 {
  opacity: .65;
}

.st39 {
  fill: #bfbfbf;
}

.st40 {
  opacity: .26;
}

.st41 {
  opacity: .75;
}

.st42 {
  fill: #525f93;
}

.st43 {
  opacity: .2;
}

.st44 {
  opacity: .4;
  fill: url("#SVGID_2_");
}

.st45 {
  opacity: .4;
  fill: url("#SVGID_3_");
}

.st46 {
  opacity: .4;
  fill: url("#SVGID_4_");
}

.st47 {
  opacity: .4;
  fill: url("#SVGID_5_");
}

.st48 {
  opacity: .4;
  fill: url("#SVGID_6_");
}

.st49 {
  opacity: .4;
  fill: url("#SVGID_7_");
}

.st50 {
  opacity: .4;
  fill: url("#SVGID_8_");
}

.st51 {
  opacity: .3;
  fill: #102770;
}

.st52 {
  fill: #1cdb7c;
}

.st53 {
  opacity: .55;
  fill: url("#SVGID_9_");
}

.st54 {
  opacity: .55;
  fill: url("#SVGID_10_");
}

.st55 {
  opacity: .55;
  fill: url("#SVGID_11_");
}

.st56 {
  opacity: .55;
  fill: url("#SVGID_12_");
}

.st57 {
  fill: #dc9afe;
}

.st58 {
  opacity: .4;
  fill: url("#SVGID_13_");
}

.st59 {
  opacity: .4;
  fill: url("#SVGID_14_");
}

.st60 {
  opacity: .55;
  fill: url("#SVGID_15_");
}

.st61 {
  opacity: .55;
  fill: url("#SVGID_16_");
}

.st62 {
  opacity: .55;
  fill: url("#SVGID_17_");
}

.st63 {
  opacity: .55;
  fill: url("#SVGID_18_");
}

.st64 {
  opacity: .55;
  fill: url("#SVGID_19_");
}

.st65 {
  opacity: .55;
  fill: url("#SVGID_20_");
}

.st66 {
  fill: #fdd301;
}

.st67 {
  fill: #ffccbc;
}

.st68 {
  fill: #c5cde2;
}

.st69 {
  opacity: .4;
  fill: url("#SVGID_21_");
}

.st70 {
  opacity: .4;
  fill: url("#SVGID_22_");
}

.st71 {
  opacity: .55;
  fill: url("#SVGID_23_");
}

.st72 {
  opacity: .55;
  fill: url("#SVGID_24_");
}

.st73 {
  opacity: .55;
  fill: url("#SVGID_25_");
}

.st74 {
  opacity: .55;
  fill: url("#SVGID_26_");
}

.st75 {
  opacity: .55;
  fill: url("#SVGID_27_");
}

.st76 {
  opacity: .55;
  fill: url("#SVGID_28_");
}

.st77 {
  fill: #66feff;
}

</style>
<g>
	<rect class="st5" width="4000" height="4000"></rect>
	<circle class="st26" cx="1989.05" cy="2005.63" r="1115.63"></circle>
	<g>
		<g>
			<path class="st35" d="M2436.07,936.21c-54.69,85.32-185.73,165.8-318.8,234.63l-497.82,261.23c-5.98,3.15-10.3,8.26-12.44,14.16
				l-0.04,0.04c-2.48,6.76-2.22,14.56,1.4,21.43l20.52,39.1l4.29,8.24l10.86,20.68l3.35,6.38c1.71,3.27,2.71,6.72,2.97,10.22
				c0.88,10.2-4.16,20.36-13.6,25.67l-24.43,13.69l-62.96,35.38l-110.76,62.16L1160,1845.69l-57.77,32.39l-59.88,33.62
				l-110.77,62.23l-259.85,145.9c-14.75,8.33-33.48,2.64-41.16-12.45l-27.85-54.62l-28.91-56.79l-39.14-76.72
				c-7.41-14.6-1.71-32.47,12.82-40.04l177.59-92.31l114.01-59.27l61.65-32.04l59.42-30.87l286.8-149.06l114.01-59.26l64.83-33.68
				l59.42-30.87l753.37-391.58c29.92-15.57,58.29-34.05,83.85-56.01c18.62-16.06,34.33-32.43,45.05-49.78
				c10.59-17.17,31.79-24.39,50.2-16.22l1.04,0.47C2440.92,888.56,2449.13,915.8,2436.07,936.21z"></path>
		</g>
		<g class="st4">
			<path class="st5" d="M2446.47,924.36c-3.43-3.53-7.6-6.49-12.34-8.62l-1.04-0.47c-18.41-8.18-39.61-0.95-50.2,16.22
				c-10.72,17.35-26.43,33.72-45.05,49.78c-25.56,21.96-53.93,40.44-83.85,56.01L562.87,1916.23c-9.33,4.86-15.01,13.91-15.91,23.7
				l-7.88-15.49c-7.41-14.6-1.71-32.47,12.82-40.04l1691.11-878.94c29.92-15.57,58.29-34.05,83.85-56.01
				c18.62-16.06,34.33-32.43,45.05-49.78c10.59-17.17,31.79-24.39,50.2-16.22l1.04,0.47
				C2439.51,891.19,2448.29,907.92,2446.47,924.36z"></path>
		</g>
		<g class="st10">
			<path class="st5" d="M1634.71,1503.69c-1.33,3.57-1.88,7.47-1.53,11.33c0.27,3.43,1.26,6.87,2.94,10.1l14.25,27.18
				c0.88,10.2-4.16,20.36-13.6,25.67l-965.03,541.87c-14.75,8.33-33.48,2.64-41.16-12.45l-27.85-54.62l1026.17-545.99
				L1634.71,1503.69z"></path>
		</g>
		
			<linearGradient id="SVGID_1_" gradientUnits="userSpaceOnUse" x1="-1777.6771" y1="4681.0918" x2="-1766.7726" y2="4882.8257" gradientTransform="matrix(0.7617 -0.648 0.648 0.7617 -851.8482 -2927.4688)">
			<stop offset="0" style="stop-color: #fff"></stop>
			<stop offset="1" style="stop-color: #f1f2f2; stop-opacity: 0"></stop>
		</linearGradient>
		<polygon style="opacity: .4; fill: url(&quot;#SVGID_1_&quot;)" points="1042.35,1911.7 931.58,1973.94 725.08,1786.9 839.09,1727.64 		"></polygon>
		
			<linearGradient id="SVGID_2_" gradientUnits="userSpaceOnUse" x1="-1208.501" y1="4811.9937" x2="-1188.5093" y2="5013.728" gradientTransform="matrix(0.7617 -0.648 0.648 0.7617 -851.8482 -2927.4688)">
			<stop offset="0" style="stop-color: #fff"></stop>
			<stop offset="1" style="stop-color: #f1f2f2; stop-opacity: 0"></stop>
		</linearGradient>
		<polygon class="st44" points="1549.38,1627.04 1438.62,1689.2 1246.96,1515.66 1360.97,1456.4 		"></polygon>
		
			<linearGradient id="SVGID_3_" gradientUnits="userSpaceOnUse" x1="-1617.3748" y1="4672.4268" x2="-1606.4702" y2="4874.1611" gradientTransform="matrix(0.7617 -0.648 0.648 0.7617 -851.8482 -2927.4688)">
			<stop offset="0" style="stop-color: #fff"></stop>
			<stop offset="1" style="stop-color: #f1f2f2; stop-opacity: 0"></stop>
		</linearGradient>
		<polygon class="st45" points="1160,1845.69 1102.23,1878.09 900.74,1695.59 960.16,1664.72 		"></polygon>
		
			<linearGradient id="SVGID_4_" gradientUnits="userSpaceOnUse" x1="-1048.0348" y1="4796.0918" x2="-1028.0431" y2="4997.8257" gradientTransform="matrix(0.7617 -0.648 0.648 0.7617 -851.8482 -2927.4688)">
			<stop offset="0" style="stop-color: #fff"></stop>
			<stop offset="1" style="stop-color: #f1f2f2; stop-opacity: 0"></stop>
		</linearGradient>
		<path class="st46" d="M1644.04,1535.7l3.35,6.38c1.71,3.27,2.71,6.72,2.97,10.22c0.88,10.2-4.16,20.36-13.6,25.67l-24.43,13.69
			l-186.53-168.95l59.42-30.87L1644.04,1535.7z"></path>
		<g>
			<path class="st2" d="M657.24,2142.78c-4.76,0-9.56-0.7-14.27-2.13c-12.87-3.89-23.31-12.64-29.41-24.61l-95.87-188.13
				c-12.15-23.84-2.72-53.27,21.02-65.62L2229.8,983.33c30.02-15.6,57-33.62,80.19-53.55c19.06-16.39,32.57-31.22,41.28-45.34
				c15.6-25.3,47.48-35.46,74.15-23.64l1.05,0.46c15.69,6.96,27.5,20.36,32.44,36.77c4.93,16.4,2.46,34.08-6.78,48.49
				c-47.5,74.13-151.12,150.81-326.08,241.29l-497.72,261.14c-2.33,1.22-3.24,3.21-3.58,4.29c-0.33,1.08-0.72,3.24,0.51,5.57
				l39.06,74.4c11.63,22.16,3.65,49.13-18.17,61.38L681.1,2136.48C673.67,2140.66,665.5,2142.78,657.24,2142.78z M2401.87,893.97
				c-7.08,0-13.98,3.78-18.11,10.49c-10.81,17.52-26.79,35.26-48.89,54.26c-25.41,21.85-54.84,41.52-87.47,58.47L556.32,1896.15
				c-5.22,2.71-7.29,9.18-4.62,14.42l95.87,188.13c1.81,3.55,4.83,4.92,6.47,5.41s4.9,1.03,8.39-0.92l965.03-541.88
				c3.68-2.07,5.03-6.62,3.07-10.37l-39.06-74.39c-5.64-10.76-6.77-23.07-3.15-34.66s11.53-21.09,22.28-26.74l497.82-261.19
				c106.29-54.97,254.11-138.35,311.58-228.04c3.27-5.1,4.11-11.1,2.36-16.91c-1.75-5.82-5.77-10.39-11.33-12.85l-1.05-0.46
				c-0.01,0-0.02-0.01-0.02-0.01C2407.32,894.53,2404.58,893.97,2401.87,893.97z"></path>
		</g>
		<g>
			<path class="st32" d="M2182.71,1107.21c-19.86,645.74-315.93,1363.17-722.94,1821.27c-136.36,116.01-300.75,17.81-299.84-111.48
				c0.23-32.44,11.74-62.06,30.49-85.53c401.94-503.11,696.06-1045.06,832.1-1643.94c8.62-37.94,42.67-64.61,81.56-63.44l0,0
				C2148.71,1025.42,2184.09,1062.59,2182.71,1107.21z"></path>
			<path class="st2" d="M1328.98,2982.49c-25.14,0-50.04-5.4-73.6-16.39c-59.95-27.96-98.4-86.49-97.95-149.12
				c0.22-31.84,10.96-61.94,31.04-87.08c431.02-539.51,703.04-1076.91,831.61-1642.93c8.88-39.09,44.13-66.53,84.07-65.39
				c22.27,0.67,42.98,9.94,58.31,26.11c15.36,16.2,23.44,37.36,22.75,59.59c-9.65,313.55-84.5,653.07-216.47,981.85
				c-129.44,322.49-304.79,613.3-507.1,841C1421.07,2964.67,1374.64,2982.49,1328.98,2982.49z M2101.66,1026.55
				c-36.48,0-68.52,25.54-76.69,61.53c-128.75,566.77-401.09,1104.84-832.59,1644.95c-19.37,24.24-29.73,53.29-29.94,83.99
				c-0.43,60.67,36.89,117.41,95.07,144.55c64.52,30.1,139.53,17.01,200.65-35c419.05-471.68,702.58-1185.95,722.06-1819.44
				l2.5,0.08l-2.5-0.08c0.64-20.88-6.95-40.77-21.38-56c-14.41-15.21-33.88-23.92-54.83-24.55
				C2103.22,1026.56,2102.44,1026.55,2101.66,1026.55z"></path>
		</g>
		<g class="st1">
			<path class="st2" d="M2163.57,1052.67c12.47,14.66,19.78,33.79,19.15,54.57c-19.89,645.71-315.91,1363.14-722.94,1821.24
				c-77.27,65.73-163.48,62.66-223.53,24.22c48.39,7.23,103.02-5.67,154.14-48.12c412.55-453.09,717.33-1166.85,745.05-1812.33
				c0.9-21.07-6.42-40.56-19.11-55.48c-3.99-4.69-8.53-8.98-13.52-12.66c0.44,0,0.84,0.03,1.28,0.02
				C2127.96,1024.85,2149.19,1035.77,2163.57,1052.67z"></path>
		</g>
		<g class="st4">
			<path class="st5" d="M2126.61,1026.98c-33.76,4.2-61.64,29.36-69.1,63.44c-131.09,600-420.69,1144.4-818.47,1650.79
				c-18.52,23.63-29.83,53.35-29.78,85.77c0.1,74.93,55.66,138.98,128.69,156.79c-91.6-0.62-168.25-73.6-168.36-161.66
				c-0.06-32.42,11.26-62.14,29.78-85.77c397.79-506.39,687.38-1050.78,818.47-1650.79c8.31-38.02,42.12-64.95,81.03-64.06
				C2108.62,1021.72,2117.96,1023.63,2126.61,1026.98z"></path>
		</g>
		<g>
			<path class="st2" d="M1329.15,2999.82c-27.64,0-55.06-5.95-81.05-18.08c-66.04-30.81-108.41-95.53-107.92-164.88
				c0.25-35.75,12.29-69.54,34.81-97.72c429.35-537.43,700.28-1072.56,828.27-1635.98c10.7-47.11,53.22-80.21,101.42-78.82
				c26.86,0.81,51.83,11.99,70.31,31.49c18.54,19.57,28.3,45.13,27.48,71.99l0,0c-9.7,315.55-84.99,657.11-217.7,987.75
				c-130.18,324.31-306.6,616.87-510.21,846.03c-0.61,0.68-1.27,1.33-1.97,1.92C1428.95,2980.64,1378.73,2999.82,1329.15,2999.82z
				 M2101.66,1043.81c-28.47,0-53.48,19.97-59.87,48.1c-129.34,569.37-402.77,1109.71-835.93,1651.9
				c-16.93,21.19-25.98,46.55-26.17,73.34c-0.38,53.94,33.02,104.49,85.1,128.78c58.73,27.4,124.69,15.86,181.14-31.63
				c416.27-469.09,697.67-1178.47,717.03-1807.7c0.5-16.25-5.42-31.74-16.66-43.6c-11.25-11.88-26.46-18.68-42.82-19.17
				C2102.88,1043.82,2102.27,1043.81,2101.66,1043.81z M2182.71,1107.21h0.05H2182.71z"></path>
		</g>
		<g>
			<circle class="st2" cx="1333.85" cy="2812.4" r="56.22"></circle>
		</g>
		<g class="st4">
			<path class="st5" d="M1392.22,2781.9c20.12,23.65,17.26,59.14-6.39,79.26c-18.49,15.73-44.18,17.42-64.17,6.12
				c16.6,3.66,34.66-0.21,48.59-12.06c23.65-20.12,26.51-55.61,6.39-79.26c-4.39-5.16-9.54-9.38-15.09-12.51
				C1373.12,2765.98,1383.96,2772.18,1392.22,2781.9z"></path>
		</g>
		<g>
			<circle class="st2" cx="2094.57" cy="1116.94" r="30.6"></circle>
		</g>
		<g class="st4">
			<path class="st5" d="M2126.96,1096.33c10.94,12.86,9.38,32.19-3.48,43.13c-6.32,5.38-14.16,7.75-21.81,7.21
				c4.53-1.04,8.87-3.17,12.69-6.43c12.9-10.97,14.45-30.23,3.48-43.13c-5.52-6.49-13.24-10.16-21.12-10.71
				C2107.51,1083.83,2119.28,1087.3,2126.96,1096.33z"></path>
		</g>
	</g>
	<g>
		<g>
			<path class="st39" d="M3007.19,1532.51l169.74,342.04c8.02,16.17,1.36,35.79-14.89,43.85l-73.33,36.39
				c-13.45,6.67-21.17,21.36-19.31,35.43c0.46,3.61,1.56,7.14,3.32,10.46c4.11,7.8,10.93,13.29,18.78,15.87
				c1.45,0.48,2.89,0.84,4.36,1.13c6.87,1.33,14.23,0.49,21.05-2.89c4.64-2.3,9.83-2.54,14.41-0.97c4.6,1.5,8.56,4.75,10.88,9.41
				l20.11,40.52c3.96,7.99,4.35,16.79,1.76,24.68c-2.65,8.03-8.42,15.09-16.65,19.18l-1204.5,597.73
				c-16.25,8.07-35.91,1.51-43.93-14.66l-20.11-40.52c-4.61-9.29-0.81-20.59,8.57-25.24c8.27-4.1,14.07-11.12,16.77-19.18
				c2.64-7.79,2.45-16.57-1.27-24.56c-7.87-16.96-29.43-23.35-46.27-15l-73.28,36.37c-16.25,8.07-35.91,1.51-43.93-14.66
				l-169.74-342.04c-8.02-16.17-1.36-35.79,14.89-43.85l73.28-36.37c16.83-8.35,24.78-29.39,16.04-45.92
				c-4.11-7.8-10.98-13.26-18.78-15.87c-8.04-2.73-17.14-2.35-25.41,1.76c-4.69,2.33-9.88,2.56-14.46,1
				c-4.55-1.52-8.52-4.77-10.83-9.44l-20.11-40.52c-8.02-16.17-1.36-35.79,14.89-43.85l1204.5-597.73
				c16.25-8.07,35.91-1.51,43.93,14.66l20.11,40.52c4.63,9.34,0.64,20.61-8.67,25.29c-8.2,4.13-13.98,11.07-16.67,19.13
				c-2.69,7.81-2.45,16.57,1.27,24.56c7.88,16.96,29.39,23.38,46.22,15.03l73.33-36.39
				C2979.52,1509.78,2999.17,1516.34,3007.19,1532.51z"></path>
		</g>
		<g class="st4">
			<path class="st5" d="M3153.55,2046.1l8.76,17.66c8.02,16.17,1.36,35.79-14.89,43.85l-1204.5,597.73
				c-16.25,8.07-35.91,1.51-43.93-14.66l-8.76-17.66L3153.55,2046.1z"></path>
		</g>
		
			<linearGradient id="SVGID_5_" gradientUnits="userSpaceOnUse" x1="132.9001" y1="4408.8022" x2="318.8541" y2="4998.542" gradientTransform="matrix(0.9104 -0.4518 0.4495 0.9057 -238.1557 -2003.804)">
			<stop offset="0" style="stop-color: #fff"></stop>
			<stop offset="0.7773" style="stop-color: #f5f6f6; stop-opacity: .2227"></stop>
			<stop offset="1" style="stop-color: #f1f2f2; stop-opacity: 0"></stop>
		</linearGradient>
		<polygon class="st47" points="2510.08,2423.89 2281.91,2537.11 1719.21,1953.26 1947.38,1840.03 		"></polygon>
		
			<linearGradient id="SVGID_6_" gradientUnits="userSpaceOnUse" x1="438.2419" y1="4312.5229" x2="624.1959" y2="4902.2627" gradientTransform="matrix(0.9104 -0.4518 0.4495 0.9057 -238.1557 -2003.804)">
			<stop offset="0" style="stop-color: #fff"></stop>
			<stop offset="0.7773" style="stop-color: #f5f6f6; stop-opacity: .2227"></stop>
			<stop offset="1" style="stop-color: #f1f2f2; stop-opacity: 0"></stop>
		</linearGradient>
		<polygon class="st48" points="2770.7,2294.55 2632.55,2363.11 2069.85,1779.25 2208,1710.7 		"></polygon>
		
			<linearGradient id="SVGID_7_" gradientUnits="userSpaceOnUse" x1="854.6106" y1="4181.2358" x2="1040.5646" y2="4770.9756" gradientTransform="matrix(0.9104 -0.4518 0.4495 0.9057 -238.1557 -2003.804)">
			<stop offset="0" style="stop-color: #fff"></stop>
			<stop offset="0.7773" style="stop-color: #f5f6f6; stop-opacity: .2227"></stop>
			<stop offset="1" style="stop-color: #f1f2f2; stop-opacity: 0"></stop>
		</linearGradient>
		<path class="st49" d="M3164.07,2088.43c-2.65,8.03-8.42,15.09-16.65,19.18l-81.8,40.59l-562.7-583.86l105.55-52.38l460.93,478.26
			c0.46,3.61,1.56,7.14,3.32,10.46c4.11,7.8,10.93,13.29,18.78,15.87c1.45,0.48,2.89,0.84,4.36,1.13L3164.07,2088.43z"></path>
		<g class="st4">
			<path class="st5" d="M1676.66,2147.15c7.8,2.6,14.67,8.07,18.78,15.87c8.75,16.53,0.8,37.57-16.04,45.92l-73.28,36.37
				c-16.25,8.07-22.91,27.68-14.89,43.85l-21.49-43.31c-8.02-16.17-1.36-35.79,14.89-43.85l73.28-36.37
				c8.08-4.01,14.1-10.95,17.2-18.91C1675.64,2146.81,1676.15,2146.98,1676.66,2147.15z"></path>
		</g>
		<g class="st4">
			<path class="st5" d="M1605.21,2098.41c-0.31-0.39-0.53-0.82-0.74-1.25l-20.11-40.52c-8.02-16.17-1.36-35.79,14.89-43.85
				l1204.5-597.73c16.25-8.07,35.91-1.51,43.93,14.66l20.11,40.52c0.22,0.43,0.43,0.87,0.6,1.32
				c-8.46-15.11-27.37-21.02-43.14-13.19l-1204.5,597.73C1605.02,2063.9,1598.24,2082.55,1605.21,2098.41z"></path>
		</g>
		<g class="st4">
			<path class="st5" d="M3007.19,1532.51l21.49,43.31c-8.02-16.17-27.68-22.73-43.93-14.66l-73.33,36.39
				c-16.83,8.35-38.34,1.94-46.22-15.03c-3.72-7.99-3.97-16.74-1.27-24.56c0.17-0.5,0.34-1.01,0.59-1.49
				c8.17,2.36,17.34,1.77,25.41-2.24l73.33-36.39C2979.52,1509.78,2999.17,1516.34,3007.19,1532.51z"></path>
		</g>
		<g>
			<path class="st2" d="M1928.32,2727.65c-5.51,0-11.04-0.89-16.41-2.69c-13.1-4.37-23.68-13.57-29.81-25.92l-20.1-40.5
				c-9.23-18.6-1.56-41.25,17.08-50.51c3.48-1.73,6.07-4.67,7.27-8.27c1.22-3.58,1.03-7.33-0.5-10.63c-1.95-4.2-5.75-6.06-7.84-6.79
				c-4.26-1.5-8.98-1.23-12.94,0.74l-73.27,36.36c-25.54,12.67-56.59,2.27-69.22-23.18l-169.72-342.01
				c-6.13-12.34-7.06-26.34-2.62-39.41c4.43-13.04,13.67-23.59,26.03-29.72l73.26-36.36c3.97-1.97,7.03-5.56,8.42-9.86
				c0.68-2.11,1.5-6.26-0.67-10.35c-1.7-3.21-4.58-5.63-8.09-6.8c-3.68-1.25-7.58-0.97-11.07,0.76c-9.1,4.52-19.38,5.22-28.94,1.94
				c-9.42-3.15-17.14-9.87-21.61-18.89l-20.1-40.5c-12.63-25.45-2.13-56.47,23.41-69.14l1204.47-597.71
				c12.35-6.13,26.34-7.1,39.41-2.75c13.09,4.38,23.68,13.58,29.81,25.93l20.1,40.5c9.2,18.54,1.51,41.21-17.13,50.54
				c-3.46,1.73-6.02,4.66-7.23,8.25c-1.24,3.59-1.04,7.31,0.51,10.64c1.96,4.2,5.76,6.07,7.86,6.8c4.23,1.48,8.93,1.22,12.87-0.74
				l73.32-36.38c25.53-12.67,56.59-2.27,69.22,23.18l169.72,342.01c12.63,25.45,2.13,56.47-23.41,69.14l-73.32,36.38
				c-3.94,1.96-6.99,5.53-8.37,9.8c-0.68,2.11-1.5,6.27,0.67,10.37c1.71,3.25,4.56,5.65,8,6.79c3.77,1.28,7.67,1,11.16-0.73
				c9.07-4.5,19.33-5.19,28.87-1.92c9.38,3.05,17.17,9.79,21.67,18.87l20.1,40.5c12.63,25.45,2.13,56.47-23.41,69.14
				l-1204.47,597.71C1944.05,2725.82,1936.21,2727.65,1928.32,2727.65z M1872.42,2543.69c6.11,0,12.24,1.02,18.09,3.07
				c13.3,4.67,23.79,14.09,29.55,26.5c5.62,12.13,6.35,25.82,2.02,38.54c-4.38,13.1-13.71,23.78-26.24,30l20.03,40.48
				c1.64,3.29,4.47,5.75,7.97,6.92c3.54,1.18,7.34,0.91,10.71-0.76l1204.47-597.71c6.91-3.43,9.78-11.78,6.39-18.61l-20.1-40.5
				c-12.55,6.28-26.7,7.24-39.86,2.79c-12.61-4.14-23.11-13.02-29.41-24.94c-6.39-12.1-7.54-26.15-3.21-39.56
				c4.48-13.89,14.5-25.56,27.5-32l73.32-36.38c6.91-3.43,9.78-11.78,6.39-18.61l-169.72-342.01l0,0
				c-3.39-6.84-11.78-9.6-18.69-6.16l-73.31,36.38c-12.99,6.45-28.34,7.38-42.11,2.54c-13.29-4.66-23.79-14.07-29.57-26.48
				c-5.68-12.23-6.4-25.96-2.02-38.67c4.34-12.96,13.61-23.61,26.05-29.83l-19.87-40.56c-1.64-3.29-4.47-5.75-7.98-6.92
				c-3.54-1.18-7.35-0.91-10.71,0.76l-1204.47,597.71c-6.91,3.43-9.78,11.78-6.39,18.61l20.1,40.5c12.56-6.28,26.7-7.25,39.86-2.79
				c12.67,4.23,23.13,13.08,29.39,24.9c6.41,12.09,7.56,26.14,3.24,39.55c-4.48,13.93-14.52,25.62-27.54,32.08l-73.26,36.36
				c-3.37,1.67-5.88,4.54-7.08,8.07c-1.19,3.5-0.94,7.24,0.69,10.53l169.72,342.01c3.39,6.83,11.77,9.59,18.69,6.16l73.26-36.35
				C1855.81,2545.57,1864.1,2543.69,1872.42,2543.69z"></path>
		</g>
		<g>
			<path class="st2" d="M2889.36,1700.97c-13.13,6.52-16.18,29.29-10.02,58.23c1.37,6.43-1.67,13-7.59,15.93l-36.6,18.16
				c-5.66,2.81-12.43,1.51-16.77-3.04c-21.04-22.01-44.01-32.22-60.42-24.08s-22.17,32.62-17.37,62.68
				c0.99,6.21-2.06,12.39-7.73,15.2l-39.83,19.76c-5.92,2.94-12.99,1.38-17.28-3.59c-19.32-22.41-39.3-33.76-52.43-27.24
				c-13.13,6.52-16.18,29.29-10.02,58.23c1.37,6.43-1.67,13-7.59,15.93l-146.36,72.63c-4.53,2.25-9.91,1.94-14.12-0.84
				c-29.75-19.63-68.91-23.38-103.27-6.33c-34.36,17.05-55.05,50.5-57.41,86.07c-0.33,5.03-3.34,9.5-7.87,11.75l-142.94,70.93
				c-5.92,2.94-12.99,1.38-17.28-3.59c-19.32-22.41-39.3-33.76-52.43-27.24c-13.13,6.52-16.18,29.29-10.02,58.23
				c1.37,6.43-1.67,13-7.59,15.93l-39.83,19.76c-5.66,2.81-12.43,1.51-16.77-3.04c-21.04-22.01-44.01-32.22-60.42-24.08
				c-16.41,8.14-22.17,32.62-17.37,62.68c0.99,6.21-2.06,12.39-7.73,15.2l-36.6,18.16c-5.92,2.94-12.99,1.38-17.28-3.59
				c-19.32-22.41-39.3-33.76-52.43-27.24c-20.48,10.16-16.55,59.78,8.78,110.82c25.33,51.04,62.46,84.17,82.94,74.01
				c14.32-7.1,16.65-33.51,8.13-66.19c-1.71-6.57,1.32-13.47,7.44-16.5l32.7-16.23c5.9-2.93,12.97-1.4,17.23,3.57
				c22.45,26.14,48.06,38.99,65.91,30.13c17.85-8.86,23.11-37.03,15.86-70.71c-1.38-6.4,1.68-12.96,7.58-15.88l35.92-17.83
				c6.11-3.03,13.44-1.28,17.64,4.06c20.87,26.55,43.31,40.66,57.63,33.55c14.32-7.1,16.65-33.51,8.13-66.19
				c-1.71-6.57,1.32-13.47,7.44-16.5l137.14-68.05c4.92-2.44,10.78-1.85,15.08,1.53c30.4,23.88,73.07,29.69,110.15,11.29
				s58.26-55.9,57.63-94.55c-0.09-5.46,2.99-10.49,7.9-12.93l140.56-69.75c6.11-3.03,13.44-1.28,17.64,4.06
				c20.87,26.55,43.31,40.66,57.63,33.55s16.65-33.51,8.13-66.19c-1.71-6.57,1.32-13.47,7.44-16.5l35.92-17.83
				c5.9-2.93,12.97-1.4,17.23,3.57c22.45,26.14,48.06,38.99,65.91,30.13s23.11-37.03,15.86-70.71c-1.38-6.4,1.68-12.96,7.58-15.88
				l32.7-16.23c6.11-3.03,13.44-1.28,17.64,4.06c20.87,26.55,43.31,40.66,57.63,33.55c20.48-10.16,16.55-59.78-8.78-110.82
				C2946.98,1723.95,2909.85,1690.81,2889.36,1700.97z"></path>
		</g>
		<g class="st1">
			<path class="st2" d="M2957.98,1746.14c2.44,4.91,4.68,9.79,6.68,14.68c-24.7-42.85-56.8-69.03-75.28-59.86
				c-13.16,6.53-16.19,29.32-10.04,58.24c1.39,6.45-1.68,13.01-7.58,15.94l-36.62,18.17c-5.66,2.81-12.41,1.48-16.75-3.02
				c-21.07-22.05-44.03-32.24-60.43-24.11s-22.17,32.59-17.35,62.7c0.96,6.18-2.07,12.36-7.72,15.17l-39.86,19.78
				c-5.9,2.93-12.99,1.41-17.28-3.6c-19.31-22.38-39.3-33.75-52.4-27.25c-13.16,6.53-16.19,29.33-10.04,58.24
				c1.39,6.45-1.68,13.01-7.58,15.94l-146.37,72.64c-4.5,2.23-9.9,1.91-14.11-0.85c-29.74-19.6-68.93-23.37-103.27-6.32
				c-34.34,17.04-55.04,50.52-57.42,86.07c-0.34,5.03-3.35,9.52-7.85,11.75l-142.94,70.93c-5.95,2.95-12.99,1.41-17.28-3.6
				c-19.31-22.38-39.3-33.75-52.45-27.22c-13.11,6.5-16.14,29.3-9.99,58.21c1.34,6.47-1.68,13.01-7.58,15.94l-39.86,19.78
				c-5.66,2.81-12.41,1.48-16.75-3.02c-21.07-22.05-44.03-32.24-60.43-24.11c-16.4,8.14-22.17,32.59-17.35,62.7
				c0.96,6.18-2.07,12.36-7.77,15.19l-36.57,18.15c-5.95,2.95-12.99,1.41-17.28-3.6c-19.31-22.38-39.3-33.75-52.45-27.22
				c-18.48,9.17-17.05,50.56,2.14,96.15c-2.68-4.55-5.21-9.29-7.65-14.2c-25.34-51.06-29.28-100.67-8.82-110.83
				c13.16-6.53,33.15,4.84,52.45,27.22c4.29,5.01,11.33,6.55,17.28,3.6l36.57-18.15c5.71-2.83,8.73-9.01,7.77-15.19
				c-4.82-30.11,0.95-54.57,17.35-62.7c16.4-8.14,39.36,2.06,60.43,24.11c4.34,4.5,11.09,5.83,16.75,3.02l39.86-19.78
				c5.9-2.93,8.93-9.47,7.58-15.94c-6.15-28.91-3.11-51.71,9.99-58.21c13.16-6.53,33.15,4.84,52.45,27.22
				c4.29,5.01,11.33,6.55,17.28,3.6l142.94-70.93c4.5-2.23,7.51-6.73,7.85-11.75c2.38-35.54,23.08-69.02,57.42-86.07
				c34.34-17.04,73.53-13.28,103.27,6.32c4.21,2.77,9.61,3.09,14.11,0.85l146.37-72.64c5.9-2.93,8.97-9.49,7.58-15.94
				c-6.15-28.91-3.11-51.71,10.04-58.24c13.11-6.51,33.1,4.86,52.4,27.25c4.29,5.01,11.38,6.53,17.28,3.6l39.86-19.78
				c5.66-2.81,8.68-8.99,7.72-15.17c-4.82-30.11,0.95-54.57,17.35-62.7c16.4-8.14,39.36,2.06,60.43,24.11
				c4.34,4.5,11.09,5.83,16.75,3.02l36.62-18.17c5.9-2.93,8.97-9.49,7.58-15.94c-6.15-28.91-3.11-51.71,10.04-58.24
				C2895.51,1661.94,2932.64,1695.09,2957.98,1746.14z"></path>
		</g>
		<g class="st4">
			<path class="st5" d="M2988.21,1807.06c25.34,51.06,29.28,100.67,8.82,110.83c-14.32,7.11-36.75-7.01-57.66-33.58
				c-4.19-5.29-11.52-7.06-17.61-4.03l-32.7,16.23c-5.9,2.93-8.97,9.49-7.61,15.89c7.23,33.65,2,61.86-15.85,70.71
				c-17.85,8.86-43.48-4.03-65.9-30.15c-4.27-4.96-11.35-6.48-17.26-3.55l-35.89,17.81c-6.14,3.05-9.17,9.95-7.49,16.49
				c8.57,32.69,6.24,59.09-8.08,66.2c-14.32,7.11-36.75-7.01-57.66-33.58c-4.19-5.29-11.52-7.06-17.61-4.03l-140.57,69.76
				c-4.93,2.45-8,7.45-7.93,12.93c0.67,38.65-20.51,76.14-57.61,94.56c-37.1,18.41-79.77,12.6-110.14-11.31
				c-4.33-3.37-10.16-3.95-15.09-1.51l-137.13,68.05c-6.09,3.02-9.12,9.92-7.44,16.47c8.52,32.71,6.19,59.12-8.13,66.22
				c-14.32,7.11-36.75-7.01-57.66-33.58c-4.15-5.32-11.47-7.08-17.61-4.03l-35.89,17.81c-5.9,2.93-8.97,9.49-7.61,15.89
				c7.24,33.65,2,61.86-15.85,70.71c-17.85,8.86-43.48-4.03-65.9-30.15c-4.27-4.96-11.35-6.48-17.26-3.55l-32.7,16.23
				c-6.09,3.02-9.12,9.92-7.44,16.47c8.52,32.71,6.19,59.12-8.13,66.22c-20.46,10.15-57.59-23-82.93-74.05
				c-2.72-5.49-5.18-10.92-7.37-16.31c24.54,41.92,56.08,67.34,74.37,58.27c14.32-7.11,16.65-33.51,8.15-66.18
				c-1.7-6.59,1.32-13.49,7.42-16.51l32.7-16.23c5.9-2.93,12.99-1.41,17.26,3.55c22.45,26.16,48.05,39,65.9,30.15
				c17.85-8.86,23.11-37.01,15.85-70.71c-1.37-6.4,1.71-12.96,7.61-15.89l35.89-17.81c6.14-3.05,13.47-1.29,17.64,4.08
				c20.88,26.52,43.31,40.64,57.63,33.53s16.65-33.51,8.15-66.18c-1.7-6.59,1.32-13.49,7.42-16.51l137.13-68.05
				c4.93-2.45,10.77-1.87,15.09,1.51c30.37,23.91,73.04,29.72,110.14,11.31s58.28-55.91,57.61-94.56c-0.07-5.48,3-10.48,7.93-12.93
				l140.57-69.76c6.09-3.02,13.42-1.26,17.64,4.08c20.88,26.52,43.31,40.63,57.63,33.53s16.65-33.51,8.11-66.15
				c-1.7-6.59,1.32-13.49,7.47-16.54l35.89-17.81c5.9-2.93,12.99-1.41,17.25,3.55c22.45,26.16,48.05,39,65.9,30.15
				s23.11-37.01,15.85-70.71c-1.37-6.4,1.71-12.96,7.61-15.89l32.7-16.23c6.09-3.02,13.42-1.26,17.64,4.08
				c20.88,26.52,43.31,40.63,57.63,33.53c18.28-9.07,17.12-49.57-1.42-94.47C2982.64,1796.33,2985.49,1801.58,2988.21,1807.06z"></path>
		</g>
	</g>
	<ellipse class="st51" cx="2000" cy="3590.83" rx="788.64" ry="77.5"></ellipse>
</g>
</svg>
