<?xml version="1.0" encoding="utf-8"?>
<!-- Generator: Adobe Illustrator 24.3.0, SVG Export Plug-In . SVG Version: 6.00 Build 0)  -->
<svg version="1.1" id="Layer_1" xmlns="http://www.w3.org/2000/svg" xmlns:xlink="http://www.w3.org/1999/xlink" x="0px" y="0px" viewBox="0 0 4000 4000" style="enable-background: new 0 0 4000 4000" xml:space="preserve">
<style>.st0 {
  fill: #6cefe6;
}

.st1 {
  opacity: .3;
}

.st2 {
  fill: #102770;
}

.st3 {
  fill: #418bf9;
}

.st4 {
  opacity: .55;
}

.st5 {
  fill: #fff;
}

.st6 {
  fill: #f43f08;
}

.st7 {
  fill: #fac100;
}

.st8 {
  opacity: .25;
}

.st9 {
  fill: #3cce54;
}

.st10 {
  opacity: .4;
}

.st11 {
  fill: #00edf9;
}

.st12 {
  fill: #6c7a89;
}

.st13 {
  fill: #b7bdce;
}

.st14 {
  fill: #263069;
}

.st15 {
  fill: #959aaf;
}

.st16 {
  fill: #27b5fc;
}

.st17 {
  opacity: .15;
}

.st18 {
  fill: #ffd553;
}

.st19 {
  fill: #ffb602;
}

.st20 {
  opacity: .6;
}

.st21 {
  fill: #0bcbff;
}

.st22 {
  fill: url("#SVGID_1_");
}

.st23 {
  fill: #f7710d;
}

.st24 {
  fill: #01d3ec;
}

.st25 {
  opacity: .3;
  fill: #fff;
}

.st26 {
  fill: #02daff;
}

.st27 {
  fill: #ffd199;
}

.st28 {
  fill: none;
}

.st29 {
  fill: #4f4f70;
}

.st30 {
  opacity: .7;
}

.st31 {
  fill: #000072;
}

.st32 {
  fill: #5377ff;
}

.st33 {
  fill: #7d8bb7;
}

.st34 {
  fill: #f2355d;
}

.st35 {
  fill: #9baae0;
}

.st36 {
  fill: #262f6a;
}

.st37 {
  fill: #feb702;
}

.st38 {
  opacity: .65;
}

.st39 {
  fill: #bfbfbf;
}

.st40 {
  opacity: .26;
}

.st41 {
  opacity: .75;
}

.st42 {
  fill: #525f93;
}

.st43 {
  opacity: .2;
}

.st44 {
  opacity: .4;
  fill: url("#SVGID_2_");
}

.st45 {
  opacity: .4;
  fill: url("#SVGID_3_");
}

.st46 {
  opacity: .4;
  fill: url("#SVGID_4_");
}

.st47 {
  opacity: .4;
  fill: url("#SVGID_5_");
}

.st48 {
  opacity: .4;
  fill: url("#SVGID_6_");
}

.st49 {
  opacity: .4;
  fill: url("#SVGID_7_");
}

.st50 {
  opacity: .4;
  fill: url("#SVGID_8_");
}

.st51 {
  opacity: .3;
  fill: #102770;
}

.st52 {
  fill: #1cdb7c;
}

.st53 {
  opacity: .55;
  fill: url("#SVGID_9_");
}

.st54 {
  opacity: .55;
  fill: url("#SVGID_10_");
}

.st55 {
  opacity: .55;
  fill: url("#SVGID_11_");
}

.st56 {
  opacity: .55;
  fill: url("#SVGID_12_");
}

.st57 {
  fill: #dc9afe;
}

.st58 {
  opacity: .4;
  fill: url("#SVGID_13_");
}

.st59 {
  opacity: .4;
  fill: url("#SVGID_14_");
}

.st60 {
  opacity: .55;
  fill: url("#SVGID_15_");
}

.st61 {
  opacity: .55;
  fill: url("#SVGID_16_");
}

.st62 {
  opacity: .55;
  fill: url("#SVGID_17_");
}

.st63 {
  opacity: .55;
  fill: url("#SVGID_18_");
}

.st64 {
  opacity: .55;
  fill: url("#SVGID_19_");
}

.st65 {
  opacity: .55;
  fill: url("#SVGID_20_");
}

.st66 {
  fill: #fdd301;
}

.st67 {
  fill: #ffccbc;
}

.st68 {
  fill: #c5cde2;
}

.st69 {
  opacity: .4;
  fill: url("#SVGID_21_");
}

.st70 {
  opacity: .4;
  fill: url("#SVGID_22_");
}

.st71 {
  opacity: .55;
  fill: url("#SVGID_23_");
}

.st72 {
  opacity: .55;
  fill: url("#SVGID_24_");
}

.st73 {
  opacity: .55;
  fill: url("#SVGID_25_");
}

.st74 {
  opacity: .55;
  fill: url("#SVGID_26_");
}

.st75 {
  opacity: .55;
  fill: url("#SVGID_27_");
}

.st76 {
  opacity: .55;
  fill: url("#SVGID_28_");
}

.st77 {
  fill: #66feff;
}

</style>
<g>
	<g>
		<g>
			<g>
				<rect class="st5" width="4000" height="4000"></rect>
			</g>
		</g>
	</g>
	<g>
		<g>
			<g>
				<circle class="st26" cx="1976.45" cy="1966.45" r="1116.45"></circle>
			</g>
		</g>
	</g>
	<g class="st1">
		<g>
			<g>
				<ellipse class="st2" cx="2000" cy="3485.83" rx="788.64" ry="77.5"></ellipse>
			</g>
		</g>
	</g>
	<g>
		<g>
			<g>
				<g>
					<polygon class="st39" points="1284.35,2863.06 1196.91,2899.95 1178.81,2919.02 1104.91,2996.95 989.49,2822.75 
						963.06,2782.84 934.71,2740.07 885.66,2666.02 797.85,2533.49 903.84,2505.76 974.8,2487.22 1017.77,2539.37 1036.01,2561.57 
						1083.86,2619.62 1096.22,2634.67 					"></polygon>
				</g>
			</g>
		</g>
		<g>
			<g>
				<g>
					<path class="st34" d="M2524.67,1171.58l273.18-222.95c18.01-14.7,44.38-12.71,59.98,4.52l34.75,38.38
						c14.9,16.45,15.08,41.46,0.43,58.14l-233.75,266L2524.67,1171.58z"></path>
				</g>
			</g>
		</g>
		<g class="st1">
			<g>
				<g>
					<path class="st2" d="M2893.02,1049.66l-233.73,266.03l-134.61-144.11l14.1-11.53l71.4,92.25l257.4-243.21
						c8.62-8.11,13.25-19.03,13.62-30.12l11.37,12.58C2907.48,1007.97,2907.65,1032.98,2893.02,1049.66z"></path>
				</g>
			</g>
		</g>
		<g class="st4">
			<g>
				<g>
					<path class="st5" d="M2556.32,1200.75l102.13,109.34l-3.01,3.39l-134.61-144.11l273.19-222.95c18-14.7,44.36-12.67,59.97,4.56
						l17.67,19.49c-13.9-4.89-29.95-2.63-42.14,7.33L2556.32,1200.75z"></path>
				</g>
			</g>
		</g>
		<g class="st1">
			<g>
				<g>
					<polygon class="st2" points="1284.35,2863.06 1196.91,2899.95 1178.81,2919.02 901.75,2511.72 903.84,2505.76 974.8,2487.22 
											"></polygon>
				</g>
			</g>
		</g>
		<g>
			<g>
				<g>
					<path class="st39" d="M1611.25,2804.56l-362.91,73.32c-28.57,5.77-54.52,20.56-74.05,42.2l-106.04,117.48l410.89-107.42
						c35.03-9.16,65.65-30.48,86.39-60.16L1611.25,2804.56z"></path>
				</g>
			</g>
		</g>
		<g class="st41">
			<g>
				<g>
					<g>
						<path class="st5" d="M1611.25,2804.55l-31.31,44.86l-315.3,63.73c-28.59,5.76-54.52,20.52-74.04,42.19l-59.37,65.76
							l-62.98,16.47l106.07-117.46c19.48-21.62,45.44-36.42,74.04-42.19L1611.25,2804.55z"></path>
					</g>
				</g>
			</g>
		</g>
		<g>
			<g>
				<g>
					<g>
						<path class="st39" d="M1286.02,2314.83l-362.91,73.32c-28.57,5.77-54.52,20.56-74.05,42.2l-106.04,117.48l410.89-107.42
							c35.03-9.16,65.65-30.48,86.39-60.16L1286.02,2314.83z"></path>
					</g>
				</g>
			</g>
			<g>
				<g>
					<g>
						<path class="st2" d="M735.57,2552.37l111.65-123.69c19.74-21.88,46.52-37.14,75.41-42.97l369.02-74.56l-49.29,70.54
							c-21.06,30.14-52.25,51.85-87.81,61.14L735.57,2552.37z M1280.4,2318.52l-356.79,72.09c-27.84,5.62-53.66,20.34-72.69,41.42
							L750.49,2543.3l402.79-105.3c34.42-9,64.6-30.01,84.98-59.17L1280.4,2318.52z"></path>
					</g>
				</g>
			</g>
		</g>
		<g class="st41">
			<g>
				<g>
					<g>
						<path class="st5" d="M1286.03,2314.84l-33.53,48.01l-316.36,63.85c-28.58,5.79-54.51,20.58-74.06,42.22l-56.47,62.6
							l-62.58,16.35l106.07-117.5c19.48-21.62,45.48-36.43,74.04-42.17L1286.03,2314.84z"></path>
					</g>
				</g>
			</g>
		</g>
		<g>
			<g>
				<g>
					<path class="st2" d="M1068.26,3056.88c-6.63,0-12.94-3.42-16.5-9.29c-4.43-7.29-3.55-16.63,2.17-22.97l106.04-117.48
						c22.14-24.53,52.17-41.64,84.56-48.18l362.91-73.33c7.71-1.58,15.64,1.74,19.98,8.34c4.33,6.61,4.2,15.18-0.32,21.65
						l-45.72,65.42c-23.34,33.4-57.91,57.48-97.33,67.78l-410.89,107.42C1071.52,3056.67,1069.88,3056.88,1068.26,3056.88z
						 M1567.78,2833.05l-315.62,63.77c-24.34,4.92-46.9,17.77-63.54,36.2l-62.74,69.51l348.37-91.08
						c30.56-7.99,57.34-26.65,75.44-52.54L1567.78,2833.05z"></path>
				</g>
			</g>
		</g>
		<g>
			<g>
				<g>
					<path class="st2" d="M743.03,2567.15c-6.63,0-12.94-3.42-16.5-9.29c-4.43-7.29-3.55-16.64,2.17-22.97l106.04-117.48
						c22.14-24.53,52.17-41.65,84.56-48.19l362.91-73.33c7.72-1.57,15.65,1.74,19.98,8.34c4.33,6.6,4.2,15.18-0.32,21.65
						l-45.71,65.42c-23.34,33.4-57.92,57.48-97.34,67.78l-410.89,107.42C746.29,2566.94,744.65,2567.15,743.03,2567.15z
						 M1242.55,2343.32l-315.62,63.77c-24.34,4.92-46.9,17.77-63.54,36.21l-62.74,69.51l348.37-91.08
						c30.56-7.98,57.35-26.64,75.44-52.53L1242.55,2343.32z"></path>
				</g>
			</g>
		</g>
		<g>
			<g>
				<g>
					<path class="st37" d="M2592.77,1311.16c-144.91,153.89-281.36,305.23-400.16,451.14
						c-219.86,270.02-450.62,530.93-693.36,780.35c-2.3,2.37-4.57,4.69-6.87,7.06c-53.13,54.53-106.81,108.46-161.13,161.84
						l-79.62,78.29c-7.35,7.2-16.11,11.96-25.3,14.23c-21.58,5.52-45.54-2.15-59.4-21.86l-161.31-229.23l-12.48-17.7
						c-16.33-23.15-22.56-52.01-17.08-79.53c0.61-3.47,1.48-6.92,2.5-10.29c17.15-55.89,43.39-113.28,77.91-171.97
						c18.45-31.32,39.26-63.07,62.24-95.17c0,0,0,0,0.03-0.05c88.21-123.18,209.06-251.58,354.8-384.03
						c68.82-62.5,141.34-120.86,216.74-175.28c186.15-134.44,419.24-337.46,660.36-552.34c20.56-18.35,51.95-17.42,71.41,2.14
						l169.67,170c3.73,3.75,6.79,7.94,9.11,12.38C2611.03,1270.34,2608.43,1294.59,2592.77,1311.16z"></path>
				</g>
			</g>
		</g>
		<g>
			<g>
				<g>
					<g>
						<path class="st5" d="M2733.74,1477.41l-323.6,386.63c-33.18,39.64-63.36,81.67-90.48,125.63
							c-45.96,74.39-129.23,201.59-215.44,294.86c-102.9,111.29-351.96,363.8-449.45,462.31c-25.7,25.98-60.31,41.26-96.85,42.92
							l-331.61,14.39l0.03-0.05c9.19-2.27,17.95-7.04,25.3-14.23l79.62-78.29c304.88-299.78,591.36-617.63,861.36-949.25
							c118.8-145.9,255.25-297.24,400.16-451.14c15.66-16.57,18.26-40.82,8.06-60.02l0.03-0.05l131.29,145.15
							C2752.87,1419.11,2753.52,1453.71,2733.74,1477.41z"></path>
					</g>
				</g>
			</g>
			<g>
				<g>
					<g>
						<path class="st2" d="M1221.99,2806.83l2.65-4.85l1.1-0.32c8.98-2.22,17.34-6.92,24.15-13.59l79.61-78.29
							c294.39-289.47,584.13-608.78,861.17-949.05c107.5-132.02,234.69-275.42,400.28-451.27c14.57-15.41,17.65-38.37,7.68-57.13
							l-0.65-1.22l2.4-4.19l2.34,2.51L2734,1394.58c21.41,23.61,22.12,59.91,1.66,84.43v0l-323.6,386.63
							c-32.67,39.03-63.04,81.2-90.27,125.34c-43.02,69.64-128.25,200.6-215.73,295.24c-106.26,114.92-370.92,382.95-449.51,462.37
							c-26.17,26.46-61.16,41.96-98.51,43.66L1221.99,2806.83z M2607.85,1262.55c4.36,17.67-0.37,36.69-13.27,50.34
							c-165.5,175.76-292.61,319.06-400.04,451c-277.15,340.41-567.01,659.85-861.54,949.45l-79.62,78.3
							c-3.78,3.7-7.99,6.85-12.51,9.37l316.94-13.75c36.08-1.64,69.89-16.62,95.18-42.18c78.57-79.4,343.19-347.38,449.39-462.25
							c87.2-94.33,172.23-224.98,215.15-294.47c27.36-44.34,57.87-86.7,90.69-125.92l323.6-386.63v0
							c18.88-22.62,18.22-56.1-1.53-77.87L2607.85,1262.55z"></path>
					</g>
				</g>
			</g>
		</g>
		<g>
			<g>
				<g>
					<path class="st37" d="M2733.74,1477.39l-323.6,386.63c-33.18,39.64-63.36,81.67-90.48,125.63
						c-17.33,28.15-40.04,63.72-66.19,102.25c-43.12,63.4-95.62,134.56-149.25,192.61c-48.85,52.87-130.69,137.59-213.63,222.58
						c-91.7,93.83-184.64,188.04-235.82,239.73c-25.7,25.98-60.31,41.26-96.85,42.92l-331.61,14.39l0.03-0.05
						c9.19-2.27,17.95-7.04,25.3-14.23l79.62-78.29c54.32-53.38,108-107.32,161.13-161.84c2.3-2.37,4.57-4.69,6.87-7.06
						c242.74-249.41,473.5-510.33,693.36-780.35c118.8-145.9,255.25-297.24,400.16-451.14c15.66-16.57,18.26-40.82,8.06-60.02
						l0.03-0.05l67.3,74.4l11.98,13.2l-0.03,0.05l52.04,57.51C2752.87,1419.09,2753.52,1453.7,2733.74,1477.39z"></path>
				</g>
			</g>
		</g>
		<g>
			<g>
				<g>
					<path class="st32" d="M2655.34,1372.66c-144.91,153.89-281.36,305.23-400.16,451.14c-149.04,183-303.05,361.81-462.37,535.7
						c-47.78,52.18-105.06,94.82-168.62,125.87l-131.8,64.34c-313.94,119.03-516.12-53.9-373.67-371.38c0,0,0,0,0.03-0.05
						c55.99-78.16,125.08-158.41,205.35-240.48c46.23-47.28,96.17-95.11,149.46-143.55c68.82-62.5,141.34-120.86,216.74-175.28
						c186.15-134.44,419.24-337.46,660.36-552.34c20.56-18.35,51.95-17.42,71.41,2.14l169.67,170c3.73,3.75,6.79,7.94,9.11,12.38
						l0.03-0.05l14.51,16.06l0.05,0.03l52.74,58.31C2671.88,1341.83,2667.64,1359.63,2655.34,1372.66z"></path>
				</g>
			</g>
		</g>
		<g class="st1">
			<g>
				<g>
					<g>
						<path class="st36" d="M2225.8,1730.08c-2.04-1.09-194.76-104.8-400.51-138.65c17.9-14.28,36.06-28.88,54.53-43.93
							c195.67,41.06,363.53,131.48,371.44,135.77L2225.8,1730.08z"></path>
					</g>
				</g>
			</g>
			<g>
				<g>
					<g>
						<path class="st2" d="M2226.81,1733.45l-2.24-1.2c-7.98-4.28-197.8-105.14-399.68-138.36l-5.55-0.91l4.4-3.51
							c19.23-15.34,37.06-29.7,54.52-43.91l0.92-0.75l1.17,0.24c195.13,40.94,364.99,132.15,372.12,136.01l2.2,1.19L2226.81,1733.45
							z M1831.23,1589.89c191.6,32.71,370.9,124.89,393.55,136.82l23.09-42.42c-21.57-11.46-183.02-95.19-367.39-134.09
							C1864.64,1563.09,1848.47,1576.11,1831.23,1589.89z"></path>
					</g>
				</g>
			</g>
		</g>
		<g class="st4">
			<g>
				<g>
					<g>
						<path class="st5" d="M1005.62,2552.97l-12.48-17.7c-16.33-23.15-22.56-52.01-17.08-79.53c0.61-3.47,1.48-6.92,2.5-10.29
							c17.15-55.89,43.39-113.28,77.91-171.97c8.48,1.61,14.39,3.2,14.39,3.2l10.7,48.68c0,0-32.64,40.97-72.99,215.46
							C1007.58,2545.1,1006.6,2549.1,1005.62,2552.97z"></path>
					</g>
				</g>
			</g>
		</g>
		<g class="st20">
			<g>
				<g>
					<path class="st5" d="M2655.34,1372.66c-3.82,4.09-7.66,8.11-11.4,12.18l-34.35-37.94l-0.05-0.03l-14.51-16.06l-0.03,0.05
						c-2.31-4.44-5.38-8.63-9.11-12.38l-169.67-170c-19.47-19.55-50.86-20.49-71.41-2.14c-241.12,214.88-474.21,417.9-660.36,552.34
						c-75.39,54.42-147.92,112.77-216.74,175.28c-53.29,48.45-103.23,96.27-149.46,143.55c-80.27,82.08-149.36,162.33-205.34,240.48
						c-0.03,0.05-0.03,0.05-0.03,0.05c-20.03,44.65-33.25,86.43-40.29,124.98c-2.94-58.16,11.29-127.14,46.12-204.71
						c0,0,0,0,0.03-0.05c55.99-78.16,125.08-158.41,205.35-240.48c46.23-47.28,96.17-95.11,149.46-143.55
						c68.82-62.5,141.34-120.86,216.74-175.28c186.15-134.44,419.24-337.46,660.36-552.34c20.56-18.35,51.95-17.42,71.41,2.14
						l169.67,170c3.73,3.75,6.79,7.94,9.11,12.38l0.03-0.05l14.51,16.06l0.05,0.03l52.74,58.31
						C2671.88,1341.83,2667.64,1359.63,2655.34,1372.66z"></path>
				</g>
			</g>
		</g>
		<g>
			<g>
				<g>
					<path class="st2" d="M1773.33,2255.14c-106.63,140.16-226.78,268.7-350.27,393.63c-30.79,31.3-61.8,62.5-93,93.31l-46.75,46.28
						l-11.69,11.57l-6.13,6.04c-2.73,2.6-5.63,4.99-8.72,7.18c-6.17,4.37-13.06,7.84-20.34,10.21c-7.17,2.29-14.6,3.63-22.21,3.81
						c-15.12,0.4-30.37-3.74-43.26-11.92c-6.44-4.08-12.26-9.16-17.19-14.93c-2.43-2.85-4.87-6.24-6.17-8.13l-4.73-6.73l-37.82-53.8
						l-75.63-107.61l-37.82-53.8l-9.45-13.45c-3.23-4.65-6.06-8.44-9.92-14.41c-6.99-11.18-12.39-23.4-15.57-36.22
						c-3.32-12.79-4.44-26.13-3.59-39.34c0.51-6.6,1.46-13.18,2.99-19.64c0.77-3.11,1.72-6.66,2.62-9.33l2.76-8.03
						c3.74-10.67,7.23-21.46,11.2-32.03l12.85-31.28c18.26-41.13,39.13-80.9,62.56-118.89c23.63-37.83,48.56-74.79,75.64-109.95
						c13.15-17.91,27.27-34.99,41.07-52.33c6.82-8.75,14.17-17.02,21.27-25.51l21.51-25.3c29.28-33.15,59.06-65.83,89.91-97.41
						c61.52-63.43,125.55-123.77,191.51-182.56c33.19-29.2,67.19-57.45,101.89-84.79c17.35-13.67,34.88-27.12,52.57-40.34
						c17.64-13.23,35.73-26.18,53.15-39.04c70.32-51.46,138.58-106.12,206.19-161.56c134.96-111.3,266.7-226.86,397.11-343.94
						l24.44-21.97l12.22-10.99c5.22-4.68,11.9-9.32,18.77-12.44c13.94-6.38,29.82-8.14,44.81-5.09c7.49,1.56,14.72,4.35,21.38,8.15
						c3.35,1.88,6.46,4.12,9.48,6.48c2.81,2.37,6.05,5.41,7.62,7.04l93.02,93l46.21,46.8l23.07,23.44l5.99,6.15
						c2.6,2.74,4.99,5.7,7.15,8.85c4.38,6.44,7.43,13.13,9.65,20.46c4.29,14.53,3.84,30.32-1.32,44.55
						c-2.56,7.11-6.28,13.81-10.94,19.73c-1.11,1.53-2.42,2.86-3.64,4.27l-0.94,1.04l-0.72,0.75l-1.43,1.47l-5.71,5.9l-45.61,47.25
						c-121.35,126.32-241.37,253.77-358.47,384.42c-1.09,1.22-2.96,1.33-4.18,0.23c-1.15-1.03-1.3-2.76-0.41-3.97
						c104.59-141.21,218.97-274.96,336.53-405.4l44.28-48.78l5.55-6.09l1.39-1.52l0.68-0.75l0.42-0.51
						c0.52-0.69,1.19-1.29,1.64-2.02c2.06-2.75,3.65-5.79,4.73-9.02c2.17-6.45,2.19-13.64,0.11-20.09c-1.02-3.12-2.64-6.5-4.51-9.06
						c-0.97-1.34-2.06-2.63-3.26-3.85l-5.61-5.51l-23.39-23.11l-46.71-46.3l-92.82-93.19c-2.25-2.3-3.09-2.93-4.4-4.16
						c-1.32-0.99-2.63-1.99-4.08-2.78c-2.85-1.64-5.95-2.82-9.18-3.57c-6.49-1.38-13.44-0.7-19.48,1.97
						c-3.11,1.45-5.55,3.04-8.57,5.6l-12.35,10.88l-24.69,21.75c-65.9,57.93-131.77,115.92-198.24,173.29
						c-66.35,57.51-133.18,114.52-201.03,170.43c-67.99,55.75-136.68,110.77-207.9,162.89c-17.86,13.17-35.43,25.75-52.86,38.82
						c-17.43,13.03-34.69,26.27-51.78,39.74c-34.17,26.93-67.64,54.73-100.29,83.46c-64.92,57.92-128.29,118.27-188.7,180.91
						c-60.39,62.7-118.1,127.97-169.8,197.44c-26.22,34.48-50.13,70.49-72.71,107.14c-22.38,36.79-42.05,74.98-59.13,114.07
						l-11.96,29.63c-3.67,9.97-6.84,20.09-10.3,30.11l-2.55,7.53c-0.83,2.53-1.24,4.3-1.8,6.5c-0.96,4.22-1.58,8.52-1.93,12.84
						c-0.52,8.65,0.19,17.43,2.41,25.87c2.09,8.46,5.7,16.53,10.32,23.93c2.08,3.25,5.73,8.31,8.77,12.65l9.47,13.44l37.89,53.76
						l75.77,107.51l37.89,53.76c2.99,4.21,6.86,9.85,8.45,11.71c2.17,2.59,4.68,4.82,7.49,6.63c5.6,3.62,12.41,5.55,19.21,5.42
						c3.35-0.03,6.82-0.66,10.1-1.66c3.15-1.01,6.18-2.49,8.96-4.43c1.39-0.97,2.74-2.06,3.99-3.23l5.62-5.46l11.76-11.48
						l47.04-45.95c31.34-30.65,62.72-61.07,93.77-91.94c124.13-123.49,245.42-249.52,374.46-369.13c1.2-1.12,3.08-1.05,4.2,0.16
						C1774.14,2252.39,1774.19,2254.01,1773.33,2255.14z"></path>
				</g>
			</g>
		</g>
		<g class="st41">
			<g>
				<g>
					<g>
						<polygon class="st5" points="990.37,2641.99 934.71,2740.07 885.66,2666.02 940.7,2569.02 						"></polygon>
					</g>
				</g>
			</g>
		</g>
		<g class="st41">
			<g>
				<g>
					<g>
						<polygon class="st5" points="1045.82,2723.48 989.49,2822.75 963.06,2782.84 1019.04,2684.19 						"></polygon>
					</g>
				</g>
			</g>
		</g>
		<g>
			<g>
				<g>
					<path class="st2" d="M1226.3,2823.45c-6.65,0-12.85-3.42-16.39-9.1c-3.68-5.91-3.9-13.35-0.56-19.46
						c3.51-6.44,10.15-10.09,17-10.09c0.03,0,0.06,0,0.09,0l330.64-14.35c31.82-1.45,61.65-14.66,83.95-37.21
						c78.53-79.35,342.97-347.17,449-461.84c86.24-93.29,170.58-222.92,213.19-291.89c27.77-45.01,58.76-88.04,92.1-127.87
						l323.6-386.63c13.52-16.19,13.05-40.19-1.09-55.79l-130.52-144.31c-6.13-5.99-7.71-15.56-3.26-23.35l0.03-0.05
						c3.07-5.37,8.53-8.95,14.68-9.62c6.22-0.66,12.26,1.66,16.41,6.25l131.29,145.16c27,29.77,27.91,75.56,2.1,106.48
						l-323.62,386.65c-32.15,38.41-62.05,79.92-88.86,123.37c-43.34,70.16-129.25,202.14-217.69,297.82
						c-106.44,115.12-371.27,383.33-449.91,462.78c-29.15,29.47-68.11,46.74-109.69,48.63l-331.66,14.39
						C1226.86,2823.44,1226.59,2823.45,1226.3,2823.45z"></path>
				</g>
			</g>
		</g>
		<g>
			<g>
				<g>
					<path class="st2" d="M1104.92,3016.28c-6.26,0-12.4-3.04-16.12-8.65l-307.08-463.46c-5.89-8.89-3.46-20.88,5.43-26.77
						c8.91-5.9,20.87-3.46,26.77,5.43L1121,2986.29c5.89,8.89,3.46,20.88-5.43,26.77
						C1112.28,3015.24,1108.58,3016.28,1104.92,3016.28z"></path>
				</g>
			</g>
		</g>
		<g>
			<g>
				<g>
					<path class="st2" d="M826.83,2567.31l61.42-0.81l-53.91,29.44c-7.39,4.04-16.66,1.32-20.69-6.07
						c-4.04-7.39-1.32-16.66,6.07-20.69C821.96,2567.96,824.44,2567.36,826.83,2567.31z"></path>
				</g>
			</g>
		</g>
		<g>
			<g>
				<g>
					<path class="st2" d="M850.24,2604.53l61.42-0.81l-53.91,29.44c-7.39,4.04-16.66,1.32-20.69-6.07
						c-4.04-7.39-1.32-16.66,6.07-20.69C845.37,2605.17,847.85,2604.57,850.24,2604.53z"></path>
				</g>
			</g>
		</g>
		<g>
			<g>
				<g>
					<path class="st2" d="M881.37,2646.12l61.42-0.81l-53.91,29.44c-7.39,4.04-16.66,1.32-20.69-6.07
						c-4.04-7.39-1.32-16.66,6.07-20.69C876.51,2646.76,878.99,2646.16,881.37,2646.12z"></path>
				</g>
			</g>
		</g>
		<g>
			<g>
				<g>
					<path class="st2" d="M909.69,2686.11l61.42-0.81l-53.91,29.44c-7.39,4.04-16.66,1.32-20.69-6.07
						c-4.04-7.39-1.32-16.66,6.07-20.69C904.82,2686.75,907.3,2686.15,909.69,2686.11z"></path>
				</g>
			</g>
		</g>
		<g>
			<g>
				<g>
					<path class="st2" d="M937.21,2730.35l61.42-0.81l-53.91,29.44c-7.39,4.04-16.66,1.32-20.69-6.07
						c-4.04-7.39-1.32-16.66,6.07-20.69C932.34,2730.99,934.82,2730.39,937.21,2730.35z"></path>
				</g>
			</g>
		</g>
		<g>
			<g>
				<g>
					<path class="st2" d="M967.72,2778.72l61.42-0.81l-53.91,29.44c-7.39,4.04-16.66,1.32-20.69-6.07
						c-4.04-7.39-1.32-16.66,6.07-20.69C962.85,2779.36,965.33,2778.76,967.72,2778.72z"></path>
				</g>
			</g>
		</g>
		<g>
			<g>
				<g>
					<path class="st2" d="M999.67,2823.68l61.42-0.81l-53.91,29.44c-7.39,4.04-16.66,1.32-20.69-6.07
						c-4.04-7.39-1.32-16.66,6.07-20.69C994.8,2824.32,997.28,2823.72,999.67,2823.68z"></path>
				</g>
			</g>
		</g>
		<g>
			<g>
				<g>
					<path class="st2" d="M1027.71,2870.22l61.42-0.81l-53.91,29.44c-7.39,4.04-16.66,1.32-20.69-6.07
						c-4.04-7.39-1.32-16.66,6.07-20.69C1022.84,2870.86,1025.32,2870.26,1027.71,2870.22z"></path>
				</g>
			</g>
		</g>
		<g>
			<g>
				<g>
					<path class="st2" d="M1064.52,2919.47l61.42-0.81l-53.91,29.44c-7.39,4.04-16.66,1.32-20.69-6.07
						c-4.04-7.39-1.32-16.66,6.07-20.69C1059.65,2920.11,1062.14,2919.51,1064.52,2919.47z"></path>
				</g>
			</g>
		</g>
		<g>
			<g>
				<g>
					<path class="st2" d="M1172.33,2924.71c-4.69,0-9.31-2.22-12.18-6.37l-279.39-403.21c-4.66-6.72-2.98-15.94,3.74-20.59
						c6.71-4.66,15.94-2.98,20.59,3.74l279.39,403.21c4.66,6.72,2.98,15.94-3.74,20.59
						C1178.18,2923.85,1175.24,2924.71,1172.33,2924.71z"></path>
				</g>
			</g>
		</g>
		<g class="st1">
			<g>
				<g>
					<path class="st2" d="M1961.6,2426.56l-70.61,76.46l-58.16,63.04c-71.26,72.69-137.68,139.96-178.06,180.76
						c-25.7,25.98-60.31,41.26-96.85,42.92l-331.61,14.39l0.03-0.05c-21.58,5.52-45.54-2.15-59.4-21.86l-173.8-246.94
						c-16.33-23.15-22.56-52.01-17.08-79.53c18.4,121.59,123.59,137.25,253.69,122.58l158.39,1.19l111.11-36.87l23.91-7.94
						l162.29-84.13l54.87-40.81c1.12,56.93,33.66,73.35,105.24,39.44l46-46.52L1961.6,2426.56z"></path>
				</g>
			</g>
		</g>
		<g>
			<g>
				<g>
					<polygon class="st2" points="1220.69,2805.19 1263.08,2874.91 1543.21,2811.32 1528.42,2791.03 					"></polygon>
				</g>
			</g>
		</g>
		<g>
			<g>
				<g>
					<path class="st2" d="M1307.36,2604.98c-80.51,0-148.05-24.5-193.46-72.7c-74.68-79.25-78.83-210.92-11.4-361.26
						c4.02-8.95,14.53-12.93,23.48-8.94c8.95,4.02,12.95,14.53,8.94,23.48c-61.27,136.58-59.51,254.08,4.84,322.36
						c67.91,72.06,197.05,81.58,345.57,25.48l113.07-55.21c73.42-35.85,138.2-84.92,192.55-145.85
						c116.84-130.99,330.73-372.7,450.46-519.74c107.74-132.31,235.16-275.97,401-452.1c7.83-8.3,10.98-19.9,8.44-31.06
						c-2.18-9.56,3.8-19.08,13.37-21.26c9.58-2.19,19.08,3.81,21.26,13.37c5.18,22.73-1.25,46.4-17.22,63.32
						c-165.23,175.48-292.11,318.52-399.31,450.16c-120.17,147.58-334.46,389.74-451.5,520.95
						c-57.43,64.39-125.89,116.25-203.47,154.13l-113.81,55.57c-0.49,0.24-0.99,0.46-1.5,0.65
						C1430.43,2592.2,1365.51,2604.98,1307.36,2604.98z"></path>
				</g>
			</g>
		</g>
		<g>
			<g>
				<g>
					<g>
						<path class="st42" d="M1658.63,2578.13l313.57-21.73c37.2-2.58,58.63,41.43,33.66,69.13h0
							c-18.12,20.09-43.2,32.54-70.16,34.82l-259.2,21.96c0,0-92.95,56.25-124.3,18.34S1586,2553.05,1658.63,2578.13z"></path>
					</g>
				</g>
			</g>
			<g>
				<g>
					<g>
						<path class="st2" d="M1585.28,2716.33c-13.96,0-26.51-3.81-35-14.08c-15.02-18.17-10.17-53.01,11.82-84.72
							c20.3-29.29,56.37-55.61,96.87-41.92l313.07-21.69c18.29-1.22,34.56,8.16,42.56,24.61c8,16.45,5.37,35.1-6.88,48.69
							c-18.61,20.63-44.11,33.29-71.8,35.64l-258.61,21.91C1671.25,2688.36,1623.09,2716.33,1585.28,2716.33z M1636.82,2576.9
							c-29.4,0-54.91,20.82-70.61,43.47c-20.39,29.41-25.46,62.5-12.07,78.69c29.61,35.81,120.17-18.33,121.08-18.89l0.5-0.3
							l0.59-0.05l259.19-21.96c26.42-2.24,50.75-14.32,68.51-34.01c10.85-12.04,13.19-28.57,6.09-43.15
							c-7.1-14.58-21.51-22.96-37.72-21.81l-314.08,21.76l-0.48-0.17C1650.66,2578.03,1643.63,2576.9,1636.82,2576.9z"></path>
					</g>
				</g>
			</g>
		</g>
		<g class="st4">
			<g>
				<g>
					<path class="st5" d="M2015.64,2606.97c-7.89-9.85-20.25-16.25-35.12-15.23l-313.6,21.75
						c-56.16-19.41-107.87,41.84-113.86,88.13c-0.3-0.31-0.6-0.61-0.88-0.97c-31.31-37.91,33.79-147.59,106.46-122.48l313.55-21.78
						C2001.76,2554.31,2021.4,2581.72,2015.64,2606.97z"></path>
				</g>
			</g>
		</g>
		<g>
			<g>
				<g>
					<path class="st2" d="M1585.07,2731.41c-18,0-34.74-5.15-46.55-19.43c-22.72-27.47-10.83-71.6,11.04-103.14
						c22.98-33.16,64.02-62.81,111.26-48.65l310.17-21.49c24.49-1.73,46.54,10.99,57.33,33.15c10.79,22.15,7.24,47.29-9.26,65.59
						c-21.21,23.52-50.28,37.95-81.85,40.62l-255.17,21.62C1667.8,2707.87,1623.55,2731.41,1585.07,2731.41z M1636.98,2592.22
						c-23.76,0-44.97,17.71-58.23,36.84c-17.66,25.48-20.42,51.12-12.86,60.27c14.66,17.74,69.2-2.78,101.44-22.22
						c2.33-1.41,4.97-2.27,7.69-2.5l259.19-21.96c22.55-1.91,43.31-12.22,58.47-29.02c9.93-11.02,5.35-22.88,3.71-26.25
						c-1.64-3.37-8.15-14.28-22.95-13.27l-313.57,21.73c-2.37,0.17-4.77-0.15-7.02-0.93
						C1647.47,2593.07,1642.16,2592.22,1636.98,2592.22z"></path>
				</g>
			</g>
		</g>
		<g>
			<g>
				<g>
					<g>
						<polygon class="st42" points="2197.01,2156.27 1958.46,2424.81 1891.56,2402.71 2173.33,2084.16 						"></polygon>
					</g>
				</g>
			</g>
			<g>
				<g>
					<g>
						<path class="st2" d="M1959.23,2427.7l-72.06-23.8l287.17-324.66l25.48,77.61l-0.95,1.07L1959.23,2427.7z M1895.95,2401.52
							l61.73,20.4l236.51-266.24l-21.87-66.6L1895.95,2401.52z"></path>
					</g>
				</g>
			</g>
		</g>
		<g class="st4">
			<g>
				<g>
					<g>
						<polygon class="st5" points="2197.01,2156.27 1958.46,2424.81 1891.56,2402.71 2173.33,2084.16 						"></polygon>
					</g>
				</g>
			</g>
			<g>
				<g>
					<g>
						<path class="st2" d="M1959.23,2427.7l-72.06-23.8l287.17-324.66l25.48,77.61l-0.95,1.07L1959.23,2427.7z M1895.95,2401.52
							l61.73,20.4l236.51-266.24l-21.87-66.6L1895.95,2401.52z"></path>
					</g>
				</g>
			</g>
		</g>
		<g>
			<g>
				<g>
					<polygon class="st42" points="2258.38,2191.1 2025.65,2453.82 1958.46,2424.81 2197.01,2156.27 					"></polygon>
				</g>
			</g>
		</g>
		<g>
			<g>
				<g>
					<polygon class="st2" points="2258.38,2191.1 2197.01,2156.27 2173.33,2084.16 2267.24,2137.45 					"></polygon>
				</g>
			</g>
		</g>
		<g>
			<g>
				<g>
					<g>
						<path class="st2" d="M2025.65,2471.54c-2.37,0-4.76-0.47-7.03-1.46l-66.47-28.69l-66.15-21.85
							c-5.67-1.88-10.02-6.47-11.57-12.24c-1.56-5.76-0.11-11.92,3.84-16.4l281.77-318.55c4.22-4.76,10.65-6.91,16.89-5.62
							c6.23,1.28,11.3,5.81,13.29,11.85l21.53,65.59l55.41,31.45c4.66,2.64,7.88,7.25,8.75,12.53s-0.67,10.68-4.22,14.69
							l-232.73,262.71C2035.5,2469.45,2030.62,2471.54,2025.65,2471.54z M1922.72,2394.27l41.31,13.65c0.5,0.17,0.99,0.35,1.46,0.56
							l55.39,23.91l209.67-236.68l-42.31-24.01c-3.84-2.18-6.73-5.71-8.11-9.9l-14.01-42.69L1922.72,2394.27z"></path>
					</g>
				</g>
			</g>
			<g>
				<g>
					<g>
						<path class="st2" d="M2258.39,2208.83c-3.03,0-6.05-0.78-8.76-2.31l-61.37-34.83c-3.84-2.18-6.73-5.71-8.11-9.9l-23.68-72.11
							c-2.29-6.97-0.05-14.63,5.62-19.28s13.62-5.33,20.01-1.7l93.91,53.29c6.47,3.67,9.97,11,8.76,18.34l-8.86,53.64
							c-0.95,5.73-4.63,10.63-9.87,13.13C2263.62,2208.25,2261,2208.83,2258.39,2208.83z M2211.75,2144.18l33.27,18.88l2.7-16.3
							l-43.15-24.49L2211.75,2144.18z"></path>
					</g>
				</g>
			</g>
			<g>
				<g>
					<g>
						<path class="st2" d="M1958.46,2436.62c-2.8,0-5.6-0.99-7.86-2.99c-4.89-4.35-5.33-11.83-0.99-16.71l238.55-268.54
							c4.34-4.89,11.83-5.33,16.71-0.99c4.89,4.35,5.33,11.83,0.99,16.71l-238.55,268.54
							C1964.98,2435.28,1961.72,2436.62,1958.46,2436.62z"></path>
					</g>
				</g>
			</g>
		</g>
		<g>
			<g>
				<g>
					<path class="st2" d="M2659.26,1334.99c-4.53,0-9.07-1.58-12.74-4.81c-8.01-7.04-8.8-19.24-1.76-27.26l233.75-266
						c8.17-9.3,8.07-23.24-0.24-32.42l-34.76-38.38c-8.71-9.62-23.4-10.73-33.45-2.52l-273.18,222.95
						c-8.25,6.74-20.42,5.52-27.17-2.75c-6.75-8.26-5.51-20.43,2.75-27.18l273.18-222.95c25.99-21.21,63.99-18.35,86.5,6.52
						l34.76,38.38c21.5,23.74,21.77,59.79,0.62,83.85l-233.75,266C2669.96,1332.77,2664.62,1334.99,2659.26,1334.99z"></path>
				</g>
			</g>
		</g>
		<g>
			<g>
				<g>
					<path class="st2" d="M1339.71,1918.35c-118.05-140.41-115.81-282.24,6.49-410.15c140.26-146.65,344.07-186.26,605.76-117.74
						c121.86,31.77,258.44,88.02,405.92,167.18c23.64,12.71,48.08,26.25,72.65,40.26c136.58,78.03,299.84,93.08,447.94,41.28
						c144.55-50.55,259.71-160.55,315.95-301.8c60.08-150.91,33.83-282.16-80.26-401.25c-19.78-20.66-46.46-32.06-75.15-32.1
						c-0.05,0-0.11,0-0.16,0c-28.87,0-55.78,11.45-75.81,32.25l-60.72,62.97l-43.19-41.65l60.7-62.95
						c31.43-32.64,73.69-50.62,119.01-50.62c0.08,0,0.17,0,0.25,0c45.18,0.07,87.22,18.03,118.39,50.6
						c130.21,135.91,161.39,292.34,92.67,464.93c-62.67,157.4-190.92,279.96-351.88,336.25c-164.52,57.53-345.85,40.83-497.5-45.81
						c-24.12-13.75-48.11-27.05-71.29-39.51c-143.28-76.91-275.41-131.41-392.7-161.99c-239.06-62.6-423.17-28.57-547.23,101.15
						c-100.77,105.4-102.06,213.37-3.93,330.07L1339.71,1918.35z"></path>
				</g>
			</g>
		</g>
		<g>
			<g>
				<g>
					<path class="st2" d="M2411.02,1341.63l-100.24-96.83c-6.11-5.9-5.72-15.8,0.82-21.21l44.01-36.36
						c5.58-4.61,13.74-4.3,18.95,0.74l100.24,96.83c6.11,5.9,5.72,15.8-0.82,21.21l-44.01,36.36
						C2424.39,1346.98,2416.23,1346.66,2411.02,1341.63z"></path>
				</g>
			</g>
		</g>
		<g class="st38">
			<g>
				<g>
					<path class="st5" d="M2470.86,1323.52l-44.04,36.34c-5.54,4.61-13.75,4.31-18.92-0.73l-100.24-96.84
						c-6.03-5.8-5.76-15.52,0.52-20.94c0.65,1.25,1.54,2.44,2.6,3.45l100.24,96.84c5.2,4.99,13.37,5.34,18.92,0.73l44.04-36.34
						c0.11-0.07,0.25-0.2,0.31-0.3C2477.45,1311.54,2476.23,1319.09,2470.86,1323.52z"></path>
				</g>
			</g>
		</g>
		<g>
			<g>
				<g>
					
						<ellipse transform="matrix(0.7283 -0.6852 0.6852 0.7283 -1370.2883 1833.5287)" class="st2" cx="1627.12" cy="2644.84" rx="29.6" ry="12.83"></ellipse>
				</g>
			</g>
		</g>
		<g class="st1">
			<g>
				<g>
					<path class="st2" d="M2733.74,1477.39l-323.6,386.63c-33.18,39.64-63.36,81.67-90.48,125.63
						c-17.33,28.15-40.04,63.72-66.19,102.25c-37.08,2.37-63.86,1.47-63.86,1.47l116.8-204.28c0,0,5.9-6.93,16.13-18.96
						l-20.67-92.52l41.04-42.33l18.15,89.53c88.51-104.15,256.26-301.78,283.77-335.86c37.71-46.67-3.14-101.7-3.14-101.7
						l38.42-48.51l52.04,57.51C2752.87,1419.09,2753.52,1453.7,2733.74,1477.39z"></path>
				</g>
			</g>
		</g>
		<g class="st1">
			<g>
				<g>
					<path class="st2" d="M2655.34,1372.66c-144.91,153.89-281.36,305.23-400.16,451.14c-149.04,183-303.05,361.81-462.37,535.7
						c-47.78,52.18-105.06,94.82-168.62,125.87l-131.8,64.34c-313.94,119.03-516.12-53.9-373.67-371.38c0,0,0,0,0.03-0.05
						c55.99-78.16,125.08-158.41,205.35-240.48c-314.07,375.97-160.89,541.65,151.37,456.04
						c150.6-41.29,284.57-128.59,386.51-246.88l337.23-391.33l370.83-422.59l45.35-65.88l0.05,0.03l52.74,58.31
						C2671.88,1341.83,2667.64,1359.63,2655.34,1372.66z"></path>
				</g>
			</g>
		</g>
		<g class="st1">
			<g>
				<g>
					<g>
						<path class="st36" d="M1890.59,2507.08c-19.33,19.8-38.72,39.56-57.76,58.97l58.16-63.04
							C1890.89,2504.39,1890.74,2505.74,1890.59,2507.08z"></path>
					</g>
				</g>
			</g>
			<g>
				<g>
					<g>
						<path class="st2" d="M1834.61,2567.81l-3.62-3.45l63.03-68.31l-0.53,7.15c-0.11,1.41-0.26,2.78-0.41,4.16l-0.1,0.85l-0.6,0.62
							C1873.05,2528.62,1853.66,2548.39,1834.61,2567.81z"></path>
					</g>
				</g>
			</g>
		</g>
		<g class="st43">
			<g>
				<g>
					<path class="st5" d="M1601.77,2169.18c12.74,45.95-39.79,100.62-117.33,122.13c-77.54,21.5-150.73,1.69-163.47-44.26
						c-12.74-45.95,63.01-67.94,140.55-89.44C1539.06,2136.11,1589.03,2123.24,1601.77,2169.18z"></path>
				</g>
			</g>
		</g>
		<g class="st43">
			<g>
				<g>
					<path class="st5" d="M1780.76,2128.71c-34.04,24.76-75.28,26.08-92.11,2.95c-16.83-23.13,11.05-42.81,45.09-67.58
						c34.04-24.76,61.35-45.23,78.18-22.1C1828.75,2065.12,1814.8,2103.94,1780.76,2128.71z"></path>
				</g>
			</g>
		</g>
		<g class="st1">
			<g>
				<g>
					<path class="st2" d="M1611.25,2804.56l-362.91,73.32c-28.57,5.77-54.52,20.56-74.05,42.2l-106.04,117.48l410.89-107.42
						c35.03-9.16,65.65-30.48,86.39-60.16L1611.25,2804.56z"></path>
				</g>
			</g>
		</g>
	</g>
</g>
</svg>
