<?xml version="1.0" encoding="utf-8"?>
<!-- Generator: Adobe Illustrator 24.3.0, SVG Export Plug-In . SVG Version: 6.00 Build 0)  -->
<svg version="1.1" id="Layer_1" xmlns="http://www.w3.org/2000/svg" xmlns:xlink="http://www.w3.org/1999/xlink" x="0px" y="0px" viewBox="0 0 4000 4000" style="enable-background: new 0 0 4000 4000" xml:space="preserve">
<style>.st0 {
  fill: #6cefe6;
}

.st1 {
  opacity: .3;
}

.st2 {
  fill: #102770;
}

.st3 {
  fill: #418bf9;
}

.st4 {
  opacity: .55;
}

.st5 {
  fill: #fff;
}

.st6 {
  fill: #f43f08;
}

.st7 {
  fill: #fac100;
}

.st8 {
  opacity: .25;
}

.st9 {
  fill: #3cce54;
}

.st10 {
  opacity: .4;
}

.st11 {
  fill: #00edf9;
}

.st12 {
  fill: #6c7a89;
}

.st13 {
  fill: #b7bdce;
}

.st14 {
  fill: #263069;
}

.st15 {
  fill: #959aaf;
}

.st16 {
  fill: #27b5fc;
}

.st17 {
  opacity: .15;
}

.st18 {
  fill: #ffd553;
}

.st19 {
  fill: #ffb602;
}

.st20 {
  opacity: .6;
}

.st21 {
  fill: #0bcbff;
}

.st22 {
  fill: url("#SVGID_1_");
}

.st23 {
  fill: #f7710d;
}

.st24 {
  fill: #01d3ec;
}

.st25 {
  opacity: .3;
  fill: #fff;
}

.st26 {
  fill: #02daff;
}

.st27 {
  fill: #ffd199;
}

.st28 {
  fill: none;
}

.st29 {
  fill: #4f4f70;
}

.st30 {
  opacity: .7;
}

.st31 {
  fill: #000072;
}

.st32 {
  fill: #5377ff;
}

.st33 {
  fill: #7d8bb7;
}

.st34 {
  fill: #f2355d;
}

.st35 {
  fill: #9baae0;
}

.st36 {
  fill: #262f6a;
}

.st37 {
  fill: #feb702;
}

.st38 {
  opacity: .65;
}

.st39 {
  fill: #bfbfbf;
}

.st40 {
  opacity: .26;
}

.st41 {
  opacity: .75;
}

.st42 {
  fill: #525f93;
}

.st43 {
  opacity: .2;
}

.st44 {
  opacity: .4;
  fill: url("#SVGID_2_");
}

.st45 {
  opacity: .4;
  fill: url("#SVGID_3_");
}

.st46 {
  opacity: .4;
  fill: url("#SVGID_4_");
}

.st47 {
  opacity: .4;
  fill: url("#SVGID_5_");
}

.st48 {
  opacity: .4;
  fill: url("#SVGID_6_");
}

.st49 {
  opacity: .4;
  fill: url("#SVGID_7_");
}

.st50 {
  opacity: .4;
  fill: url("#SVGID_8_");
}

.st51 {
  opacity: .3;
  fill: #102770;
}

.st52 {
  fill: #1cdb7c;
}

.st53 {
  opacity: .55;
  fill: url("#SVGID_9_");
}

.st54 {
  opacity: .55;
  fill: url("#SVGID_10_");
}

.st55 {
  opacity: .55;
  fill: url("#SVGID_11_");
}

.st56 {
  opacity: .55;
  fill: url("#SVGID_12_");
}

.st57 {
  fill: #dc9afe;
}

.st58 {
  opacity: .4;
  fill: url("#SVGID_13_");
}

.st59 {
  opacity: .4;
  fill: url("#SVGID_14_");
}

.st60 {
  opacity: .55;
  fill: url("#SVGID_15_");
}

.st61 {
  opacity: .55;
  fill: url("#SVGID_16_");
}

.st62 {
  opacity: .55;
  fill: url("#SVGID_17_");
}

.st63 {
  opacity: .55;
  fill: url("#SVGID_18_");
}

.st64 {
  opacity: .55;
  fill: url("#SVGID_19_");
}

.st65 {
  opacity: .55;
  fill: url("#SVGID_20_");
}

.st66 {
  fill: #fdd301;
}

.st67 {
  fill: #ffccbc;
}

.st68 {
  fill: #c5cde2;
}

.st69 {
  opacity: .4;
  fill: url("#SVGID_21_");
}

.st70 {
  opacity: .4;
  fill: url("#SVGID_22_");
}

.st71 {
  opacity: .55;
  fill: url("#SVGID_23_");
}

.st72 {
  opacity: .55;
  fill: url("#SVGID_24_");
}

.st73 {
  opacity: .55;
  fill: url("#SVGID_25_");
}

.st74 {
  opacity: .55;
  fill: url("#SVGID_26_");
}

.st75 {
  opacity: .55;
  fill: url("#SVGID_27_");
}

.st76 {
  opacity: .55;
  fill: url("#SVGID_28_");
}

.st77 {
  fill: #66feff;
}

</style>
<g>
	<g>
		<g>
			<rect class="st5" width="4000" height="4000"></rect>
		</g>
	</g>
	<g class="st1">
		<g>
			<ellipse class="st2" cx="2000" cy="3645.83" rx="788.64" ry="77.5"></ellipse>
		</g>
	</g>
	<g>
		<g>
			<circle class="st26" cx="1989.05" cy="2005.63" r="1115.63"></circle>
		</g>
	</g>
	<g>
		<g>
			<g>
				<path class="st34" d="M2940.72,1825.12l-8.04,8.19l-347.84-341.75c-20.13-19.73-52.45-19.43-72.18,0.65l-679,691.09
					l-354.43,360.73l-190.05,193.4c-19.73,20.08-19.48,52.45,0.65,72.18l233.46,229.36l114.38,112.38l-8.14,8.29
					c-22.43,22.83-50.85,36.06-80.27,39.76c-40.16,5.14-82.16-7.49-113.28-38.06l-360.68-354.38c-62.99-61.89-63.88-163.08-2-226.02
					l405.78-412.97l377.91-384.65l495.39-504.18c61.84-62.98,163.03-63.88,226.02-2l360.63,354.33
					C2992.97,1684.47,2993.77,1771.18,2940.72,1825.12z"></path>
			</g>
			<g>
				<path class="st2" d="M1531.55,3203.03c-36.3,0-71.01-14.06-97.32-39.91l-360.68-354.38c-30.94-30.4-48.19-71.02-48.57-114.38
					c-0.38-43.36,16.15-84.26,46.55-115.18L2350.6,1277.38c30.37-30.94,70.98-48.19,114.34-48.57
					c43.28-0.39,84.27,16.14,115.21,46.54l360.63,354.34c26.57,26.1,41.39,60.99,41.72,98.23c0.33,37.25-13.87,72.39-39.99,98.96
					l-9.79,9.98l-349.62-343.5c-19.11-18.73-49.9-18.45-68.64,0.62L1481.02,2545.78l-190.05,193.4c-9.09,9.25-14.03,21.5-13.9,34.49
					c0.12,12.96,5.28,25.09,14.52,34.15l349.62,343.5l-9.89,10.08c-22.16,22.55-50.42,36.55-81.74,40.48
					C1543.54,3202.65,1537.52,3203.03,1531.55,3203.03z M2466.41,1233.8c-0.48,0-0.95,0-1.43,0.01
					c-42.02,0.37-81.38,17.09-110.82,47.08L1075.09,2582.7c-29.46,29.96-45.48,69.6-45.11,111.63
					c0.37,42.02,17.09,81.39,47.08,110.85l360.68,354.38c29.54,29.02,70.07,42.64,111.21,37.36c30.2-3.79,57.45-17.29,78.8-39.03
					l6.39-6.5l-346.06-340c-10.19-9.99-15.88-23.37-16.02-37.67c-0.13-14.33,5.31-27.84,15.34-38.04l544.49-554.13l679-691.08
					c20.67-21.03,54.63-21.34,75.71-0.68l346.06,340l6.29-6.41c25.18-25.61,38.87-59.49,38.55-95.41
					c-0.32-35.91-14.6-69.54-40.22-94.71l-360.63-354.34C2547,1249.79,2507.9,1233.8,2466.41,1233.8z"></path>
			</g>
		</g>
		<g class="st1">
			<g>
				<path class="st2" d="M1785.92,1997.74l-6.84,59.84c6.79,15.08,13.49,30.22,20.08,45.3c11.79,26.82,23.33,53.59,34.51,80.42
					l-354.43,360.68l-190.05,193.45c-19.78,20.13-19.48,52.4,0.65,72.18l-57.74-56.74c-20.08-19.73-20.43-52.05-0.65-72.18
					l244.9-249.24c-0.6-38.76-0.75-77.72-0.45-116.83c0.35-48.6,1.45-97.5,3.2-146.65l377.91-384.65l-5.74,10.39
					C1816.28,1856.79,1794.16,1926.12,1785.92,1997.74z"></path>
			</g>
		</g>
		<g class="st1">
			<g>
				<path class="st2" d="M1637.67,3151.35l-8.14,8.29c-3,3.05-6.09,5.94-9.34,8.64c-0.8,0.7-1.6,1.35-2.45,2
					c-1.15,1-2.35,1.9-3.55,2.75c-0.3,0.3-0.65,0.55-1,0.8c-1.45,1.1-2.95,2.15-4.45,3.15c-2.35,1.65-4.8,3.15-7.24,4.6
					c-1.75,1.05-3.55,2.05-5.34,3c-1.75,0.95-3.55,1.85-5.34,2.7c-1.4,0.7-2.8,1.35-4.25,1.9c-1.6,0.75-3.25,1.4-4.89,2.05
					c-1.75,0.7-3.5,1.35-5.29,1.95c-2.49,0.84-5.01,1.6-7.53,2.3c-1.39,0.39-2.79,0.73-4.19,1.08c-1.09,0.26-2.17,0.52-3.26,0.76
					c-1.71,0.38-3.41,0.74-5.13,1.05c-0.24,0.04-0.49,0.08-0.73,0.12c-42,7.35-86.8-4.91-119.56-37.11l-57.74-56.74
					c43.31,42.56,107.74,50.45,158.84,23.93c-4.89-29.72-9.49-59.59-13.79-89.56l56.59,55.64L1637.67,3151.35z"></path>
			</g>
		</g>
		<g class="st1">
			<g>
				<path class="st2" d="M2584.84,1491.57c-20.13-19.73-52.45-19.48-72.18,0.65l-679,691.09c-11.19-26.82-22.73-53.59-34.51-80.42
					l655.77-667.41c19.73-20.13,52.1-20.38,72.18-0.65L2584.84,1491.57z"></path>
			</g>
		</g>
		<g class="st1">
			<g>
				<path class="st36" d="M2881.29,1574.75l57.75,56.74c53.93,52.99,54.69,139.69,1.71,193.62l-8.08,8.23l-57.75-56.74l8.08-8.23
					C2935.99,1714.44,2935.26,1627.78,2881.29,1574.75z"></path>
			</g>
			<g>
				<path class="st2" d="M2932.7,1836.88l-61.31-60.25l9.84-10.01c25.16-25.61,38.85-59.48,38.54-95.37
					c-0.31-35.87-14.57-69.48-40.14-94.64l-0.07-0.07l3.51-3.56l57.75,56.74c54.83,53.88,55.61,142.32,1.73,197.16L2932.7,1836.88z
					 M2878.45,1776.57l54.18,53.24l6.33-6.45c51.94-52.87,51.19-138.14-1.67-190.09l-31.18-30.63
					c11.96,20.62,18.43,44.09,18.65,68.56c0.32,37.23-13.87,72.36-39.97,98.92L2878.45,1776.57z"></path>
			</g>
		</g>
		<g class="st4">
			<g>
				<path class="st5" d="M2578.38,1277.13l35.43,34.81c-62.94-61.85-164.16-60.95-226.01,1.99L1108.72,2615.74
					c-61.84,62.94-60.95,164.16,1.99,226.01l-35.43-34.81c-62.94-61.84-63.83-163.07-1.99-226.01l1279.08-1301.81
					C2414.22,1216.17,2515.44,1215.28,2578.38,1277.13z"></path>
			</g>
		</g>
		<g>
			<g>
				<path class="st2" d="M1531.86,3217.13c-40.46,0-78.58-15.59-107.48-43.98l-360.7-354.4c-33.6-33.02-52.34-77.15-52.76-124.26
					c-0.41-47.11,17.54-91.56,50.56-125.16l1279.08-1301.81c33.02-33.61,77.15-52.34,124.26-52.76c0.53,0,1.06,0,1.6,0
					c46.52,0,90.34,17.92,123.57,50.57v0l360.66,354.36c60.36,59.31,61.22,156.67,1.91,217.04l-8.08,8.23
					c-3.08,3.13-7.27,4.92-11.66,4.96c-4.28,0.1-8.62-1.67-11.75-4.75l-347.82-341.75c-6.5-6.39-15.07-9.89-24.17-9.89
					c-0.1,0-0.21,0-0.31,0c-9.22,0.08-17.85,3.75-24.31,10.32L1301,2749.02c-13.33,13.57-13.14,35.46,0.43,48.79l347.82,341.74
					c3.13,3.08,4.91,7.28,4.95,11.67s-1.67,8.62-4.75,11.75l-8.12,8.27c-28.72,29.23-67.1,45.53-108.08,45.89
					C1532.79,3217.12,1532.32,3217.13,1531.86,3217.13z M2466.41,1247.86c-0.43,0-0.86,0-1.3,0
					c-38.26,0.34-74.11,15.56-100.93,42.85L1085.1,2592.53c-26.82,27.29-41.4,63.4-41.07,101.67
					c0.34,38.26,15.56,74.11,42.85,100.92l360.7,354.4c22.66,22.27,52.56,34.49,84.28,34.49c0.36,0,0.73,0,1.09,0
					c30.47-0.27,59.12-11.77,81.2-32.51l-335.94-330.07c-26.59-26.14-26.97-69.03-0.84-95.62l1223.45-1245.19
					c12.66-12.89,29.58-20.06,47.63-20.22c0.21,0,0.41,0,0.61,0c17.83,0,34.63,6.87,47.37,19.39l335.93,330.07
					c43.01-47.54,41.2-121.22-4.94-166.55l-360.66-354.36v0C2539.79,1262.42,2504.19,1247.86,2466.41,1247.86z"></path>
			</g>
		</g>
		<g>
			<g>
				<path class="st2" d="M1704.99,3082.82L1704.99,3082.82c-10.15,10.33-26.74,10.47-37.07,0.33l-365.54-359.16l36.74-37.4
					l365.54,359.16C1714.99,3055.9,1715.14,3072.49,1704.99,3082.82z"></path>
			</g>
		</g>
		<g>
			<g>
				<path class="st2" d="M1782.35,3004.09L1782.35,3004.09c-10.15,10.33-26.74,10.47-37.07,0.33l-365.54-359.16l36.74-37.4
					l365.54,359.16C1792.35,2977.17,1792.49,2993.76,1782.35,3004.09z"></path>
			</g>
		</g>
		<g>
			<g>
				<path class="st2" d="M1859.7,2925.36L1859.7,2925.36c-10.15,10.33-26.74,10.47-37.07,0.33l-365.54-359.16l36.74-37.4
					l365.54,359.16C1869.7,2898.44,1869.85,2915.03,1859.7,2925.36z"></path>
			</g>
		</g>
		<g>
			<g>
				<path class="st2" d="M1937.06,2846.63L1937.06,2846.63c-10.15,10.33-26.74,10.47-37.07,0.33l-365.54-359.16l36.74-37.4
					l365.54,359.16C1947.06,2819.71,1947.2,2836.31,1937.06,2846.63z"></path>
			</g>
		</g>
		<g>
			<g>
				<path class="st2" d="M2014.41,2767.9L2014.41,2767.9c-10.15,10.33-26.74,10.47-37.07,0.33l-365.54-359.16l36.74-37.4
					l365.54,359.16C2024.41,2740.98,2024.56,2757.58,2014.41,2767.9z"></path>
			</g>
		</g>
		<g>
			<g>
				<path class="st2" d="M2091.77,2689.17L2091.77,2689.17c-10.15,10.33-26.74,10.47-37.07,0.33l-365.54-359.16l36.74-37.4
					l365.54,359.16C2101.77,2662.25,2101.91,2678.85,2091.77,2689.17z"></path>
			</g>
		</g>
		<g>
			<g>
				<path class="st2" d="M2169.12,2610.44L2169.12,2610.44c-10.15,10.33-26.74,10.47-37.07,0.33l-365.54-359.16l36.74-37.4
					l365.54,359.16C2179.12,2583.52,2179.27,2600.12,2169.12,2610.44z"></path>
			</g>
		</g>
		<g>
			<g>
				<path class="st2" d="M2246.48,2531.72L2246.48,2531.72c-10.15,10.33-26.74,10.47-37.07,0.33l-365.54-359.16l36.74-37.4
					l365.54,359.16C2256.48,2504.79,2256.62,2521.39,2246.48,2531.72z"></path>
			</g>
		</g>
		<g>
			<g>
				<path class="st2" d="M2323.83,2452.99L2323.83,2452.99c-10.15,10.33-26.74,10.47-37.07,0.33l-365.54-359.16l36.74-37.4
					l365.54,359.16C2333.83,2426.06,2333.98,2442.66,2323.83,2452.99z"></path>
			</g>
		</g>
		<g>
			<g>
				<path class="st36" d="M2401.19,2374.26L2401.19,2374.26c-10.15,10.33-26.74,10.47-37.07,0.33l-365.54-359.16l36.74-37.4
					l365.54,359.16C2411.19,2347.33,2411.33,2363.93,2401.19,2374.26z"></path>
			</g>
			<g>
				<path class="st2" d="M2382.49,2384.58c-7.27,0-14.54-2.73-20.12-8.22l-367.32-360.91l40.25-40.96l367.32,360.91
					c11.29,11.09,11.45,29.31,0.36,40.61C2397.36,2381.72,2389.92,2384.58,2382.49,2384.58z M2002.11,2015.4l363.76,357.41
					c4.51,4.44,10.29,6.79,16.83,6.8c6.33-0.06,12.27-2.57,16.71-7.09c9.16-9.33,9.03-24.37-0.3-33.54l-363.75-357.4L2002.11,2015.4
					z"></path>
			</g>
		</g>
		<g>
			<g>
				<path class="st2" d="M2478.54,2295.53L2478.54,2295.53c-10.15,10.33-26.74,10.47-37.07,0.33l-365.54-359.16l36.74-37.4
					l365.54,359.16C2488.54,2268.61,2488.69,2285.2,2478.54,2295.53z"></path>
			</g>
		</g>
		<g>
			<g>
				<path class="st2" d="M2555.9,2216.8L2555.9,2216.8c-10.15,10.33-26.74,10.47-37.07,0.33l-365.54-359.16l36.74-37.4
					l365.54,359.16C2565.9,2189.88,2566.04,2206.47,2555.9,2216.8z"></path>
			</g>
		</g>
		<g>
			<g>
				<path class="st2" d="M2633.25,2138.07L2633.25,2138.07c-10.15,10.33-26.74,10.47-37.07,0.33l-365.54-359.16l36.74-37.4
					L2632.92,2101C2643.25,2111.15,2643.4,2127.74,2633.25,2138.07z"></path>
			</g>
		</g>
		<g>
			<g>
				<path class="st2" d="M2710.61,2059.34L2710.61,2059.34c-10.15,10.33-26.74,10.47-37.07,0.33L2308,1700.51l36.74-37.4
					l365.54,359.16C2720.61,2032.42,2720.75,2049.01,2710.61,2059.34z"></path>
			</g>
		</g>
		<g>
			<g>
				<path class="st2" d="M2787.96,1980.61L2787.96,1980.61c-10.15,10.33-26.74,10.47-37.07,0.33l-365.54-359.16l36.74-37.4
					l365.54,359.16C2797.96,1953.69,2798.11,1970.29,2787.96,1980.61z"></path>
			</g>
		</g>
		<g>
			<g>
				<path class="st2" d="M2865.31,1901.88L2865.31,1901.88c-10.15,10.33-26.74,10.47-37.07,0.33l-365.54-359.16l36.74-37.4
					l365.54,359.16C2875.31,1874.96,2875.46,1891.56,2865.31,1901.88z"></path>
			</g>
		</g>
	</g>
	<g>
		<g>
			<g>
				<path class="st35" d="M2010.2,707.95c-1.66-0.93-3.31-1.86-4.96-2.73c-14.61-7.66-29.85-14.01-45.63-18.88
					c-2.23-0.99-4.41-1.99-6.54-3.01c-92.08-27.04-174.88,9.5-208.71,85.41c-25.66,57.81-37.91,115.08-39.01,169.75
					c-0.16,7.53-7.02,13.09-14.38,11.76l-41.74-7.48c-12.94-2.32-24.88,7.75-24.63,20.91c0.34,20,2.06,48.65,8.05,74.2
					c3.25,13.71,19.04,20.19,31.13,12.98l34.06-20.33c7.07-4.23,16.26-0.35,18.18,7.65c25.46,106.63,94.12,195.48,184.46,246.18
					c25.35,14.28,35.48,45.64,23.08,71.91l-179.52,379.93c-5.59,11.85-14.39,21.98-25.31,29.19l-136.08,90.2
					c-18.19,12.11-29.22,32.36-29.43,54.13c-0.06,6.32-0.12,12.65-0.07,18.94c-0.56,107.61,2.02,213.66,7.78,318.14
					c22.14,403.23,90.86,783.44,206.37,1140.57l38.24-742.73l25.08-487.5l12.2-237.04c3.6-70.12,20.89-138.8,51-202.22
					l155.61-328.19c22.72-48.05,47.29-95.29,75.47-140.41C2252.88,1044.15,2169.59,795.88,2010.2,707.95z M2069.07,960.1
					c27.22,119.19-7.43,228.83-77.48,244.86c-70.05,16.03-148.98-67.64-176.25-186.82c-27.3-119.28,7.42-228.88,77.52-244.92
					C1962.91,757.19,2041.79,840.87,2069.07,960.1z"></path>
			</g>
		</g>
		<g class="st1">
			<g>
				<path class="st2" d="M1732.65,1973.02c-10.61-19-30.04-31.49-51.79-33.39l-127.73-10.95c-0.56,107.61,2.02,213.66,7.78,318.14
					l17.23,28.01l0.01,0.05l227.37,369.77l25.08-487.5C1799.48,2095.72,1766.81,2034.33,1732.65,1973.02z"></path>
			</g>
		</g>
		<g class="st4">
			<g>
				<path class="st5" d="M1651.3,1043.67l-10.51,6.26c6.43,4.6,15.43,5.41,22.98,0.94l4.44-2.65
					C1665.01,1042.42,1657.37,1040.06,1651.3,1043.67z M1815.35,1018.14c-23.65-103.4-0.71-199.52,51.43-233.71
					c-6.83-0.25-13.69,0.35-20.45,1.92c-70.1,16.04-104.82,125.64-77.52,244.92c27.27,119.18,106.2,202.85,176.25,186.82
					c9.33-2.13,18.03-5.93,26.08-11.21C1906.79,1204.5,1839.99,1125.84,1815.35,1018.14z M2010.2,707.95
					c-1.66-0.93-3.31-1.86-4.96-2.73c-14.61-7.66-29.85-14.01-45.63-18.88c-2.23-0.99-4.41-1.99-6.54-3.01
					c-47.71-14-92.96-10.94-130.15,5.8c26.1-3.46,54.39-1.28,83.62,7.33c2.13,1.02,4.31,2.02,6.54,3.01
					c15.78,4.87,31.02,11.23,45.63,18.88c1.64,0.88,3.3,1.8,4.96,2.73c159.39,87.92,242.68,336.2,114.69,541.33
					c-28.18,45.13-52.75,92.36-75.47,140.41l-155.61,328.19c-30.11,63.42-47.4,132.1-51,202.22l-68.22,1325.62
					c12.35,43.18,25.45,86.03,39.23,128.53l75.52-1467.28c3.6-70.12,20.89-138.8,51-202.22l155.61-328.19
					c22.72-48.05,47.29-95.29,75.47-140.41C2252.88,1044.15,2169.59,795.88,2010.2,707.95z"></path>
			</g>
		</g>
		<g>
			<g>
				<path class="st2" d="M1767.28,3403.51c-6.9,0-13.15-4.44-15.32-11.16c-146.92-454.12-219.21-952.99-214.87-1482.74
					c0.27-27.14,13.96-52.33,36.62-67.42l136.11-90.22c8.52-5.63,15.31-13.45,19.64-22.63l179.53-379.94
					c8.73-18.49,1.51-40.88-16.42-50.98c-94.61-53.11-163.98-144.51-190.96-251.36l-29.57,17.65c-10.12,6.04-22.66,6.9-33.54,2.3
					c-10.95-4.62-18.79-13.89-21.53-25.41c-6.38-27.24-8.13-57.26-8.48-77.65c-0.21-11.04,4.51-21.53,12.97-28.75
					c8.49-7.24,19.67-10.25,30.62-8.3l37.28,6.68c1.77-57.51,15.31-115.15,40.27-171.39c38.02-85.32,129.64-123.23,227.99-94.34
					c0.82,0.24,1.62,0.55,2.4,0.92c1.73,0.83,3.49,1.64,5.29,2.44c16.11,5.03,32.06,11.67,47.43,19.73
					c1.82,0.97,3.57,1.95,5.32,2.93c82.6,45.59,145.28,130.61,171.98,233.3c29.37,112.94,11.1,230.37-51.47,330.64
					c-24.82,39.75-49.21,85.14-74.58,138.77l-155.62,328.21c-29.31,61.74-45.95,127.73-49.47,196.14l-75.52,1467.29
					c-0.4,7.76-6.28,14.14-13.99,15.15C1768.68,3403.46,1767.97,3403.51,1767.28,3403.51z M1704.09,1012.71
					c3.73,0,7.47,0.73,10.99,2.21c8.3,3.48,14.5,10.78,16.6,19.5c23.96,100.35,88.35,186.33,176.67,235.9
					c32.61,18.36,45.68,59.14,29.77,92.84L1758.6,1743.1c-6.85,14.51-17.57,26.88-31,35.75l-136.06,90.19
					c-13.74,9.15-22.06,24.43-22.22,40.86c-4.04,492.98,58.67,958.9,186.52,1386.46l70.88-1377.08
					c3.73-72.64,21.41-142.72,52.54-208.3l155.6-328.19c25.9-54.76,50.88-101.23,76.37-142.05
					c57.83-92.69,74.74-201.17,47.61-305.46c-24.49-94.18-81.51-171.9-156.42-213.22c-0.03-0.02-0.06-0.03-0.1-0.05
					c-1.55-0.87-3.11-1.74-4.65-2.56c-13.84-7.25-28.27-13.23-42.81-17.71c-0.6-0.19-1.19-0.41-1.77-0.66
					c-1.96-0.86-3.88-1.75-5.76-2.63c-81.71-23.49-157.26,7.3-188.26,76.86c-23.86,53.75-36.52,108.77-37.61,163.52
					c-0.18,8.33-3.97,16.09-10.4,21.35c-6.43,5.25-14.79,7.42-22.96,5.95l-41.72-7.48c-1.96-0.37-3.36,0.54-4.02,1.09
					c-0.77,0.66-1.69,1.83-1.66,3.64c0.32,18.85,1.9,46.41,7.62,70.83c0.43,1.8,1.71,2.69,2.71,3.11c0.87,0.37,2.6,0.83,4.47-0.3
					l34.06-20.32C1693.99,1014.05,1699.03,1012.71,1704.09,1012.71z M1973.88,1223.08c-33.25,0-67.42-17.16-98.18-49.77
					c-35.23-37.34-62.25-91.18-76.07-151.58c-13.83-60.44-12.92-120.68,2.58-169.63c16.44-51.91,47.35-85.51,87.06-94.59
					c39.67-9.1,82.1,7.74,119.46,47.37c35.22,37.35,62.22,91.2,76.05,151.63v0c29.65,129.85-9.7,245.88-89.6,264.16
					C1988.16,1222.28,1981.04,1223.08,1973.88,1223.08z M1910.42,787.36c-4.73,0-9.39,0.52-13.96,1.56
					c-28.11,6.44-50.67,32.32-63.52,72.9c-13.79,43.55-14.46,97.79-1.89,152.72c12.56,54.88,36.74,103.41,68.09,136.65
					c29.21,30.97,60.75,44.46,88.85,38.06c60.2-13.77,90.14-117.07,65.36-225.56v0c-12.57-54.91-36.75-103.46-68.08-136.7
					C1960.83,801.06,1934.74,787.36,1910.42,787.36z"></path>
			</g>
		</g>
		<g>
			<g>
				<path class="st35" d="M1779.67,1867.66c-10.61-19-30.04-31.49-51.79-33.39l-162.68-13.93c-13.04-1.12-25.58-5.79-36.19-13.51
					l-339.63-247.38c-23.53-17.14-29.66-49.51-14.24-74.18c97.42-155.6,77.75-383.75-110.14-527.38
					c-18.7-14.26-32.22-34.45-36.82-57.48c-21.63-108.49-81.3-186.04-194.22-237.46c-116.03-43.67-160.7,74.99-44.66,118.66
					c82.38,19.56,119.73,112.74,47.29,207.14c-139.39,143.16-107.2,442.58,124.78,573.32c46.33,26.11,90.54,55.78,133.51,87.02
					l293.89,213.46c56.8,41.24,104.91,93.25,141.7,153.03l94.67,153.91l0.01,0.05l674.9,1097.61
					c-11.82-62.47-25.13-124.86-39.92-187.17C2163.5,2673.2,2003.21,2269.15,1779.67,1867.66z M1057.11,1459.23
					c-69.18,19.52-152.15-60.1-185.36-177.78c-33.22-117.72-4.09-228.93,65.08-248.45c69.18-19.52,152.19,60.04,185.41,177.76
					C1155.45,1328.44,1126.29,1439.71,1057.11,1459.23z"></path>
			</g>
		</g>
		<g class="st4">
			<g>
				<path class="st5" d="M1779.67,1867.66c-10.61-19-30.04-31.49-51.79-33.39l-162.68-13.93c-13.04-1.12-25.58-5.79-36.19-13.51
					l-339.63-247.38c-23.53-17.14-29.66-49.51-14.24-74.18c97.42-155.6,77.75-383.75-110.14-527.38
					c-18.7-14.26-32.22-34.45-36.82-57.48c-21.63-108.49-81.3-186.04-194.22-237.46c-66.83-25.18-110.01,3.58-112.41,40.76
					c19.48-12.64,50.17-16.06,88.71-1.53c112.92,51.42,172.59,128.97,194.22,237.46c4.6,23.04,18.11,43.23,36.82,57.48
					c187.89,143.63,207.56,371.78,110.14,527.38c-15.42,24.67-9.3,57.05,14.24,74.18l339.63,247.38
					c10.61,7.72,23.14,12.39,36.19,13.51l162.68,13.93c21.75,1.9,41.18,14.39,51.79,33.39
					c223.54,401.49,383.83,805.54,480.48,1212.31c5.58,23.54,10.94,47.09,16.08,70.65l47.54,77.29
					c-11.82-62.47-25.13-124.86-39.92-187.17C2163.5,2673.2,2003.21,2269.15,1779.67,1867.66z M1057.11,1459.23
					c-69.18,19.52-152.15-60.1-185.36-177.78c-19.55-69.28-17.49-136.34,1.67-183.78c-39.3,43.52-51.26,131.29-25.37,223.01
					c33.21,117.67,116.18,197.3,185.36,177.78c28.49-8.04,50.2-31.58,63.55-64.77C1085.82,1446.05,1072.41,1454.91,1057.11,1459.23z
					"></path>
			</g>
		</g>
		<g class="st4">
			<g>
				<path class="st5" d="M2228.92,3125.77c14.79,62.31,59.33,78.89,71.15,141.36l-674.9-1097.61l-0.01-0.05l24.26-2.49
					c17.87-2.2,35.27,6.71,43.94,22.49l579.53,950.65C2272.89,3140.11,2228.84,3125.68,2228.92,3125.77z"></path>
			</g>
		</g>
		<g>
			<g>
				<path class="st2" d="M2300.08,3283.25c-5.47,0-10.73-2.79-13.73-7.68L1516.75,2024c-35.91-58.33-82.15-108.28-137.44-148.43
					l-293.89-213.46c-48-34.89-91.16-63.03-131.96-86.02c-115.98-65.37-193.23-177.5-211.94-307.64
					c-16.04-111.58,14.93-220,82.84-290.26c31.56-41.48,42.24-86.09,29.29-122.5c-10.43-29.33-35.24-50.62-68.08-58.42
					c-0.66-0.16-1.32-0.36-1.95-0.6c-43.64-16.43-71.83-45-77.35-78.39c-3.93-23.82,4.86-47.18,23.52-62.5
					c26.16-21.47,66.2-24.37,109.84-7.94c0.34,0.13,0.67,0.26,1,0.42c115.34,52.52,179.95,131.63,203.34,248.97
					c3.7,18.52,14.63,35.51,30.78,47.82c91.82,70.19,149.97,163.3,168.18,269.29c16.78,97.65-2.45,196.9-54.15,279.46
					c-10.91,17.44-6.49,40.55,10.06,52.6l339.64,247.38c8.22,5.99,17.93,9.61,28.08,10.48l162.67,13.93
					c27.17,2.38,51.27,17.92,64.49,41.59c0,0,0,0.01,0.01,0.01c257.75,462.9,433.43,935.38,522.16,1404.32
					c1.45,7.64-2.77,15.22-10.02,18.03C2303.98,3282.9,2302.02,3283.25,2300.08,3283.25z M794.07,766.17
					c43.16,10.58,75.91,39.23,89.95,78.73c16.75,47.12,4.12,103.12-34.65,153.65c-0.39,0.5-0.8,0.98-1.24,1.44
					c-61.46,63.12-89.39,161.77-74.71,263.89c17.27,120.16,88.66,223.73,195.86,284.15c41.89,23.6,86.07,52.4,135.08,88.02
					l293.88,213.46c58.72,42.64,107.83,95.67,145.96,157.62l722.28,1174.62c-92.73-436.49-261.02-875.45-500.9-1306.24
					c-8.01-14.33-22.62-23.74-39.11-25.18l-162.65-13.93c-16.01-1.37-31.33-7.09-44.3-16.54l-339.63-247.38
					c-30.16-21.96-38.25-64.02-18.41-95.76c89.39-142.77,81.59-362.43-106.26-506.03c-22.38-17.06-37.6-40.9-42.83-67.13
					c-21.16-106.13-79.82-177.87-184.59-225.72c-29.46-10.97-49.63-9.05-61.39-5.49c-13.17,3.99-22.65,12.11-26.7,22.85
					c-4.04,10.75-2.27,23.1,5,34.79C751.16,740.36,764.96,755.02,794.07,766.17z M1035.46,1478.33c-31.75,0-64.9-15.4-95.67-44.91
					c-37.05-35.53-66.72-87.95-83.54-147.59c-36.18-128.2-2.7-246.07,76.21-268.34c78.96-22.26,169.13,60.71,205.3,188.9
					c16.83,59.63,18.93,119.83,5.91,169.5c-13.81,52.69-42.99,87.79-82.17,98.85C1052.98,1477.14,1044.27,1478.33,1035.46,1478.33z
					 M958.19,1046.2c-5.77,0-11.45,0.76-16.98,2.32c-59.47,16.78-84.17,121.45-53.95,228.56c15.29,54.19,41.87,101.46,74.84,133.08
					c30.72,29.46,62.91,41.38,90.63,33.56c27.73-7.83,48.95-34.82,59.75-76.01c11.58-44.19,9.54-98.38-5.75-152.57
					C1079.32,1118.01,1014.42,1046.2,958.19,1046.2z"></path>
			</g>
		</g>
		<g>
			<g>
				<circle class="st2" cx="1701.36" cy="2025.73" r="59.09"></circle>
			</g>
		</g>
		<g>
			<g>
				<path class="st2" d="M2005.23,718.66c-2.19,0-4.41-0.54-6.46-1.67c-16.19-8.9-32.83-15.89-49.48-20.78
					c-7.12-2.08-11.2-9.55-9.11-16.67c2.09-7.11,9.55-11.2,16.67-9.11c18.51,5.43,36.97,13.17,54.87,23.01
					c6.5,3.57,8.87,11.74,5.3,18.24C2014.56,716.14,2009.97,718.66,2005.23,718.66z"></path>
			</g>
		</g>
	</g>
</g>
</svg>
